<?xml version="1.0" encoding="UTF-8" standalone="no"?>
<svg
   xmlns:osb="http://www.openswatchbook.org/uri/2009/osb"
   xmlns:dc="http://purl.org/dc/elements/1.1/"
   xmlns:cc="http://creativecommons.org/ns#"
   xmlns:rdf="http://www.w3.org/1999/02/22-rdf-syntax-ns#"
   xmlns:svg="http://www.w3.org/2000/svg"
   xmlns="http://www.w3.org/2000/svg"
   xmlns:sodipodi="http://sodipodi.sourceforge.net/DTD/sodipodi-0.dtd"
   xmlns:inkscape="http://www.inkscape.org/namespaces/inkscape"
   width="21.166666mm"
   height="24.442207mm"
   viewBox="0 0 21.166666 24.442207"
   version="1.1"
   id="svg8"
   inkscape:version="1.0.1 (3bc2e813f5, 2020-09-07)"
   sodipodi:docname="fogTileSelected.svg">
  <defs
     id="defs2">
    <linearGradient
       id="linearGradient2847"
       osb:paint="solid">
      <stop
         style="stop-color:#3e3e3e;stop-opacity:1;"
         offset="0"
         id="stop2845" />
    </linearGradient>
    <linearGradient
       id="linearGradient865"
       osb:paint="gradient">
      <stop
         style="stop-color:#404040;stop-opacity:1;"
         offset="0"
         id="stop861" />
      <stop
         style="stop-color:#404040;stop-opacity:0;"
         offset="1"
         id="stop863" />
    </linearGradient>
  </defs>
  <sodipodi:namedview
     id="base"
     pagecolor="#ffffff"
     bordercolor="#666666"
     borderopacity="1.0"
     inkscape:pageopacity="0.0"
     inkscape:pageshadow="2"
     inkscape:zoom="5.6"
     inkscape:cx="35.437509"
     inkscape:cy="48.834218"
     inkscape:document-units="mm"
     inkscape:current-layer="layer1"
     inkscape:document-rotation="0"
     showgrid="false"
     inkscape:snap-page="true"
     inkscape:window-width="1087"
     inkscape:window-height="986"
     inkscape:window-x="199"
     inkscape:window-y="54"
     inkscape:window-maximized="0" />
  <metadata
     id="metadata5">
    <rdf:RDF>
      <cc:Work
         rdf:about="">
        <dc:format>image/svg+xml</dc:format>
        <dc:type
           rdf:resource="http://purl.org/dc/dcmitype/StillImage" />
        <dc:title></dc:title>
      </cc:Work>
    </rdf:RDF>
  </metadata>
  <g
     inkscape:label="Layer 1"
     inkscape:groupmode="layer"
     id="layer1"
     transform="translate(-78.619047,-56.731359)">
    <path
       sodipodi:type="star"
       style="fill:#3e3e3e;stroke-width:0.26829079;fill-opacity:1;stroke-miterlimit:4;stroke-dasharray:none;opacity:0.97096774"
       id="path10"
       sodipodi:sides="6"
       sodipodi:cx="105.83333"
       sodipodi:cy="144.3869"
       sodipodi:r1="99.202728"
       sodipodi:r2="85.912086"
       sodipodi:arg1="0.51820093"
       sodipodi:arg2="1.0417997"
       inkscape:flatsided="true"
       inkscape:rounded="0"
       inkscape:randomized="0"
       d="M 192.0119,193.52381 106.36881,243.58818 20.190236,194.45128 19.654758,95.249998 105.29785,45.185619 191.47642,94.322522 Z"
       transform="matrix(0.12280702,0,0,-0.12319502,76.205305,86.74021)" />
    <path
       style="fill:none;stroke:#494949;stroke-width:0.265;stroke-linecap:butt;stroke-linejoin:miter;stroke-miterlimit:4;stroke-dasharray:none;stroke-opacity:1"
       d="m 81.018035,63.53493 c -0.228935,-0.135084 0.279511,-0.162531 0.377715,-0.236235 0.140436,-0.105408 -0.03853,-0.505259 0.2518,-0.614211 0.02969,-0.01114 0.09623,0.01114 0.125913,0 0.169696,-0.06368 0.03915,-0.149084 0.251799,-0.188989 0.339915,-0.06378 1.479675,0.0708 1.762671,0 0.09876,-0.02471 0.141583,-0.07795 0.2518,-0.09449 0.171535,-0.02575 0.925545,-0.02597 1.133146,0 0.459027,0.05742 0.09695,0.03095 0.377715,0.188988 0.02318,0.0131 0.09623,-0.01114 0.125913,0 0.02969,0.01114 -0.02969,0.03611 0,0.04725 0.03366,0.01263 0.70154,0.178876 0.755431,0.188988 0.434766,0.08158 2.014481,0.275641 2.014481,0.425223"
       id="path862" />
    <path
       style="fill:none;stroke:#494949;stroke-width:0.265;stroke-linecap:butt;stroke-linejoin:miter;stroke-miterlimit:4;stroke-dasharray:none;stroke-opacity:1"
       d="m 89.601571,67.125703 c 0.111371,-0.403193 0.571261,-0.729959 0.869749,-1.086681 0.05119,-0.06118 0.08685,-0.253535 0.237204,-0.283482 0.149243,-0.02973 0.558502,0.04172 0.632546,0.04725 0.104611,0.0078 0.241726,-0.04454 0.316273,0 0.01864,0.01114 -0.02358,0.0402 0,0.04725 0.04714,0.01409 0.12086,-0.02227 0.158129,0 0.05894,0.03522 0.03618,0.09904 0.07907,0.141742 0.145244,0.144652 0.48488,0.32361 0.711613,0.425223 0.122936,0.0551 0.254085,0.105567 0.39534,0.141741 0.07268,0.01861 0.181296,-0.03341 0.237205,0 0.04167,0.0249 0.0374,0.06959 0.07907,0.09449 0.145411,0.08689 0.537401,0.131155 0.711613,0.188988 0.171825,0.05704 0.487686,0.202784 0.711614,0.236235 0.533117,0.07964 1.23123,-0.03375 1.739498,-0.09449"
       id="path864" />
    <path
       style="fill:none;stroke:#484848;stroke-width:0.265;stroke-linecap:butt;stroke-linejoin:miter;stroke-miterlimit:4;stroke-dasharray:none;stroke-opacity:1"
       d="m 80.761991,67.03121 c 0.01851,-0.02675 0.301559,-0.475981 0.435848,-0.566964 0.15031,-0.101844 0.695461,-0.04725 0.871697,-0.04725 0.116234,0 0.237353,0.0181 0.348678,0 0.464905,-0.0756 0.387421,-0.121792 0.697357,-0.188988 0.170623,-0.03699 0.373478,-0.0366 0.523017,-0.09449 0.133761,-0.05178 0.222406,-0.131954 0.348678,-0.188988 0.221379,-0.09999 1.130017,-0.237388 1.394715,-0.141741 0.379973,0.1373 0.585913,0.493404 0.784526,0.708705"
       id="path866" />
    <path
       style="fill:none;stroke:#494949;stroke-width:0.265;stroke-linecap:butt;stroke-linejoin:miter;stroke-miterlimit:4;stroke-dasharray:none;stroke-opacity:1"
       d="m 89.38852,74.260006 c 0.678775,-0.184475 0.358005,-0.09976 1.477689,-0.377977 0.636808,-0.158234 1.260833,-0.332974 1.912301,-0.47247 0.333451,-0.0714 0.71366,-0.218478 1.043075,-0.141741 1.448744,0.337486 0.792162,0.176812 1.999223,0.614211 0.05391,0.01953 0.133382,0.01975 0.173838,0.04725 0.260542,0.177023 0.440104,0.473664 0.869228,0.566965 0.222963,0.04848 1.393465,0 1.651534,0"
       id="path868" />
    <path
       style="fill:none;stroke:#494949;stroke-width:0.265;stroke-linecap:butt;stroke-linejoin:miter;stroke-miterlimit:4;stroke-dasharray:none;stroke-opacity:1"
       d="m 81.692348,72.511865 c 0.840196,-0.21653 1.756082,-0.363557 2.610085,-0.566964 0.153974,-0.03668 0.268405,-0.101227 0.417613,-0.141741 0.108608,-0.02949 0.878479,-0.01665 1.044033,0 1.150771,0.115727 0.166304,0.03763 1.044032,0.236235 0.06225,0.01409 0.14655,-0.01409 0.208798,0 0.03114,0.007 -0.02462,0.03611 0,0.04725 0.100145,0.04532 0.77567,0 0.93963,0"
       id="path870" />
    <path
       style="fill:none;stroke:#494949;stroke-width:0.265;stroke-linecap:butt;stroke-linejoin:miter;stroke-miterlimit:4;stroke-dasharray:none;stroke-opacity:1"
       d="m 93.463519,70.621984 c 0.951494,-0.0091 3.394648,-0.675276 4.144782,-0.566964 0.384631,0.05554 0.663183,0.236234 1.090731,0.236234"
       id="path872" />
    <path
       style="fill:none;stroke:#494949;stroke-width:0.265;stroke-linecap:butt;stroke-linejoin:miter;stroke-miterlimit:4;stroke-dasharray:none;stroke-opacity:1"
       d="m 91.09403,76.590602 c -0.56865,-0.184475 -0.299922,-0.09976 -1.237948,-0.377977 -0.533492,-0.158234 -1.056275,-0.332974 -1.602048,-0.47247 -0.279352,-0.0714 -0.597876,-0.218478 -0.873846,-0.141741 -1.213699,0.337486 -0.663642,0.176812 -1.674868,0.614211 -0.04516,0.01953 -0.111742,0.01975 -0.145635,0.04725 -0.218271,0.177023 -0.368701,0.473664 -0.728204,0.566965 -0.186789,0.04848 -1.167389,0 -1.383588,0"
       id="path3222" />
    <path
       style="fill:none;stroke:#494949;stroke-width:0.265001;stroke-linecap:butt;stroke-linejoin:miter;stroke-miterlimit:4;stroke-dasharray:none;stroke-opacity:1"
       d="m 84.097245,69.204573 c 1.365717,-0.0091 4.872471,-0.675276 5.949168,-0.566964 0.552076,0.05554 0.951893,0.236234 1.565569,0.236234"
       id="path3224" />
    <path
       style="fill:none;stroke:#494949;stroke-width:0.265;stroke-linecap:butt;stroke-linejoin:miter;stroke-miterlimit:4;stroke-dasharray:none;stroke-opacity:1"
       d="m 94.104504,59.760867 c 0.250619,0.135084 -0.305987,0.162531 -0.413493,0.236235 -0.153738,0.105408 0.04218,0.505259 -0.27565,0.614211 -0.0325,0.01114 -0.105345,-0.01114 -0.13784,0 -0.185769,0.06368 -0.04286,0.149084 -0.275649,0.188989 -0.372112,0.06378 -1.61983,-0.0708 -1.929631,0 -0.108115,0.02471 -0.154994,0.07795 -0.275651,0.09449 -0.187783,0.02575 -1.013213,0.02597 -1.240478,0 -0.502506,-0.05742 -0.106133,-0.03095 -0.413492,-0.188988 -0.02537,-0.0131 -0.105345,0.01114 -0.137839,0 -0.0325,-0.01114 0.0325,-0.03611 0,-0.04725 -0.03685,-0.01263 -0.76799,-0.178876 -0.826986,-0.188988 -0.475947,-0.08158 -2.205293,-0.275641 -2.205293,-0.425223"
       id="path3226" />
    <path
       style="fill:none;stroke:#484848;stroke-width:0.265;stroke-linecap:butt;stroke-linejoin:miter;stroke-miterlimit:4;stroke-dasharray:none;stroke-opacity:1"
       d="m 99.313243,64.897679 c -0.01964,-0.01974 -0.320014,-0.351177 -0.462522,-0.418304 -0.159509,-0.07514 -0.738024,-0.03486 -0.925046,-0.03486 -0.123348,0 -0.25188,0.01335 -0.370018,0 -0.493358,-0.05578 -0.411132,-0.08986 -0.740036,-0.139435 -0.181066,-0.02729 -0.396336,-0.027 -0.555027,-0.06971 -0.141947,-0.0382 -0.236017,-0.09736 -0.370018,-0.139435 -0.234927,-0.07377 -1.199175,-0.175143 -1.480073,-0.104576 -0.403228,0.1013 -0.621772,0.364032 -0.832541,0.52288"
       id="path3228" />
    <path
       sodipodi:type="star"
       style="fill:#f2f20d;stroke-width:0.26829079;fill-opacity:1;stroke-miterlimit:4;stroke-dasharray:none;opacity:0.3"
       id="path854"
       sodipodi:sides="6"
       sodipodi:cx="105.83333"
       sodipodi:cy="144.3869"
       sodipodi:r1="99.202728"
       sodipodi:r2="85.912086"
       sodipodi:arg1="0.51820093"
       sodipodi:arg2="1.0417997"
       inkscape:flatsided="true"
       inkscape:rounded="0"
       inkscape:randomized="0"
       d="M 192.0119,193.52381 106.36881,243.58818 20.190236,194.45128 19.654758,95.249998 105.29785,45.185619 191.47642,94.322522 Z"
       transform="matrix(0.12280702,0,0,-0.12319502,76.205305,86.74021)" />
  </g>
</svg>
