<?xml version="1.0" encoding="UTF-8" standalone="no"?>
<svg
   xmlns:dc="http://purl.org/dc/elements/1.1/"
   xmlns:cc="http://creativecommons.org/ns#"
   xmlns:rdf="http://www.w3.org/1999/02/22-rdf-syntax-ns#"
   xmlns:svg="http://www.w3.org/2000/svg"
   xmlns="http://www.w3.org/2000/svg"
   xmlns:sodipodi="http://sodipodi.sourceforge.net/DTD/sodipodi-0.dtd"
   xmlns:inkscape="http://www.inkscape.org/namespaces/inkscape"
   width="21.166666mm"
   height="24.442207mm"
   viewBox="0 0 21.166666 24.442207"
   version="1.1"
   id="svg8"
   inkscape:version="1.0.1 (3bc2e813f5, 2020-09-07)"
   sodipodi:docname="fogTile.svg">
  <defs
     id="defs2" />
  <sodipodi:namedview
     id="base"
     pagecolor="#ffffff"
     bordercolor="#666666"
     borderopacity="1.0"
     inkscape:pageopacity="0.0"
     inkscape:pageshadow="2"
     inkscape:zoom="5.6"
     inkscape:cx="40.370599"
     inkscape:cy="67.010838"
     inkscape:document-units="mm"
     inkscape:current-layer="layer1"
     inkscape:document-rotation="0"
     showgrid="false"
     inkscape:snap-page="true"
     inkscape:window-width="1170"
     inkscape:window-height="986"
     inkscape:window-x="199"
     inkscape:window-y="54"
     inkscape:window-maximized="0" />
  <metadata
     id="metadata5">
    <rdf:RDF>
      <cc:Work
         rdf:about="">
        <dc:format>image/svg+xml</dc:format>
        <dc:type
           rdf:resource="http://purl.org/dc/dcmitype/StillImage" />
        <dc:title></dc:title>
      </cc:Work>
    </rdf:RDF>
  </metadata>
  <g
     inkscape:label="Layer 1"
     inkscape:groupmode="layer"
     id="layer1"
     transform="translate(-78.619047,-56.731359)">
    <path
       sodipodi:type="star"
       style="fill:#e6e6e6;stroke-width:0.26829079;fill-opacity:1;stroke-miterlimit:4;stroke-dasharray:none"
       id="path10"
       sodipodi:sides="6"
       sodipodi:cx="105.83333"
       sodipodi:cy="144.3869"
       sodipodi:r1="99.202728"
       sodipodi:r2="85.912086"
       sodipodi:arg1="0.51820093"
       sodipodi:arg2="1.0417997"
       inkscape:flatsided="true"
       inkscape:rounded="0"
       inkscape:randomized="0"
       d="M 192.0119,193.52381 106.36881,243.58818 20.190236,194.45128 19.654758,95.249998 105.29785,45.185619 191.47642,94.322522 Z"
       transform="matrix(0.12280702,0,0,-0.12319502,76.205305,86.74021)" />
    <path
       style="fill:none;stroke:#e0e0e0;stroke-width:0.165;stroke-linecap:butt;stroke-linejoin:miter;stroke-miterlimit:4;stroke-dasharray:none;stroke-opacity:1"
       d="m 79.138764,64.290883 c -0.106899,-0.17365 -0.131279,-0.351652 -0.04725,-0.519718 0.007,-0.01409 -0.01114,-0.03611 0,-0.04725 0.01114,-0.01114 0.03611,0.01114 0.04725,0 0.0198,-0.0198 0.03293,-0.113106 0.04725,-0.141741 0.03684,-0.07368 0.349289,-0.07256 0.425224,-0.04725 0.04725,0.01575 0.106525,0.01203 0.141741,0.04725 0.01719,0.01719 0.10306,0.22767 0.188988,0.141741 0.05996,-0.05996 -0.0582,-0.744998 0,-0.803199 0.0249,-0.0249 0.06959,-0.02235 0.09449,-0.04725 0.01575,-0.01575 0.0315,-0.125992 0.04725,-0.141741 0.02227,-0.02227 0.063,0 0.09449,0 0.332465,0 0.149904,0.02771 0.377976,0.141741 0.01409,0.007 0.03611,-0.01114 0.04725,0 0.09776,0.09776 -0.149384,-0.0038 0.04725,0.09449 0.06521,0.03261 0.171506,0.01488 0.236235,0.04725 0.01409,0.007 -0.01311,0.03851 0,0.04725 0.08947,0.05965 0.234599,0.06245 0.330729,0.09449 0.04195,0.01398 0.231576,0.09915 0.283483,0.04725 0.07231,-0.07231 -0.07199,-0.967446 0,-1.039434 0.0315,-0.01575 0.063,-0.0315 0.09449,-0.04725 0,-0.01575 -0.01114,-0.03611 0,-0.04725 0.01808,-0.01808 0.219664,0 0.236235,0 0.119745,0 0.410845,-0.05444 0.519717,0 0.07611,0.03806 0.109974,0.02091 0.188988,0.04725 0.05387,0.01796 0.08787,0.07654 0.141741,0.09449 0.09976,0.03325 0.22157,0.04725 0.330729,0.04725 0.01657,0 0.21816,0.01808 0.236236,0 0.07616,-0.07617 0.07034,-0.664623 0.04725,-0.8032 -0.01405,-0.08429 -0.09596,-0.280549 -0.04725,-0.377976 0.106194,-0.212389 0.545617,-0.176038 0.708705,-0.09449 0.01677,0.0084 0.363769,0.453638 0.425223,0.330729 0.105519,-0.211037 -0.138277,-0.617675 0.04725,-0.803199 0.149526,-0.149526 0.379251,-0.189307 0.566964,-0.236235 0.04931,-0.01233 0.246145,0.03734 0.283482,0 0.05568,-0.05568 -0.02163,-0.16052 0,-0.236236 0.02222,-0.07778 0.201355,-0.384159 0.283483,-0.425223 0.07268,-0.03634 0.281718,0.09802 0.283482,0.09449 0.09867,-0.197332 0.02601,-0.134828 0.04725,-0.283482 0.04837,-0.338586 0.07868,-0.49492 0.377976,-0.708705 0.356986,-0.25499 0.614901,0.09495 0.897694,0.283482 0.165063,0.110042 0.312523,0.210769 0.47247,0.330729 0.03435,0.02576 0.232689,0.09804 0.283482,0.04725 0.178899,-0.178899 0.07397,-0.80939 0.141741,-0.94494 0.158149,-0.316299 0.356588,-0.566965 0.755952,-0.566965 0.063,0 0.144443,-0.04454 0.188988,0 0.03927,0.03927 0.03391,0.283483 0.09449,0.283483 0.0315,0 -0.02227,-0.07222 0,-0.09449 0.03133,-0.03133 0.292826,0 0.33073,0"
       id="path841" />
    <path
       style="fill:none;stroke:#e0e0e0;stroke-width:0.165;stroke-linecap:butt;stroke-linejoin:miter;stroke-miterlimit:4;stroke-dasharray:none;stroke-opacity:1"
       d="m 99.276123,73.87055 c 0.106899,0.17365 0.131279,0.351652 0.04725,0.519718 -0.007,0.01409 0.01114,0.03611 0,0.04725 -0.01114,0.01114 -0.03611,-0.01114 -0.04725,0 -0.0198,0.0198 -0.03293,0.113106 -0.04725,0.141741 -0.03684,0.07368 -0.349289,0.07256 -0.425224,0.04725 -0.04725,-0.01575 -0.106525,-0.01203 -0.141741,-0.04725 -0.01719,-0.01719 -0.10306,-0.22767 -0.188988,-0.141741 -0.05996,0.05996 0.0582,0.744998 0,0.803199 -0.0249,0.0249 -0.06959,0.02235 -0.09449,0.04725 -0.01575,0.01575 -0.0315,0.125992 -0.04725,0.141741 -0.02227,0.02227 -0.063,0 -0.09449,0 -0.332465,0 -0.149904,-0.02771 -0.377976,-0.141741 -0.01409,-0.007 -0.03611,0.01114 -0.04725,0 -0.09776,-0.09776 0.149384,0.0038 -0.04725,-0.09449 -0.06521,-0.03261 -0.171506,-0.01488 -0.236235,-0.04725 -0.01409,-0.007 0.01311,-0.03851 0,-0.04725 -0.08947,-0.05965 -0.234599,-0.06245 -0.330729,-0.09449 -0.04195,-0.01398 -0.231576,-0.09915 -0.283483,-0.04725 -0.07231,0.07231 0.07199,0.967446 0,1.039434 -0.0315,0.01575 -0.063,0.0315 -0.09449,0.04725 0,0.01575 0.01114,0.03611 0,0.04725 -0.01808,0.01808 -0.219664,0 -0.236235,0 -0.119745,0 -0.410845,0.05444 -0.519717,0 -0.07611,-0.03806 -0.109974,-0.02091 -0.188988,-0.04725 -0.05387,-0.01796 -0.08787,-0.07654 -0.141741,-0.09449 -0.09976,-0.03325 -0.22157,-0.04725 -0.330729,-0.04725 -0.01657,0 -0.21816,-0.01808 -0.236236,0 -0.07616,0.07617 -0.07034,0.664623 -0.04725,0.8032 0.01405,0.08429 0.09596,0.280549 0.04725,0.377976 -0.106194,0.212389 -0.545617,0.176038 -0.708705,0.09449 -0.01677,-0.0084 -0.363769,-0.453638 -0.425223,-0.330729 -0.105519,0.211037 0.138277,0.617675 -0.04725,0.803199 -0.149526,0.149526 -0.379251,0.189307 -0.566964,0.236235 -0.04931,0.01233 -0.246145,-0.03734 -0.283482,0 -0.05568,0.05568 0.02163,0.16052 0,0.236236 -0.02222,0.07778 -0.201355,0.384159 -0.283483,0.425223 -0.07268,0.03634 -0.281718,-0.09802 -0.283482,-0.09449 -0.09867,0.197332 -0.02601,0.134828 -0.04725,0.283482 -0.04837,0.338586 -0.220421,0.305932 -0.519717,0.519717 -0.356986,0.25499 -0.47316,0.09404 -0.755953,-0.09449 -0.165063,-0.110042 -0.312523,-0.210769 -0.47247,-0.330729 -0.03435,-0.02576 -0.232689,-0.09804 -0.283482,-0.04725 -0.178899,0.178899 -0.07397,0.80939 -0.141741,0.94494 -0.158149,0.316299 -0.356588,0.566965 -0.755952,0.566965 -0.063,0 -0.144443,0.04454 -0.188988,0 -0.03927,-0.03927 -0.03391,-0.283483 -0.09449,-0.283483 -0.0315,0 0.02227,0.07222 0,0.09449 -0.03133,0.03133 -0.292826,0 -0.33073,0"
       id="path843"
       sodipodi:nodetypes="ccsscssssssscsccsscccsssscsscccssssssccsssccssssc" />
    <path
       style="fill:none;stroke:#e0e0e0;stroke-width:0.165;stroke-linecap:butt;stroke-linejoin:miter;stroke-miterlimit:4;stroke-dasharray:none;stroke-opacity:1"
       d="m 79.081393,73.634315 c -0.106899,0.17365 -0.131279,0.351652 -0.04725,0.519718 0.007,0.01409 -0.01114,0.03611 0,0.04725 0.01114,0.01114 0.03611,-0.01114 0.04725,0 0.0198,0.0198 0.03293,0.113106 0.04725,0.141741 0.03684,0.07368 0.349289,0.07256 0.425224,0.04725 0.04725,-0.01575 0.106525,-0.01203 0.141741,-0.04725 0.01719,-0.01719 0.10306,-0.22767 0.188988,-0.141741 0.05996,0.05996 -0.0582,0.744998 0,0.803199 0.0249,0.0249 0.06959,0.02235 0.09449,0.04725 0.01575,0.01575 0.0315,0.125992 0.04725,0.141741 0.02227,0.02227 0.063,0 0.09449,0 0.332465,0 0.149904,-0.02771 0.377976,-0.141741 0.01409,-0.007 0.03611,0.01114 0.04725,0 0.09776,-0.09776 -0.149384,0.0038 0.04725,-0.09449 0.06521,-0.03261 0.171506,-0.01488 0.236235,-0.04725 0.01409,-0.007 -0.01311,-0.03851 0,-0.04725 0.08947,-0.05965 0.234599,-0.06245 0.330729,-0.09449 0.04195,-0.01398 0.231576,-0.09915 0.283483,-0.04725 0.07231,0.07231 -0.07199,0.967446 0,1.039434 0.0315,0.01575 0.063,0.0315 0.09449,0.04725 0,0.01575 -0.01114,0.03611 0,0.04725 0.01808,0.01808 0.219664,0 0.236235,0 0.119745,0 0.410845,0.05444 0.519717,0 0.07611,-0.03806 0.109974,-0.02091 0.188988,-0.04725 0.05387,-0.01796 0.08787,-0.07654 0.141741,-0.09449 0.09976,-0.03325 0.22157,-0.04725 0.330729,-0.04725 0.01657,0 0.21816,-0.01808 0.236236,0 0.07616,0.07617 0.07034,0.664623 0.04725,0.8032 -0.01405,0.08429 -0.09596,0.280549 -0.04725,0.377976 0.106194,0.212389 0.545617,0.176038 0.708705,0.09449 0.01677,-0.0084 0.363769,-0.453638 0.425223,-0.330729 0.105519,0.211037 -0.138277,0.617675 0.04725,0.803199 0.149526,0.149526 0.379251,0.189307 0.566964,0.236235 0.04931,0.01233 0.246145,-0.03734 0.283482,0 0.05568,0.05568 -0.02163,0.16052 0,0.236236 0.02222,0.07778 0.201355,0.384159 0.283483,0.425223 0.07268,0.03634 0.281718,-0.09802 0.283482,-0.09449 0.09867,0.197332 0.02601,0.134828 0.04725,0.283482 0.04837,0.338586 0.07868,0.49492 0.377976,0.708705 0.356986,0.25499 0.614901,-0.09495 0.897694,-0.283482 0.165063,-0.110042 0.312523,-0.210769 0.47247,-0.330729 0.03435,-0.02576 0.232689,-0.09804 0.283482,-0.04725 0.178899,0.178899 0.07397,0.80939 0.141741,0.94494 0.158149,0.316299 0.356588,0.566965 0.755952,0.566965 0.063,0 0.144443,0.04454 0.188988,0 0.03927,-0.03927 0.03391,-0.283483 0.09449,-0.283483 0.0315,0 -0.02227,0.07222 0,0.09449 0.03133,0.03133 0.292826,0 0.33073,0"
       id="path854" />
    <path
       style="fill:none;stroke:#e0e0e0;stroke-width:0.165;stroke-linecap:butt;stroke-linejoin:miter;stroke-miterlimit:4;stroke-dasharray:none;stroke-opacity:1"
       d="m 99.18727,64.290883 c 0.106899,-0.17365 0.314626,-0.54064 0.230597,-0.708706 -0.007,-0.01409 0.01114,-0.03611 0,-0.04725 -0.01114,-0.01114 -0.03611,0.01114 -0.04725,0 -0.0198,-0.0198 -0.03293,-0.113106 -0.04725,-0.141741 -0.03684,-0.07368 -0.349289,-0.07256 -0.425224,-0.04725 -0.04725,0.01575 -0.106525,0.01203 -0.141741,0.04725 -0.01719,0.01719 -0.10306,0.22767 -0.188988,0.141741 -0.05996,-0.05996 0.0582,-0.744998 0,-0.803199 -0.0249,-0.0249 -0.06959,-0.02235 -0.09449,-0.04725 -0.01575,-0.01575 -0.0315,-0.125992 -0.04725,-0.141741 -0.02227,-0.02227 -0.063,0 -0.09449,0 -0.332465,0 -0.149904,0.02771 -0.377976,0.141741 -0.01409,0.007 -0.03611,-0.01114 -0.04725,0 -0.09776,0.09776 0.149384,-0.0038 -0.04725,0.09449 -0.06521,0.03261 -0.171506,0.01488 -0.236235,0.04725 -0.01409,0.007 0.01311,0.03851 0,0.04725 -0.08947,0.05965 -0.234599,0.06245 -0.330729,0.09449 -0.04195,0.01398 -0.231576,0.09915 -0.283483,0.04725 -0.07231,-0.07231 0.07199,-0.967446 0,-1.039434 -0.0315,-0.01575 -0.063,-0.0315 -0.09449,-0.04725 0,-0.01575 0.01114,-0.03611 0,-0.04725 -0.01808,-0.01808 -0.219664,0 -0.236235,0 -0.119745,0 -0.410845,-0.05444 -0.519717,0 -0.07611,0.03806 -0.109974,0.02091 -0.188988,0.04725 -0.05387,0.01796 -0.08787,0.07654 -0.141741,0.09449 -0.09976,0.03325 -0.22157,0.04725 -0.330729,0.04725 -0.01657,0 -0.21816,0.01808 -0.236236,0 -0.07616,-0.07617 -0.07034,-0.664623 -0.04725,-0.8032 0.01405,-0.08429 0.09596,-0.280549 0.04725,-0.377976 -0.106194,-0.212389 -0.545617,-0.176038 -0.708705,-0.09449 -0.01677,0.0084 -0.363769,0.453638 -0.425223,0.330729 -0.105519,-0.211037 0.138277,-0.617675 -0.04725,-0.803199 -0.149526,-0.149526 -0.379251,-0.189307 -0.566964,-0.236235 -0.04931,-0.01233 -0.246145,0.03734 -0.283482,0 -0.05568,-0.05568 0.02163,-0.16052 0,-0.236236 -0.02222,-0.07778 -0.201355,-0.384159 -0.283483,-0.425223 -0.07268,-0.03634 -0.281718,0.09802 -0.283482,0.09449 -0.09867,-0.197332 -0.02601,-0.134828 -0.04725,-0.283482 -0.04837,-0.338586 -0.125927,-0.258685 -0.425223,-0.47247 -0.356986,-0.25499 -0.567654,-0.141285 -0.850447,0.04725 -0.165063,0.110042 -0.312523,0.210769 -0.47247,0.330729 -0.03435,0.02576 -0.232689,0.09804 -0.283482,0.04725 -0.178899,-0.178899 -0.07397,-0.80939 -0.141741,-0.94494 -0.158149,-0.316299 -0.356588,-0.566965 -0.755952,-0.566965 -0.063,0 -0.144443,-0.04454 -0.188988,0 -0.03927,0.03927 -0.341016,0.165365 -0.401596,0.165365 -0.0315,0 0.329376,0.0459 0.307106,0.02363 -0.03133,-0.03133 -0.292826,0 -0.33073,0"
       id="path856"
       sodipodi:nodetypes="ccsscssssssscsccsscccsssscsccccssscssccsssccscssc" />
    <path
       style="fill:none;stroke:#e0e0e0;stroke-width:0.165;stroke-linecap:butt;stroke-linejoin:miter;stroke-miterlimit:4;stroke-dasharray:none;stroke-opacity:1"
       d="m 79.081393,73.634315 c 0.04584,0.115381 0.412816,-0.200041 0.293606,-0.319251 -0.044,-0.044 -0.04725,0.0037 -0.04725,-0.09449 0,-0.03797 0.02023,-0.15865 0,-0.188988 -0.05733,-0.08599 -0.329061,-0.285984 -0.236235,-0.425223 0.03907,-0.0586 0.130386,-0.05543 0.188988,-0.09449 0.187186,-0.124791 0.321186,-0.264866 0.236235,-0.519717 -0.06679,-0.200365 -0.327677,-0.185937 -0.47247,-0.33073 -0.05616,-0.05616 -0.186968,-0.47651 -0.141741,-0.566964 0.07779,-0.155571 0.315985,-0.232325 0.425223,-0.377976 0.104508,-0.139344 0.07723,-0.321933 0.141741,-0.47247 0.01755,-0.04094 0.06978,-0.05743 0.09449,-0.09449 0.06908,-0.103618 0.04725,-0.301379 0.04725,-0.425224 0,-0.211839 -0.217921,0.0077 -0.283482,-0.188988 -0.02804,-0.08411 -0.01921,-0.199373 -0.04725,-0.283482 -0.03002,-0.09006 -0.155708,-0.2083 -0.09449,-0.330729 0.05882,-0.117632 0.02467,-0.0054 0.09449,-0.04725 0.06752,-0.04051 0.120153,-0.103499 0.188988,-0.141741 0.28429,-0.157939 0.472471,-0.108898 0.472471,-0.47247 0,-0.04725 0.02113,-0.09948 0,-0.141741 -0.11099,-0.22198 -0.320283,-0.196349 -0.519718,-0.236236 -0.122393,-0.02448 -0.275302,-0.0904 -0.377976,-0.141741 -0.01409,-0.007 -0.0402,0.01409 -0.04725,0 -0.0033,-0.0065 -0.0045,-0.231702 0,-0.236235 0.03522,-0.03522 0.0972,-0.02497 0.141741,-0.04725 0.07043,-0.03522 0.09133,-0.128494 0.141741,-0.188988 l 0.141741,-0.141741 c 0.0315,-0.01575 0.06959,-0.02235 0.09449,-0.04725 0.06787,-0.06787 0.0912,-0.384561 0.04725,-0.47247 -0.06299,-0.125984 -0.645154,-0.213444 -0.566964,-0.330729 0.10104,-0.15156 0.08837,-0.345161 0.141741,-0.425223 0.0315,-0.04725 -0.01575,-0.0945 0,-0.141741 0.01451,-0.04353 0.06504,-0.08837 0.04725,-0.141742 -0.03374,-0.101234 -0.09449,-0.328103 -0.09449,-0.425223 0,-0.08749 0.03725,-0.256231 0,-0.330729 -0.04433,-0.08867 -0.152088,-0.06794 -0.188988,-0.141741 -0.04947,-0.09895 0.09205,-0.298416 0.188988,-0.330729 0.08107,-0.02702 0.365222,0.05874 0.04725,-0.04725"
       id="path858"
       sodipodi:nodetypes="csscscsscsccsccscsscsccccccscssccscccc" />
    <path
       style="fill:none;stroke:#e0e0e0;stroke-width:0.165;stroke-linecap:butt;stroke-linejoin:miter;stroke-miterlimit:4;stroke-dasharray:none;stroke-opacity:1"
       d="m 99.24464,73.634315 c -0.04584,0.115381 -0.412816,-0.200041 -0.293606,-0.319251 0.044,-0.044 0.04725,0.0037 0.04725,-0.09449 0,-0.03797 -0.02023,-0.15865 0,-0.188988 0.05733,-0.08599 0.329061,-0.285984 0.236235,-0.425223 -0.03907,-0.0586 -0.130386,-0.05543 -0.188988,-0.09449 -0.187186,-0.124791 -0.321186,-0.264866 -0.236235,-0.519717 0.06679,-0.200365 0.327677,-0.185937 0.47247,-0.33073 0.05616,-0.05616 0.186968,-0.47651 0.141741,-0.566964 -0.07779,-0.155571 -0.315985,-0.232325 -0.425223,-0.377976 -0.104508,-0.139344 -0.07723,-0.321933 -0.141741,-0.47247 -0.01755,-0.04094 -0.06978,-0.05743 -0.09449,-0.09449 -0.06908,-0.103618 -0.04725,-0.301379 -0.04725,-0.425224 0,-0.211839 0.217921,0.0077 0.283482,-0.188988 0.02804,-0.08411 0.01921,-0.199373 0.04725,-0.283482 0.03002,-0.09006 0.155708,-0.2083 0.09449,-0.330729 -0.05882,-0.117632 -0.02467,-0.0054 -0.09449,-0.04725 -0.06752,-0.04051 -0.120153,-0.103499 -0.188988,-0.141741 -0.28429,-0.157939 -0.47247,-0.108898 -0.47247,-0.47247 0,-0.04725 -0.0211,-0.09948 0,-0.141741 0.11099,-0.22198 0.320282,-0.196349 0.519717,-0.236236 0.122393,-0.02448 0.275302,-0.0904 0.377976,-0.141741 0.01409,-0.007 0.0402,0.01409 0.04725,0 0.0033,-0.0065 0.0045,-0.231702 0,-0.236235 -0.03522,-0.03522 -0.0972,-0.02497 -0.141741,-0.04725 -0.07043,-0.03522 -0.09133,-0.128494 -0.141741,-0.188988 -0.04725,-0.04725 -0.09449,-0.09449 -0.141741,-0.141741 -0.0315,-0.01575 -0.06959,-0.02235 -0.09449,-0.04725 -0.06787,-0.06787 -0.0912,-0.384561 -0.04725,-0.47247 0.06299,-0.125984 0.975883,-0.260691 0.897693,-0.377976 -0.10104,-0.15156 -0.419095,-0.297914 -0.47247,-0.377976 -0.0315,-0.04725 0.01575,-0.0945 0,-0.141741 -0.01451,-0.04353 -0.06504,-0.08837 -0.04725,-0.141742 0.03374,-0.101234 0.09449,-0.328103 0.09449,-0.425223 0,-0.08749 -0.03725,-0.256231 0,-0.330729 0.04433,-0.08867 0.152088,-0.06794 0.188988,-0.141741 0.04947,-0.09895 -0.09205,-0.298416 -0.188988,-0.330729 -0.08107,-0.02702 -0.365222,0.05874 -0.04725,-0.04725"
       id="path860" />
    <path
       style="fill:none;stroke:#e0e0e0;stroke-width:0.165;stroke-linecap:butt;stroke-linejoin:miter;stroke-miterlimit:4;stroke-dasharray:none;stroke-opacity:1"
       d="m 83.107514,65.377564 c -0.08591,-0.135084 0.104889,-0.162531 0.141741,-0.236235 0.0527,-0.105408 -0.01446,-0.505259 0.09449,-0.614211 0.01114,-0.01114 0.03611,0.01114 0.04725,0 0.06368,-0.06368 0.01469,-0.149084 0.09449,-0.188989 0.127556,-0.06378 0.555261,0.0708 0.661458,0 0.03706,-0.02471 0.05313,-0.07795 0.09449,-0.09449 0.06437,-0.02575 0.347319,-0.02597 0.425223,0 0.172254,0.05742 0.03638,0.03095 0.141741,0.188988 0.0087,0.0131 0.03611,-0.01114 0.04725,0 0.01114,0.01114 -0.01114,0.03611 0,0.04725 0.01263,0.01263 0.263259,0.178876 0.283482,0.188988 0.16315,0.08158 0.755952,0.275641 0.755952,0.425223"
       id="path862" />
    <path
       style="fill:none;stroke:#e0e0e0;stroke-width:0.165;stroke-linecap:butt;stroke-linejoin:miter;stroke-miterlimit:4;stroke-dasharray:none;stroke-opacity:1"
       d="m 89.769344,64.149141 c 0.06655,-0.403193 0.341356,-0.729959 0.519717,-1.086681 0.03059,-0.06118 0.0519,-0.253535 0.141741,-0.283482 0.08918,-0.02973 0.333732,0.04172 0.377977,0.04725 0.06251,0.0078 0.144443,-0.04454 0.188988,0 0.01114,0.01114 -0.01409,0.0402 0,0.04725 0.02817,0.01409 0.07222,-0.02227 0.09449,0 0.03522,0.03522 0.02162,0.09904 0.04725,0.141742 0.08679,0.144652 0.289739,0.32361 0.425223,0.425223 0.07346,0.0551 0.151828,0.105567 0.236235,0.141741 0.04343,0.01861 0.108333,-0.03341 0.141741,0 0.0249,0.0249 0.02235,0.06959 0.04725,0.09449 0.08689,0.08689 0.321123,0.131155 0.425223,0.188988 0.102674,0.05704 0.291416,0.202784 0.425224,0.236235 0.318563,0.07964 0.735719,-0.03375 1.039434,-0.09449"
       id="path864" />
    <path
       style="fill:none;stroke:#dfdfdf;stroke-width:0.165;stroke-linecap:butt;stroke-linejoin:miter;stroke-miterlimit:4;stroke-dasharray:none;stroke-opacity:1"
       d="m 84.713913,68.873844 c 0.01003,-0.02675 0.163449,-0.475981 0.236235,-0.566964 0.08147,-0.101844 0.376949,-0.04725 0.472471,-0.04725 0.063,0 0.128648,0.0181 0.188988,0 0.251984,-0.0756 0.209987,-0.121792 0.377976,-0.188988 0.09248,-0.03699 0.20243,-0.0366 0.283482,-0.09449 0.0725,-0.05178 0.120547,-0.131954 0.188988,-0.188988 0.11999,-0.09999 0.612483,-0.237388 0.755953,-0.141741 0.20595,0.1373 0.317572,0.493404 0.425223,0.708705"
       id="path866" />
    <path
       style="fill:none;stroke:#e0e0e0;stroke-width:0.165;stroke-linecap:butt;stroke-linejoin:miter;stroke-miterlimit:4;stroke-dasharray:none;stroke-opacity:1"
       d="m 90.667038,70.291255 c 0.368949,-0.184475 0.194594,-0.09976 0.8032,-0.377977 0.346138,-0.158234 0.685328,-0.332974 1.039434,-0.47247 0.181248,-0.0714 0.387911,-0.218478 0.566965,-0.141741 0.787467,0.337486 0.430581,0.176812 1.086681,0.614211 0.0293,0.01953 0.0725,0.01975 0.09449,0.04725 0.141618,0.177023 0.239219,0.473664 0.47247,0.566965 0.121192,0.04848 0.75742,0 0.897694,0"
       id="path868" />
    <path
       style="fill:none;stroke:#e0e0e0;stroke-width:0.165;stroke-linecap:butt;stroke-linejoin:miter;stroke-miterlimit:4;stroke-dasharray:none;stroke-opacity:1"
       d="m 83.48549,72.889841 c 0.380225,-0.21653 0.794703,-0.363557 1.181176,-0.566964 0.06968,-0.03668 0.121465,-0.101227 0.188988,-0.141741 0.04915,-0.02949 0.39755,-0.01665 0.47247,0 0.520774,0.115727 0.07526,0.03763 0.47247,0.236235 0.02817,0.01409 0.06632,-0.01409 0.09449,0 0.01409,0.007 -0.01114,0.03611 0,0.04725 0.04532,0.04532 0.351024,0 0.425223,0"
       id="path870" />
    <path
       style="fill:none;stroke:#e0e0e0;stroke-width:0.165;stroke-linecap:butt;stroke-linejoin:miter;stroke-miterlimit:4;stroke-dasharray:none;stroke-opacity:1"
       d="m 90.95052,74.401746 c 0.412157,-0.0091 1.470453,-0.675276 1.795387,-0.566964 0.16661,0.05554 0.28727,0.236235 0.47247,0.236235"
       id="path872" />
  </g>
</svg>
