<?xml version="1.0" encoding="UTF-8" standalone="no"?>
<svg
   xmlns:osb="http://www.openswatchbook.org/uri/2009/osb"
   xmlns:dc="http://purl.org/dc/elements/1.1/"
   xmlns:cc="http://creativecommons.org/ns#"
   xmlns:rdf="http://www.w3.org/1999/02/22-rdf-syntax-ns#"
   xmlns:svg="http://www.w3.org/2000/svg"
   xmlns="http://www.w3.org/2000/svg"
   xmlns:sodipodi="http://sodipodi.sourceforge.net/DTD/sodipodi-0.dtd"
   xmlns:inkscape="http://www.inkscape.org/namespaces/inkscape"
   width="21.166666mm"
   height="24.442207mm"
   viewBox="0 0 21.166666 24.442207"
   version="1.1"
   id="svg8"
   inkscape:version="1.0.1 (3bc2e813f5, 2020-09-07)"
   sodipodi:docname="grassTile1.svg">
  <defs
     id="defs2">
    <linearGradient
       id="linearGradient1027"
       osb:paint="solid">
      <stop
         style="stop-color:#486336;stop-opacity:1;"
         offset="0"
         id="stop1025" />
    </linearGradient>
    <filter
       inkscape:collect="always"
       style="color-interpolation-filters:sRGB"
       id="filter1138"
       x="-0.0018693042"
       width="1.0037386"
       y="-0.0017321713"
       height="1.0034643">
      <feGaussianBlur
         inkscape:collect="always"
         stdDeviation="0.0040538316"
         id="feGaussianBlur1140" />
    </filter>
  </defs>
  <sodipodi:namedview
     id="base"
     pagecolor="#ffffff"
     bordercolor="#666666"
     borderopacity="1.0"
     inkscape:pageopacity="0.0"
     inkscape:pageshadow="2"
     inkscape:zoom="3.959798"
     inkscape:cx="47.146698"
     inkscape:cy="41.398078"
     inkscape:document-units="mm"
     inkscape:current-layer="layer1"
     inkscape:document-rotation="0"
     showgrid="false"
     inkscape:snap-page="true"
     inkscape:window-width="1038"
     inkscape:window-height="986"
     inkscape:window-x="52"
     inkscape:window-y="1"
     inkscape:window-maximized="0" />
  <metadata
     id="metadata5">
    <rdf:RDF>
      <cc:Work
         rdf:about="">
        <dc:format>image/svg+xml</dc:format>
        <dc:type
           rdf:resource="http://purl.org/dc/dcmitype/StillImage" />
        <dc:title></dc:title>
      </cc:Work>
    </rdf:RDF>
  </metadata>
  <g
     inkscape:label="Layer 1"
     inkscape:groupmode="layer"
     id="layer1"
     transform="translate(-78.619047,-56.731359)">
    <path
       sodipodi:type="star"
       style="mix-blend-mode:normal;fill:#46702c;fill-opacity:1;stroke-width:0.264583"
       id="path10"
       sodipodi:sides="6"
       sodipodi:cx="105.83333"
       sodipodi:cy="144.3869"
       sodipodi:r1="99.202728"
       sodipodi:r2="85.912086"
       sodipodi:arg1="0.51820093"
       sodipodi:arg2="1.0417997"
       inkscape:flatsided="true"
       inkscape:rounded="0"
       inkscape:randomized="0"
       d="M 192.0119,193.52381 106.36881,243.58818 20.190236,194.45128 19.654758,95.249998 105.29785,45.185619 191.47642,94.322522 Z"
       transform="matrix(0.12280702,0,0,-0.12319502,76.205305,86.74021)" />
    <g
       id="g1116"
       transform="translate(-2.271791,0.60135644)">
      <g
         id="g1064">
        <path
           style="fill:#447d1c;fill-opacity:1;stroke:none;stroke-width:0.264583px;stroke-linecap:butt;stroke-linejoin:miter;stroke-opacity:1"
           d="m 84.565807,69.627112 c 0,-0.03554 -0.122365,-0.367104 -0.133635,-0.400904 -0.01992,-0.05976 -0.113715,-0.07388 -0.133635,-0.133635 -0.02409,-0.07225 -0.01797,-0.485689 -0.06682,-0.534539 -0.197145,-0.197144 -0.431602,-0.359362 -0.534539,-0.668174 -0.02904,-0.08712 -0.04455,-0.17818 -0.06682,-0.26727 -0.04454,-0.06682 -0.103805,-0.125892 -0.133635,-0.200452 -0.05206,-0.130151 -0.0322,-0.329239 -0.06682,-0.467721 -0.02416,-0.09663 -0.114105,-0.1696 -0.133635,-0.26727 -0.02391,-0.119548 -0.01212,-0.291511 -0.06682,-0.400904 -0.02817,-0.05635 -0.110235,-0.07515 -0.133635,-0.133635 -0.03411,-0.08526 -0.02575,-0.185129 -0.06682,-0.267269 -0.01,-0.01992 -0.05682,0.01992 -0.06682,0 -0.07251,-0.145028 -0.07341,-0.317173 -0.133634,-0.467722 -0.06338,-0.158438 -0.21861,-0.254911 -0.26727,-0.400904 -0.118961,-0.356883 -0.250337,-0.839817 -0.334087,-1.202713 -0.02065,-0.08948 -0.02575,-0.34941 -0.06682,-0.26727 -0.14796,0.295917 -0.06682,0.983462 -0.06682,1.336348 0,0.946653 0.173131,1.788921 0.467722,2.672695 0.04009,0.120271 -0.04009,0.280633 0,0.400904 0.01,0.02988 0.04455,0.04455 0.06682,0.06682 0.02228,0.08909 0.04455,0.178179 0.06682,0.267269 0.07275,0.581971 0,1.216044 0,1.80407 0,0.255985 -0.01502,0.484307 0.06682,0.734991 0.222725,0.04454 0.447077,0.08161 0.668174,0.133635 0.08462,0.01991 0.598142,0.203667 0.668174,0.133635 0.120813,-0.120814 0.190442,-0.514519 0.267269,-0.668174 0.05345,-0.106908 -0.05345,-0.293997 0,-0.400905 0.06867,-0.13734 0.115775,-0.231539 0.200466,-0.400906 z"
           id="path1031" />
        <path
           style="fill:#447d1c;fill-opacity:1;stroke:none;stroke-width:0.264583px;stroke-linecap:butt;stroke-linejoin:miter;stroke-opacity:1"
           d="m 84.944571,67.522846 c 0,-0.02834 0.05353,-0.292695 0.05846,-0.319644 0.0087,-0.04765 0.04975,-0.05891 0.05846,-0.106549 0.01054,-0.05761 0.0079,-0.387245 0.02923,-0.426193 0.08625,-0.157185 0.188821,-0.286523 0.233854,-0.532742 0.0127,-0.06946 0.01949,-0.142065 0.02923,-0.213097 0.01949,-0.05328 0.04541,-0.100375 0.05846,-0.159823 0.02278,-0.103771 0.01409,-0.262506 0.02923,-0.372919 0.01057,-0.07704 0.04992,-0.135223 0.05846,-0.213097 0.01046,-0.09532 0.0053,-0.232424 0.02923,-0.319645 0.01232,-0.04493 0.04823,-0.05992 0.05846,-0.106548 0.01492,-0.06798 0.01126,-0.147605 0.02923,-0.213096 0.0044,-0.01588 0.02486,0.01588 0.02923,0 0.03172,-0.115633 0.03212,-0.252886 0.05846,-0.37292 0.02773,-0.126324 0.09564,-0.203243 0.116928,-0.319645 0.05204,-0.284546 0.109519,-0.669595 0.146159,-0.958935 0.009,-0.07134 0.01127,-0.278588 0.02923,-0.213097 0.06473,0.235937 0.02923,0.784124 0.02923,1.065484 0,0.754776 -0.07574,1.426325 -0.204623,2.130967 -0.01754,0.09589 0.01754,0.223751 0,0.319645 -0.0044,0.02382 -0.01949,0.03552 -0.02923,0.05328 -0.0097,0.07103 -0.01949,0.142064 -0.02923,0.213096 -0.03183,0.464012 0,0.969564 0,1.438404 0,0.204099 0.0066,0.386143 -0.02923,0.586015 -0.09744,0.03551 -0.195591,0.06507 -0.292319,0.106549 -0.03702,0.01587 -0.26168,0.162386 -0.292318,0.106549 -0.05285,-0.09633 -0.08332,-0.410232 -0.116927,-0.532742 -0.02338,-0.08524 0.02338,-0.234407 0,-0.319646 -0.03004,-0.109503 -0.05065,-0.184608 -0.0877,-0.319647 z"
           id="path1033" />
        <path
           style="fill:#447d1c;fill-opacity:1;stroke:none;stroke-width:0.264583px;stroke-linecap:butt;stroke-linejoin:miter;stroke-opacity:1"
           d="m 84.877754,68.324655 c 0,-0.02834 0.05353,-0.292695 0.05846,-0.319644 0.0087,-0.04765 0.04975,-0.05891 0.05846,-0.106549 0.01054,-0.05761 0.0079,-0.387245 0.02923,-0.426193 0.08625,-0.157185 0.188821,-0.286523 0.233854,-0.532742 0.0127,-0.06946 0.01949,-0.142065 0.02923,-0.213097 0.01949,-0.05328 0.04541,-0.100375 0.05846,-0.159823 0.02278,-0.103771 0.01409,-0.262506 0.02923,-0.372919 0.01057,-0.07704 0.04992,-0.135223 0.05846,-0.213097 0.01046,-0.09532 0.0053,-0.232424 0.02923,-0.319645 0.01232,-0.04493 0.04823,-0.05992 0.05846,-0.106548 0.01492,-0.06798 0.01126,-0.147605 0.02923,-0.213096 0.0044,-0.01588 0.02486,0.01588 0.02923,0 0.03172,-0.115633 0.03212,-0.252886 0.05846,-0.37292 0.02773,-0.126324 0.09564,-0.203243 0.116928,-0.319645 0.05204,-0.284546 0.109519,-0.669595 0.146159,-0.958935 0.009,-0.07134 0.01127,-0.278588 0.02923,-0.213097 0.06473,0.235937 0.02923,0.784124 0.02923,1.065484 0,0.754776 -0.07574,1.426325 -0.204623,2.130967 -0.01754,0.09589 0.01754,0.223751 0,0.319645 -0.0044,0.02382 -0.01949,0.03552 -0.02923,0.05328 -0.0097,0.07103 -0.01949,0.142064 -0.02923,0.213096 -0.03183,0.464012 0,0.969564 0,1.438404 0,0.204099 0.0066,0.386143 -0.02923,0.586015 -0.09744,0.03551 -0.195591,0.06507 -0.292319,0.106549 -0.03702,0.01587 -0.26168,0.162386 -0.292318,0.106549 -0.05285,-0.09633 -0.08332,-0.410232 -0.116927,-0.532742 -0.02338,-0.08524 0.02338,-0.234407 0,-0.319646 -0.03004,-0.109503 -0.05065,-0.184608 -0.0877,-0.319647 z"
           id="path1035" />
        <path
           style="fill:#447d1c;fill-opacity:1;stroke:none;stroke-width:0.264583px;stroke-linecap:butt;stroke-linejoin:miter;stroke-opacity:1"
           d="m 85.011439,69.65696 c 0,-0.02364 0.122358,-0.244168 0.133627,-0.266649 0.01989,-0.03975 0.113718,-0.04914 0.133627,-0.08888 0.02409,-0.04806 0.01806,-0.323042 0.06681,-0.355533 0.197149,-0.131124 0.431604,-0.239019 0.534539,-0.444416 0.02903,-0.05794 0.04455,-0.118512 0.06681,-0.177767 0.04455,-0.04445 0.103797,-0.08373 0.133627,-0.133326 0.05207,-0.08657 0.03221,-0.218984 0.06681,-0.311091 0.02416,-0.06427 0.114107,-0.112804 0.133627,-0.177767 0.02391,-0.07952 0.01211,-0.19389 0.06681,-0.26665 0.02816,-0.03748 0.110243,-0.04999 0.133627,-0.08888 0.0341,-0.05671 0.02574,-0.123133 0.06681,-0.177766 0.01006,-0.01325 0.05683,0.01325 0.06681,0 0.0725,-0.09646 0.07342,-0.210959 0.133627,-0.311092 0.06339,-0.105381 0.218612,-0.169547 0.267272,-0.26665 0.118952,-0.23737 0.250337,-0.558581 0.334088,-0.79995 0.02057,-0.05951 0.02576,-0.2324 0.06681,-0.177767 0.147959,0.19682 0.06681,0.654121 0.06681,0.888834 0,0.629639 -0.173125,1.189849 -0.467724,1.777666 -0.04009,0.07999 0.04009,0.186655 0,0.26665 -0.01006,0.01987 -0.04455,0.02963 -0.06681,0.04445 -0.02217,0.05925 -0.04455,0.11851 -0.06681,0.177766 -0.07276,0.387082 0,0.808816 0,1.199926 0,0.17026 0.01509,0.322123 -0.06681,0.488857 -0.222726,0.02962 -0.447078,0.05428 -0.668178,0.08888 -0.08462,0.01324 -0.598144,0.135463 -0.668176,0.08888 -0.120804,-0.08036 -0.190451,-0.342218 -0.26727,-0.444417 -0.05344,-0.07111 0.05344,-0.195544 0,-0.266651 -0.06866,-0.09135 -0.115775,-0.154001 -0.200463,-0.266651 z"
           id="path1037" />
        <path
           style="fill:#447d1c;fill-opacity:1;stroke:none;stroke-width:0.264582px;stroke-linecap:butt;stroke-linejoin:miter;stroke-opacity:1"
           d="m 84.007739,70.70409 c 0.03339,-0.04561 0.06947,-0.08952 0.100163,-0.136844 0.02044,-0.03144 0.0059,-0.135555 0.01588,-0.165191 0.01183,-0.03546 0.04022,-0.06428 0.05309,-0.09938 0.01756,-0.04801 0.09868,-0.853843 0.0913,-0.949861 -0.024,-0.31271 -0.0016,0.10168 -0.02925,-0.148394 -0.0057,-0.05119 0.01097,-0.114092 0.01588,-0.165193 0.01466,-0.152516 0.02717,-0.331709 -0.01906,-0.480707 -0.029,-0.09356 -0.148195,-0.174692 -0.154685,-0.201248 -0.01606,-0.06567 -0.01185,-0.139365 -0.02329,-0.210343 -0.0073,-0.04556 0.02483,-0.0998 0.01389,-0.144543 -0.0074,-0.03011 -0.03028,-0.05589 -0.0352,-0.08644 -0.0268,-0.166143 0.08498,-0.399765 0.13987,-0.549824 0.0066,-0.01817 -0.0052,-0.09119 0.0099,-0.103246 0.0055,-0.0045 0.01776,0.0077 0.02156,0.0019 0.01603,-0.02471 0.01144,-0.03534 0.02754,-0.06001 0.05825,-0.08981 -0.03891,-0.274232 -0.03692,-0.294865 0.005,-0.05242 0.103413,0.04095 0.145036,0.07541 0.09858,0.08158 0.08373,0.253563 0.09369,0.38324 0.0028,0.03631 0.02803,0.05716 0.0352,0.08644 0.0065,0.02657 -0.02337,0.07945 -0.0099,0.103245 0.08509,0.150585 0.197325,0.264618 0.285821,0.421218 0.0103,0.01825 -0.01094,0.04175 -0.006,0.06195 0.0059,0.02427 0.03125,0.04152 0.03719,0.0658 0.01022,0.04183 -0.01926,0.104215 -0.01389,0.144543 0.01795,0.134759 0.114656,0.249612 0.136824,0.38709 0.0044,0.02733 -0.01231,0.05528 -0.0079,0.08259 0.0049,0.03056 0.02921,0.05606 0.0352,0.08645 0.01232,0.06247 -0.0028,0.146197 0.0233,0.210343 0.01341,0.03294 0.04751,0.08859 0.07635,0.110945 0.02961,0.02289 0.03344,-0.0455 0.06273,0.02642 0.0079,0.01933 -0.01169,0.04193 -0.006,0.06195 0.02907,0.101822 0.11386,0.183094 0.146748,0.283846 0.0086,0.02641 -0.01007,0.05501 -0.0079,0.08259 0.0012,0.01542 0.0159,0.02785 0.0176,0.04323 0.0039,0.0357 -0.0113,0.185459 -0.01985,0.20649 -0.0073,0.01825 -0.03504,0.02169 -0.04712,0.03745 -0.05806,0.07582 -0.07833,0.203456 -0.114056,0.281385 -0.03765,0.08222 -0.04392,0.456957 -0.05756,0.598826"
           id="path1053" />
      </g>
      <g
         id="g1076"
         transform="matrix(0.68006706,0,0,0.48530645,27.194225,36.263238)"
         style="fill:#438712;fill-opacity:1;stroke-width:1.74067">
        <path
           style="fill:#438712;fill-opacity:1;stroke:none;stroke-width:0.460551px;stroke-linecap:butt;stroke-linejoin:miter;stroke-opacity:1"
           d="m 84.565807,69.627112 c 0,-0.03554 -0.122365,-0.367104 -0.133635,-0.400904 -0.01992,-0.05976 -0.113715,-0.07388 -0.133635,-0.133635 -0.02409,-0.07225 -0.01797,-0.485689 -0.06682,-0.534539 -0.197145,-0.197144 -0.431602,-0.359362 -0.534539,-0.668174 -0.02904,-0.08712 -0.04455,-0.17818 -0.06682,-0.26727 -0.04454,-0.06682 -0.103805,-0.125892 -0.133635,-0.200452 -0.05206,-0.130151 -0.0322,-0.329239 -0.06682,-0.467721 -0.02416,-0.09663 -0.114105,-0.1696 -0.133635,-0.26727 -0.02391,-0.119548 -0.01212,-0.291511 -0.06682,-0.400904 -0.02817,-0.05635 -0.110235,-0.07515 -0.133635,-0.133635 -0.03411,-0.08526 -0.02575,-0.185129 -0.06682,-0.267269 -0.01,-0.01992 -0.05682,0.01992 -0.06682,0 -0.07251,-0.145028 -0.07341,-0.317173 -0.133634,-0.467722 -0.06338,-0.158438 -0.21861,-0.254911 -0.26727,-0.400904 -0.118961,-0.356883 -0.250337,-0.839817 -0.334087,-1.202713 -0.02065,-0.08948 -0.02575,-0.34941 -0.06682,-0.26727 -0.14796,0.295917 -0.06682,0.983462 -0.06682,1.336348 0,0.946653 0.173131,1.788921 0.467722,2.672695 0.04009,0.120271 -0.04009,0.280633 0,0.400904 0.01,0.02988 0.04455,0.04455 0.06682,0.06682 0.02228,0.08909 0.04455,0.178179 0.06682,0.267269 0.07275,0.581971 0,1.216044 0,1.80407 0,0.255985 -0.01502,0.484307 0.06682,0.734991 0.222725,0.04454 0.447077,0.08161 0.668174,0.133635 0.08462,0.01991 0.598142,0.203667 0.668174,0.133635 0.120813,-0.120814 0.190442,-0.514519 0.267269,-0.668174 0.05345,-0.106908 -0.05345,-0.293997 0,-0.400905 0.06867,-0.13734 0.115775,-0.231539 0.200466,-0.400906 z"
           id="path1066" />
        <path
           style="fill:#438712;fill-opacity:1;stroke:none;stroke-width:0.460551px;stroke-linecap:butt;stroke-linejoin:miter;stroke-opacity:1"
           d="m 84.944571,67.522846 c 0,-0.02834 0.05353,-0.292695 0.05846,-0.319644 0.0087,-0.04765 0.04975,-0.05891 0.05846,-0.106549 0.01054,-0.05761 0.0079,-0.387245 0.02923,-0.426193 0.08625,-0.157185 0.188821,-0.286523 0.233854,-0.532742 0.0127,-0.06946 0.01949,-0.142065 0.02923,-0.213097 0.01949,-0.05328 0.04541,-0.100375 0.05846,-0.159823 0.02278,-0.103771 0.01409,-0.262506 0.02923,-0.372919 0.01057,-0.07704 0.04992,-0.135223 0.05846,-0.213097 0.01046,-0.09532 0.0053,-0.232424 0.02923,-0.319645 0.01232,-0.04493 0.04823,-0.05992 0.05846,-0.106548 0.01492,-0.06798 0.01126,-0.147605 0.02923,-0.213096 0.0044,-0.01588 0.02486,0.01588 0.02923,0 0.03172,-0.115633 0.03212,-0.252886 0.05846,-0.37292 0.02773,-0.126324 0.09564,-0.203243 0.116928,-0.319645 0.05204,-0.284546 0.109519,-0.669595 0.146159,-0.958935 0.009,-0.07134 0.01127,-0.278588 0.02923,-0.213097 0.06473,0.235937 0.02923,0.784124 0.02923,1.065484 0,0.754776 -0.07574,1.426325 -0.204623,2.130967 -0.01754,0.09589 0.01754,0.223751 0,0.319645 -0.0044,0.02382 -0.01949,0.03552 -0.02923,0.05328 -0.0097,0.07103 -0.01949,0.142064 -0.02923,0.213096 -0.03183,0.464012 0,0.969564 0,1.438404 0,0.204099 0.0066,0.386143 -0.02923,0.586015 -0.09744,0.03551 -0.195591,0.06507 -0.292319,0.106549 -0.03702,0.01587 -0.26168,0.162386 -0.292318,0.106549 -0.05285,-0.09633 -0.08332,-0.410232 -0.116927,-0.532742 -0.02338,-0.08524 0.02338,-0.234407 0,-0.319646 -0.03004,-0.109503 -0.05065,-0.184608 -0.0877,-0.319647 z"
           id="path1068" />
        <path
           style="fill:#438712;fill-opacity:1;stroke:none;stroke-width:0.460551px;stroke-linecap:butt;stroke-linejoin:miter;stroke-opacity:1"
           d="m 84.877754,68.324655 c 0,-0.02834 0.05353,-0.292695 0.05846,-0.319644 0.0087,-0.04765 0.04975,-0.05891 0.05846,-0.106549 0.01054,-0.05761 0.0079,-0.387245 0.02923,-0.426193 0.08625,-0.157185 0.188821,-0.286523 0.233854,-0.532742 0.0127,-0.06946 0.01949,-0.142065 0.02923,-0.213097 0.01949,-0.05328 0.04541,-0.100375 0.05846,-0.159823 0.02278,-0.103771 0.01409,-0.262506 0.02923,-0.372919 0.01057,-0.07704 0.04992,-0.135223 0.05846,-0.213097 0.01046,-0.09532 0.0053,-0.232424 0.02923,-0.319645 0.01232,-0.04493 0.04823,-0.05992 0.05846,-0.106548 0.01492,-0.06798 0.01126,-0.147605 0.02923,-0.213096 0.0044,-0.01588 0.02486,0.01588 0.02923,0 0.03172,-0.115633 0.03212,-0.252886 0.05846,-0.37292 0.02773,-0.126324 0.09564,-0.203243 0.116928,-0.319645 0.05204,-0.284546 0.109519,-0.669595 0.146159,-0.958935 0.009,-0.07134 0.01127,-0.278588 0.02923,-0.213097 0.06473,0.235937 0.02923,0.784124 0.02923,1.065484 0,0.754776 -0.07574,1.426325 -0.204623,2.130967 -0.01754,0.09589 0.01754,0.223751 0,0.319645 -0.0044,0.02382 -0.01949,0.03552 -0.02923,0.05328 -0.0097,0.07103 -0.01949,0.142064 -0.02923,0.213096 -0.03183,0.464012 0,0.969564 0,1.438404 0,0.204099 0.0066,0.386143 -0.02923,0.586015 -0.09744,0.03551 -0.195591,0.06507 -0.292319,0.106549 -0.03702,0.01587 -0.26168,0.162386 -0.292318,0.106549 -0.05285,-0.09633 -0.08332,-0.410232 -0.116927,-0.532742 -0.02338,-0.08524 0.02338,-0.234407 0,-0.319646 -0.03004,-0.109503 -0.05065,-0.184608 -0.0877,-0.319647 z"
           id="path1070" />
        <path
           style="fill:#438712;fill-opacity:1;stroke:none;stroke-width:0.460551px;stroke-linecap:butt;stroke-linejoin:miter;stroke-opacity:1"
           d="m 85.011439,69.65696 c 0,-0.02364 0.122358,-0.244168 0.133627,-0.266649 0.01989,-0.03975 0.113718,-0.04914 0.133627,-0.08888 0.02409,-0.04806 0.01806,-0.323042 0.06681,-0.355533 0.197149,-0.131124 0.431604,-0.239019 0.534539,-0.444416 0.02903,-0.05794 0.04455,-0.118512 0.06681,-0.177767 0.04455,-0.04445 0.103797,-0.08373 0.133627,-0.133326 0.05207,-0.08657 0.03221,-0.218984 0.06681,-0.311091 0.02416,-0.06427 0.114107,-0.112804 0.133627,-0.177767 0.02391,-0.07952 0.01211,-0.19389 0.06681,-0.26665 0.02816,-0.03748 0.110243,-0.04999 0.133627,-0.08888 0.0341,-0.05671 0.02574,-0.123133 0.06681,-0.177766 0.01006,-0.01325 0.05683,0.01325 0.06681,0 0.0725,-0.09646 0.07342,-0.210959 0.133627,-0.311092 0.06339,-0.105381 0.218612,-0.169547 0.267272,-0.26665 0.118952,-0.23737 0.250337,-0.558581 0.334088,-0.79995 0.02057,-0.05951 0.02576,-0.2324 0.06681,-0.177767 0.147959,0.19682 0.06681,0.654121 0.06681,0.888834 0,0.629639 -0.173125,1.189849 -0.467724,1.777666 -0.04009,0.07999 0.04009,0.186655 0,0.26665 -0.01006,0.01987 -0.04455,0.02963 -0.06681,0.04445 -0.02217,0.05925 -0.04455,0.11851 -0.06681,0.177766 -0.07276,0.387082 0,0.808816 0,1.199926 0,0.17026 0.01509,0.322123 -0.06681,0.488857 -0.222726,0.02962 -0.447078,0.05428 -0.668178,0.08888 -0.08462,0.01324 -0.598144,0.135463 -0.668176,0.08888 -0.120804,-0.08036 -0.190451,-0.342218 -0.26727,-0.444417 -0.05344,-0.07111 0.05344,-0.195544 0,-0.266651 -0.06866,-0.09135 -0.115775,-0.154001 -0.200463,-0.266651 z"
           id="path1072" />
        <path
           style="fill:#438712;fill-opacity:1;stroke:none;stroke-width:0.46055px;stroke-linecap:butt;stroke-linejoin:miter;stroke-opacity:1"
           d="m 84.007739,70.70409 c 0.03339,-0.04561 0.06947,-0.08952 0.100163,-0.136844 0.02044,-0.03144 0.0059,-0.135555 0.01588,-0.165191 0.01183,-0.03546 0.04022,-0.06428 0.05309,-0.09938 0.01756,-0.04801 0.09868,-0.853843 0.0913,-0.949861 -0.024,-0.31271 -0.0016,0.10168 -0.02925,-0.148394 -0.0057,-0.05119 0.01097,-0.114092 0.01588,-0.165193 0.01466,-0.152516 0.02717,-0.331709 -0.01906,-0.480707 -0.029,-0.09356 -0.148195,-0.174692 -0.154685,-0.201248 -0.01606,-0.06567 -0.01185,-0.139365 -0.02329,-0.210343 -0.0073,-0.04556 0.02483,-0.0998 0.01389,-0.144543 -0.0074,-0.03011 -0.03028,-0.05589 -0.0352,-0.08644 -0.0268,-0.166143 0.08498,-0.399765 0.13987,-0.549824 0.0066,-0.01817 -0.0052,-0.09119 0.0099,-0.103246 0.0055,-0.0045 0.01776,0.0077 0.02156,0.0019 0.01603,-0.02471 0.01144,-0.03534 0.02754,-0.06001 0.05825,-0.08981 -0.03891,-0.274232 -0.03692,-0.294865 0.005,-0.05242 0.103413,0.04095 0.145036,0.07541 0.09858,0.08158 0.08373,0.253563 0.09369,0.38324 0.0028,0.03631 0.02803,0.05716 0.0352,0.08644 0.0065,0.02657 -0.02337,0.07945 -0.0099,0.103245 0.08509,0.150585 0.197325,0.264618 0.285821,0.421218 0.0103,0.01825 -0.01094,0.04175 -0.006,0.06195 0.0059,0.02427 0.03125,0.04152 0.03719,0.0658 0.01022,0.04183 -0.01926,0.104215 -0.01389,0.144543 0.01795,0.134759 0.114656,0.249612 0.136824,0.38709 0.0044,0.02733 -0.01231,0.05528 -0.0079,0.08259 0.0049,0.03056 0.02921,0.05606 0.0352,0.08645 0.01232,0.06247 -0.0028,0.146197 0.0233,0.210343 0.01341,0.03294 0.04751,0.08859 0.07635,0.110945 0.02961,0.02289 0.03344,-0.0455 0.06273,0.02642 0.0079,0.01933 -0.01169,0.04193 -0.006,0.06195 0.02907,0.101822 0.11386,0.183094 0.146748,0.283846 0.0086,0.02641 -0.01007,0.05501 -0.0079,0.08259 0.0012,0.01542 0.0159,0.02785 0.0176,0.04323 0.0039,0.0357 -0.0113,0.185459 -0.01985,0.20649 -0.0073,0.01825 -0.03504,0.02169 -0.04712,0.03745 -0.05806,0.07582 -0.07833,0.203456 -0.114056,0.281385 -0.03765,0.08222 -0.04392,0.456957 -0.05756,0.598826"
           id="path1074" />
      </g>
    </g>
    <g
       id="g1126"
       transform="translate(-0.20045223,0.06681734)">
      <g
         id="g1081"
         transform="translate(-0.46772167,0.40090429)">
        <path
           style="fill:#447d1c;fill-opacity:1;stroke:none;stroke-width:0.264582px;stroke-linecap:butt;stroke-linejoin:miter;stroke-opacity:1"
           d="m 88.341886,75.050303 c 0.04182,-0.06954 0.08775,-0.136984 0.125442,-0.208622 0.02505,-0.04762 -0.01022,-0.194739 0,-0.238424 0.01221,-0.05223 0.04907,-0.09712 0.06273,-0.149015 0.01866,-0.07096 0.02394,-1.234479 0,-1.37094 -0.07794,-0.444429 0.01182,0.1457 -0.06273,-0.208621 -0.01526,-0.07253 0,-0.16467 0,-0.238426 0,-0.22013 -0.0068,-0.478156 -0.09409,-0.685469 -0.05478,-0.130181 -0.237854,-0.231058 -0.250892,-0.268228 -0.03225,-0.09193 -0.03639,-0.197922 -0.06273,-0.29803 -0.0169,-0.06425 0.02197,-0.145994 0,-0.208622 -0.01479,-0.04215 -0.05139,-0.07611 -0.06273,-0.119207 -0.06165,-0.234329 0.06711,-0.582931 0.125456,-0.804682 0.007,-0.02685 -0.0202,-0.129818 0,-0.149015 0.0074,-0.0071 0.02668,0.0088 0.03135,0 0.01969,-0.03741 0.01168,-0.052 0.03136,-0.08941 0.07154,-0.13596 -0.09409,-0.387462 -0.09409,-0.417242 0,-0.07566 0.154746,0.04543 0.219532,0.08941 0.153424,0.104144 0.155848,0.352157 0.18817,0.536455 0.009,0.05161 0.04834,0.07822 0.06273,0.119207 0.01301,0.03719 -0.02269,0.116671 0,0.149016 0.143546,0.204615 0.321145,0.353464 0.470427,0.566257 0.01739,0.0248 -0.01,0.06114 0,0.08941 0.01194,0.03397 0.0508,0.05542 0.06273,0.08941 0.02054,0.05855 -0.01333,0.151598 0,0.208622 0.04455,0.190551 0.199884,0.342551 0.250894,0.536454 0.01009,0.03855 -0.01009,0.08067 0,0.119208 0.01128,0.04311 0.04988,0.07649 0.06273,0.119207 0.02641,0.08783 0.01618,0.209571 0.06273,0.29803 0.0239,0.04542 0.08077,0.120708 0.125441,0.149016 0.04584,0.02904 0.0419,-0.06939 0.09409,0.02981 0.01402,0.02666 -0.01102,0.0615 0,0.08941 0.05602,0.141987 0.189519,0.247464 0.250894,0.387441 0.01609,0.03669 -0.0069,0.08001 0,0.119207 0.0039,0.02191 0.02678,0.03782 0.03136,0.05961 0.01062,0.05058 0.0094,0.26684 0,0.29803 -0.0081,0.02702 -0.04751,0.03551 -0.06273,0.05961 -0.07319,0.115914 -0.08472,0.301161 -0.125441,0.417242 -0.04295,0.122437 0,0.65953 0,0.864289"
           id="path1045" />
        <path
           style="fill:#447d1c;fill-opacity:1;stroke:none;stroke-width:0.264582px;stroke-linecap:butt;stroke-linejoin:miter;stroke-opacity:1"
           d="m 89.317779,74.715898 c -0.06697,-0.05561 -0.137112,-0.109539 -0.200893,-0.166833 -0.04239,-0.03809 -0.06446,-0.155885 -0.09102,-0.190838 -0.03174,-0.04179 -0.0845,-0.07767 -0.117521,-0.119199 -0.04512,-0.05678 -0.494393,-0.988064 -0.523346,-1.097319 -0.09432,-0.355823 0.04419,0.116634 -0.01897,-0.167052 -0.01296,-0.05807 -0.06286,-0.131804 -0.09102,-0.190841 -0.08404,-0.176195 -0.175959,-0.382731 -0.170724,-0.548772 0.0033,-0.104264 0.141704,-0.185229 0.140118,-0.214997 -0.0039,-0.07361 -0.04039,-0.158464 -0.05313,-0.238623 -0.0082,-0.05146 -0.07697,-0.116829 -0.07964,-0.166984 -0.0018,-0.03376 0.02062,-0.06098 0.01513,-0.09549 -0.02986,-0.187635 -0.287398,-0.466505 -0.428448,-0.643927 -0.01701,-0.02148 -0.03003,-0.103933 -0.05689,-0.119275 -0.0099,-0.0056 -0.02242,0.0071 -0.03029,8.8e-5 -0.03332,-0.02993 -0.03115,-0.04161 -0.06444,-0.07153 -0.121052,-0.108739 -0.05696,-0.310243 -0.06833,-0.334081 -0.02889,-0.06056 -0.132236,0.03654 -0.178069,0.07182 -0.108543,0.08354 -0.01621,0.282059 0.0229,0.429613 0.01101,0.04133 -0.01687,0.06266 -0.01513,0.09549 0.0016,0.02979 0.06646,0.09336 0.05689,0.119276 -0.06064,0.16395 -0.175486,0.283305 -0.238549,0.453808 -0.0073,0.01987 0.03301,0.04893 0.03413,0.07157 0.0014,0.02721 -0.02794,0.04442 -0.0265,0.07164 0.0025,0.04689 0.07076,0.121326 0.07964,0.166985 0.02968,0.152574 -0.06244,0.274425 -0.03773,0.429688 0.005,0.03087 0.04055,0.06455 0.04551,0.09542 0.0055,0.03452 -0.01901,0.06129 -0.01513,0.09549 0.008,0.07033 0.06436,0.167764 0.05313,0.238622 -0.0058,0.03638 -0.032,0.09671 -0.06436,0.119427 -0.03322,0.0233 -0.06699,-0.05549 -0.07956,0.02397 -0.0033,0.02137 0.03413,0.04921 0.03413,0.07157 5e-5,0.113716 -0.08872,0.198303 -0.09461,0.310416 -0.0015,0.02939 0.03721,0.06404 0.04551,0.09542 0.0046,0.01753 -0.01145,0.03031 -0.0076,0.04775 0.009,0.04049 0.09278,0.213596 0.113777,0.238549 0.01815,0.02162 0.05947,0.02836 0.08339,0.04764 0.114994,0.09269 0.196856,0.240951 0.28053,0.333815 0.08826,0.09795 0.251771,0.527896 0.329936,0.691788"
           id="path1051"
           inkscape:transform-center-x="0.70941178"
           inkscape:transform-center-y="-1.1906132" />
        <path
           style="fill:#447d1c;fill-opacity:1;stroke:none;stroke-width:0.264582px;stroke-linecap:butt;stroke-linejoin:miter;stroke-opacity:1"
           d="m 86.270534,75.476337 c 0.04815,-0.06423 0.102531,-0.128295 0.144428,-0.19268 0.02784,-0.04279 -0.04725,-0.137756 -0.03996,-0.172795 0.0087,-0.04189 0.05389,-0.08661 0.06473,-0.128741 0.01479,-0.05759 -0.172651,-0.902596 -0.229758,-0.993579 -0.185942,-0.296322 0.04132,0.101687 -0.124665,-0.130453 -0.03398,-0.04752 -0.0276,-0.119343 -0.03996,-0.172797 -0.03689,-0.159538 -0.08988,-0.344287 -0.249434,-0.465674 -0.100161,-0.07623 -0.378871,-0.0888 -0.403746,-0.111428 -0.06153,-0.05596 -0.08521,-0.131409 -0.13966,-0.19525 -0.03494,-0.04097 0.007,-0.113073 -0.03496,-0.151197 -0.02822,-0.02565 -0.08625,-0.03817 -0.10968,-0.06565 -0.127435,-0.14944 -0.0017,-0.444666 0.04455,-0.624674 0.0055,-0.02177 -0.05064,-0.08741 -0.02497,-0.107997 0.0094,-0.0076 0.03962,-0.0025 0.04484,-0.01037 0.02189,-0.03363 0.008,-0.04155 0.02986,-0.07517 0.07952,-0.122193 -0.199491,-0.249695 -0.204481,-0.271277 -0.01268,-0.05483 0.22891,-0.01825 0.328931,-0.0078 0.23686,0.02474 0.281891,0.203686 0.359001,0.326565 0.02152,0.03443 0.08224,0.04071 0.109689,0.06565 0.02484,0.02265 -0.01289,0.09206 0.02497,0.107998 0.239573,0.100824 0.518498,0.149971 0.767643,0.254824 0.02903,0.01222 -0.0041,0.04762 0.01498,0.0648 0.02277,0.02067 0.08194,0.02337 0.104697,0.04406 0.03919,0.03564 0.0063,0.114278 0.03496,0.151197 0.09564,0.123368 0.343256,0.182161 0.448701,0.305822 0.02089,0.02461 -9.1e-4,0.0618 0.01998,0.08639 0.02336,0.02752 0.08415,0.03894 0.10968,0.06565 0.05249,0.05492 0.05826,0.146535 0.13966,0.19525 0.04179,0.02502 0.135736,0.06077 0.204362,0.06652 0.07042,0.0059 0.04829,-0.06415 0.139551,-0.0095 0.02452,0.01468 -0.0055,0.04822 0.01498,0.0648 0.103912,0.08438 0.312498,0.116675 0.423728,0.197826 0.02916,0.02127 0.0035,0.06027 0.01998,0.08639 0.0092,0.0146 0.04464,0.01855 0.05484,0.03283 0.02367,0.03314 0.05817,0.190281 0.04995,0.215995 -0.0071,0.02226 -0.06199,0.04145 -0.07972,0.06395 -0.08524,0.108207 -0.07068,0.246281 -0.109463,0.343875 -0.0409,0.102941 0.110531,0.47799 0.144847,0.626387"
           id="path1057" />
      </g>
      <g
         id="g1089"
         transform="matrix(0.79658872,0,0,0.64519902,17.498298,26.995396)"
         style="fill:#438712;fill-opacity:1;stroke-width:1.39488">
        <path
           style="fill:#438712;fill-opacity:1;stroke:none;stroke-width:0.36906px;stroke-linecap:butt;stroke-linejoin:miter;stroke-opacity:1"
           d="m 88.341886,75.050303 c 0.04182,-0.06954 0.08775,-0.136984 0.125442,-0.208622 0.02505,-0.04762 -0.01022,-0.194739 0,-0.238424 0.01221,-0.05223 0.04907,-0.09712 0.06273,-0.149015 0.01866,-0.07096 0.02394,-1.234479 0,-1.37094 -0.07794,-0.444429 0.01182,0.1457 -0.06273,-0.208621 -0.01526,-0.07253 0,-0.16467 0,-0.238426 0,-0.22013 -0.0068,-0.478156 -0.09409,-0.685469 -0.05478,-0.130181 -0.237854,-0.231058 -0.250892,-0.268228 -0.03225,-0.09193 -0.03639,-0.197922 -0.06273,-0.29803 -0.0169,-0.06425 0.02197,-0.145994 0,-0.208622 -0.01479,-0.04215 -0.05139,-0.07611 -0.06273,-0.119207 -0.06165,-0.234329 0.06711,-0.582931 0.125456,-0.804682 0.007,-0.02685 -0.0202,-0.129818 0,-0.149015 0.0074,-0.0071 0.02668,0.0088 0.03135,0 0.01969,-0.03741 0.01168,-0.052 0.03136,-0.08941 0.07154,-0.13596 -0.09409,-0.387462 -0.09409,-0.417242 0,-0.07566 0.154746,0.04543 0.219532,0.08941 0.153424,0.104144 0.155848,0.352157 0.18817,0.536455 0.009,0.05161 0.04834,0.07822 0.06273,0.119207 0.01301,0.03719 -0.02269,0.116671 0,0.149016 0.143546,0.204615 0.321145,0.353464 0.470427,0.566257 0.01739,0.0248 -0.01,0.06114 0,0.08941 0.01194,0.03397 0.0508,0.05542 0.06273,0.08941 0.02054,0.05855 -0.01333,0.151598 0,0.208622 0.04455,0.190551 0.199884,0.342551 0.250894,0.536454 0.01009,0.03855 -0.01009,0.08067 0,0.119208 0.01128,0.04311 0.04988,0.07649 0.06273,0.119207 0.02641,0.08783 0.01618,0.209571 0.06273,0.29803 0.0239,0.04542 0.08077,0.120708 0.125441,0.149016 0.04584,0.02904 0.0419,-0.06939 0.09409,0.02981 0.01402,0.02666 -0.01102,0.0615 0,0.08941 0.05602,0.141987 0.189519,0.247464 0.250894,0.387441 0.01609,0.03669 -0.0069,0.08001 0,0.119207 0.0039,0.02191 0.02678,0.03782 0.03136,0.05961 0.01062,0.05058 0.0094,0.26684 0,0.29803 -0.0081,0.02702 -0.04751,0.03551 -0.06273,0.05961 -0.07319,0.115914 -0.08472,0.301161 -0.125441,0.417242 -0.04295,0.122437 0,0.65953 0,0.864289"
           id="path1083" />
        <path
           style="fill:#438712;fill-opacity:1;stroke:none;stroke-width:0.36906px;stroke-linecap:butt;stroke-linejoin:miter;stroke-opacity:1"
           d="m 89.317779,74.715898 c -0.06697,-0.05561 -0.137112,-0.109539 -0.200893,-0.166833 -0.04239,-0.03809 -0.06446,-0.155885 -0.09102,-0.190838 -0.03174,-0.04179 -0.0845,-0.07767 -0.117521,-0.119199 -0.04512,-0.05678 -0.494393,-0.988064 -0.523346,-1.097319 -0.09432,-0.355823 0.04419,0.116634 -0.01897,-0.167052 -0.01296,-0.05807 -0.06286,-0.131804 -0.09102,-0.190841 -0.08404,-0.176195 -0.175959,-0.382731 -0.170724,-0.548772 0.0033,-0.104264 0.141704,-0.185229 0.140118,-0.214997 -0.0039,-0.07361 -0.04039,-0.158464 -0.05313,-0.238623 -0.0082,-0.05146 -0.07697,-0.116829 -0.07964,-0.166984 -0.0018,-0.03376 0.02062,-0.06098 0.01513,-0.09549 -0.02986,-0.187635 -0.287398,-0.466505 -0.428448,-0.643927 -0.01701,-0.02148 -0.03003,-0.103933 -0.05689,-0.119275 -0.0099,-0.0056 -0.02242,0.0071 -0.03029,8.8e-5 -0.03332,-0.02993 -0.03115,-0.04161 -0.06444,-0.07153 -0.121052,-0.108739 -0.05696,-0.310243 -0.06833,-0.334081 -0.02889,-0.06056 -0.132236,0.03654 -0.178069,0.07182 -0.108543,0.08354 -0.01621,0.282059 0.0229,0.429613 0.01101,0.04133 -0.01687,0.06266 -0.01513,0.09549 0.0016,0.02979 0.06646,0.09336 0.05689,0.119276 -0.06064,0.16395 -0.175486,0.283305 -0.238549,0.453808 -0.0073,0.01987 0.03301,0.04893 0.03413,0.07157 0.0014,0.02721 -0.02794,0.04442 -0.0265,0.07164 0.0025,0.04689 0.07076,0.121326 0.07964,0.166985 0.02968,0.152574 -0.06244,0.274425 -0.03773,0.429688 0.005,0.03087 0.04055,0.06455 0.04551,0.09542 0.0055,0.03452 -0.01901,0.06129 -0.01513,0.09549 0.008,0.07033 0.06436,0.167764 0.05313,0.238622 -0.0058,0.03638 -0.032,0.09671 -0.06436,0.119427 -0.03322,0.0233 -0.06699,-0.05549 -0.07956,0.02397 -0.0033,0.02137 0.03413,0.04921 0.03413,0.07157 5e-5,0.113716 -0.08872,0.198303 -0.09461,0.310416 -0.0015,0.02939 0.03721,0.06404 0.04551,0.09542 0.0046,0.01753 -0.01145,0.03031 -0.0076,0.04775 0.009,0.04049 0.09278,0.213596 0.113777,0.238549 0.01815,0.02162 0.05947,0.02836 0.08339,0.04764 0.114994,0.09269 0.196856,0.240951 0.28053,0.333815 0.08826,0.09795 0.251771,0.527896 0.329936,0.691788"
           id="path1085"
           inkscape:transform-center-x="0.70941178"
           inkscape:transform-center-y="-1.1906132" />
        <path
           style="fill:#438712;fill-opacity:1;stroke:none;stroke-width:0.36906px;stroke-linecap:butt;stroke-linejoin:miter;stroke-opacity:1"
           d="m 86.270534,75.476337 c 0.04815,-0.06423 0.102531,-0.128295 0.144428,-0.19268 0.02784,-0.04279 -0.04725,-0.137756 -0.03996,-0.172795 0.0087,-0.04189 0.05389,-0.08661 0.06473,-0.128741 0.01479,-0.05759 -0.172651,-0.902596 -0.229758,-0.993579 -0.185942,-0.296322 0.04132,0.101687 -0.124665,-0.130453 -0.03398,-0.04752 -0.0276,-0.119343 -0.03996,-0.172797 -0.03689,-0.159538 -0.08988,-0.344287 -0.249434,-0.465674 -0.100161,-0.07623 -0.378871,-0.0888 -0.403746,-0.111428 -0.06153,-0.05596 -0.08521,-0.131409 -0.13966,-0.19525 -0.03494,-0.04097 0.007,-0.113073 -0.03496,-0.151197 -0.02822,-0.02565 -0.08625,-0.03817 -0.10968,-0.06565 -0.127435,-0.14944 -0.0017,-0.444666 0.04455,-0.624674 0.0055,-0.02177 -0.05064,-0.08741 -0.02497,-0.107997 0.0094,-0.0076 0.03962,-0.0025 0.04484,-0.01037 0.02189,-0.03363 0.008,-0.04155 0.02986,-0.07517 0.07952,-0.122193 -0.199491,-0.249695 -0.204481,-0.271277 -0.01268,-0.05483 0.22891,-0.01825 0.328931,-0.0078 0.23686,0.02474 0.281891,0.203686 0.359001,0.326565 0.02152,0.03443 0.08224,0.04071 0.109689,0.06565 0.02484,0.02265 -0.01289,0.09206 0.02497,0.107998 0.239573,0.100824 0.518498,0.149971 0.767643,0.254824 0.02903,0.01222 -0.0041,0.04762 0.01498,0.0648 0.02277,0.02067 0.08194,0.02337 0.104697,0.04406 0.03919,0.03564 0.0063,0.114278 0.03496,0.151197 0.09564,0.123368 0.343256,0.182161 0.448701,0.305822 0.02089,0.02461 -9.1e-4,0.0618 0.01998,0.08639 0.02336,0.02752 0.08415,0.03894 0.10968,0.06565 0.05249,0.05492 0.05826,0.146535 0.13966,0.19525 0.04179,0.02502 0.135736,0.06077 0.204362,0.06652 0.07042,0.0059 0.04829,-0.06415 0.139551,-0.0095 0.02452,0.01468 -0.0055,0.04822 0.01498,0.0648 0.103912,0.08438 0.312498,0.116675 0.423728,0.197826 0.02916,0.02127 0.0035,0.06027 0.01998,0.08639 0.0092,0.0146 0.04464,0.01855 0.05484,0.03283 0.02367,0.03314 0.05817,0.190281 0.04995,0.215995 -0.0071,0.02226 -0.06199,0.04145 -0.07972,0.06395 -0.08524,0.108207 -0.07068,0.246281 -0.109463,0.343875 -0.0409,0.102941 0.110531,0.47799 0.144847,0.626387"
           id="path1087" />
      </g>
    </g>
    <g
       id="g1136"
       style="filter:url(#filter1138)"
       transform="rotate(9.3029434,101.83544,88.138061)">
      <g
         id="g1094">
        <path
           style="fill:#447d1c;fill-opacity:1;stroke:none;stroke-width:0.264583px;stroke-linecap:butt;stroke-linejoin:miter;stroke-opacity:1"
           d="m 90.223253,71.602368 c 0,-0.01706 0.217406,-0.17623 0.237428,-0.192456 0.03533,-0.02869 0.202055,-0.03547 0.237429,-0.06415 0.04281,-0.03469 0.03208,-0.233158 0.118715,-0.256609 0.350295,-0.09464 0.766876,-0.172514 0.949773,-0.320761 0.05158,-0.04182 0.07916,-0.08554 0.118714,-0.128305 0.07916,-0.03208 0.184428,-0.06044 0.237429,-0.09623 0.09252,-0.06248 0.05723,-0.158054 0.118715,-0.224533 0.04293,-0.04639 0.202744,-0.08142 0.237429,-0.128304 0.04248,-0.05739 0.02152,-0.139942 0.118714,-0.192457 0.05004,-0.02705 0.195881,-0.03608 0.237429,-0.06415 0.0606,-0.04093 0.04573,-0.08887 0.118715,-0.128305 0.01787,-0.0096 0.100966,0.0096 0.118714,0 0.128827,-0.06962 0.130452,-0.152261 0.237429,-0.224533 0.112622,-0.07606 0.388432,-0.122372 0.47489,-0.192457 0.211355,-0.171324 0.4448,-0.40316 0.593609,-0.57737 0.03655,-0.04295 0.04577,-0.167737 0.118715,-0.128305 0.262894,0.142057 0.118714,0.472118 0.118714,0.641523 0,0.454447 -0.307609,0.858784 -0.831054,1.283046 -0.07124,0.05773 0.07124,0.134719 0,0.192457 -0.01787,0.01434 -0.07916,0.02139 -0.118714,0.03208 -0.0394,0.04277 -0.07916,0.08554 -0.118715,0.128304 -0.129274,0.27938 0,0.58377 0,0.866057 0,0.122887 0.0268,0.232495 -0.118714,0.352837 -0.395742,0.02138 -0.794372,0.03918 -1.187222,0.06415 -0.150353,0.0096 -1.062785,0.09777 -1.187218,0.06415 -0.214645,-0.058 -0.338395,-0.246999 -0.474887,-0.320761 -0.09495,-0.05132 0.09496,-0.141136 0,-0.192458 -0.122004,-0.06593 -0.205709,-0.111151 -0.356184,-0.192458 z"
           id="path1039" />
        <path
           style="fill:#447d1c;fill-opacity:1;stroke:none;stroke-width:0.264582px;stroke-linecap:butt;stroke-linejoin:miter;stroke-opacity:1"
           d="m 89.811868,72.177156 c 0.04182,-0.06954 0.08775,-0.136984 0.125442,-0.208622 0.02505,-0.04762 -0.01022,-0.194739 0,-0.238424 0.01221,-0.05223 0.04907,-0.09712 0.06273,-0.149015 0.01866,-0.07096 0.02394,-1.234479 0,-1.37094 -0.07794,-0.444429 0.01182,0.1457 -0.06273,-0.208621 -0.01526,-0.07253 0,-0.16467 0,-0.238426 0,-0.22013 -0.0068,-0.478156 -0.09409,-0.685469 -0.05478,-0.130181 -0.237854,-0.231058 -0.250892,-0.268228 -0.03225,-0.09193 -0.03639,-0.197922 -0.06273,-0.29803 -0.0169,-0.06425 0.02197,-0.145994 0,-0.208622 -0.01479,-0.04215 -0.05139,-0.07611 -0.06273,-0.119207 -0.06165,-0.234329 0.06711,-0.582931 0.125456,-0.804682 0.007,-0.02685 -0.0202,-0.129818 0,-0.149015 0.0074,-0.0071 0.02668,0.0088 0.03135,0 0.01969,-0.03741 0.01168,-0.052 0.03136,-0.08941 0.07154,-0.13596 -0.09409,-0.387462 -0.09409,-0.417242 0,-0.07566 0.154746,0.04543 0.219532,0.08941 0.153424,0.104144 0.155848,0.352157 0.18817,0.536455 0.009,0.05161 0.04834,0.07822 0.06273,0.119207 0.01301,0.03719 -0.02269,0.116671 0,0.149016 0.143546,0.204615 0.321145,0.353464 0.470427,0.566257 0.01739,0.0248 -0.01,0.06114 0,0.08941 0.01194,0.03397 0.0508,0.05542 0.06273,0.08941 0.02054,0.05855 -0.01333,0.151598 0,0.208622 0.04455,0.190551 0.199884,0.342551 0.250894,0.536454 0.01009,0.03855 -0.01009,0.08067 0,0.119208 0.01128,0.04311 0.04988,0.07649 0.06273,0.119207 0.02641,0.08783 0.01618,0.209571 0.06273,0.29803 0.0239,0.04542 0.08077,0.120708 0.125441,0.149016 0.04584,0.02904 0.0419,-0.06939 0.09409,0.02981 0.01402,0.02666 -0.01102,0.0615 0,0.08941 0.05602,0.141987 0.189519,0.247464 0.250894,0.387441 0.01609,0.03669 -0.0069,0.08001 0,0.119207 0.0039,0.02191 0.02678,0.03782 0.03136,0.05961 0.01062,0.05058 0.0094,0.26684 0,0.29803 -0.0081,0.02702 -0.04751,0.03551 -0.06273,0.05961 -0.07319,0.115914 -0.08472,0.301161 -0.125441,0.417242 -0.04295,0.122437 0,0.65953 0,0.864289"
           id="path1049" />
        <path
           style="fill:#447d1c;fill-opacity:1;stroke:none;stroke-width:0.264582px;stroke-linecap:butt;stroke-linejoin:miter;stroke-opacity:1"
           d="m 91.592619,71.375348 c 0.02365,-0.05682 0.04963,-0.111922 0.07095,-0.170454 0.01417,-0.03891 -0.0058,-0.159111 0,-0.194804 0.0069,-0.04267 0.02775,-0.07935 0.03548,-0.121752 0.01055,-0.05798 0.01354,-1.008628 0,-1.120124 -0.04408,-0.363119 0.0067,0.119044 -0.03548,-0.170453 -0.0086,-0.05926 0,-0.134543 0,-0.194805 0,-0.179857 -0.0038,-0.390677 -0.05322,-0.560061 -0.03098,-0.106364 -0.134532,-0.188786 -0.141906,-0.219155 -0.01824,-0.07511 -0.02058,-0.161712 -0.03548,-0.243505 -0.0096,-0.0525 0.01243,-0.119284 0,-0.170454 -0.0084,-0.03444 -0.02907,-0.06219 -0.03548,-0.0974 -0.03487,-0.191458 0.03796,-0.476283 0.07096,-0.657464 0.004,-0.02194 -0.01143,-0.106067 0,-0.121752 0.0042,-0.0058 0.01509,0.0072 0.01773,0 0.01114,-0.03057 0.0066,-0.04249 0.01774,-0.07305 0.04046,-0.111085 -0.05322,-0.316575 -0.05322,-0.340906 0,-0.06182 0.08752,0.03712 0.124169,0.07305 0.08678,0.08509 0.08815,0.287729 0.10643,0.438309 0.0051,0.04217 0.02734,0.06391 0.03548,0.0974 0.0074,0.03039 -0.01283,0.09533 0,0.121753 0.08119,0.167181 0.181642,0.288797 0.266077,0.46266 0.0098,0.02026 -0.0057,0.04995 0,0.07305 0.0068,0.02775 0.02873,0.04528 0.03548,0.07305 0.01162,0.04784 -0.0075,0.123863 0,0.170454 0.0252,0.155689 0.113056,0.279881 0.141907,0.438309 0.0057,0.0315 -0.0057,0.06591 0,0.0974 0.0064,0.03522 0.02821,0.0625 0.03548,0.0974 0.01494,0.07176 0.0092,0.17123 0.03548,0.243505 0.01352,0.03711 0.04568,0.09862 0.07095,0.121753 0.02593,0.02373 0.0237,-0.0567 0.05322,0.02436 0.0079,0.02178 -0.0062,0.05025 0,0.07305 0.03168,0.11601 0.107193,0.20219 0.141908,0.316557 0.0091,0.02998 -0.0039,0.06537 0,0.0974 0.0022,0.0179 0.01515,0.0309 0.01774,0.0487 0.006,0.04133 0.0053,0.218021 0,0.243504 -0.0046,0.02208 -0.02687,0.02901 -0.03548,0.0487 -0.0414,0.09471 -0.04792,0.246062 -0.07095,0.340906 -0.02429,0.100037 0,0.538868 0,0.706166"
           id="path1055" />
      </g>
      <g
         id="g1102"
         transform="matrix(0.70170478,0,0,0.66684989,27.417663,23.891515)"
         style="fill:#438712;fill-opacity:1;stroke-width:1.46187">
        <path
           style="fill:#438712;fill-opacity:1;stroke:none;stroke-width:0.386786px;stroke-linecap:butt;stroke-linejoin:miter;stroke-opacity:1"
           d="m 90.223253,71.602368 c 0,-0.01706 0.217406,-0.17623 0.237428,-0.192456 0.03533,-0.02869 0.202055,-0.03547 0.237429,-0.06415 0.04281,-0.03469 0.03208,-0.233158 0.118715,-0.256609 0.350295,-0.09464 0.766876,-0.172514 0.949773,-0.320761 0.05158,-0.04182 0.07916,-0.08554 0.118714,-0.128305 0.07916,-0.03208 0.184428,-0.06044 0.237429,-0.09623 0.09252,-0.06248 0.05723,-0.158054 0.118715,-0.224533 0.04293,-0.04639 0.202744,-0.08142 0.237429,-0.128304 0.04248,-0.05739 0.02152,-0.139942 0.118714,-0.192457 0.05004,-0.02705 0.195881,-0.03608 0.237429,-0.06415 0.0606,-0.04093 0.04573,-0.08887 0.118715,-0.128305 0.01787,-0.0096 0.100966,0.0096 0.118714,0 0.128827,-0.06962 0.130452,-0.152261 0.237429,-0.224533 0.112622,-0.07606 0.388432,-0.122372 0.47489,-0.192457 0.211355,-0.171324 0.4448,-0.40316 0.593609,-0.57737 0.03655,-0.04295 0.04577,-0.167737 0.118715,-0.128305 0.262894,0.142057 0.118714,0.472118 0.118714,0.641523 0,0.454447 -0.307609,0.858784 -0.831054,1.283046 -0.07124,0.05773 0.07124,0.134719 0,0.192457 -0.01787,0.01434 -0.07916,0.02139 -0.118714,0.03208 -0.0394,0.04277 -0.07916,0.08554 -0.118715,0.128304 -0.129274,0.27938 0,0.58377 0,0.866057 0,0.122887 0.0268,0.232495 -0.118714,0.352837 -0.395742,0.02138 -0.794372,0.03918 -1.187222,0.06415 -0.150353,0.0096 -1.062785,0.09777 -1.187218,0.06415 -0.214645,-0.058 -0.338395,-0.246999 -0.474887,-0.320761 -0.09495,-0.05132 0.09496,-0.141136 0,-0.192458 -0.122004,-0.06593 -0.205709,-0.111151 -0.356184,-0.192458 z"
           id="path1096" />
        <path
           style="fill:#438712;fill-opacity:1;stroke:none;stroke-width:0.386784px;stroke-linecap:butt;stroke-linejoin:miter;stroke-opacity:1"
           d="m 89.811868,72.177156 c 0.04182,-0.06954 0.08775,-0.136984 0.125442,-0.208622 0.02505,-0.04762 -0.01022,-0.194739 0,-0.238424 0.01221,-0.05223 0.04907,-0.09712 0.06273,-0.149015 0.01866,-0.07096 0.02394,-1.234479 0,-1.37094 -0.07794,-0.444429 0.01182,0.1457 -0.06273,-0.208621 -0.01526,-0.07253 0,-0.16467 0,-0.238426 0,-0.22013 -0.0068,-0.478156 -0.09409,-0.685469 -0.05478,-0.130181 -0.237854,-0.231058 -0.250892,-0.268228 -0.03225,-0.09193 -0.03639,-0.197922 -0.06273,-0.29803 -0.0169,-0.06425 0.02197,-0.145994 0,-0.208622 -0.01479,-0.04215 -0.05139,-0.07611 -0.06273,-0.119207 -0.06165,-0.234329 0.06711,-0.582931 0.125456,-0.804682 0.007,-0.02685 -0.0202,-0.129818 0,-0.149015 0.0074,-0.0071 0.02668,0.0088 0.03135,0 0.01969,-0.03741 0.01168,-0.052 0.03136,-0.08941 0.07154,-0.13596 -0.09409,-0.387462 -0.09409,-0.417242 0,-0.07566 0.154746,0.04543 0.219532,0.08941 0.153424,0.104144 0.155848,0.352157 0.18817,0.536455 0.009,0.05161 0.04834,0.07822 0.06273,0.119207 0.01301,0.03719 -0.02269,0.116671 0,0.149016 0.143546,0.204615 0.321145,0.353464 0.470427,0.566257 0.01739,0.0248 -0.01,0.06114 0,0.08941 0.01194,0.03397 0.0508,0.05542 0.06273,0.08941 0.02054,0.05855 -0.01333,0.151598 0,0.208622 0.04455,0.190551 0.199884,0.342551 0.250894,0.536454 0.01009,0.03855 -0.01009,0.08067 0,0.119208 0.01128,0.04311 0.04988,0.07649 0.06273,0.119207 0.02641,0.08783 0.01618,0.209571 0.06273,0.29803 0.0239,0.04542 0.08077,0.120708 0.125441,0.149016 0.04584,0.02904 0.0419,-0.06939 0.09409,0.02981 0.01402,0.02666 -0.01102,0.0615 0,0.08941 0.05602,0.141987 0.189519,0.247464 0.250894,0.387441 0.01609,0.03669 -0.0069,0.08001 0,0.119207 0.0039,0.02191 0.02678,0.03782 0.03136,0.05961 0.01062,0.05058 0.0094,0.26684 0,0.29803 -0.0081,0.02702 -0.04751,0.03551 -0.06273,0.05961 -0.07319,0.115914 -0.08472,0.301161 -0.125441,0.417242 -0.04295,0.122437 0,0.65953 0,0.864289"
           id="path1098" />
        <path
           style="fill:#438712;fill-opacity:1;stroke:none;stroke-width:0.386784px;stroke-linecap:butt;stroke-linejoin:miter;stroke-opacity:1"
           d="m 91.592619,71.375348 c 0.02365,-0.05682 0.04963,-0.111922 0.07095,-0.170454 0.01417,-0.03891 -0.0058,-0.159111 0,-0.194804 0.0069,-0.04267 0.02775,-0.07935 0.03548,-0.121752 0.01055,-0.05798 0.01354,-1.008628 0,-1.120124 -0.04408,-0.363119 0.0067,0.119044 -0.03548,-0.170453 -0.0086,-0.05926 0,-0.134543 0,-0.194805 0,-0.179857 -0.0038,-0.390677 -0.05322,-0.560061 -0.03098,-0.106364 -0.134532,-0.188786 -0.141906,-0.219155 -0.01824,-0.07511 -0.02058,-0.161712 -0.03548,-0.243505 -0.0096,-0.0525 0.01243,-0.119284 0,-0.170454 -0.0084,-0.03444 -0.02907,-0.06219 -0.03548,-0.0974 -0.03487,-0.191458 0.03796,-0.476283 0.07096,-0.657464 0.004,-0.02194 -0.01143,-0.106067 0,-0.121752 0.0042,-0.0058 0.01509,0.0072 0.01773,0 0.01114,-0.03057 0.0066,-0.04249 0.01774,-0.07305 0.04046,-0.111085 -0.05322,-0.316575 -0.05322,-0.340906 0,-0.06182 0.08752,0.03712 0.124169,0.07305 0.08678,0.08509 0.08815,0.287729 0.10643,0.438309 0.0051,0.04217 0.02734,0.06391 0.03548,0.0974 0.0074,0.03039 -0.01283,0.09533 0,0.121753 0.08119,0.167181 0.181642,0.288797 0.266077,0.46266 0.0098,0.02026 -0.0057,0.04995 0,0.07305 0.0068,0.02775 0.02873,0.04528 0.03548,0.07305 0.01162,0.04784 -0.0075,0.123863 0,0.170454 0.0252,0.155689 0.113056,0.279881 0.141907,0.438309 0.0057,0.0315 -0.0057,0.06591 0,0.0974 0.0064,0.03522 0.02821,0.0625 0.03548,0.0974 0.01494,0.07176 0.0092,0.17123 0.03548,0.243505 0.01352,0.03711 0.04568,0.09862 0.07095,0.121753 0.02593,0.02373 0.0237,-0.0567 0.05322,0.02436 0.0079,0.02178 -0.0062,0.05025 0,0.07305 0.03168,0.11601 0.107193,0.20219 0.141908,0.316557 0.0091,0.02998 -0.0039,0.06537 0,0.0974 0.0022,0.0179 0.01515,0.0309 0.01774,0.0487 0.006,0.04133 0.0053,0.218021 0,0.243504 -0.0046,0.02208 -0.02687,0.02901 -0.03548,0.0487 -0.0414,0.09471 -0.04792,0.246062 -0.07095,0.340906 -0.02429,0.100037 0,0.538868 0,0.706166"
           id="path1100" />
      </g>
    </g>
    <g
       id="g1158"
       style="stroke-width:1.08561;filter:url(#filter1138)"
       transform="matrix(-0.66621576,0,0,1.2736095,149.50459,-26.601623)">
      <g
         id="g1148"
         style="stroke-width:1.08561">
        <path
           style="fill:#447d1c;fill-opacity:1;stroke:none;stroke-width:0.287234px;stroke-linecap:butt;stroke-linejoin:miter;stroke-opacity:1"
           d="m 90.223253,71.602368 c 0,-0.01706 0.217406,-0.17623 0.237428,-0.192456 0.03533,-0.02869 0.202055,-0.03547 0.237429,-0.06415 0.04281,-0.03469 0.03208,-0.233158 0.118715,-0.256609 0.350295,-0.09464 0.766876,-0.172514 0.949773,-0.320761 0.05158,-0.04182 0.07916,-0.08554 0.118714,-0.128305 0.07916,-0.03208 0.184428,-0.06044 0.237429,-0.09623 0.09252,-0.06248 0.05723,-0.158054 0.118715,-0.224533 0.04293,-0.04639 0.202744,-0.08142 0.237429,-0.128304 0.04248,-0.05739 0.02152,-0.139942 0.118714,-0.192457 0.05004,-0.02705 0.195881,-0.03608 0.237429,-0.06415 0.0606,-0.04093 0.04573,-0.08887 0.118715,-0.128305 0.01787,-0.0096 0.100966,0.0096 0.118714,0 0.128827,-0.06962 0.130452,-0.152261 0.237429,-0.224533 0.112622,-0.07606 0.388432,-0.122372 0.47489,-0.192457 0.211355,-0.171324 0.4448,-0.40316 0.593609,-0.57737 0.03655,-0.04295 0.04577,-0.167737 0.118715,-0.128305 0.262894,0.142057 0.118714,0.472118 0.118714,0.641523 0,0.454447 -0.307609,0.858784 -0.831054,1.283046 -0.07124,0.05773 0.07124,0.134719 0,0.192457 -0.01787,0.01434 -0.07916,0.02139 -0.118714,0.03208 -0.0394,0.04277 -0.07916,0.08554 -0.118715,0.128304 -0.129274,0.27938 0,0.58377 0,0.866057 0,0.122887 0.0268,0.232495 -0.118714,0.352837 -0.395742,0.02138 -0.794372,0.03918 -1.187222,0.06415 -0.150353,0.0096 -1.062785,0.09777 -1.187218,0.06415 -0.214645,-0.058 -0.338395,-0.246999 -0.474887,-0.320761 -0.09495,-0.05132 0.09496,-0.141136 0,-0.192458 -0.122004,-0.06593 -0.205709,-0.111151 -0.356184,-0.192458 z"
           id="path1142" />
        <path
           style="fill:#447d1c;fill-opacity:1;stroke:none;stroke-width:0.287233px;stroke-linecap:butt;stroke-linejoin:miter;stroke-opacity:1"
           d="m 89.811868,72.177156 c 0.04182,-0.06954 0.08775,-0.136984 0.125442,-0.208622 0.02505,-0.04762 -0.01022,-0.194739 0,-0.238424 0.01221,-0.05223 0.04907,-0.09712 0.06273,-0.149015 0.01866,-0.07096 0.02394,-1.234479 0,-1.37094 -0.07794,-0.444429 0.01182,0.1457 -0.06273,-0.208621 -0.01526,-0.07253 0,-0.16467 0,-0.238426 0,-0.22013 -0.0068,-0.478156 -0.09409,-0.685469 -0.05478,-0.130181 -0.237854,-0.231058 -0.250892,-0.268228 -0.03225,-0.09193 -0.03639,-0.197922 -0.06273,-0.29803 -0.0169,-0.06425 0.02197,-0.145994 0,-0.208622 -0.01479,-0.04215 -0.05139,-0.07611 -0.06273,-0.119207 -0.06165,-0.234329 0.06711,-0.582931 0.125456,-0.804682 0.007,-0.02685 -0.0202,-0.129818 0,-0.149015 0.0074,-0.0071 0.02668,0.0088 0.03135,0 0.01969,-0.03741 0.01168,-0.052 0.03136,-0.08941 0.07154,-0.13596 -0.09409,-0.387462 -0.09409,-0.417242 0,-0.07566 0.154746,0.04543 0.219532,0.08941 0.153424,0.104144 0.155848,0.352157 0.18817,0.536455 0.009,0.05161 0.04834,0.07822 0.06273,0.119207 0.01301,0.03719 -0.02269,0.116671 0,0.149016 0.143546,0.204615 0.321145,0.353464 0.470427,0.566257 0.01739,0.0248 -0.01,0.06114 0,0.08941 0.01194,0.03397 0.0508,0.05542 0.06273,0.08941 0.02054,0.05855 -0.01333,0.151598 0,0.208622 0.04455,0.190551 0.199884,0.342551 0.250894,0.536454 0.01009,0.03855 -0.01009,0.08067 0,0.119208 0.01128,0.04311 0.04988,0.07649 0.06273,0.119207 0.02641,0.08783 0.01618,0.209571 0.06273,0.29803 0.0239,0.04542 0.08077,0.120708 0.125441,0.149016 0.04584,0.02904 0.0419,-0.06939 0.09409,0.02981 0.01402,0.02666 -0.01102,0.0615 0,0.08941 0.05602,0.141987 0.189519,0.247464 0.250894,0.387441 0.01609,0.03669 -0.0069,0.08001 0,0.119207 0.0039,0.02191 0.02678,0.03782 0.03136,0.05961 0.01062,0.05058 0.0094,0.26684 0,0.29803 -0.0081,0.02702 -0.04751,0.03551 -0.06273,0.05961 -0.07319,0.115914 -0.08472,0.301161 -0.125441,0.417242 -0.04295,0.122437 0,0.65953 0,0.864289"
           id="path1144" />
        <path
           style="fill:#447d1c;fill-opacity:1;stroke:none;stroke-width:0.287233px;stroke-linecap:butt;stroke-linejoin:miter;stroke-opacity:1"
           d="m 91.592619,71.375348 c 0.02365,-0.05682 0.04963,-0.111922 0.07095,-0.170454 0.01417,-0.03891 -0.0058,-0.159111 0,-0.194804 0.0069,-0.04267 0.02775,-0.07935 0.03548,-0.121752 0.01055,-0.05798 0.01354,-1.008628 0,-1.120124 -0.04408,-0.363119 0.0067,0.119044 -0.03548,-0.170453 -0.0086,-0.05926 0,-0.134543 0,-0.194805 0,-0.179857 -0.0038,-0.390677 -0.05322,-0.560061 -0.03098,-0.106364 -0.134532,-0.188786 -0.141906,-0.219155 -0.01824,-0.07511 -0.02058,-0.161712 -0.03548,-0.243505 -0.0096,-0.0525 0.01243,-0.119284 0,-0.170454 -0.0084,-0.03444 -0.02907,-0.06219 -0.03548,-0.0974 -0.03487,-0.191458 0.03796,-0.476283 0.07096,-0.657464 0.004,-0.02194 -0.01143,-0.106067 0,-0.121752 0.0042,-0.0058 0.01509,0.0072 0.01773,0 0.01114,-0.03057 0.0066,-0.04249 0.01774,-0.07305 0.04046,-0.111085 -0.05322,-0.316575 -0.05322,-0.340906 0,-0.06182 0.08752,0.03712 0.124169,0.07305 0.08678,0.08509 0.08815,0.287729 0.10643,0.438309 0.0051,0.04217 0.02734,0.06391 0.03548,0.0974 0.0074,0.03039 -0.01283,0.09533 0,0.121753 0.08119,0.167181 0.181642,0.288797 0.266077,0.46266 0.0098,0.02026 -0.0057,0.04995 0,0.07305 0.0068,0.02775 0.02873,0.04528 0.03548,0.07305 0.01162,0.04784 -0.0075,0.123863 0,0.170454 0.0252,0.155689 0.113056,0.279881 0.141907,0.438309 0.0057,0.0315 -0.0057,0.06591 0,0.0974 0.0064,0.03522 0.02821,0.0625 0.03548,0.0974 0.01494,0.07176 0.0092,0.17123 0.03548,0.243505 0.01352,0.03711 0.04568,0.09862 0.07095,0.121753 0.02593,0.02373 0.0237,-0.0567 0.05322,0.02436 0.0079,0.02178 -0.0062,0.05025 0,0.07305 0.03168,0.11601 0.107193,0.20219 0.141908,0.316557 0.0091,0.02998 -0.0039,0.06537 0,0.0974 0.0022,0.0179 0.01515,0.0309 0.01774,0.0487 0.006,0.04133 0.0053,0.218021 0,0.243504 -0.0046,0.02208 -0.02687,0.02901 -0.03548,0.0487 -0.0414,0.09471 -0.04792,0.246062 -0.07095,0.340906 -0.02429,0.100037 0,0.538868 0,0.706166"
           id="path1146" />
      </g>
      <g
         id="g1156"
         transform="matrix(0.70170478,0,0,0.66684989,27.417663,23.891515)"
         style="fill:#438712;fill-opacity:1;stroke-width:1.58702">
        <path
           style="fill:#438712;fill-opacity:1;stroke:none;stroke-width:0.419899px;stroke-linecap:butt;stroke-linejoin:miter;stroke-opacity:1"
           d="m 90.223253,71.602368 c 0,-0.01706 0.217406,-0.17623 0.237428,-0.192456 0.03533,-0.02869 0.202055,-0.03547 0.237429,-0.06415 0.04281,-0.03469 0.03208,-0.233158 0.118715,-0.256609 0.350295,-0.09464 0.766876,-0.172514 0.949773,-0.320761 0.05158,-0.04182 0.07916,-0.08554 0.118714,-0.128305 0.07916,-0.03208 0.184428,-0.06044 0.237429,-0.09623 0.09252,-0.06248 0.05723,-0.158054 0.118715,-0.224533 0.04293,-0.04639 0.202744,-0.08142 0.237429,-0.128304 0.04248,-0.05739 0.02152,-0.139942 0.118714,-0.192457 0.05004,-0.02705 0.195881,-0.03608 0.237429,-0.06415 0.0606,-0.04093 0.04573,-0.08887 0.118715,-0.128305 0.01787,-0.0096 0.100966,0.0096 0.118714,0 0.128827,-0.06962 0.130452,-0.152261 0.237429,-0.224533 0.112622,-0.07606 0.388432,-0.122372 0.47489,-0.192457 0.211355,-0.171324 0.4448,-0.40316 0.593609,-0.57737 0.03655,-0.04295 0.04577,-0.167737 0.118715,-0.128305 0.262894,0.142057 0.118714,0.472118 0.118714,0.641523 0,0.454447 -0.307609,0.858784 -0.831054,1.283046 -0.07124,0.05773 0.07124,0.134719 0,0.192457 -0.01787,0.01434 -0.07916,0.02139 -0.118714,0.03208 -0.0394,0.04277 -0.07916,0.08554 -0.118715,0.128304 -0.129274,0.27938 0,0.58377 0,0.866057 0,0.122887 0.0268,0.232495 -0.118714,0.352837 -0.395742,0.02138 -0.794372,0.03918 -1.187222,0.06415 -0.150353,0.0096 -1.062785,0.09777 -1.187218,0.06415 -0.214645,-0.058 -0.338395,-0.246999 -0.474887,-0.320761 -0.09495,-0.05132 0.09496,-0.141136 0,-0.192458 -0.122004,-0.06593 -0.205709,-0.111151 -0.356184,-0.192458 z"
           id="path1150" />
        <path
           style="fill:#438712;fill-opacity:1;stroke:none;stroke-width:0.419897px;stroke-linecap:butt;stroke-linejoin:miter;stroke-opacity:1"
           d="m 89.811868,72.177156 c 0.04182,-0.06954 0.08775,-0.136984 0.125442,-0.208622 0.02505,-0.04762 -0.01022,-0.194739 0,-0.238424 0.01221,-0.05223 0.04907,-0.09712 0.06273,-0.149015 0.01866,-0.07096 0.02394,-1.234479 0,-1.37094 -0.07794,-0.444429 0.01182,0.1457 -0.06273,-0.208621 -0.01526,-0.07253 0,-0.16467 0,-0.238426 0,-0.22013 -0.0068,-0.478156 -0.09409,-0.685469 -0.05478,-0.130181 -0.237854,-0.231058 -0.250892,-0.268228 -0.03225,-0.09193 -0.03639,-0.197922 -0.06273,-0.29803 -0.0169,-0.06425 0.02197,-0.145994 0,-0.208622 -0.01479,-0.04215 -0.05139,-0.07611 -0.06273,-0.119207 -0.06165,-0.234329 0.06711,-0.582931 0.125456,-0.804682 0.007,-0.02685 -0.0202,-0.129818 0,-0.149015 0.0074,-0.0071 0.02668,0.0088 0.03135,0 0.01969,-0.03741 0.01168,-0.052 0.03136,-0.08941 0.07154,-0.13596 -0.09409,-0.387462 -0.09409,-0.417242 0,-0.07566 0.154746,0.04543 0.219532,0.08941 0.153424,0.104144 0.155848,0.352157 0.18817,0.536455 0.009,0.05161 0.04834,0.07822 0.06273,0.119207 0.01301,0.03719 -0.02269,0.116671 0,0.149016 0.143546,0.204615 0.321145,0.353464 0.470427,0.566257 0.01739,0.0248 -0.01,0.06114 0,0.08941 0.01194,0.03397 0.0508,0.05542 0.06273,0.08941 0.02054,0.05855 -0.01333,0.151598 0,0.208622 0.04455,0.190551 0.199884,0.342551 0.250894,0.536454 0.01009,0.03855 -0.01009,0.08067 0,0.119208 0.01128,0.04311 0.04988,0.07649 0.06273,0.119207 0.02641,0.08783 0.01618,0.209571 0.06273,0.29803 0.0239,0.04542 0.08077,0.120708 0.125441,0.149016 0.04584,0.02904 0.0419,-0.06939 0.09409,0.02981 0.01402,0.02666 -0.01102,0.0615 0,0.08941 0.05602,0.141987 0.189519,0.247464 0.250894,0.387441 0.01609,0.03669 -0.0069,0.08001 0,0.119207 0.0039,0.02191 0.02678,0.03782 0.03136,0.05961 0.01062,0.05058 0.0094,0.26684 0,0.29803 -0.0081,0.02702 -0.04751,0.03551 -0.06273,0.05961 -0.07319,0.115914 -0.08472,0.301161 -0.125441,0.417242 -0.04295,0.122437 0,0.65953 0,0.864289"
           id="path1152" />
        <path
           style="fill:#438712;fill-opacity:1;stroke:none;stroke-width:0.419897px;stroke-linecap:butt;stroke-linejoin:miter;stroke-opacity:1"
           d="m 91.592619,71.375348 c 0.02365,-0.05682 0.04963,-0.111922 0.07095,-0.170454 0.01417,-0.03891 -0.0058,-0.159111 0,-0.194804 0.0069,-0.04267 0.02775,-0.07935 0.03548,-0.121752 0.01055,-0.05798 0.01354,-1.008628 0,-1.120124 -0.04408,-0.363119 0.0067,0.119044 -0.03548,-0.170453 -0.0086,-0.05926 0,-0.134543 0,-0.194805 0,-0.179857 -0.0038,-0.390677 -0.05322,-0.560061 -0.03098,-0.106364 -0.134532,-0.188786 -0.141906,-0.219155 -0.01824,-0.07511 -0.02058,-0.161712 -0.03548,-0.243505 -0.0096,-0.0525 0.01243,-0.119284 0,-0.170454 -0.0084,-0.03444 -0.02907,-0.06219 -0.03548,-0.0974 -0.03487,-0.191458 0.03796,-0.476283 0.07096,-0.657464 0.004,-0.02194 -0.01143,-0.106067 0,-0.121752 0.0042,-0.0058 0.01509,0.0072 0.01773,0 0.01114,-0.03057 0.0066,-0.04249 0.01774,-0.07305 0.04046,-0.111085 -0.05322,-0.316575 -0.05322,-0.340906 0,-0.06182 0.08752,0.03712 0.124169,0.07305 0.08678,0.08509 0.08815,0.287729 0.10643,0.438309 0.0051,0.04217 0.02734,0.06391 0.03548,0.0974 0.0074,0.03039 -0.01283,0.09533 0,0.121753 0.08119,0.167181 0.181642,0.288797 0.266077,0.46266 0.0098,0.02026 -0.0057,0.04995 0,0.07305 0.0068,0.02775 0.02873,0.04528 0.03548,0.07305 0.01162,0.04784 -0.0075,0.123863 0,0.170454 0.0252,0.155689 0.113056,0.279881 0.141907,0.438309 0.0057,0.0315 -0.0057,0.06591 0,0.0974 0.0064,0.03522 0.02821,0.0625 0.03548,0.0974 0.01494,0.07176 0.0092,0.17123 0.03548,0.243505 0.01352,0.03711 0.04568,0.09862 0.07095,0.121753 0.02593,0.02373 0.0237,-0.0567 0.05322,0.02436 0.0079,0.02178 -0.0062,0.05025 0,0.07305 0.03168,0.11601 0.107193,0.20219 0.141908,0.316557 0.0091,0.02998 -0.0039,0.06537 0,0.0974 0.0022,0.0179 0.01515,0.0309 0.01774,0.0487 0.006,0.04133 0.0053,0.218021 0,0.243504 -0.0046,0.02208 -0.02687,0.02901 -0.03548,0.0487 -0.0414,0.09471 -0.04792,0.246062 -0.07095,0.340906 -0.02429,0.100037 0,0.538868 0,0.706166"
           id="path1154" />
      </g>
    </g>
  </g>
</svg>
