<?xml version="1.0" encoding="UTF-8" standalone="no"?>
<svg
   xmlns:osb="http://www.openswatchbook.org/uri/2009/osb"
   xmlns:dc="http://purl.org/dc/elements/1.1/"
   xmlns:cc="http://creativecommons.org/ns#"
   xmlns:rdf="http://www.w3.org/1999/02/22-rdf-syntax-ns#"
   xmlns:svg="http://www.w3.org/2000/svg"
   xmlns="http://www.w3.org/2000/svg"
   xmlns:sodipodi="http://sodipodi.sourceforge.net/DTD/sodipodi-0.dtd"
   xmlns:inkscape="http://www.inkscape.org/namespaces/inkscape"
   width="21.166666mm"
   height="24.442207mm"
   viewBox="0 0 21.166666 24.442207"
   version="1.1"
   id="svg8"
   inkscape:version="1.0.1 (3bc2e813f5, 2020-09-07)"
   sodipodi:docname="mudTile1Selected.svg">
  <defs
     id="defs2">
    <linearGradient
       id="linearGradient1027"
       osb:paint="solid">
      <stop
         style="stop-color:#486336;stop-opacity:1;"
         offset="0"
         id="stop1025" />
    </linearGradient>
    <filter
       inkscape:collect="always"
       style="color-interpolation-filters:sRGB"
       id="filter1023"
       x="-0.042854979"
       width="1.08571"
       y="-0.041351833"
       height="1.0827037">
      <feGaussianBlur
         inkscape:collect="always"
         stdDeviation="0.30880865"
         id="feGaussianBlur1025" />
    </filter>
    <filter
       inkscape:collect="always"
       style="color-interpolation-filters:sRGB"
       id="filter1143"
       x="-0.013019079"
       width="1.0260382"
       y="-0.012562433"
       height="1.0251249">
      <feGaussianBlur
         inkscape:collect="always"
         stdDeviation="0.093814173"
         id="feGaussianBlur1145" />
    </filter>
  </defs>
  <sodipodi:namedview
     id="base"
     pagecolor="#ffffff"
     bordercolor="#666666"
     borderopacity="1.0"
     inkscape:pageopacity="0.0"
     inkscape:pageshadow="2"
     inkscape:zoom="5.6"
     inkscape:cx="45.871872"
     inkscape:cy="41.398078"
     inkscape:document-units="mm"
     inkscape:current-layer="layer1"
     inkscape:document-rotation="0"
     showgrid="false"
     inkscape:snap-page="true"
     inkscape:window-width="1052"
     inkscape:window-height="986"
     inkscape:window-x="106"
     inkscape:window-y="2"
     inkscape:window-maximized="0"
     inkscape:snap-nodes="false" />
  <metadata
     id="metadata5">
    <rdf:RDF>
      <cc:Work
         rdf:about="">
        <dc:format>image/svg+xml</dc:format>
        <dc:type
           rdf:resource="http://purl.org/dc/dcmitype/StillImage" />
        <dc:title></dc:title>
      </cc:Work>
    </rdf:RDF>
  </metadata>
  <g
     inkscape:label="Layer 1"
     inkscape:groupmode="layer"
     id="layer1"
     transform="translate(-78.619047,-56.731359)">
    <path
       sodipodi:type="star"
       style="mix-blend-mode:normal;fill:#46702c;fill-opacity:1;stroke-width:0.264583"
       id="path10"
       sodipodi:sides="6"
       sodipodi:cx="105.83333"
       sodipodi:cy="144.3869"
       sodipodi:r1="99.202728"
       sodipodi:r2="85.912086"
       sodipodi:arg1="0.51820093"
       sodipodi:arg2="1.0417997"
       inkscape:flatsided="true"
       inkscape:rounded="0"
       inkscape:randomized="0"
       d="M 192.0119,193.52381 106.36881,243.58818 20.190236,194.45128 19.654758,95.249998 105.29785,45.185619 191.47642,94.322522 Z"
       transform="matrix(0.12280702,0,0,-0.12319502,76.205305,86.74021)" />
    <path
       style="fill:#4b6327;fill-opacity:1;stroke:none;stroke-width:0.244963px;stroke-linecap:butt;stroke-linejoin:miter;stroke-opacity:1;filter:url(#filter1143)"
       d="m 89.107376,60.641625 c -0.340327,-0.03064 -0.53249,0.267137 -0.850447,0.330729 -0.09266,0.01853 -0.190086,-0.01437 -0.283482,0 -0.14351,0.02208 -0.282844,0.06602 -0.425223,0.09449 -0.259376,0.05188 -0.448413,0.223414 -0.708705,0.283482 -0.14148,0.03265 -0.283482,0.063 -0.425223,0.09449 -0.173239,0.01575 -0.349906,0.0095 -0.519718,0.04725 -0.117084,0.02602 -0.215846,0.107276 -0.330729,0.141741 -0.09231,0.02769 -0.142133,-0.04646 -0.188988,0.04725 -0.02927,0.05854 0.01287,0.171883 0,0.236235 -0.02515,0.12576 -0.08678,0.362538 -0.141741,0.47247 -0.08299,0.16599 -0.263634,0.291824 -0.377976,0.425224 -0.08327,0.09714 -0.07929,0.19572 -0.188988,0.283482 -0.187833,0.150266 -0.419285,0.238743 -0.614212,0.377976 -0.05437,0.03884 -0.07835,0.120611 -0.141741,0.141741 -0.02988,0.01 -0.0703,-0.02016 -0.09449,0 -0.705407,0.587839 0.236361,-0.07098 -0.330729,0.425223 -0.169574,0.148378 -0.6202,0.342708 -0.708705,0.519718 -0.03307,0.06613 -0.07134,0.07134 -0.09449,0.09449 -0.514324,0.514324 0.292414,-0.04985 -0.708706,0.472471 -0.163996,0.08556 -1.051546,0.618528 -1.181175,0.708705 -0.165565,0.115176 -0.315939,0.250795 -0.47247,0.377976 -0.216144,0.175617 -0.364286,0.314569 -0.283482,0.33073 0.07721,0.01544 0.158561,-0.01295 0.236235,0 0.01217,0.002 0.209863,0.461475 0.236235,0.566964 0.05624,0.224968 0.0307,0.439382 0.141741,0.661458 0.01992,0.03984 0.08041,0.05223 0.09449,0.09449 0.01,0.02988 -0.01409,0.06632 0,0.09449 0.05414,0.108288 0.148185,0.113826 0.188988,0.236235 0.03486,0.104586 -0.0085,0.220811 0,0.330729 0.02477,0.322049 0.04725,0.619981 0.04725,0.944941 0,0.171857 -0.04819,0.445542 0,0.614211 0.09515,0.333032 0.06306,0.205164 0.09449,0.425223 0.02268,0.158765 0.04331,0.752019 0.04725,0.755953 0.01114,0.01114 0.03611,-0.01114 0.04725,0 0.06089,0.06089 0.08278,0.313543 0.09449,0.377976 0.01992,0.109566 0.0044,0.227933 0.04725,0.330729 0.22656,0.543743 0.09335,0.09335 0.283482,0.283482 0.03668,0.03668 -0.02368,0.188873 0,0.236235 0.007,0.01409 0.0414,-0.01462 0.04725,0 0.08897,0.222435 0.0067,0.285547 0.09449,0.519718 0.03812,0.101658 0.293632,0.199137 0.330729,0.236235 0.02227,0.02227 0.0024,0.06309 0,0.09449 -0.01454,0.189084 -0.04023,0.377451 -0.04725,0.566964 -0.02939,0.793551 -0.04647,1.667208 0.283482,2.409598 0.07293,0.16409 0.219789,0.284027 0.330729,0.425223 0.0623,0.0793 0.111518,0.171677 0.188988,0.236235 0.0242,0.02016 0.06319,-0.0035 0.09449,0 0.668424,0.07427 1.154328,0.0945 1.795387,0.0945 0.08479,0 0.407522,-0.02213 0.425223,0 0.290285,0.362856 -0.04751,0.195585 0.519717,0.519717 0.09061,0.05178 0.524948,0.11373 0.566965,0.141741 0.0293,0.01953 0.02235,0.06959 0.04725,0.09449 0.06774,0.06774 0.191061,0.02204 0.283483,0.04725 0.09609,0.02621 0.185811,0.07496 0.283482,0.09449 0.252376,0.05047 0.579496,0.02989 0.803199,0.141741 0.04226,0.02113 0.09449,0 0.141741,0 0.283483,0 0.566965,0 0.850447,0 0.229045,0 0.684451,0.06064 0.803199,-0.236235 0.02925,-0.07311 -0.05568,-0.180554 0,-0.236235 0.05568,-0.05568 0.159019,0.01544 0.236235,0 0.05321,-0.01064 0.135778,-0.131099 0.188988,-0.141741 0.108102,-0.02162 0.220811,0.0085 0.33073,0 0.825154,-0.06347 0.09491,0.02341 0.330729,-0.09449 0.185277,-0.09264 0.412572,-0.04705 0.614211,-0.09449 0.398206,-0.0937 0.3733,-0.334051 0.519717,-0.377976 0.638278,-0.191484 1.428465,-0.02945 2.078869,-0.09449 0.02216,-0.0022 0.02612,-0.0402 0.04725,-0.04725 0.02988,-0.01 0.06632,0.01409 0.09449,0 0.177436,-0.08872 0.206637,-0.963138 0.188988,-1.086681 -0.02755,-0.192847 -0.07622,-0.383509 -0.141741,-0.566964 -0.0191,-0.05348 -0.128564,-0.09631 -0.09449,-0.141741 0.156419,-0.208559 0.413241,-0.274496 0.614211,-0.425224 0.430718,-0.323038 0.208212,-0.192114 0.519718,-0.47247 0.09143,-0.08228 0.217444,-0.132462 0.283482,-0.236235 0.352774,-0.03479 -0.0026,-0.231124 0.04725,-0.330729 0.06367,-0.127332 0.171583,-0.179875 0.236235,-0.330729 0.174869,-0.408028 -0.127357,0.213627 0.09449,-0.377977 0.01994,-0.05317 0.07213,-0.08955 0.09449,-0.141741 0.02558,-0.05968 0.02167,-0.129303 0.04725,-0.188988 0.206264,-0.481282 0.550977,-0.891887 0.755953,-1.370163 0.01861,-0.04343 -0.02113,-0.09948 0,-0.141741 0.132739,-0.265479 -0.07152,0.545274 0.188988,-0.236235 0.07093,-0.212784 -0.09977,-0.556417 0,-0.755953 0.100774,-0.201548 0.105546,-0.04117 0.141741,-0.330729 0.0134,-0.107216 -0.07128,-0.477858 0,-0.566964 0.170663,-0.213329 0.266577,-0.06606 0.377976,-0.377977 0.118793,-0.332621 0,-0.620439 0,-0.94494 0,-0.231869 0.127771,-1.539845 0.04725,-1.700893 -0.103795,-0.207589 -0.164102,-0.459844 -0.188988,-0.708705 -0.03882,-0.388189 -0.0057,-0.861828 -0.188988,-1.228423 -0.27806,-0.556119 -1.066934,-0.280483 -1.511905,-0.614211 -0.0126,-0.0094 0.005,-0.03231 0,-0.04725 -0.02682,-0.08046 -0.06108,-0.158282 -0.09449,-0.236235 -0.06207,-0.144828 -0.200339,-0.206015 -0.283482,-0.330729 -0.07142,-0.107123 0.07701,-0.395457 -0.141741,-0.614212 -0.0214,-0.0214 -0.277075,-0.209408 -0.330729,-0.236235 -0.04707,-0.02353 -0.141519,0.0178 -0.188989,0 -0.156642,-0.05874 -0.32637,-0.163185 -0.47247,-0.236235 -0.04226,-0.02113 -0.09692,0.01494 -0.141741,0 -0.113786,-0.03793 -0.216943,-0.103812 -0.330729,-0.141741 -0.264752,-0.08825 -0.534864,-0.159568 -0.803199,-0.236235 -0.07721,-0.02206 -0.161675,-0.01742 -0.236236,-0.04725 -0.01462,-0.0058 0.0031,-0.0318 0,-0.04725 -0.01273,-0.06367 -0.02671,-0.127386 -0.04725,-0.188988 -0.02682,-0.08046 -0.063,-0.15749 -0.09449,-0.236235 -0.04725,-0.07875 -0.110358,-0.149933 -0.141741,-0.236236 -0.254291,-0.6993 0.08209,0.04489 -0.04725,-0.47247 -0.0038,-0.01528 -0.0315,0 -0.04725,0 -0.110243,0 -0.22116,-0.01217 -0.330729,0 -1.304343,0.144927 -0.0831,0.03747 -0.708705,0.141742 -0.227575,0.03793 -0.85762,-0.06728 -0.992188,0 -0.09999,0.04999 -0.121164,0.01848 -0.236235,0.04725 -0.10409,0.02602 -0.191113,0.142804 -0.283482,0.188989 -0.04102,0.02051 -0.326639,0.04622 -0.330729,0.04725 z"
       id="path1151"
       transform="matrix(1.0464244,0,0,1.1148509,-4.6427378,-8.9951473)" />
    <path
       style="fill:#4b6327;fill-opacity:1;stroke:none;stroke-width:0.41548px;stroke-linecap:butt;stroke-linejoin:miter;stroke-opacity:1;filter:url(#filter1143)"
       d="m 89.107376,60.641625 c -0.340327,-0.03064 -0.53249,0.267137 -0.850447,0.330729 -0.09266,0.01853 -0.190086,-0.01437 -0.283482,0 -0.14351,0.02208 -0.282844,0.06602 -0.425223,0.09449 -0.259376,0.05188 -0.448413,0.223414 -0.708705,0.283482 -0.14148,0.03265 -0.283482,0.063 -0.425223,0.09449 -0.173239,0.01575 -0.349906,0.0095 -0.519718,0.04725 -0.117084,0.02602 -0.215846,0.107276 -0.330729,0.141741 -0.09231,0.02769 -0.142133,-0.04646 -0.188988,0.04725 -0.02927,0.05854 0.01287,0.171883 0,0.236235 -0.02515,0.12576 -0.08678,0.362538 -0.141741,0.47247 -0.08299,0.16599 -0.263634,0.291824 -0.377976,0.425224 -0.08327,0.09714 -0.07929,0.19572 -0.188988,0.283482 -0.187833,0.150266 -0.419285,0.238743 -0.614212,0.377976 -0.05437,0.03884 -0.07835,0.120611 -0.141741,0.141741 -0.02988,0.01 -0.0703,-0.02016 -0.09449,0 -0.705407,0.587839 0.236361,-0.07098 -0.330729,0.425223 -0.169574,0.148378 -0.6202,0.342708 -0.708705,0.519718 -0.03307,0.06613 -0.07134,0.07134 -0.09449,0.09449 -0.514324,0.514324 0.292414,-0.04985 -0.708706,0.472471 -0.163996,0.08556 -1.051546,0.618528 -1.181175,0.708705 -0.165565,0.115176 -0.315939,0.250795 -0.47247,0.377976 -0.216144,0.175617 -0.364286,0.314569 -0.283482,0.33073 0.07721,0.01544 0.158561,-0.01295 0.236235,0 0.01217,0.002 0.209863,0.461475 0.236235,0.566964 0.05624,0.224968 0.0307,0.439382 0.141741,0.661458 0.01992,0.03984 0.08041,0.05223 0.09449,0.09449 0.01,0.02988 -0.01409,0.06632 0,0.09449 0.05414,0.108288 0.148185,0.113826 0.188988,0.236235 0.03486,0.104586 -0.0085,0.220811 0,0.330729 0.02477,0.322049 0.04725,0.619981 0.04725,0.944941 0,0.171857 -0.04819,0.445542 0,0.614211 0.09515,0.333032 0.06306,0.205164 0.09449,0.425223 0.02268,0.158765 0.04331,0.752019 0.04725,0.755953 0.01114,0.01114 0.03611,-0.01114 0.04725,0 0.06089,0.06089 0.08278,0.313543 0.09449,0.377976 0.01992,0.109566 0.0044,0.227933 0.04725,0.330729 0.22656,0.543743 0.09335,0.09335 0.283482,0.283482 0.03668,0.03668 -0.02368,0.188873 0,0.236235 0.007,0.01409 0.0414,-0.01462 0.04725,0 0.08897,0.222435 0.0067,0.285547 0.09449,0.519718 0.03812,0.101658 0.293632,0.199137 0.330729,0.236235 0.02227,0.02227 0.0024,0.06309 0,0.09449 -0.01454,0.189084 -0.04023,0.377451 -0.04725,0.566964 -0.02939,0.793551 -0.04647,1.667208 0.283482,2.409598 0.07293,0.16409 0.219789,0.284027 0.330729,0.425223 0.0623,0.0793 0.111518,0.171677 0.188988,0.236235 0.0242,0.02016 0.06319,-0.0035 0.09449,0 0.668424,0.07427 1.154328,0.0945 1.795387,0.0945 0.08479,0 0.407522,-0.02213 0.425223,0 0.290285,0.362856 -0.04751,0.195585 0.519717,0.519717 0.09061,0.05178 0.524948,0.11373 0.566965,0.141741 0.0293,0.01953 0.02235,0.06959 0.04725,0.09449 0.06774,0.06774 0.191061,0.02204 0.283483,0.04725 0.09609,0.02621 0.185811,0.07496 0.283482,0.09449 0.252376,0.05047 0.579496,0.02989 0.803199,0.141741 0.04226,0.02113 0.09449,0 0.141741,0 0.283483,0 0.566965,0 0.850447,0 0.229045,0 0.684451,0.06064 0.803199,-0.236235 0.02925,-0.07311 -0.05568,-0.180554 0,-0.236235 0.05568,-0.05568 0.159019,0.01544 0.236235,0 0.05321,-0.01064 0.135778,-0.131099 0.188988,-0.141741 0.108102,-0.02162 0.220811,0.0085 0.33073,0 0.825154,-0.06347 0.09491,0.02341 0.330729,-0.09449 0.185277,-0.09264 0.412572,-0.04705 0.614211,-0.09449 0.398206,-0.0937 0.3733,-0.334051 0.519717,-0.377976 0.638278,-0.191484 1.428465,-0.02945 2.078869,-0.09449 0.02216,-0.0022 0.02612,-0.0402 0.04725,-0.04725 0.02988,-0.01 0.06632,0.01409 0.09449,0 0.177436,-0.08872 0.206637,-0.963138 0.188988,-1.086681 -0.02755,-0.192847 -0.07622,-0.383509 -0.141741,-0.566964 -0.0191,-0.05348 -0.128564,-0.09631 -0.09449,-0.141741 0.156419,-0.208559 0.413241,-0.274496 0.614211,-0.425224 0.430718,-0.323038 0.208212,-0.192114 0.519718,-0.47247 0.09143,-0.08228 0.217444,-0.132462 0.283482,-0.236235 0.352774,-0.03479 -0.0026,-0.231124 0.04725,-0.330729 0.06367,-0.127332 0.171583,-0.179875 0.236235,-0.330729 0.174869,-0.408028 -0.127357,0.213627 0.09449,-0.377977 0.01994,-0.05317 0.07213,-0.08955 0.09449,-0.141741 0.02558,-0.05968 0.02167,-0.129303 0.04725,-0.188988 0.206264,-0.481282 0.550977,-0.891887 0.755953,-1.370163 0.01861,-0.04343 -0.02113,-0.09948 0,-0.141741 0.132739,-0.265479 -0.07152,0.545274 0.188988,-0.236235 0.07093,-0.212784 -0.09977,-0.556417 0,-0.755953 0.100774,-0.201548 0.105546,-0.04117 0.141741,-0.330729 0.0134,-0.107216 -0.07128,-0.477858 0,-0.566964 0.170663,-0.213329 0.266577,-0.06606 0.377976,-0.377977 0.118793,-0.332621 0,-0.620439 0,-0.94494 0,-0.231869 0.127771,-1.539845 0.04725,-1.700893 -0.103795,-0.207589 -0.164102,-0.459844 -0.188988,-0.708705 -0.03882,-0.388189 -0.0057,-0.861828 -0.188988,-1.228423 -0.27806,-0.556119 -1.066934,-0.280483 -1.511905,-0.614211 -0.0126,-0.0094 0.005,-0.03231 0,-0.04725 -0.02682,-0.08046 -0.06108,-0.158282 -0.09449,-0.236235 -0.06207,-0.144828 -0.200339,-0.206015 -0.283482,-0.330729 -0.07142,-0.107123 0.07701,-0.395457 -0.141741,-0.614212 -0.0214,-0.0214 -0.277075,-0.209408 -0.330729,-0.236235 -0.04707,-0.02353 -0.141519,0.0178 -0.188989,0 -0.156642,-0.05874 -0.32637,-0.163185 -0.47247,-0.236235 -0.04226,-0.02113 -0.09692,0.01494 -0.141741,0 -0.113786,-0.03793 -0.216943,-0.103812 -0.330729,-0.141741 -0.264752,-0.08825 -0.534864,-0.159568 -0.803199,-0.236235 -0.07721,-0.02206 -0.161675,-0.01742 -0.236236,-0.04725 -0.01462,-0.0058 0.0031,-0.0318 0,-0.04725 -0.01273,-0.06367 -0.02671,-0.127386 -0.04725,-0.188988 -0.02682,-0.08046 -0.063,-0.15749 -0.09449,-0.236235 -0.04725,-0.07875 -0.110358,-0.149933 -0.141741,-0.236236 -0.254291,-0.6993 0.08209,0.04489 -0.04725,-0.47247 -0.0038,-0.01528 -0.0315,0 -0.04725,0 -0.110243,0 -0.22116,-0.01217 -0.330729,0 -1.304343,0.144927 -0.0831,0.03747 -0.708705,0.141742 -0.227575,0.03793 -0.85762,-0.06728 -0.992188,0 -0.09999,0.04999 -0.121164,0.01848 -0.236235,0.04725 -0.10409,0.02602 -0.191113,0.142804 -0.283482,0.188989 -0.04102,0.02051 -0.326639,0.04622 -0.330729,0.04725 z"
       id="path1153"
       transform="matrix(0.78685364,0,0,0.51538398,23.072057,36.203091)" />
    <path
       style="fill:#576327;fill-opacity:1;stroke:none;stroke-width:0.431011px;stroke-linecap:butt;stroke-linejoin:miter;stroke-opacity:1;filter:url(#filter1143)"
       d="m 92.462425,62.353756 c -0.340327,-0.03064 -0.53249,0.267137 -0.850447,0.330729 -0.09266,0.01853 -0.190086,-0.01437 -0.283482,0 -0.14351,0.02208 -0.282844,0.06602 -0.425223,0.09449 -0.259376,0.05188 -0.448413,0.223414 -0.708705,0.283482 -0.14148,0.03265 -0.283482,0.063 -0.425223,0.09449 -0.173239,0.01575 -0.349906,0.0095 -0.519718,0.04725 -0.117084,0.02602 -0.215846,0.107276 -0.330729,0.141741 -0.09231,0.02769 -0.142133,-0.04646 -0.188988,0.04725 -0.02927,0.05854 0.01287,0.171883 0,0.236235 -0.02515,0.12576 -0.08678,0.362538 -0.141741,0.47247 -0.08299,0.16599 -0.263634,0.291824 -0.377976,0.425224 -0.08327,0.09714 -0.07929,0.19572 -0.188988,0.283482 -0.187833,0.150266 -0.419285,0.238743 -0.614212,0.377976 -0.05437,0.03884 -0.07835,0.120611 -0.141741,0.141741 -0.02988,0.01 -0.0703,-0.02016 -0.09449,0 -0.705407,0.587839 0.236361,-0.07098 -0.330729,0.425223 -0.169574,0.148378 -0.6202,0.342708 -0.708705,0.519718 -0.03307,0.06613 -0.07134,0.07134 -0.09449,0.09449 -0.514324,0.514324 0.292414,-0.04985 -0.708706,0.472471 -0.163996,0.08556 -1.051546,0.618528 -1.181175,0.708705 -0.165565,0.115176 -0.315939,0.250795 -0.47247,0.377976 -0.216144,0.175617 -0.364286,0.314569 -0.283482,0.33073 0.07721,0.01544 0.158561,-0.01295 0.236235,0 0.01217,0.002 0.209863,0.461475 0.236235,0.566964 0.05624,0.224968 0.0307,0.439382 0.141741,0.661458 0.01992,0.03984 0.08041,0.05223 0.09449,0.09449 0.01,0.02988 -0.01409,0.06632 0,0.09449 0.05414,0.108288 0.148185,0.113826 0.188988,0.236235 0.03486,0.104586 -0.0085,0.220811 0,0.330729 0.02477,0.322049 0.04725,0.619981 0.04725,0.944941 0,0.171857 -0.04819,0.445542 0,0.614211 0.09515,0.333032 0.06306,0.205164 0.09449,0.425223 0.02268,0.158765 0.04331,0.752019 0.04725,0.755953 0.01114,0.01114 0.03611,-0.01114 0.04725,0 0.06089,0.06089 0.08278,0.313543 0.09449,0.377976 0.01992,0.109566 0.0044,0.227933 0.04725,0.330729 0.22656,0.543743 0.09335,0.09335 0.283482,0.283482 0.03668,0.03668 -0.02368,0.188873 0,0.236235 0.007,0.01409 0.0414,-0.01462 0.04725,0 0.08897,0.222435 0.0067,0.285547 0.09449,0.519718 0.03812,0.101658 0.293632,0.199137 0.330729,0.236235 0.02227,0.02227 0.0024,0.06309 0,0.09449 -0.01454,0.189084 -0.04023,0.377451 -0.04725,0.566964 -0.02939,0.793551 -0.04647,1.667208 0.283482,2.409598 0.07293,0.16409 0.219789,0.284027 0.330729,0.425223 0.0623,0.0793 0.111518,0.171677 0.188988,0.236235 0.0242,0.02016 0.06319,-0.0035 0.09449,0 0.668424,0.07427 1.154328,0.0945 1.795387,0.0945 0.08479,0 0.407522,-0.02213 0.425223,0 0.290285,0.362856 -0.04751,0.195585 0.519717,0.519717 0.09061,0.05178 0.524948,0.11373 0.566965,0.141741 0.0293,0.01953 0.02235,0.06959 0.04725,0.09449 0.06774,0.06774 0.191061,0.02204 0.283483,0.04725 0.09609,0.02621 0.185811,0.07496 0.283482,0.09449 0.252376,0.05047 0.579496,0.02989 0.803199,0.141741 0.04226,0.02113 0.09449,0 0.141741,0 0.283483,0 0.566965,0 0.850447,0 0.229045,0 0.684451,0.06064 0.803199,-0.236235 0.02925,-0.07311 -0.05568,-0.180554 0,-0.236235 0.05568,-0.05568 0.159019,0.01544 0.236235,0 0.05321,-0.01064 0.135778,-0.131099 0.188988,-0.141741 0.108102,-0.02162 0.220811,0.0085 0.33073,0 0.825154,-0.06347 0.09491,0.02341 0.330729,-0.09449 0.185277,-0.09264 0.412572,-0.04705 0.614211,-0.09449 0.398206,-0.0937 0.3733,-0.334051 0.519717,-0.377976 0.638278,-0.191484 1.428465,-0.02945 2.078869,-0.09449 0.02216,-0.0022 0.02612,-0.0402 0.04725,-0.04725 0.02988,-0.01 0.06632,0.01409 0.09449,0 0.177436,-0.08872 0.206637,-0.963138 0.188988,-1.086681 -0.02755,-0.192847 -0.07622,-0.383509 -0.141741,-0.566964 -0.0191,-0.05348 -0.128564,-0.09631 -0.09449,-0.141741 0.156419,-0.208559 0.413241,-0.274496 0.614211,-0.425224 0.430718,-0.323038 0.208212,-0.192114 0.519718,-0.47247 0.09143,-0.08228 0.217444,-0.132462 0.283482,-0.236235 0.352774,-0.03479 -0.0026,-0.231124 0.04725,-0.330729 0.06367,-0.127332 0.171583,-0.179875 0.236235,-0.330729 0.174869,-0.408028 -0.127357,0.213627 0.09449,-0.377977 0.01994,-0.05317 0.07213,-0.08955 0.09449,-0.141741 0.02558,-0.05968 0.02167,-0.129303 0.04725,-0.188988 0.206264,-0.481282 0.550977,-0.891887 0.755953,-1.370163 0.01861,-0.04343 -0.02113,-0.09948 0,-0.141741 0.132738,-0.265479 -0.07152,0.545274 0.188988,-0.236235 0.0709,-0.212784 -0.09977,-0.556417 0,-0.755953 0.10077,-0.201548 0.10555,-0.04117 0.14174,-0.330729 0.0134,-0.107216 -0.0713,-0.477858 0,-0.566964 0.17066,-0.213329 0.26658,-0.06606 0.37798,-0.377977 0.11879,-0.332621 0,-0.620439 0,-0.94494 0,-0.231869 0.12777,-1.539845 0.0473,-1.700893 -0.1038,-0.207589 -0.16411,-0.459844 -0.18899,-0.708705 -0.0388,-0.388189 -0.006,-0.861828 -0.18899,-1.228423 -0.278059,-0.556119 -1.066933,-0.280483 -1.511904,-0.614211 -0.0126,-0.0094 0.005,-0.03231 0,-0.04725 -0.02682,-0.08046 -0.06108,-0.158282 -0.09449,-0.236235 -0.06207,-0.144828 -0.200339,-0.206015 -0.283482,-0.330729 -0.07142,-0.107123 0.07701,-0.395457 -0.141741,-0.614212 -0.0214,-0.0214 -0.277075,-0.209408 -0.330729,-0.236235 -0.04707,-0.02353 -0.141519,0.0178 -0.188989,0 -0.156642,-0.05874 -0.32637,-0.163185 -0.47247,-0.236235 -0.04226,-0.02113 -0.09692,0.01494 -0.141741,0 -0.113786,-0.03793 -0.216943,-0.103812 -0.330729,-0.141741 -0.264752,-0.08825 -0.534864,-0.159568 -0.803199,-0.236235 -0.07721,-0.02206 -0.161675,-0.01742 -0.236236,-0.04725 -0.01462,-0.0058 0.0031,-0.0318 0,-0.04725 -0.01273,-0.06367 -0.02671,-0.127386 -0.04725,-0.188988 -0.02682,-0.08046 -0.063,-0.15749 -0.09449,-0.236235 -0.04725,-0.07875 -0.110358,-0.149933 -0.141741,-0.236236 -0.254291,-0.6993 0.08209,0.04489 -0.04725,-0.47247 -0.0038,-0.01528 -0.0315,0 -0.04725,0 -0.110243,0 -0.22116,-0.01217 -0.330729,0 -1.304343,0.144927 -0.0831,0.03747 -0.708705,0.141742 -0.227575,0.03793 -0.85762,-0.06728 -0.992188,0 -0.09999,0.04999 -0.121164,0.01848 -0.236235,0.04725 -0.10409,0.02602 -0.191113,0.142804 -0.283482,0.188989 -0.04102,0.02051 -0.326639,0.04622 -0.330729,0.04725 z"
       id="path1149"
       transform="matrix(0.67049215,0,0,0.56202215,31.636586,31.254808)" />
    <path
       style="fill:#586227;fill-opacity:1;stroke:none;stroke-width:0.264583px;stroke-linecap:butt;stroke-linejoin:miter;stroke-opacity:1;filter:url(#filter1143)"
       d="m 88.493675,59.093711 c -0.340327,-0.03064 -0.53249,0.267137 -0.850447,0.330729 -0.09266,0.01853 -0.190086,-0.01437 -0.283482,0 -0.14351,0.02208 -0.282844,0.06602 -0.425223,0.09449 -0.259376,0.05188 -0.448413,0.223414 -0.708705,0.283482 -0.14148,0.03265 -0.283482,0.063 -0.425223,0.09449 -0.173239,0.01575 -0.349906,0.0095 -0.519718,0.04725 -0.117084,0.02602 -0.215846,0.107276 -0.330729,0.141741 -0.09231,0.02769 -0.142133,-0.04646 -0.188988,0.04725 -0.02927,0.05854 0.01287,0.171883 0,0.236235 -0.02515,0.12576 -0.08678,0.362538 -0.141741,0.47247 -0.08299,0.16599 -0.263634,0.291824 -0.377976,0.425224 -0.08327,0.09714 -0.07929,0.19572 -0.188988,0.283482 -0.187833,0.150266 -0.419285,0.238743 -0.614212,0.377976 -0.05437,0.03884 -0.07835,0.120611 -0.141741,0.141741 -0.02988,0.01 -0.0703,-0.02016 -0.09449,0 -0.705407,0.587839 0.236361,-0.07098 -0.330729,0.425223 -0.169574,0.148378 -0.6202,0.342708 -0.708705,0.519718 -0.03307,0.06613 -0.07134,0.07134 -0.09449,0.09449 -0.514324,0.514324 0.292414,-0.04985 -0.708706,0.472471 -0.163996,0.08556 -1.051546,0.618528 -1.181175,0.708705 -0.165565,0.115176 -0.315939,0.250795 -0.47247,0.377976 -0.216144,0.175617 -0.364286,0.314569 -0.283482,0.33073 0.07721,0.01544 0.158561,-0.01295 0.236235,0 0.01217,0.002 0.209863,0.461475 0.236235,0.566964 0.05624,0.224968 0.0307,0.439382 0.141741,0.661458 0.01992,0.03984 0.08041,0.05223 0.09449,0.09449 0.01,0.02988 -0.01409,0.06632 0,0.09449 0.05414,0.108288 0.148185,0.113826 0.188988,0.236235 0.03486,0.104586 -0.0085,0.220811 0,0.330729 0.02477,0.322049 0.04725,0.619981 0.04725,0.944941 0,0.171857 -0.04819,0.445542 0,0.614211 0.09515,0.333032 0.06306,0.205164 0.09449,0.425223 0.02268,0.158765 0.04331,0.752019 0.04725,0.755953 0.01114,0.01114 0.03611,-0.01114 0.04725,0 0.06089,0.06089 0.08278,0.313543 0.09449,0.377976 0.01992,0.109566 0.0044,0.227933 0.04725,0.330729 0.22656,0.543743 0.09335,0.09335 0.283482,0.283482 0.03668,0.03668 -0.02368,0.188873 0,0.236235 0.007,0.01409 0.0414,-0.01462 0.04725,0 0.08897,0.222435 0.0067,0.285547 0.09449,0.519718 0.03812,0.101658 0.293632,0.199137 0.330729,0.236235 0.02227,0.02227 0.0024,0.06309 0,0.09449 -0.01454,0.189084 -0.04023,0.377451 -0.04725,0.566964 -0.02939,0.793551 -0.04647,1.667208 0.283482,2.409598 0.07293,0.16409 0.219789,0.284027 0.330729,0.425223 0.0623,0.0793 0.111518,0.171677 0.188988,0.236235 0.0242,0.02016 0.06319,-0.0035 0.09449,0 0.668424,0.07427 1.154328,0.0945 1.795387,0.0945 0.08479,0 0.407522,-0.02213 0.425223,0 0.290285,0.362856 -0.04751,0.195585 0.519717,0.519717 0.09061,0.05178 0.524948,0.11373 0.566965,0.141741 0.0293,0.01953 0.02235,0.06959 0.04725,0.09449 0.06774,0.06774 0.191061,0.02204 0.283483,0.04725 0.09609,0.02621 0.185811,0.07496 0.283482,0.09449 0.252376,0.05047 0.579496,0.02989 0.803199,0.141741 0.04226,0.02113 0.09449,0 0.141741,0 0.283483,0 0.566965,0 0.850447,0 0.229045,0 0.684451,0.06064 0.803199,-0.236235 0.02925,-0.07311 -0.05568,-0.180554 0,-0.236235 0.05568,-0.05568 0.159019,0.01544 0.236235,0 0.05321,-0.01064 0.135778,-0.131099 0.188988,-0.141741 0.108102,-0.02162 0.220811,0.0085 0.33073,0 0.825154,-0.06347 0.09491,0.02341 0.330729,-0.09449 0.185277,-0.09264 0.412572,-0.04705 0.614211,-0.09449 0.398206,-0.0937 0.3733,-0.334051 0.519717,-0.377976 0.638278,-0.191484 1.428465,-0.02945 2.078869,-0.09449 0.02216,-0.0022 0.02612,-0.0402 0.04725,-0.04725 0.02988,-0.01 0.06632,0.01409 0.09449,0 0.177436,-0.08872 0.206637,-0.963138 0.188988,-1.086681 -0.02755,-0.192847 -0.07622,-0.383509 -0.141741,-0.566964 -0.0191,-0.05348 -0.128564,-0.09631 -0.09449,-0.141741 0.156419,-0.208559 0.413241,-0.274496 0.614211,-0.425224 0.430718,-0.323038 0.208212,-0.192114 0.519718,-0.47247 0.09143,-0.08228 0.217444,-0.132462 0.283482,-0.236235 0.352774,-0.03479 -0.0026,-0.231124 0.04725,-0.330729 0.06367,-0.127332 0.171583,-0.179875 0.236235,-0.330729 0.174869,-0.408028 -0.127357,0.213627 0.09449,-0.377977 0.01994,-0.05317 0.07213,-0.08955 0.09449,-0.141741 0.02558,-0.05968 0.02167,-0.129303 0.04725,-0.188988 0.206264,-0.481282 0.550977,-0.891887 0.755953,-1.370163 0.01861,-0.04343 -0.02113,-0.09948 0,-0.141741 0.132739,-0.265479 -0.07152,0.545274 0.188988,-0.236235 0.07093,-0.212784 -0.09977,-0.556417 0,-0.755953 0.100774,-0.201548 0.105546,-0.04117 0.141741,-0.330729 0.0134,-0.107216 -0.07128,-0.477858 0,-0.566964 0.170663,-0.213329 0.266577,-0.06606 0.377976,-0.377977 0.118793,-0.332621 0,-0.620439 0,-0.94494 0,-0.231869 0.127771,-1.539845 0.04725,-1.700893 -0.103795,-0.207589 -0.164102,-0.459844 -0.188988,-0.708705 -0.03882,-0.388189 -0.0057,-0.861828 -0.188988,-1.228423 -0.27806,-0.556119 -1.066934,-0.280483 -1.511905,-0.614211 -0.0126,-0.0094 0.005,-0.03231 0,-0.04725 -0.02682,-0.08046 -0.06108,-0.158282 -0.09449,-0.236235 -0.06207,-0.144828 -0.200339,-0.206015 -0.283482,-0.330729 -0.07142,-0.107123 0.07701,-0.395457 -0.141741,-0.614212 -0.0214,-0.0214 -0.277075,-0.209408 -0.330729,-0.236235 -0.04707,-0.02353 -0.141519,0.0178 -0.188989,0 -0.156642,-0.05874 -0.32637,-0.163185 -0.47247,-0.236235 -0.04226,-0.02113 -0.09692,0.01494 -0.141741,0 -0.113786,-0.03793 -0.216943,-0.103812 -0.330729,-0.141741 -0.264752,-0.08825 -0.534864,-0.159568 -0.803199,-0.236235 -0.07721,-0.02206 -0.161675,-0.01742 -0.236236,-0.04725 -0.01462,-0.0058 0.0031,-0.0318 0,-0.04725 -0.01273,-0.06367 -0.02671,-0.127386 -0.04725,-0.188988 -0.02682,-0.08046 -0.063,-0.15749 -0.09449,-0.236235 -0.04725,-0.07875 -0.110358,-0.149933 -0.141741,-0.236236 -0.254291,-0.6993 0.08209,0.04489 -0.04725,-0.47247 -0.0038,-0.01528 -0.0315,0 -0.04725,0 -0.110243,0 -0.22116,-0.01217 -0.330729,0 -1.304343,0.144927 -0.0831,0.03747 -0.708705,0.141742 -0.227575,0.03793 -0.85762,-0.06728 -0.992188,0 -0.09999,0.04999 -0.121164,0.01848 -0.236235,0.04725 -0.10409,0.02602 -0.191113,0.142804 -0.283482,0.188989 -0.04102,0.02051 -0.326639,0.04622 -0.330729,0.04725 z"
       id="path883" />
    <path
       style="fill:#585527;fill-opacity:1;stroke:none;stroke-width:0.347058px;stroke-linecap:butt;stroke-linejoin:miter;stroke-opacity:1;filter:url(#filter1023)"
       d="m 89.722098,59.991404 c -0.340327,-0.03064 -0.53249,0.267137 -0.850447,0.330729 -0.09266,0.01853 -0.190086,-0.01437 -0.283482,0 -0.14351,0.02208 -0.282844,0.06602 -0.425223,0.09449 -0.259376,0.05188 -0.448413,0.223414 -0.708705,0.283482 -0.14148,0.03265 -0.283482,0.063 -0.425223,0.09449 -0.173239,0.01575 -0.349906,0.0095 -0.519718,0.04725 -0.117084,0.02602 -0.215846,0.107276 -0.330729,0.141741 -0.09231,0.02769 -0.142133,-0.04646 -0.188988,0.04725 -0.02927,0.05854 0.01287,0.171883 0,0.236235 -0.02515,0.12576 -0.08678,0.362538 -0.141741,0.47247 -0.08299,0.16599 -0.263634,0.291824 -0.377976,0.425224 -0.08327,0.09714 -0.07929,0.19572 -0.188988,0.283482 -0.187833,0.150266 -0.419285,0.238743 -0.614212,0.377976 -0.05437,0.03884 -0.07835,0.120611 -0.141741,0.141741 -0.02988,0.01 -0.0703,-0.02016 -0.09449,0 -0.705407,0.587839 0.236361,-0.07098 -0.330729,0.425223 -0.169574,0.148378 -0.6202,0.342708 -0.708705,0.519718 -0.03307,0.06613 -0.07134,0.07134 -0.09449,0.09449 -0.514324,0.514324 0.292414,-0.04985 -0.708706,0.472471 -0.163996,0.08556 -1.051546,0.618528 -1.181175,0.708705 -0.165565,0.115176 -0.315939,0.250795 -0.47247,0.377976 -0.216144,0.175617 -0.364286,0.314569 -0.283482,0.33073 0.07721,0.01544 0.158561,-0.01295 0.236235,0 0.01217,0.002 0.209863,0.461475 0.236235,0.566964 0.05624,0.224968 0.0307,0.439382 0.141741,0.661458 0.01992,0.03984 0.08041,0.05223 0.09449,0.09449 0.01,0.02988 -0.01409,0.06632 0,0.09449 0.05414,0.108288 0.148185,0.113826 0.188988,0.236235 0.03486,0.104586 -0.0085,0.220811 0,0.330729 0.02477,0.322049 0.04725,0.619981 0.04725,0.944941 0,0.171857 -0.04819,0.445542 0,0.614211 0.09515,0.333032 0.06306,0.205164 0.09449,0.425223 0.02268,0.158765 0.04331,0.752019 0.04725,0.755953 0.01114,0.01114 0.03611,-0.01114 0.04725,0 0.06089,0.06089 0.08278,0.313543 0.09449,0.377976 0.01992,0.109566 0.0044,0.227933 0.04725,0.330729 0.22656,0.543743 0.09335,0.09335 0.283482,0.283482 0.03668,0.03668 -0.02368,0.188873 0,0.236235 0.007,0.01409 0.0414,-0.01462 0.04725,0 0.08897,0.222435 0.0067,0.285547 0.09449,0.519718 0.03812,0.101658 0.293632,0.199137 0.330729,0.236235 0.02227,0.02227 0.0024,0.06309 0,0.09449 -0.01454,0.189084 -0.04023,0.377451 -0.04725,0.566964 -0.02939,0.793551 -0.04647,1.667208 0.283482,2.409598 0.07293,0.16409 0.219789,0.284027 0.330729,0.425223 0.0623,0.0793 0.111518,0.171677 0.188988,0.236235 0.0242,0.02016 0.06319,-0.0035 0.09449,0 0.668424,0.07427 1.154328,0.0945 1.795387,0.0945 0.08479,0 0.407522,-0.02213 0.425223,0 0.290285,0.362856 -0.04751,0.195585 0.519717,0.519717 0.09061,0.05178 0.524948,0.11373 0.566965,0.141741 0.0293,0.01953 0.02235,0.06959 0.04725,0.09449 0.06774,0.06774 0.191061,0.02204 0.283483,0.04725 0.09609,0.02621 0.185811,0.07496 0.283482,0.09449 0.252376,0.05047 0.579496,0.02989 0.803199,0.141741 0.04226,0.02113 0.09449,0 0.141741,0 0.283483,0 0.566965,0 0.850447,0 0.229045,0 0.684451,0.06064 0.803199,-0.236235 0.02925,-0.07311 -0.05568,-0.180554 0,-0.236235 0.05568,-0.05568 0.159019,0.01544 0.236235,0 0.05321,-0.01064 0.135778,-0.131099 0.188988,-0.141741 0.108102,-0.02162 0.220811,0.0085 0.33073,0 0.825154,-0.06347 0.09491,0.02341 0.330729,-0.09449 0.185277,-0.09264 0.412572,-0.04705 0.614211,-0.09449 0.398206,-0.0937 0.3733,-0.334051 0.519717,-0.377976 0.638278,-0.191484 1.428465,-0.02945 2.078869,-0.09449 0.02216,-0.0022 0.02612,-0.0402 0.04725,-0.04725 0.02988,-0.01 0.06632,0.01409 0.09449,0 0.177436,-0.08872 0.206637,-0.963138 0.188988,-1.086681 -0.02755,-0.192847 -0.07622,-0.383509 -0.141741,-0.566964 -0.0191,-0.05348 -0.128564,-0.09631 -0.09449,-0.141741 0.156419,-0.208559 0.413241,-0.274496 0.614211,-0.425224 0.430718,-0.323038 0.208212,-0.192114 0.519718,-0.47247 0.09143,-0.08228 0.217444,-0.132462 0.283482,-0.236235 0.352774,-0.03479 -0.0026,-0.231124 0.04725,-0.330729 0.06367,-0.127332 0.171583,-0.179875 0.236235,-0.330729 0.174869,-0.408028 -0.127357,0.213627 0.09449,-0.377977 0.01994,-0.05317 0.07213,-0.08955 0.09449,-0.141741 0.02558,-0.05968 0.02167,-0.129303 0.04725,-0.188988 0.206264,-0.481282 0.550977,-0.891887 0.755953,-1.370163 0.01861,-0.04343 -0.02113,-0.09948 0,-0.141741 0.132739,-0.265479 -0.07152,0.545274 0.188988,-0.236235 0.07093,-0.212784 -0.09977,-0.556417 0,-0.755953 0.100774,-0.201548 0.105546,-0.04117 0.141741,-0.330729 0.0134,-0.107216 -0.07128,-0.477858 0,-0.566964 0.170663,-0.213329 0.266577,-0.06606 0.377976,-0.377977 0.118793,-0.332621 0,-0.620439 0,-0.94494 0,-0.231869 0.127771,-1.539845 0.04725,-1.700893 -0.103795,-0.207589 -0.164102,-0.459844 -0.188988,-0.708705 -0.03882,-0.388189 -0.0057,-0.861828 -0.188988,-1.228423 -0.27806,-0.556119 -1.066934,-0.280483 -1.511905,-0.614211 -0.0126,-0.0094 0.005,-0.03231 0,-0.04725 -0.02682,-0.08046 -0.06108,-0.158282 -0.09449,-0.236235 -0.06207,-0.144828 -0.200339,-0.206015 -0.283482,-0.330729 -0.07142,-0.107123 0.07701,-0.395457 -0.141741,-0.614212 -0.0214,-0.0214 -0.277075,-0.209408 -0.330729,-0.236235 -0.04707,-0.02353 -0.141519,0.0178 -0.188989,0 -0.156642,-0.05874 -0.32637,-0.163185 -0.47247,-0.236235 -0.04226,-0.02113 -0.09692,0.01494 -0.141741,0 -0.113786,-0.03793 -0.216943,-0.103812 -0.330729,-0.141741 -0.264752,-0.08825 -0.534864,-0.159568 -0.803199,-0.236235 -0.07721,-0.02206 -0.161675,-0.01742 -0.236236,-0.04725 -0.01462,-0.0058 0.0031,-0.0318 0,-0.04725 -0.01273,-0.06367 -0.02671,-0.127386 -0.04725,-0.188988 -0.02682,-0.08046 -0.063,-0.15749 -0.09449,-0.236235 -0.04725,-0.07875 -0.110358,-0.149933 -0.141741,-0.236236 -0.254291,-0.6993 0.08209,0.04489 -0.04725,-0.47247 -0.0038,-0.01528 -0.0315,0 -0.04725,0 -0.110243,0 -0.22116,-0.01217 -0.330729,0 -1.304343,0.144927 -0.0831,0.03747 -0.708705,0.141742 -0.227575,0.03793 -0.85762,-0.06728 -0.992188,0 -0.09999,0.04999 -0.121164,0.01848 -0.236235,0.04725 -0.10409,0.02602 -0.191113,0.142804 -0.283482,0.188989 -0.04102,0.02051 -0.326639,0.04622 -0.330729,0.04725 z"
       id="path957"
       transform="matrix(0.72680357,0,0,0.79965333,23.161295,12.830216)" />
    <path
       style="fill:#585527;fill-opacity:1;stroke:none;stroke-width:0.474696px;stroke-linecap:butt;stroke-linejoin:miter;stroke-opacity:1;filter:url(#filter1023)"
       d="m 89.722098,59.991404 c -0.340327,-0.03064 -0.53249,0.267137 -0.850447,0.330729 -0.09266,0.01853 -0.190086,-0.01437 -0.283482,0 -0.14351,0.02208 -0.282844,0.06602 -0.425223,0.09449 -0.259376,0.05188 -0.448413,0.223414 -0.708705,0.283482 -0.14148,0.03265 -0.283482,0.063 -0.425223,0.09449 -0.173239,0.01575 -0.349906,0.0095 -0.519718,0.04725 -0.117084,0.02602 -0.215846,0.107276 -0.330729,0.141741 -0.09231,0.02769 -0.142133,-0.04646 -0.188988,0.04725 -0.02927,0.05854 0.01287,0.171883 0,0.236235 -0.02515,0.12576 -0.08678,0.362538 -0.141741,0.47247 -0.08299,0.16599 -0.263634,0.291824 -0.377976,0.425224 -0.08327,0.09714 -0.07929,0.19572 -0.188988,0.283482 -0.187833,0.150266 -0.419285,0.238743 -0.614212,0.377976 -0.05437,0.03884 -0.07835,0.120611 -0.141741,0.141741 -0.02988,0.01 -0.0703,-0.02016 -0.09449,0 -0.705407,0.587839 0.236361,-0.07098 -0.330729,0.425223 -0.169574,0.148378 -0.6202,0.342708 -0.708705,0.519718 -0.03307,0.06613 -0.07134,0.07134 -0.09449,0.09449 -0.514324,0.514324 0.292414,-0.04985 -0.708706,0.472471 -0.163996,0.08556 -1.051546,0.618528 -1.181175,0.708705 -0.165565,0.115176 -0.315939,0.250795 -0.47247,0.377976 -0.216144,0.175617 -0.364286,0.314569 -0.283482,0.33073 0.07721,0.01544 0.158561,-0.01295 0.236235,0 0.01217,0.002 0.209863,0.461475 0.236235,0.566964 0.05624,0.224968 0.0307,0.439382 0.141741,0.661458 0.01992,0.03984 0.08041,0.05223 0.09449,0.09449 0.01,0.02988 -0.01409,0.06632 0,0.09449 0.05414,0.108288 0.148185,0.113826 0.188988,0.236235 0.03486,0.104586 -0.0085,0.220811 0,0.330729 0.02477,0.322049 0.04725,0.619981 0.04725,0.944941 0,0.171857 -0.04819,0.445542 0,0.614211 0.09515,0.333032 0.06306,0.205164 0.09449,0.425223 0.02268,0.158765 0.04331,0.752019 0.04725,0.755953 0.01114,0.01114 0.03611,-0.01114 0.04725,0 0.06089,0.06089 0.08278,0.313543 0.09449,0.377976 0.01992,0.109566 0.0044,0.227933 0.04725,0.330729 0.22656,0.543743 0.09335,0.09335 0.283482,0.283482 0.03668,0.03668 -0.02368,0.188873 0,0.236235 0.007,0.01409 0.0414,-0.01462 0.04725,0 0.08897,0.222435 0.0067,0.285547 0.09449,0.519718 0.03812,0.101658 0.293632,0.199137 0.330729,0.236235 0.02227,0.02227 0.0024,0.06309 0,0.09449 -0.01454,0.189084 -0.04023,0.377451 -0.04725,0.566964 -0.02939,0.793551 -0.04647,1.667208 0.283482,2.409598 0.07293,0.16409 0.219789,0.284027 0.330729,0.425223 0.0623,0.0793 0.111518,0.171677 0.188988,0.236235 0.0242,0.02016 0.06319,-0.0035 0.09449,0 0.668424,0.07427 1.154328,0.0945 1.795387,0.0945 0.08479,0 0.407522,-0.02213 0.425223,0 0.290285,0.362856 -0.04751,0.195585 0.519717,0.519717 0.09061,0.05178 0.524948,0.11373 0.566965,0.141741 0.0293,0.01953 0.02235,0.06959 0.04725,0.09449 0.06774,0.06774 0.191061,0.02204 0.283483,0.04725 0.09609,0.02621 0.185811,0.07496 0.283482,0.09449 0.252376,0.05047 0.579496,0.02989 0.803199,0.141741 0.04226,0.02113 0.09449,0 0.141741,0 0.283483,0 0.566965,0 0.850447,0 0.229045,0 0.684451,0.06064 0.803199,-0.236235 0.02925,-0.07311 -0.05568,-0.180554 0,-0.236235 0.05568,-0.05568 0.159019,0.01544 0.236235,0 0.05321,-0.01064 0.135778,-0.131099 0.188988,-0.141741 0.108102,-0.02162 0.220811,0.0085 0.33073,0 0.825154,-0.06347 0.09491,0.02341 0.330729,-0.09449 0.185277,-0.09264 0.412572,-0.04705 0.614211,-0.09449 0.398206,-0.0937 0.3733,-0.334051 0.519717,-0.377976 0.638278,-0.191484 1.428465,-0.02945 2.078869,-0.09449 0.02216,-0.0022 0.02612,-0.0402 0.04725,-0.04725 0.02988,-0.01 0.06632,0.01409 0.09449,0 0.177436,-0.08872 0.206637,-0.963138 0.188988,-1.086681 -0.02755,-0.192847 -0.07622,-0.383509 -0.141741,-0.566964 -0.0191,-0.05348 -0.128564,-0.09631 -0.09449,-0.141741 0.156419,-0.208559 0.413241,-0.274496 0.614211,-0.425224 0.430718,-0.323038 0.208212,-0.192114 0.519718,-0.47247 0.09143,-0.08228 0.217444,-0.132462 0.283482,-0.236235 0.352774,-0.03479 -0.0026,-0.231124 0.04725,-0.330729 0.06367,-0.127332 0.171583,-0.179875 0.236235,-0.330729 0.174869,-0.408028 -0.127357,0.213627 0.09449,-0.377977 0.01994,-0.05317 0.07213,-0.08955 0.09449,-0.141741 0.02558,-0.05968 0.02167,-0.129303 0.04725,-0.188988 0.206264,-0.481282 0.550977,-0.891887 0.755953,-1.370163 0.01861,-0.04343 -0.02113,-0.09948 0,-0.141741 0.132739,-0.265479 -0.07152,0.545274 0.188988,-0.236235 0.07093,-0.212784 -0.09977,-0.556417 0,-0.755953 0.100774,-0.201548 0.105546,-0.04117 0.141741,-0.330729 0.0134,-0.107216 -0.07128,-0.477858 0,-0.566964 0.170663,-0.213329 0.266577,-0.06606 0.377976,-0.377977 0.118793,-0.332621 0,-0.620439 0,-0.94494 0,-0.231869 0.127771,-1.539845 0.04725,-1.700893 -0.103795,-0.207589 -0.164102,-0.459844 -0.188988,-0.708705 -0.03882,-0.388189 -0.0057,-0.861828 -0.188988,-1.228423 -0.27806,-0.556119 -1.066934,-0.280483 -1.511905,-0.614211 -0.0126,-0.0094 0.005,-0.03231 0,-0.04725 -0.02682,-0.08046 -0.06108,-0.158282 -0.09449,-0.236235 -0.06207,-0.144828 -0.200339,-0.206015 -0.283482,-0.330729 -0.07142,-0.107123 0.07701,-0.395457 -0.141741,-0.614212 -0.0214,-0.0214 -0.277075,-0.209408 -0.330729,-0.236235 -0.04707,-0.02353 -0.141519,0.0178 -0.188989,0 -0.156642,-0.05874 -0.32637,-0.163185 -0.47247,-0.236235 -0.04226,-0.02113 -0.09692,0.01494 -0.141741,0 -0.113786,-0.03793 -0.216943,-0.103812 -0.330729,-0.141741 -0.264752,-0.08825 -0.534864,-0.159568 -0.803199,-0.236235 -0.07721,-0.02206 -0.161675,-0.01742 -0.236236,-0.04725 -0.01462,-0.0058 0.0031,-0.0318 0,-0.04725 -0.01273,-0.06367 -0.02671,-0.127386 -0.04725,-0.188988 -0.02682,-0.08046 -0.063,-0.15749 -0.09449,-0.236235 -0.04725,-0.07875 -0.110358,-0.149933 -0.141741,-0.236236 -0.254291,-0.6993 0.08209,0.04489 -0.04725,-0.47247 -0.0038,-0.01528 -0.0315,0 -0.04725,0 -0.110243,0 -0.22116,-0.01217 -0.330729,0 -1.304343,0.144927 -0.0831,0.03747 -0.708705,0.141742 -0.227575,0.03793 -0.85762,-0.06728 -0.992188,0 -0.09999,0.04999 -0.121164,0.01848 -0.236235,0.04725 -0.10409,0.02602 -0.191113,0.142804 -0.283482,0.188989 -0.04102,0.02051 -0.326639,0.04622 -0.330729,0.04725 z"
       id="path1147"
       transform="matrix(0.66644729,0,0,0.46614989,33.038093,39.296527)" />
    <path
       sodipodi:type="star"
       style="mix-blend-mode:normal;fill:#f2f20d;fill-opacity:1;stroke-width:0.264583;opacity:0.3"
       id="path2128"
       sodipodi:sides="6"
       sodipodi:cx="105.83333"
       sodipodi:cy="144.3869"
       sodipodi:r1="99.202728"
       sodipodi:r2="85.912086"
       sodipodi:arg1="0.51820093"
       sodipodi:arg2="1.0417997"
       inkscape:flatsided="true"
       inkscape:rounded="0"
       inkscape:randomized="0"
       d="M 192.0119,193.52381 106.36881,243.58818 20.190236,194.45128 19.654758,95.249998 105.29785,45.185619 191.47642,94.322522 Z"
       transform="matrix(0.12280702,0,0,-0.12319502,76.205305,86.74021)" />
  </g>
</svg>
