<?xml version="1.0" encoding="UTF-8" standalone="no"?>
<svg
   xmlns:osb="http://www.openswatchbook.org/uri/2009/osb"
   xmlns:dc="http://purl.org/dc/elements/1.1/"
   xmlns:cc="http://creativecommons.org/ns#"
   xmlns:rdf="http://www.w3.org/1999/02/22-rdf-syntax-ns#"
   xmlns:svg="http://www.w3.org/2000/svg"
   xmlns="http://www.w3.org/2000/svg"
   xmlns:sodipodi="http://sodipodi.sourceforge.net/DTD/sodipodi-0.dtd"
   xmlns:inkscape="http://www.inkscape.org/namespaces/inkscape"
   width="21.166666mm"
   height="24.442207mm"
   viewBox="0 0 21.166666 24.442207"
   version="1.1"
   id="svg8"
   inkscape:version="1.0.1 (3bc2e813f5, 2020-09-07)"
   sodipodi:docname="mudTile2.svg">
  <defs
     id="defs2">
    <linearGradient
       id="linearGradient1027"
       osb:paint="solid">
      <stop
         style="stop-color:#486336;stop-opacity:1;"
         offset="0"
         id="stop1025" />
    </linearGradient>
    <filter
       inkscape:collect="always"
       style="color-interpolation-filters:sRGB"
       id="filter1456"
       x="-0.041274113"
       width="1.0825482"
       y="-0.045906472"
       height="1.0918129">
      <feGaussianBlur
         inkscape:collect="always"
         stdDeviation="1.1378463"
         id="feGaussianBlur1458" />
    </filter>
  </defs>
  <sodipodi:namedview
     id="base"
     pagecolor="#ffffff"
     bordercolor="#666666"
     borderopacity="1.0"
     inkscape:pageopacity="0.0"
     inkscape:pageshadow="2"
     inkscape:zoom="5.6"
     inkscape:cx="38.656617"
     inkscape:cy="29.525471"
     inkscape:document-units="mm"
     inkscape:current-layer="layer1"
     inkscape:document-rotation="0"
     showgrid="false"
     inkscape:snap-page="true"
     inkscape:window-width="1052"
     inkscape:window-height="986"
     inkscape:window-x="250"
     inkscape:window-y="28"
     inkscape:window-maximized="0"
     inkscape:snap-nodes="false" />
  <metadata
     id="metadata5">
    <rdf:RDF>
      <cc:Work
         rdf:about="">
        <dc:format>image/svg+xml</dc:format>
        <dc:type
           rdf:resource="http://purl.org/dc/dcmitype/StillImage" />
        <dc:title></dc:title>
      </cc:Work>
    </rdf:RDF>
  </metadata>
  <g
     inkscape:label="Layer 1"
     inkscape:groupmode="layer"
     id="layer1"
     transform="translate(-78.619047,-56.731359)">
    <path
       sodipodi:type="star"
       style="mix-blend-mode:normal;fill:#46702c;fill-opacity:1;stroke-width:0.264583"
       id="path10"
       sodipodi:sides="6"
       sodipodi:cx="105.83333"
       sodipodi:cy="144.3869"
       sodipodi:r1="99.202728"
       sodipodi:r2="85.912086"
       sodipodi:arg1="0.51820093"
       sodipodi:arg2="1.0417997"
       inkscape:flatsided="true"
       inkscape:rounded="0"
       inkscape:randomized="0"
       d="M 192.0119,193.52381 106.36881,243.58818 20.190236,194.45128 19.654758,95.249998 105.29785,45.185619 191.47642,94.322522 Z"
       transform="matrix(0.12280702,0,0,-0.12319502,76.205305,86.74021)" />
    <path
       id="path1299"
       style="fill:#4b6327;fill-opacity:1;stroke:none;stroke-width:1.18078px;stroke-linecap:butt;stroke-linejoin:miter;stroke-opacity:1;filter:url(#filter1456)"
       transform="matrix(0.22908857,0,0,0.21916863,80.130204,57.428033)"
       d="m 41.273438,0.61914062 c -0.616229,0.0886033 -1.244835,0.0473486 -1.871094,0.0253906 -0.06044,0.0353178 -0.04465,0.0212148 -0.08984,0.046875 -0.04024,0.0385791 -0.07913,0.0785426 -0.126953,0.109375 -0.09084,0.13192952 -0.191121,0.25893538 -0.324219,0.34374998 -0.01487,0.00948 -0.0348,0.01593 -0.05078,0.025391 -0.09942,0.1842152 -0.245515,0.3444696 -0.400391,0.4941406 -0.0525,0.050741 -0.131244,0.208812 -0.166015,0.1445313 -0.06876,0.1318638 -0.157638,0.2802886 -0.275391,0.4257812 -0.0823,0.1016942 -0.313632,0.157493 -0.513672,0.1933594 -0.01552,0.039127 -0.0267,0.079777 -0.05078,0.1152344 -0.08611,0.1268057 -0.409193,0.1452335 -0.650391,0.1386718 -0.325901,0.2417902 -0.255018,0.2007467 -0.648437,0.2832032 -0.04957,0.010388 -0.08128,0.00875 -0.119141,0.011719 -0.121633,0.072831 -0.254115,0.1298584 -0.398437,0.1738281 -0.08451,0.077066 -0.165954,0.140495 -0.232422,0.1660156 0.01979,0.08374 0.03195,0.1674145 0.0078,0.2480469 -0.147375,0.493056 -0.789711,0.8426805 -1.283203,0.7773438 0.150754,-0.3393339 0.01785,0.00317 -0.171875,0.1054687 -0.08746,0.047157 -0.180997,0.081921 -0.275391,0.1132813 -0.177366,0.1178122 -0.241637,0.1206192 -0.255859,0.1269531 0.01635,-0.024394 0.01753,-0.038141 0.03125,-0.060547 -0.04387,0.011853 -0.08714,0.025371 -0.130859,0.037109 -0.02979,0.00799 -0.06127,-0.00928 -0.0918,-0.017578 -0.03837,0.026158 -0.07336,0.055378 -0.111328,0.082031 -0.0226,0.036601 -0.02456,0.051433 -0.04492,0.070312 -0.0026,0.0024 -0.0062,0.00125 -0.0098,0.00391 -0.01261,0.019219 -0.02604,0.037725 -0.03906,0.056641 -0.127604,0.036865 -0.255168,0.074255 -0.382813,0.1113281 -0.0098,0.00962 -0.01921,0.01995 -0.0293,0.029297 0.356807,-0.00728 0.762381,-0.1219033 0.05078,0.1621094 -0.07877,0.031457 -0.165657,0.04044 -0.248047,0.060547 -0.264794,0.19227 -0.539969,0.3711968 -0.822266,0.5390626 -0.113162,0.2082216 -0.386897,0.3422963 -0.662109,0.3652343 -0.31986,0.1692613 -0.646018,0.3236603 -0.972657,0.4785157 -0.286991,0.3531432 -0.856809,1.1296296 -1.193359,0.765625 -0.126289,0.072322 -0.250599,0.1220249 -0.376953,0.1738281 -0.02701,0.013713 -0.05259,0.030117 -0.08008,0.042969 -0.07122,0.033294 -0.176108,0.1434381 -0.222656,0.080078 -0.0028,-0.00386 -0.0016,-0.013035 -0.0039,-0.017578 -0.0397,0.0081 -0.08058,0.021669 -0.11914,0.025391 -0.0026,0.062578 -0.0031,0.1264692 -0.01367,0.1855469 -0.22037,0.1199509 -0.426049,0.2743697 -0.662109,0.359375 -0.08141,0.029303 -0.172528,-0.014708 -0.257813,-0.029297 -0.04847,-0.00829 -0.0952,-0.022898 -0.144531,-0.029297 -0.322403,0.2667821 -0.911067,0.7446707 -1.326172,0.7480468 -0.102966,0.1099921 -0.226401,0.2144492 -0.34961,0.2382813 -0.0051,9.886e-4 -0.01017,-4.916e-4 -0.01562,-0.00195 -0.0062,0.00707 -0.0092,0.01653 -0.01563,0.023437 -0.02132,0.022995 -0.07159,0.041008 -0.115234,0.060547 -0.01758,0.03167 -0.03919,0.059747 -0.05859,0.089844 -0.374072,0.4538533 -0.473305,0.4963024 -0.919922,0.5039063 -1.172326,1.0665759 -2.68476,1.7244439 -4.058593,2.4843749 -0.47549,0.263015 -0.845589,0.175892 -1.033203,-0.04102 -0.04431,0.138438 -0.09585,0.249623 -0.113282,0.09375 0.0345,-0.03519 0.07034,-0.06899 0.105469,-0.103516 -0.0138,-0.01675 -0.03148,-0.03061 -0.04297,-0.04883 -0.113714,0.215287 -0.208753,0.442394 -0.361328,0.63086 -0.08051,0.09944 -1.271415,0.578556 -1.472656,0.667968 0.0752,0.009 -0.06413,0.04628 -0.238281,0.08203 -0.132084,0.350927 -0.264786,0.701568 -0.396485,1.052734 0,0.23811 0.05775,0.483858 0,0.714844 -0.06455,0.258255 -0.282335,0.458886 -0.355468,0.714844 -0.182136,0.637515 0.268422,1.963163 0,2.5 -0.43211,0.864226 -1.643304,0.926503 -2.322266,1.605468 -0.0421,0.0421 0.0421,0.137584 0,0.179688 -0.0421,0.0421 -0.13563,-0.0421 -0.177734,0 -0.205304,0.205304 -0.931297,2.254824 -1.072266,2.677734 -0.03553,0.106696 -0.01776,0.661277 0,0.714844 0.09524,0.285694 0.619603,0.42913 0.714844,0.714844 0.0378,0.112932 -0.05325,0.250952 0,0.357422 0.02646,0.05325 0.118207,0 0.177734,0 0.05953,0.05953 0.153042,0.09787 0.179688,0.177734 0.408623,1.225878 -0.684588,-0.832043 0.177734,0.892578 0.113802,0.227603 0.456474,0.478793 0.535156,0.714844 0.09411,0.282331 -0.04894,0.599007 0,0.892578 0.10424,0.625338 0.275196,1.116573 0.179688,1.785156 -0.09301,0.651126 -0.435804,2.931953 -0.179688,3.572266 0.191131,0.477876 2.308302,1.236032 2.857422,1.785156 0.170381,0.170381 -0.451678,1.179249 -0.535156,1.429688 -0.408624,1.225874 0.682634,-0.832047 -0.179688,0.892578 -0.09596,0.191962 -0.296508,0.32879 -0.355468,0.535156 -0.06542,0.228926 0.03364,0.479141 0,0.714844 -0.132624,0.928429 -0.276255,1.891571 -0.179688,2.857422 0.06652,0.665333 1.515574,4.299924 2.142578,5.177734 0.195704,0.274016 0.528067,0.434679 0.714844,0.714844 0.273146,0.409697 0.268825,0.915489 0.714844,1.25 0.703086,0.527316 1.571826,0.789389 2.320312,1.25 0.05068,0.03137 -0.01701,0.120701 0,0.177734 0.162255,0.540877 0.317969,1.086981 0.53711,1.607422 0.587629,1.395621 1.682548,3.647516 3.21289,4.285156 0.466942,0.19457 3.672737,-0.126333 3.929688,-0.177734 0.369146,-0.07381 0.707115,-0.258398 1.070312,-0.357422 0.2928,-0.07986 0.610773,-0.06499 0.892578,-0.177734 0.02532,-0.0102 -0.10523,-0.262308 0.357422,-0.179688 5.532529,0.987954 4.304069,0.678545 9.822266,2.322266 1.55184,0.462247 3.049473,1.138079 4.642578,1.427734 0.234255,0.04259 0.478317,-0.02721 0.714844,0 1.312932,0.151484 2.617996,0.358157 3.927734,0.535156 1.368208,0.184895 2.731549,0.422454 4.107422,0.53711 0.237279,0.01965 0.476749,0 0.714844,0 0.05953,0 0.144701,0.04951 0.177734,0 0.50874,-0.763106 -0.07997,-0.293298 0.179688,-1.072266 0.280743,-0.842177 0.253124,-0.291771 0.535156,-0.714844 0.667589,-1.001385 0.996975,-2.014926 2.320312,-2.320312 0.467607,-0.107906 0.957092,-0.09627 1.429688,-0.179688 0.839282,-0.148119 1.65198,-0.450355 2.5,-0.535156 1.796372,-0.179641 3.754976,0.296693 5.535156,0 0.343257,-0.05722 0.886838,-0.436704 1.072266,-0.714844 0.03288,-0.04951 -0.04762,-0.142017 0,-0.177734 0.212976,-0.159723 0.491403,-0.209756 0.71289,-0.357422 0.931782,-0.621188 1.939021,-1.278468 2.679688,-2.142578 0.307994,-0.359357 0.599383,-0.965895 0.714844,-1.427734 0.05775,-0.231005 -0.10647,-0.501883 0,-0.714844 0.02646,-0.05325 0.130112,0.0359 0.177734,0 0.202016,-0.151521 0.377395,-0.337937 0.535156,-0.535156 0.476036,-0.595045 0.592911,-1.365509 0.892578,-1.964844 0.186444,-0.372851 -0.535156,-0.235852 -0.535156,-0.535156 0,-0.550534 0.737111,-1.529541 0.892578,-1.964844 0.28664,-0.802602 0.237881,-1.70201 0.53711,-2.5 0.07536,-0.200958 0.280142,-0.334195 0.355468,-0.535156 0.106583,-0.284183 0.09631,-0.602695 0.179688,-0.894532 0.161764,-0.566146 0.614675,-1.004448 0.714844,-1.605468 0.192529,-1.155118 -0.298848,-3.061472 0,-4.107422 0.283578,-0.992576 0.817051,-1.813787 1.25,-2.679688 0.126841,-0.253682 0.05446,-2.585054 0,-2.857422 C 78.52752,28.700614 76.495299,25.245299 76.25,25 c -0.0421,-0.0421 -0.13563,0.0421 -0.177734,0 -0.133833,-0.133833 0.816677,-2.667674 0.892578,-2.857422 l -3.539063,-2.134766 c 0.247421,1.243217 -0.574456,0.03308 -0.921875,-0.554687 -0.0345,0.09943 -0.36264,-0.04515 -0.519531,-0.09375 -0.08942,-0.0597 -0.168517,-0.137889 -0.267578,-0.179687 -0.04468,-0.01885 -0.09385,-0.02267 -0.140625,-0.03516 -0.01884,0.0064 -0.0773,0.02705 -0.08008,0.02734 -0.539188,0.0566 -1.053544,-0.3688 -1.400391,-0.71875 -0.0322,-0.03302 -0.06694,-0.0632 -0.09961,-0.0957 -0.156124,-0.115862 -0.444005,-0.317454 -0.304688,-0.277344 0.03377,0.0097 0.05841,0.03841 0.08398,0.06445 -0.06015,-0.05702 -0.119012,-0.115443 -0.179688,-0.171875 -0.122786,-0.06534 -0.240731,-0.138349 -0.361328,-0.207031 -0.0435,-0.10099 -0.100515,-0.201275 -0.162109,-0.298828 -0.07811,-0.07621 -0.160864,-0.147469 -0.236328,-0.226563 l -0.214844,-0.130859 c -0.02731,0.0014 -0.05466,0.0028 -0.08203,0.0039 -0.149854,0.02459 -0.265631,-0.109571 -0.367187,-0.273437 L 59.306635,11.494128 C 57.101173,11.395298 58.178159,11.2693 58.484369,10.998034 L 56.654297,9.8945312 C 56.385041,9.7584631 56.115071,9.6235365 55.845703,9.4882812 55.506101,9.312346 54.25655,8.8963145 54.072266,8.3378906 L 50.771484,6.3476562 C 50.374559,6.2182166 49.9982,6.0884256 49.9375,6.0683594 49.240831,5.819341 49.198211,5.789765 48.515625,5.5996094 48.21527,5.5159344 47.881874,5.4696407 47.652344,5.2304688 47.569081,5.1437248 47.514175,5.0340905 47.445312,4.9355469 47.418972,4.8763519 47.404957,4.8090251 47.365234,4.7578125 47.266249,4.6301023 47.123277,4.5446939 47.007812,4.4316406 46.686152,4.1167019 46.36066,3.8053547 46.037109,3.4921875 l -0.68164,-0.4101563 c -0.03386,0.00258 -0.06766,0.012928 -0.101563,0.011719 -0.08371,-0.00298 -0.917826,-0.603765 -0.964844,-0.6367188 -0.0444,-0.032899 -0.08844,-0.066494 -0.132812,-0.099609 l -0.310547,-0.1875 c -0.0021,-4.289e-4 -0.02065,0.00114 -0.01563,0 0.0082,-0.00185 0.0037,-1.643e-4 0.01172,-0.00195 L 43.384766,1.8925781 c -0.08243,-0.011985 -0.05114,-0.00292 -0.144532,-0.017578 -0.01249,-0.027914 -0.02134,-0.058375 -0.03125,-0.087891 l -0.123046,-0.074219 c 0.0068,0.025919 0.01239,0.051553 -0.0039,0.046875 C 42.854293,1.6944885 42.63233,1.6116519 42.414062,1.5195312 41.900088,1.3025946 41.959333,1.2585725 41.572266,0.80078125 Z M 33.019531,4.8027344 c 0.01539,-0.023464 0.03311,-0.045138 0.04883,-0.068359 -0.05435,0.038386 -0.112834,0.072257 -0.160156,0.1171875 -0.02966,0.028156 0.06972,-0.018141 0.111328,-0.048828 z m 0.04883,-0.068359 c 0.0022,-0.00158 0.0036,-0.00428 0.0059,-0.00586 0.0248,-0.040159 0.06974,-0.1000199 0.05078,-0.076172 -0.0207,0.02604 -0.03799,0.054474 -0.05664,0.082031 z m 5.357422,-3.3046875 c -0.0046,0.00324 -0.009,0.00661 -0.01367,0.00977 -0.01045,0.00481 -0.04824,0.1371955 -0.164062,0.3613281 -0.01924,-0.060682 0.10239,-0.1014911 0.152344,-0.1523437 0.01752,-0.1354097 0.02401,-0.1912237 0.02539,-0.21875 z m -0.794922,0.4804687 c -0.01619,0.020153 -0.03732,0.035798 -0.05273,0.056641 -0.0061,0.00789 -0.01514,0.017319 -0.02148,0.025391 -0.0014,0.011334 -0.0044,0.021882 -0.0059,0.033203 0.02555,-0.014238 0.05353,-0.025643 0.07813,-0.041016 -9.95e-4,-0.016629 0.0015,-0.049144 0.002,-0.074219 z M 35.36133,3.2148442 c -0.0075,0.00155 -0.01776,0.00239 -0.02539,0.00391 0.007,0.025393 0.0092,0.050777 0.01562,0.076172 0.002,-0.019668 0.009,-0.045638 0.01367,-0.068359 -0.0012,-0.00394 -0.0026,-0.00706 -0.0039,-0.011719 z m 23.335938,7.9121088 c 0.03361,0.138269 0.06403,0.230343 0.07813,0.134766 0.0044,-0.02993 -0.0047,-0.06135 -0.0059,-0.0918 z m -41.681641,2.058594 -0.05078,0.0293 c -0.02004,0.05345 -0.04047,0.106725 -0.06055,0.160156 0.0066,-0.0024 0.01352,-0.0043 0.01953,-0.0078 0.04156,-0.02453 0.07423,-0.110868 0.0918,-0.181641 z" />
    <path
       id="path1506"
       style="fill:#4b6327;fill-opacity:1;stroke:none;stroke-width:1.3446px;stroke-linecap:butt;stroke-linejoin:miter;stroke-opacity:1;filter:url(#filter1456)"
       transform="matrix(-0.17956942,0,0,-0.21562562,96.343686,80.383874)"
       d="m 41.273438,0.61914062 c -0.616229,0.0886033 -1.244835,0.0473486 -1.871094,0.0253906 -0.06044,0.0353178 -0.04465,0.0212148 -0.08984,0.046875 -0.04024,0.0385791 -0.07913,0.0785426 -0.126953,0.109375 -0.09084,0.13192952 -0.191121,0.25893538 -0.324219,0.34374998 -0.01487,0.00948 -0.0348,0.01593 -0.05078,0.025391 -0.09942,0.1842152 -0.245515,0.3444696 -0.400391,0.4941406 -0.0525,0.050741 -0.131244,0.208812 -0.166015,0.1445313 -0.06876,0.1318638 -0.157638,0.2802886 -0.275391,0.4257812 -0.0823,0.1016942 -0.313632,0.157493 -0.513672,0.1933594 -0.01552,0.039127 -0.0267,0.079777 -0.05078,0.1152344 -0.08611,0.1268057 -0.409193,0.1452335 -0.650391,0.1386718 -0.325901,0.2417902 -0.255018,0.2007467 -0.648437,0.2832032 -0.04957,0.010388 -0.08128,0.00875 -0.119141,0.011719 -0.121633,0.072831 -0.254115,0.1298584 -0.398437,0.1738281 -0.08451,0.077066 -0.165954,0.140495 -0.232422,0.1660156 0.01979,0.08374 0.03195,0.1674145 0.0078,0.2480469 -0.147375,0.493056 -0.789711,0.8426805 -1.283203,0.7773438 0.150754,-0.3393339 0.01785,0.00317 -0.171875,0.1054687 -0.08746,0.047157 -0.180997,0.081921 -0.275391,0.1132813 -0.177366,0.1178122 -0.241637,0.1206192 -0.255859,0.1269531 0.01635,-0.024394 0.01753,-0.038141 0.03125,-0.060547 -0.04387,0.011853 -0.08714,0.025371 -0.130859,0.037109 -0.02979,0.00799 -0.06127,-0.00928 -0.0918,-0.017578 -0.03837,0.026158 -0.07336,0.055378 -0.111328,0.082031 -0.0226,0.036601 -0.02456,0.051433 -0.04492,0.070312 -0.0026,0.0024 -0.0062,0.00125 -0.0098,0.00391 -0.01261,0.019219 -0.02604,0.037725 -0.03906,0.056641 -0.127604,0.036865 -0.255168,0.074255 -0.382813,0.1113281 -0.0098,0.00962 -0.01921,0.01995 -0.0293,0.029297 0.356807,-0.00728 0.762381,-0.1219033 0.05078,0.1621094 -0.07877,0.031457 -0.165657,0.04044 -0.248047,0.060547 -0.264794,0.19227 -0.539969,0.3711968 -0.822266,0.5390626 -0.113162,0.2082216 -0.386897,0.3422963 -0.662109,0.3652343 -0.31986,0.1692613 -0.646018,0.3236603 -0.972657,0.4785157 -0.286991,0.3531432 -0.856809,1.1296296 -1.193359,0.765625 -0.126289,0.072322 -0.250599,0.1220249 -0.376953,0.1738281 -0.02701,0.013713 -0.05259,0.030117 -0.08008,0.042969 -0.07122,0.033294 -0.176108,0.1434381 -0.222656,0.080078 -0.0028,-0.00386 -0.0016,-0.013035 -0.0039,-0.017578 -0.0397,0.0081 -0.08058,0.021669 -0.11914,0.025391 -0.0026,0.062578 -0.0031,0.1264692 -0.01367,0.1855469 -0.22037,0.1199509 -0.426049,0.2743697 -0.662109,0.359375 -0.08141,0.029303 -0.172528,-0.014708 -0.257813,-0.029297 -0.04847,-0.00829 -0.0952,-0.022898 -0.144531,-0.029297 -0.322403,0.2667821 -0.911067,0.7446707 -1.326172,0.7480468 -0.102966,0.1099921 -0.226401,0.2144492 -0.34961,0.2382813 -0.0051,9.886e-4 -0.01017,-4.916e-4 -0.01562,-0.00195 -0.0062,0.00707 -0.0092,0.01653 -0.01563,0.023437 -0.02132,0.022995 -0.07159,0.041008 -0.115234,0.060547 -0.01758,0.03167 -0.03919,0.059747 -0.05859,0.089844 -0.374072,0.4538533 -0.473305,0.4963024 -0.919922,0.5039063 -1.172326,1.0665759 -2.68476,1.7244439 -4.058593,2.4843749 -0.47549,0.263015 -0.845589,0.175892 -1.033203,-0.04102 -0.04431,0.138438 -0.09585,0.249623 -0.113282,0.09375 0.0345,-0.03519 0.07034,-0.06899 0.105469,-0.103516 -0.0138,-0.01675 -0.03148,-0.03061 -0.04297,-0.04883 -0.113714,0.215287 -0.208753,0.442394 -0.361328,0.63086 -0.08051,0.09944 -1.271415,0.578556 -1.472656,0.667968 0.0752,0.009 -0.06413,0.04628 -0.238281,0.08203 -0.132084,0.350927 -0.264786,0.701568 -0.396485,1.052734 0,0.23811 0.05775,0.483858 0,0.714844 -0.06455,0.258255 -0.282335,0.458886 -0.355468,0.714844 -0.182136,0.637515 0.268422,1.963163 0,2.5 -0.43211,0.864226 -1.643304,0.926503 -2.322266,1.605468 -0.0421,0.0421 0.0421,0.137584 0,0.179688 -0.0421,0.0421 -0.13563,-0.0421 -0.177734,0 -0.205304,0.205304 -0.931297,2.254824 -1.072266,2.677734 -0.03553,0.106696 -0.01776,0.661277 0,0.714844 0.09524,0.285694 0.619603,0.42913 0.714844,0.714844 0.0378,0.112932 -0.05325,0.250952 0,0.357422 0.02646,0.05325 0.118207,0 0.177734,0 0.05953,0.05953 0.153042,0.09787 0.179688,0.177734 0.408623,1.225878 -0.684588,-0.832043 0.177734,0.892578 0.113802,0.227603 0.456474,0.478793 0.535156,0.714844 0.09411,0.282331 -0.04894,0.599007 0,0.892578 0.10424,0.625338 0.275196,1.116573 0.179688,1.785156 -0.09301,0.651126 -0.435804,2.931953 -0.179688,3.572266 0.191131,0.477876 2.308302,1.236032 2.857422,1.785156 0.170381,0.170381 -0.451678,1.179249 -0.535156,1.429688 -0.408624,1.225874 0.682634,-0.832047 -0.179688,0.892578 -0.09596,0.191962 -0.296508,0.32879 -0.355468,0.535156 -0.06542,0.228926 0.03364,0.479141 0,0.714844 -0.132624,0.928429 -0.276255,1.891571 -0.179688,2.857422 0.06652,0.665333 1.515574,4.299924 2.142578,5.177734 0.195704,0.274016 0.528067,0.434679 0.714844,0.714844 0.273146,0.409697 0.268825,0.915489 0.714844,1.25 0.703086,0.527316 1.571826,0.789389 2.320312,1.25 0.05068,0.03137 -0.01701,0.120701 0,0.177734 0.162255,0.540877 0.317969,1.086981 0.53711,1.607422 0.587629,1.395621 1.682548,3.647516 3.21289,4.285156 0.466942,0.19457 3.672737,-0.126333 3.929688,-0.177734 0.369146,-0.07381 0.707115,-0.258398 1.070312,-0.357422 0.2928,-0.07986 0.610773,-0.06499 0.892578,-0.177734 0.02532,-0.0102 -0.10523,-0.262308 0.357422,-0.179688 5.532529,0.987954 4.304069,0.678545 9.822266,2.322266 1.55184,0.462247 3.049473,1.138079 4.642578,1.427734 0.234255,0.04259 0.478317,-0.02721 0.714844,0 1.312932,0.151484 2.617996,0.358157 3.927734,0.535156 1.368208,0.184895 2.731549,0.422454 4.107422,0.53711 0.237279,0.01965 0.476749,0 0.714844,0 0.05953,0 0.144701,0.04951 0.177734,0 0.50874,-0.763106 -0.07997,-0.293298 0.179688,-1.072266 0.280743,-0.842177 0.253124,-0.291771 0.535156,-0.714844 0.667589,-1.001385 0.996975,-2.014926 2.320312,-2.320312 0.467607,-0.107906 0.957092,-0.09627 1.429688,-0.179688 0.839282,-0.148119 1.65198,-0.450355 2.5,-0.535156 1.796372,-0.179641 3.754976,0.296693 5.535156,0 0.343257,-0.05722 0.886838,-0.436704 1.072266,-0.714844 0.03288,-0.04951 -0.04762,-0.142017 0,-0.177734 0.212976,-0.159723 0.491403,-0.209756 0.71289,-0.357422 0.931782,-0.621188 1.939021,-1.278468 2.679688,-2.142578 0.307994,-0.359357 0.599383,-0.965895 0.714844,-1.427734 0.05775,-0.231005 -0.10647,-0.501883 0,-0.714844 0.02646,-0.05325 0.130112,0.0359 0.177734,0 0.202016,-0.151521 0.377395,-0.337937 0.535156,-0.535156 0.476036,-0.595045 0.592911,-1.365509 0.892578,-1.964844 0.186444,-0.372851 -0.535156,-0.235852 -0.535156,-0.535156 0,-0.550534 0.737111,-1.529541 0.892578,-1.964844 0.28664,-0.802602 0.237881,-1.70201 0.53711,-2.5 0.07536,-0.200958 0.280142,-0.334195 0.355468,-0.535156 0.106583,-0.284183 0.09631,-0.602695 0.179688,-0.894532 0.161764,-0.566146 0.614675,-1.004448 0.714844,-1.605468 0.192529,-1.155118 -0.298848,-3.061472 0,-4.107422 0.283578,-0.992576 0.817051,-1.813787 1.25,-2.679688 0.126841,-0.253682 0.05446,-2.585054 0,-2.857422 C 78.52752,28.700614 76.495299,25.245299 76.25,25 c -0.0421,-0.0421 -0.13563,0.0421 -0.177734,0 -0.133833,-0.133833 0.816677,-2.667674 0.892578,-2.857422 l -3.539063,-2.134766 c 0.247421,1.243217 -0.574456,0.03308 -0.921875,-0.554687 -0.0345,0.09943 -0.36264,-0.04515 -0.519531,-0.09375 -0.08942,-0.0597 -0.168517,-0.137889 -0.267578,-0.179687 -0.04468,-0.01885 -0.09385,-0.02267 -0.140625,-0.03516 -0.01884,0.0064 -0.0773,0.02705 -0.08008,0.02734 -0.539188,0.0566 -1.053544,-0.3688 -1.400391,-0.71875 -0.0322,-0.03302 -0.06694,-0.0632 -0.09961,-0.0957 -0.156124,-0.115862 -0.444005,-0.317454 -0.304688,-0.277344 0.03377,0.0097 0.05841,0.03841 0.08398,0.06445 -0.06015,-0.05702 -0.119012,-0.115443 -0.179688,-0.171875 -0.122786,-0.06534 -0.240731,-0.138349 -0.361328,-0.207031 -0.0435,-0.10099 -0.100515,-0.201275 -0.162109,-0.298828 -0.07811,-0.07621 -0.160864,-0.147469 -0.236328,-0.226563 l -0.214844,-0.130859 c -0.02731,0.0014 -0.05466,0.0028 -0.08203,0.0039 -0.149854,0.02459 -0.265631,-0.109571 -0.367187,-0.273437 L 59.306635,11.494128 C 57.101173,11.395298 58.178159,11.2693 58.484369,10.998034 L 56.654297,9.8945312 C 56.385041,9.7584631 56.115071,9.6235365 55.845703,9.4882812 55.506101,9.312346 54.25655,8.8963145 54.072266,8.3378906 L 50.771484,6.3476562 C 50.374559,6.2182166 49.9982,6.0884256 49.9375,6.0683594 49.240831,5.819341 49.198211,5.789765 48.515625,5.5996094 48.21527,5.5159344 47.881874,5.4696407 47.652344,5.2304688 47.569081,5.1437248 47.514175,5.0340905 47.445312,4.9355469 47.418972,4.8763519 47.404957,4.8090251 47.365234,4.7578125 47.266249,4.6301023 47.123277,4.5446939 47.007812,4.4316406 46.686152,4.1167019 46.36066,3.8053547 46.037109,3.4921875 l -0.68164,-0.4101563 c -0.03386,0.00258 -0.06766,0.012928 -0.101563,0.011719 -0.08371,-0.00298 -0.917826,-0.603765 -0.964844,-0.6367188 -0.0444,-0.032899 -0.08844,-0.066494 -0.132812,-0.099609 l -0.310547,-0.1875 c -0.0021,-4.289e-4 -0.02065,0.00114 -0.01563,0 0.0082,-0.00185 0.0037,-1.643e-4 0.01172,-0.00195 L 43.384766,1.8925781 c -0.08243,-0.011985 -0.05114,-0.00292 -0.144532,-0.017578 -0.01249,-0.027914 -0.02134,-0.058375 -0.03125,-0.087891 l -0.123046,-0.074219 c 0.0068,0.025919 0.01239,0.051553 -0.0039,0.046875 C 42.854293,1.6944885 42.63233,1.6116519 42.414062,1.5195312 41.900088,1.3025946 41.959333,1.2585725 41.572266,0.80078125 Z M 33.019531,4.8027344 c 0.01539,-0.023464 0.03311,-0.045138 0.04883,-0.068359 -0.05435,0.038386 -0.112834,0.072257 -0.160156,0.1171875 -0.02966,0.028156 0.06972,-0.018141 0.111328,-0.048828 z m 0.04883,-0.068359 c 0.0022,-0.00158 0.0036,-0.00428 0.0059,-0.00586 0.0248,-0.040159 0.06974,-0.1000199 0.05078,-0.076172 -0.0207,0.02604 -0.03799,0.054474 -0.05664,0.082031 z m 5.357422,-3.3046875 c -0.0046,0.00324 -0.009,0.00661 -0.01367,0.00977 -0.01045,0.00481 -0.04824,0.1371955 -0.164062,0.3613281 -0.01924,-0.060682 0.10239,-0.1014911 0.152344,-0.1523437 0.01752,-0.1354097 0.02401,-0.1912237 0.02539,-0.21875 z m -0.794922,0.4804687 c -0.01619,0.020153 -0.03732,0.035798 -0.05273,0.056641 -0.0061,0.00789 -0.01514,0.017319 -0.02148,0.025391 -0.0014,0.011334 -0.0044,0.021882 -0.0059,0.033203 0.02555,-0.014238 0.05353,-0.025643 0.07813,-0.041016 -9.95e-4,-0.016629 0.0015,-0.049144 0.002,-0.074219 z M 35.36133,3.2148442 c -0.0075,0.00155 -0.01776,0.00239 -0.02539,0.00391 0.007,0.025393 0.0092,0.050777 0.01562,0.076172 0.002,-0.019668 0.009,-0.045638 0.01367,-0.068359 -0.0012,-0.00394 -0.0026,-0.00706 -0.0039,-0.011719 z m 23.335938,7.9121088 c 0.03361,0.138269 0.06403,0.230343 0.07813,0.134766 0.0044,-0.02993 -0.0047,-0.06135 -0.0059,-0.0918 z m -41.681641,2.058594 -0.05078,0.0293 c -0.02004,0.05345 -0.04047,0.106725 -0.06055,0.160156 0.0066,-0.0024 0.01352,-0.0043 0.01953,-0.0078 0.04156,-0.02453 0.07423,-0.110868 0.0918,-0.181641 z" />
    <path
       id="path1620"
       style="fill:#4c6427;fill-opacity:1;stroke:none;stroke-width:2.04107px;stroke-linecap:butt;stroke-linejoin:miter;stroke-opacity:1;filter:url(#filter1456)"
       transform="matrix(0.11864022,0,0,0.1416324,77.447795,62.398195)"
       d="m 40.923828,5.5390625 c -0.200736,0.026276 -0.404073,0.029142 -0.607422,0.03125 -0.639833,0.3398985 -1.184601,0.622444 -1.949218,1.0117187 -0.03303,0.046077 -0.05432,0.090168 -0.0957,0.1367188 -0.06603,0.074282 -0.251605,0.1144266 -0.412109,0.140625 -0.01245,0.02858 -0.0217,0.058085 -0.04102,0.083984 -0.0506,0.067842 -0.20344,0.086835 -0.357421,0.09375 -0.209149,0.1032651 -0.546656,0.2800845 -0.6875,0.3457031 -0.194776,0.090744 -0.397272,0.1744877 -0.59375,0.2636719 -0.0016,0.014184 0.0065,0.028879 0.002,0.042969 -0.118248,0.3601501 -0.633339,0.6160842 -1.029297,0.5683594 0.120959,-0.2478646 0.01356,0.0034 -0.138672,0.078125 -0.07017,0.034446 -0.144965,0.059124 -0.220703,0.082031 -0.142311,0.086055 -0.193667,0.08717 -0.205078,0.091797 0.01312,-0.017818 0.01438,-0.026602 0.02539,-0.042969 -0.0352,0.00866 -0.07039,0.01877 -0.105469,0.027344 -0.0239,0.00584 -0.04972,-0.00761 -0.07422,-0.013672 -0.03079,0.019107 -0.05743,0.041078 -0.08789,0.060547 -0.01813,0.026735 -0.02077,0.036991 -0.03711,0.050781 -0.0021,0.00175 -0.0049,0.00196 -0.0078,0.00391 -0.01012,0.014038 -0.0208,0.027199 -0.03125,0.041016 -0.102384,0.026928 -0.204223,0.052998 -0.30664,0.080078 -0.0079,0.00703 -0.01534,0.014657 -0.02344,0.021484 0.286287,-0.00532 0.611931,-0.088315 0.04102,0.1191407 -0.0632,0.022978 -0.133113,0.030235 -0.199219,0.044922 -0.21246,0.1404414 -0.433653,0.2699614 -0.660156,0.3925781 -0.0908,0.1520943 -0.310431,0.2508232 -0.53125,0.2675781 -0.256643,0.123636 -0.519168,0.2364961 -0.78125,0.3496094 -0.23027,0.2579513 -0.686998,0.8244783 -0.957032,0.5585933 -0.101318,0.05283 -0.201353,0.08911 -0.302734,0.126953 -0.02167,0.01002 -0.0424,0.02186 -0.06445,0.03125 -0.05714,0.02432 -0.140386,0.104919 -0.177734,0.05859 -0.0022,-0.0028 -0.0021,-0.01035 -0.0039,-0.01367 -0.03185,0.0059 -0.06476,0.01681 -0.0957,0.01953 -0.0021,0.04571 -0.0013,0.09161 -0.0098,0.134766 -0.176816,0.08762 -0.341845,0.20158 -0.53125,0.263672 -0.06532,0.0214 -0.138602,-0.01083 -0.207032,-0.02149 -0.03889,-0.0061 -0.07565,-0.01681 -0.115234,-0.02148 -0.258683,0.19487 -0.73139,0.544409 -1.064453,0.546875 -0.08262,0.08034 -0.182392,0.15642 -0.28125,0.173828 -0.0041,7.22e-4 -0.0073,-3.71e-4 -0.01172,-0.002 -0.005,0.0052 -0.0085,0.01253 -0.01367,0.01758 -0.01711,0.0168 -0.05678,0.0287 -0.0918,0.04297 -0.01411,0.02313 -0.03131,0.04442 -0.04687,0.06641 -0.30014,0.331515 -0.379934,0.361634 -0.738281,0.367188 -0.940626,0.779074 -2.153552,1.261318 -3.255859,1.816406 -0.381514,0.192118 -0.679545,0.127192 -0.830078,-0.03125 -0.03555,0.101121 -0.07586,0.182205 -0.08984,0.06836 0.02768,-0.0257 0.0558,-0.049 0.08398,-0.07422 -0.01107,-0.01224 -0.02594,-0.0238 -0.03516,-0.03711 -0.09124,0.157255 -0.166654,0.323274 -0.289062,0.460938 -0.0646,0.07264 -1.020174,0.42297 -1.181641,0.488281 0.06034,0.0066 -0.05167,0.03443 -0.191406,0.06055 -0.105979,0.256333 -0.21269,0.511071 -0.31836,0.767578 0,0.173926 0.04634,0.354715 0,0.523438 -0.05179,0.188629 -0.226477,0.334521 -0.285156,0.521484 -0.146138,0.465669 0.215371,1.434042 0,1.826172 -0.346707,0.631269 -1.31851,0.677882 -1.863281,1.173828 -0.03378,0.03075 0.03378,0.100105 0,0.130859 -0.03378,0.03075 -0.108796,-0.03075 -0.142578,0 -0.164728,0.149963 -0.746268,1.646166 -0.859375,1.955078 -0.02851,0.07794 -0.01425,0.48431 0,0.523438 0.07642,0.208684 0.495848,0.312786 0.572265,0.521484 0.03033,0.08249 -0.04273,0.183949 0,0.261719 0.02123,0.0389 0.09482,0 0.142578,0 0.04776,0.04348 0.123152,0.07057 0.144532,0.128906 0.327862,0.895436 -0.549314,-0.607396 0.142578,0.652344 0.09131,0.166251 0.366556,0.349062 0.429687,0.521484 0.07551,0.206228 -0.03927,0.437907 0,0.652344 0.08364,0.456775 0.221163,0.816325 0.144531,1.304688 -0.07463,0.475611 -0.350028,2.141661 -0.144531,2.609375 0.153356,0.349062 1.852378,0.901629 2.292969,1.302734 0.136707,0.124454 -0.362708,0.86199 -0.429688,1.044922 -0.327852,0.895433 0.547361,-0.607399 -0.144531,0.652344 -0.07699,0.140217 -0.237849,0.239886 -0.285156,0.390625 -0.05249,0.167217 0.02699,0.349316 0,0.521484 -0.106412,0.678166 -0.222013,1.38239 -0.144531,2.087891 0.05337,0.485989 1.215667,3.140058 1.71875,3.78125 0.157025,0.200153 0.424367,0.318792 0.574218,0.523437 0.219162,0.299261 0.216352,0.667768 0.574219,0.91211 0.564128,0.385164 1.260774,0.577611 1.861328,0.914062 0.04066,0.02291 -0.01365,0.08725 0,0.128906 0.130187,0.395081 0.255811,0.793675 0.431641,1.173828 0.471489,1.019424 1.350241,2.665099 2.578125,3.13086 0.374655,0.142122 2.946177,-0.09331 3.152344,-0.13086 0.296187,-0.05391 0.56796,-0.187434 0.859375,-0.259765 0.23493,-0.05833 0.488735,-0.04851 0.714844,-0.13086 0.02032,-0.0074 -0.0841,-0.191208 0.287109,-0.130859 4.439075,0.721646 3.453284,0.494676 7.880859,1.695312 1.245133,0.337646 2.446367,0.831392 3.72461,1.042969 0.187956,0.03111 0.384439,-0.01987 0.574218,0 1.053443,0.110651 2.101464,0.26329 3.152344,0.392578 1.097794,0.135056 2.190978,0.306876 3.294922,0.390625 0.190383,0.01435 0.383181,0 0.574219,0 0.04776,0 0.116074,0.03616 0.142578,0 0.408192,-0.557406 -0.06576,-0.21421 0.142578,-0.783203 0.225257,-0.615163 0.203408,-0.212453 0.429687,-0.521484 0.535647,-0.731456 0.799537,-1.472245 1.861329,-1.695313 0.375188,-0.07882 0.769245,-0.06993 1.148437,-0.130859 0.673406,-0.108193 1.325443,-0.328683 2.00586,-0.390625 1.441324,-0.131218 3.013062,0.216718 4.441406,0 0.275415,-0.0418 0.710595,-0.318319 0.859375,-0.521484 0.02638,-0.03616 -0.03821,-0.10477 0,-0.13086 0.170883,-0.116669 0.394553,-0.151904 0.572265,-0.259765 0.747624,-0.453744 1.55611,-0.935222 2.150391,-1.566407 0.247122,-0.26249 0.481578,-0.705621 0.574219,-1.042968 0.04634,-0.168737 -0.08543,-0.365929 0,-0.521485 0.02123,-0.0389 0.104368,0.02622 0.142578,0 0.162089,-0.110677 0.301153,-0.246567 0.427734,-0.390625 0.381952,-0.434647 0.476357,-0.997766 0.716797,-1.435547 0.149595,-0.272347 -0.429687,-0.172 -0.429687,-0.390625 0,-0.402134 0.592067,-1.117593 0.716796,-1.435546 0.229989,-0.586257 0.191552,-1.243285 0.431641,-1.826172 0.06047,-0.146789 0.224718,-0.243834 0.285156,-0.390625 0.08552,-0.20758 0.07568,-0.441126 0.142579,-0.654297 0.129781,-0.413539 0.493847,-0.732863 0.574218,-1.171875 0.154478,-0.84375 -0.239783,-2.235992 0,-3 0.227532,-0.725022 0.656537,-1.32455 1.003906,-1.957031 0.101773,-0.185301 0.0437,-1.888941 0,-2.087891 -0.03588,-0.165898 -1.666463,-2.689963 -1.863281,-2.869141 -0.03378,-0.03075 -0.108795,0.03075 -0.142578,0 -0.107382,-0.09776 0.653944,-1.94929 0.714844,-2.08789 L 66.72074,19.701133 c 0.198521,0.908101 -0.459526,0.02503 -0.738281,-0.404297 -0.02768,0.07263 -0.292086,-0.03286 -0.417969,-0.06836 -0.07175,-0.04361 -0.135361,-0.102282 -0.214844,-0.132813 -0.03585,-0.01377 -0.0738,-0.01627 -0.111328,-0.02539 -0.01512,0.0047 -0.06222,0.01932 -0.06445,0.01953 -0.432622,0.04134 -0.846704,-0.267819 -1.125,-0.523438 -0.02584,-0.02412 -0.05387,-0.04657 -0.08008,-0.07031 -0.125268,-0.08463 -0.355923,-0.232423 -0.244141,-0.203125 0.0271,0.0071 0.04784,0.02792 0.06836,0.04687 -0.04826,-0.04165 -0.09585,-0.08378 -0.144531,-0.125 -0.09852,-0.04773 -0.192301,-0.102176 -0.289063,-0.152344 -0.0349,-0.07377 -0.08144,-0.14554 -0.130859,-0.216797 -0.06267,-0.05567 -0.128904,-0.108253 -0.189454,-0.166015 l -0.171874,-0.0957 c -0.02191,0.001 -0.04445,0.0011 -0.06641,0.002 -0.120236,0.01796 -0.213437,-0.07952 -0.294922,-0.199219 l -7.113281,-3.904297 c -1.769572,-0.07219 -0.905847,-0.165137 -0.660156,-0.363281 L 53.26566,12.314459 C 53.04962,12.215069 52.831399,12.116381 52.615269,12.017584 52.342787,11.889073 51.341256,11.585638 51.193394,11.17774 L 48.544922,9.7226562 C 48.226445,9.6281089 47.923703,9.5341885 47.875,9.5195312 47.316021,9.3376382 47.282054,9.3166325 46.734375,9.1777344 46.493382,9.1166144 46.225181,9.0809518 46.041016,8.90625 45.974209,8.8428883 45.930253,8.7633869 45.875,8.6914062 45.853866,8.6481687 45.844372,8.599908 45.8125,8.5625 45.733078,8.4692148 45.618035,8.4067968 45.525391,8.3242188 45.267304,8.0941735 45.005698,7.8654689 44.746094,7.6367188 L 44.199219,7.3378906 c -0.02717,0.00188 -0.05483,0.0087 -0.08203,0.00781 -0.06717,-0.00218 -0.735713,-0.4407728 -0.773438,-0.4648437 -0.03563,-0.024031 -0.07182,-0.048077 -0.107422,-0.072266 L 42.988281,6.671875 c -0.0017,-3.133e-4 -0.0177,8.327e-4 -0.01367,0 0.0066,-0.00135 0.0033,-6.829e-4 0.0098,-0.00195 L 42.617188,6.46875 C 42.551048,6.46 42.576888,6.46774 42.501953,6.457031 42.491933,6.436641 42.484513,6.414138 42.476563,6.392578 l -0.09766,-0.054687 c 0.0055,0.018932 0.0092,0.03662 -0.0039,0.033203 C 42.192234,6.3234106 42.014973,6.2645547 41.839844,6.1972656 41.427452,6.0388055 41.474629,6.0062662 41.164062,5.671875 Z m -6.623047,3.0566406 c 0.01235,-0.017139 0.02645,-0.03382 0.03906,-0.050781 -0.04361,0.028039 -0.09094,0.053119 -0.128906,0.085937 -0.0238,0.020566 0.05646,-0.012741 0.08984,-0.035156 z m 0.03906,-0.050781 c 0.0018,-0.00115 0.004,-0.00275 0.0059,-0.00391 0.0199,-0.029334 0.05623,-0.07406 0.04102,-0.056641 -0.01661,0.019021 -0.03191,0.040418 -0.04687,0.060547 z m 20.564453,4.6699219 c 0.02697,0.100998 0.05119,0.167426 0.0625,0.09766 0.0035,-0.02186 -0.0049,-0.04416 -0.0059,-0.06641 z m -33.443359,1.503906 -0.04102,0.02148 c -0.01608,0.03904 -0.03272,0.07621 -0.04883,0.115235 0.0053,-0.0018 0.0108,-0.0013 0.01563,-0.0039 0.03335,-0.01792 0.06012,-0.08112 0.07422,-0.132812 z" />
    <path
       id="path1502"
       style="fill:#586227;fill-opacity:1;stroke:none;stroke-width:1.05713px;stroke-linecap:butt;stroke-linejoin:miter;stroke-opacity:1;filter:url(#filter1456)"
       transform="matrix(0.25027272,0,0,0.25028858,79.676142,57.4725)"
       d="m 40.923828,5.5390625 c -0.200736,0.026276 -0.404073,0.029142 -0.607422,0.03125 -0.639833,0.3398985 -1.184601,0.622444 -1.949218,1.0117187 -0.03303,0.046077 -0.05432,0.090168 -0.0957,0.1367188 -0.06603,0.074282 -0.251605,0.1144266 -0.412109,0.140625 -0.01245,0.02858 -0.0217,0.058085 -0.04102,0.083984 -0.0506,0.067842 -0.20344,0.086835 -0.357421,0.09375 -0.209149,0.1032651 -0.546656,0.2800845 -0.6875,0.3457031 -0.194776,0.090744 -0.397272,0.1744877 -0.59375,0.2636719 -0.0016,0.014184 0.0065,0.028879 0.002,0.042969 -0.118248,0.3601501 -0.633339,0.6160842 -1.029297,0.5683594 0.120959,-0.2478646 0.01356,0.0034 -0.138672,0.078125 -0.07017,0.034446 -0.144965,0.059124 -0.220703,0.082031 -0.142311,0.086055 -0.193667,0.08717 -0.205078,0.091797 0.01312,-0.017818 0.01438,-0.026602 0.02539,-0.042969 -0.0352,0.00866 -0.07039,0.01877 -0.105469,0.027344 -0.0239,0.00584 -0.04972,-0.00761 -0.07422,-0.013672 -0.03079,0.019107 -0.05743,0.041078 -0.08789,0.060547 -0.01813,0.026735 -0.02077,0.036991 -0.03711,0.050781 -0.0021,0.00175 -0.0049,0.00196 -0.0078,0.00391 -0.01012,0.014038 -0.0208,0.027199 -0.03125,0.041016 -0.102384,0.026928 -0.204223,0.052998 -0.30664,0.080078 -0.0079,0.00703 -0.01534,0.014657 -0.02344,0.021484 0.286287,-0.00532 0.611931,-0.088315 0.04102,0.1191407 -0.0632,0.022978 -0.133113,0.030235 -0.199219,0.044922 -0.21246,0.1404414 -0.433653,0.2699614 -0.660156,0.3925781 -0.0908,0.1520943 -0.310431,0.2508232 -0.53125,0.2675781 -0.256643,0.123636 -0.519168,0.2364961 -0.78125,0.3496094 -0.23027,0.2579513 -0.686998,0.8244783 -0.957032,0.5585933 -0.101318,0.05283 -0.201353,0.08911 -0.302734,0.126953 -0.02167,0.01002 -0.0424,0.02186 -0.06445,0.03125 -0.05714,0.02432 -0.140386,0.104919 -0.177734,0.05859 -0.0022,-0.0028 -0.0021,-0.01035 -0.0039,-0.01367 -0.03185,0.0059 -0.06476,0.01681 -0.0957,0.01953 -0.0021,0.04571 -0.0013,0.09161 -0.0098,0.134766 -0.176816,0.08762 -0.341845,0.20158 -0.53125,0.263672 -0.06532,0.0214 -0.138602,-0.01083 -0.207032,-0.02149 -0.03889,-0.0061 -0.07565,-0.01681 -0.115234,-0.02148 -0.258683,0.19487 -0.73139,0.544409 -1.064453,0.546875 -0.08262,0.08034 -0.182392,0.15642 -0.28125,0.173828 -0.0041,7.22e-4 -0.0073,-3.71e-4 -0.01172,-0.002 -0.005,0.0052 -0.0085,0.01253 -0.01367,0.01758 -0.01711,0.0168 -0.05678,0.0287 -0.0918,0.04297 -0.01411,0.02313 -0.03131,0.04442 -0.04687,0.06641 -0.30014,0.331515 -0.379934,0.361634 -0.738281,0.367188 -0.940626,0.779074 -2.153552,1.261318 -3.255859,1.816406 -0.381514,0.192118 -0.679545,0.127192 -0.830078,-0.03125 -0.03555,0.101121 -0.07586,0.182205 -0.08984,0.06836 0.02768,-0.0257 0.0558,-0.049 0.08398,-0.07422 -0.01107,-0.01224 -0.02594,-0.0238 -0.03516,-0.03711 -0.09124,0.157255 -0.166654,0.323274 -0.289062,0.460938 -0.0646,0.07264 -1.020174,0.42297 -1.181641,0.488281 0.06034,0.0066 -0.05167,0.03443 -0.191406,0.06055 -0.105979,0.256333 -0.21269,0.511071 -0.31836,0.767578 0,0.173926 0.04634,0.354715 0,0.523438 -0.05179,0.188629 -0.226477,0.334521 -0.285156,0.521484 -0.146138,0.465669 0.215371,1.434042 0,1.826172 -0.346707,0.631269 -1.31851,0.677882 -1.863281,1.173828 -0.03378,0.03075 0.03378,0.100105 0,0.130859 -0.03378,0.03075 -0.108796,-0.03075 -0.142578,0 -0.164728,0.149963 -0.746268,1.646166 -0.859375,1.955078 -0.02851,0.07794 -0.01425,0.48431 0,0.523438 0.07642,0.208684 0.495848,0.312786 0.572265,0.521484 0.03033,0.08249 -0.04273,0.183949 0,0.261719 0.02123,0.0389 0.09482,0 0.142578,0 0.04776,0.04348 0.123152,0.07057 0.144532,0.128906 0.327862,0.895436 -0.549314,-0.607396 0.142578,0.652344 0.09131,0.166251 0.366556,0.349062 0.429687,0.521484 0.07551,0.206228 -0.03927,0.437907 0,0.652344 0.08364,0.456775 0.221163,0.816325 0.144531,1.304688 -0.07463,0.475611 -0.350028,2.141661 -0.144531,2.609375 0.153356,0.349062 1.852378,0.901629 2.292969,1.302734 0.136707,0.124454 -0.362708,0.86199 -0.429688,1.044922 -0.327852,0.895433 0.547361,-0.607399 -0.144531,0.652344 -0.07699,0.140217 -0.237849,0.239886 -0.285156,0.390625 -0.05249,0.167217 0.02699,0.349316 0,0.521484 -0.106412,0.678166 -0.222013,1.38239 -0.144531,2.087891 0.05337,0.485989 1.215667,3.140058 1.71875,3.78125 0.157025,0.200153 0.424367,0.318792 0.574218,0.523437 0.219162,0.299261 0.216352,0.667768 0.574219,0.91211 0.564128,0.385164 1.260774,0.577611 1.861328,0.914062 0.04066,0.02291 -0.01365,0.08725 0,0.128906 0.130187,0.395081 0.255811,0.793675 0.431641,1.173828 0.471489,1.019424 1.350241,2.665099 2.578125,3.13086 0.374655,0.142122 2.946177,-0.09331 3.152344,-0.13086 0.296187,-0.05391 0.56796,-0.187434 0.859375,-0.259765 0.23493,-0.05833 0.488735,-0.04851 0.714844,-0.13086 0.02032,-0.0074 -0.0841,-0.191208 0.287109,-0.130859 4.439075,0.721646 3.453284,0.494676 7.880859,1.695312 1.245133,0.337646 2.446367,0.831392 3.72461,1.042969 0.187956,0.03111 0.384439,-0.01987 0.574218,0 1.053443,0.110651 2.101464,0.26329 3.152344,0.392578 1.097794,0.135056 2.190978,0.306876 3.294922,0.390625 0.190383,0.01435 0.383181,0 0.574219,0 0.04776,0 0.116074,0.03616 0.142578,0 0.408192,-0.557406 -0.06576,-0.21421 0.142578,-0.783203 0.225257,-0.615163 0.203408,-0.212453 0.429687,-0.521484 0.535647,-0.731456 0.799537,-1.472245 1.861329,-1.695313 0.375188,-0.07882 0.769245,-0.06993 1.148437,-0.130859 0.673406,-0.108193 1.325443,-0.328683 2.00586,-0.390625 1.441324,-0.131218 3.013062,0.216718 4.441406,0 0.275415,-0.0418 0.710595,-0.318319 0.859375,-0.521484 0.02638,-0.03616 -0.03821,-0.10477 0,-0.13086 0.170883,-0.116669 0.394553,-0.151904 0.572265,-0.259765 0.747624,-0.453744 1.55611,-0.935222 2.150391,-1.566407 0.247122,-0.26249 0.481578,-0.705621 0.574219,-1.042968 0.04634,-0.168737 -0.08543,-0.365929 0,-0.521485 0.02123,-0.0389 0.104368,0.02622 0.142578,0 0.162089,-0.110677 0.301153,-0.246567 0.427734,-0.390625 0.381952,-0.434647 0.476357,-0.997766 0.716797,-1.435547 0.149595,-0.272347 -0.429687,-0.172 -0.429687,-0.390625 0,-0.402134 0.592067,-1.117593 0.716796,-1.435546 0.229989,-0.586257 0.191552,-1.243285 0.431641,-1.826172 0.06047,-0.146789 0.224718,-0.243834 0.285156,-0.390625 0.08552,-0.20758 0.07568,-0.441126 0.142579,-0.654297 0.129781,-0.413539 0.493847,-0.732863 0.574218,-1.171875 0.154478,-0.84375 -0.239783,-2.235992 0,-3 0.227532,-0.725022 0.656537,-1.32455 1.003906,-1.957031 0.101773,-0.185301 0.0437,-1.888941 0,-2.087891 -0.03588,-0.165898 -1.666463,-2.689963 -1.863281,-2.869141 -0.03378,-0.03075 -0.108795,0.03075 -0.142578,0 -0.107382,-0.09776 0.653944,-1.94929 0.714844,-2.08789 L 66.72074,19.701133 c 0.198521,0.908101 -0.459526,0.02503 -0.738281,-0.404297 -0.02768,0.07263 -0.292086,-0.03286 -0.417969,-0.06836 -0.07175,-0.04361 -0.135361,-0.102282 -0.214844,-0.132813 -0.03585,-0.01377 -0.0738,-0.01627 -0.111328,-0.02539 -0.01512,0.0047 -0.06222,0.01932 -0.06445,0.01953 -0.432622,0.04134 -0.846704,-0.267819 -1.125,-0.523438 -0.02584,-0.02412 -0.05387,-0.04657 -0.08008,-0.07031 -0.125268,-0.08463 -0.355923,-0.232423 -0.244141,-0.203125 0.0271,0.0071 0.04784,0.02792 0.06836,0.04687 -0.04826,-0.04165 -0.09585,-0.08378 -0.144531,-0.125 -0.09852,-0.04773 -0.192301,-0.102176 -0.289063,-0.152344 -0.0349,-0.07377 -0.08144,-0.14554 -0.130859,-0.216797 -0.06267,-0.05567 -0.128904,-0.108253 -0.189454,-0.166015 l -0.171874,-0.0957 c -0.02191,0.001 -0.04445,0.0011 -0.06641,0.002 -0.120236,0.01796 -0.213437,-0.07952 -0.294922,-0.199219 l -7.113281,-3.904297 c -1.769572,-0.07219 -0.905847,-0.165137 -0.660156,-0.363281 L 53.26566,12.314459 C 53.04962,12.215069 52.831399,12.116381 52.615269,12.017584 52.342787,11.889073 51.341256,11.585638 51.193394,11.17774 L 48.544922,9.7226562 C 48.226445,9.6281089 47.923703,9.5341885 47.875,9.5195312 47.316021,9.3376382 47.282054,9.3166325 46.734375,9.1777344 46.493382,9.1166144 46.225181,9.0809518 46.041016,8.90625 45.974209,8.8428883 45.930253,8.7633869 45.875,8.6914062 45.853866,8.6481687 45.844372,8.599908 45.8125,8.5625 45.733078,8.4692148 45.618035,8.4067968 45.525391,8.3242188 45.267304,8.0941735 45.005698,7.8654689 44.746094,7.6367188 L 44.199219,7.3378906 c -0.02717,0.00188 -0.05483,0.0087 -0.08203,0.00781 -0.06717,-0.00218 -0.735713,-0.4407728 -0.773438,-0.4648437 -0.03563,-0.024031 -0.07182,-0.048077 -0.107422,-0.072266 L 42.988281,6.671875 c -0.0017,-3.133e-4 -0.0177,8.327e-4 -0.01367,0 0.0066,-0.00135 0.0033,-6.829e-4 0.0098,-0.00195 L 42.617188,6.46875 C 42.551048,6.46 42.576888,6.46774 42.501953,6.457031 42.491933,6.436641 42.484513,6.414138 42.476563,6.392578 l -0.09766,-0.054687 c 0.0055,0.018932 0.0092,0.03662 -0.0039,0.033203 C 42.192234,6.3234106 42.014973,6.2645547 41.839844,6.1972656 41.427452,6.0388055 41.474629,6.0062662 41.164062,5.671875 Z m -6.623047,3.0566406 c 0.01235,-0.017139 0.02645,-0.03382 0.03906,-0.050781 -0.04361,0.028039 -0.09094,0.053119 -0.128906,0.085937 -0.0238,0.020566 0.05646,-0.012741 0.08984,-0.035156 z m 0.03906,-0.050781 c 0.0018,-0.00115 0.004,-0.00275 0.0059,-0.00391 0.0199,-0.029334 0.05623,-0.07406 0.04102,-0.056641 -0.01661,0.019021 -0.03191,0.040418 -0.04687,0.060547 z m 20.564453,4.6699219 c 0.02697,0.100998 0.05119,0.167426 0.0625,0.09766 0.0035,-0.02186 -0.0049,-0.04416 -0.0059,-0.06641 z m -33.443359,1.503906 -0.04102,0.02148 c -0.01608,0.03904 -0.03272,0.07621 -0.04883,0.115235 0.0053,-0.0018 0.0108,-0.0013 0.01563,-0.0039 0.03335,-0.01792 0.06012,-0.08112 0.07422,-0.132812 z" />
    <path
       id="path1504"
       style="fill:#585527;fill-opacity:1;stroke:none;stroke-width:1.62323px;stroke-linecap:butt;stroke-linejoin:miter;stroke-opacity:1;filter:url(#filter1456)"
       transform="matrix(0.16523742,0,0,0.1607848,83.522771,59.77395)"
       d="m 41.273438,0.61914062 c -0.616229,0.0886033 -1.244835,0.0473486 -1.871094,0.0253906 -0.06044,0.0353178 -0.04465,0.0212148 -0.08984,0.046875 -0.04024,0.0385791 -0.07913,0.0785426 -0.126953,0.109375 -0.09084,0.13192952 -0.191121,0.25893538 -0.324219,0.34374998 -0.01487,0.00948 -0.0348,0.01593 -0.05078,0.025391 -0.09942,0.1842152 -0.245515,0.3444696 -0.400391,0.4941406 -0.0525,0.050741 -0.131244,0.208812 -0.166015,0.1445313 -0.06876,0.1318638 -0.157638,0.2802886 -0.275391,0.4257812 -0.0823,0.1016942 -0.313632,0.157493 -0.513672,0.1933594 -0.01552,0.039127 -0.0267,0.079777 -0.05078,0.1152344 -0.08611,0.1268057 -0.409193,0.1452335 -0.650391,0.1386718 -0.325901,0.2417902 -0.255018,0.2007467 -0.648437,0.2832032 -0.04957,0.010388 -0.08128,0.00875 -0.119141,0.011719 -0.121633,0.072831 -0.254115,0.1298584 -0.398437,0.1738281 -0.08451,0.077066 -0.165954,0.140495 -0.232422,0.1660156 0.01979,0.08374 0.03195,0.1674145 0.0078,0.2480469 -0.147375,0.493056 -0.789711,0.8426805 -1.283203,0.7773438 0.150754,-0.3393339 0.01785,0.00317 -0.171875,0.1054687 -0.08746,0.047157 -0.180997,0.081921 -0.275391,0.1132813 -0.177366,0.1178122 -0.241637,0.1206192 -0.255859,0.1269531 0.01635,-0.024394 0.01753,-0.038141 0.03125,-0.060547 -0.04387,0.011853 -0.08714,0.025371 -0.130859,0.037109 -0.02979,0.00799 -0.06127,-0.00928 -0.0918,-0.017578 -0.03837,0.026158 -0.07336,0.055378 -0.111328,0.082031 -0.0226,0.036601 -0.02456,0.051433 -0.04492,0.070312 -0.0026,0.0024 -0.0062,0.00125 -0.0098,0.00391 -0.01261,0.019219 -0.02604,0.037725 -0.03906,0.056641 -0.127604,0.036865 -0.255168,0.074255 -0.382813,0.1113281 -0.0098,0.00962 -0.01921,0.01995 -0.0293,0.029297 0.356807,-0.00728 0.762381,-0.1219033 0.05078,0.1621094 -0.07877,0.031457 -0.165657,0.04044 -0.248047,0.060547 -0.264794,0.19227 -0.539969,0.3711968 -0.822266,0.5390626 -0.113162,0.2082216 -0.386897,0.3422963 -0.662109,0.3652343 -0.31986,0.1692613 -0.646018,0.3236603 -0.972657,0.4785157 -0.286991,0.3531432 -0.856809,1.1296296 -1.193359,0.765625 -0.126289,0.072322 -0.250599,0.1220249 -0.376953,0.1738281 -0.02701,0.013713 -0.05259,0.030117 -0.08008,0.042969 -0.07122,0.033294 -0.176108,0.1434381 -0.222656,0.080078 -0.0028,-0.00386 -0.0016,-0.013035 -0.0039,-0.017578 -0.0397,0.0081 -0.08058,0.021669 -0.11914,0.025391 -0.0026,0.062578 -0.0031,0.1264692 -0.01367,0.1855469 -0.22037,0.1199509 -0.426049,0.2743697 -0.662109,0.359375 -0.08141,0.029303 -0.172528,-0.014708 -0.257813,-0.029297 -0.04847,-0.00829 -0.0952,-0.022898 -0.144531,-0.029297 -0.322403,0.2667821 -0.911067,0.7446707 -1.326172,0.7480468 -0.102966,0.1099921 -0.226401,0.2144492 -0.34961,0.2382813 -0.0051,9.886e-4 -0.01017,-4.916e-4 -0.01562,-0.00195 -0.0062,0.00707 -0.0092,0.01653 -0.01563,0.023437 -0.02132,0.022995 -0.07159,0.041008 -0.115234,0.060547 -0.01758,0.03167 -0.03919,0.059747 -0.05859,0.089844 -0.374072,0.4538533 -0.473305,0.4963024 -0.919922,0.5039063 -1.172326,1.0665759 -2.68476,1.7244439 -4.058593,2.4843749 -0.47549,0.263015 -0.845589,0.175892 -1.033203,-0.04102 -0.04431,0.138438 -0.09585,0.249623 -0.113282,0.09375 0.0345,-0.03519 0.07034,-0.06899 0.105469,-0.103516 -0.0138,-0.01675 -0.03148,-0.03061 -0.04297,-0.04883 -0.113714,0.215287 -0.208753,0.442394 -0.361328,0.63086 -0.08051,0.09944 -1.271415,0.578556 -1.472656,0.667968 0.0752,0.009 -0.06413,0.04628 -0.238281,0.08203 -0.132084,0.350927 -0.264786,0.701568 -0.396485,1.052734 0,0.23811 0.05775,0.483858 0,0.714844 -0.06455,0.258255 -0.282335,0.458886 -0.355468,0.714844 -0.182136,0.637515 0.268422,1.963163 0,2.5 -0.43211,0.864226 -1.643304,0.926503 -2.322266,1.605468 -0.0421,0.0421 0.0421,0.137584 0,0.179688 -0.0421,0.0421 -0.13563,-0.0421 -0.177734,0 -0.205304,0.205304 -0.931297,2.254824 -1.072266,2.677734 -0.03553,0.106696 -0.01776,0.661277 0,0.714844 0.09524,0.285694 0.619603,0.42913 0.714844,0.714844 0.0378,0.112932 -0.05325,0.250952 0,0.357422 0.02646,0.05325 0.118207,0 0.177734,0 0.05953,0.05953 0.153042,0.09787 0.179688,0.177734 0.408623,1.225878 -0.684588,-0.832043 0.177734,0.892578 0.113802,0.227603 0.456474,0.478793 0.535156,0.714844 0.09411,0.282331 -0.04894,0.599007 0,0.892578 0.10424,0.625338 0.275196,1.116573 0.179688,1.785156 -0.09301,0.651126 -0.435804,2.931953 -0.179688,3.572266 0.191131,0.477876 2.308302,1.236032 2.857422,1.785156 0.170381,0.170381 -0.451678,1.179249 -0.535156,1.429688 -0.408624,1.225874 0.682634,-0.832047 -0.179688,0.892578 -0.09596,0.191962 -0.296508,0.32879 -0.355468,0.535156 -0.06542,0.228926 0.03364,0.479141 0,0.714844 -0.132624,0.928429 -0.276255,1.891571 -0.179688,2.857422 0.06652,0.665333 1.515574,4.299924 2.142578,5.177734 0.195704,0.274016 0.528067,0.434679 0.714844,0.714844 0.273146,0.409697 0.268825,0.915489 0.714844,1.25 0.703086,0.527316 1.571826,0.789389 2.320312,1.25 0.05068,0.03137 -0.01701,0.120701 0,0.177734 0.162255,0.540877 0.317969,1.086981 0.53711,1.607422 0.587629,1.395621 1.682548,3.647516 3.21289,4.285156 0.466942,0.19457 3.672737,-0.126333 3.929688,-0.177734 0.369146,-0.07381 0.707115,-0.258398 1.070312,-0.357422 0.2928,-0.07986 0.610773,-0.06499 0.892578,-0.177734 0.02532,-0.0102 -0.10523,-0.262308 0.357422,-0.179688 5.532529,0.987954 4.304069,0.678545 9.822266,2.322266 1.55184,0.462247 3.049473,1.138079 4.642578,1.427734 0.234255,0.04259 0.478317,-0.02721 0.714844,0 1.312932,0.151484 2.617996,0.358157 3.927734,0.535156 1.368208,0.184895 2.731549,0.422454 4.107422,0.53711 0.237279,0.01965 0.476749,0 0.714844,0 0.05953,0 0.144701,0.04951 0.177734,0 0.50874,-0.763106 -0.07997,-0.293298 0.179688,-1.072266 0.280743,-0.842177 0.253124,-0.291771 0.535156,-0.714844 0.667589,-1.001385 0.996975,-2.014926 2.320312,-2.320312 0.467607,-0.107906 0.957092,-0.09627 1.429688,-0.179688 0.839282,-0.148119 1.65198,-0.450355 2.5,-0.535156 1.796372,-0.179641 3.754976,0.296693 5.535156,0 0.343257,-0.05722 0.886838,-0.436704 1.072266,-0.714844 0.03288,-0.04951 -0.04762,-0.142017 0,-0.177734 0.212976,-0.159723 0.491403,-0.209756 0.71289,-0.357422 0.931782,-0.621188 1.939021,-1.278468 2.679688,-2.142578 0.307994,-0.359357 0.599383,-0.965895 0.714844,-1.427734 0.05775,-0.231005 -0.10647,-0.501883 0,-0.714844 0.02646,-0.05325 0.130112,0.0359 0.177734,0 0.202016,-0.151521 0.377395,-0.337937 0.535156,-0.535156 0.476036,-0.595045 0.592911,-1.365509 0.892578,-1.964844 0.186444,-0.372851 -0.535156,-0.235852 -0.535156,-0.535156 0,-0.550534 0.737111,-1.529541 0.892578,-1.964844 0.28664,-0.802602 0.237881,-1.70201 0.53711,-2.5 0.07536,-0.200958 0.280142,-0.334195 0.355468,-0.535156 0.106583,-0.284183 0.09631,-0.602695 0.179688,-0.894532 0.161764,-0.566146 0.614675,-1.004448 0.714844,-1.605468 0.192529,-1.155118 -0.298848,-3.061472 0,-4.107422 0.283578,-0.992576 0.817051,-1.813787 1.25,-2.679688 0.126841,-0.253682 0.05446,-2.585054 0,-2.857422 C 78.52752,28.700614 76.495299,25.245299 76.25,25 c -0.0421,-0.0421 -0.13563,0.0421 -0.177734,0 -0.133833,-0.133833 0.816677,-2.667674 0.892578,-2.857422 l -3.539063,-2.134766 c 0.247421,1.243217 -0.574456,0.03308 -0.921875,-0.554687 -0.0345,0.09943 -0.36264,-0.04515 -0.519531,-0.09375 -0.08942,-0.0597 -0.168517,-0.137889 -0.267578,-0.179687 -0.04468,-0.01885 -0.09385,-0.02267 -0.140625,-0.03516 -0.01884,0.0064 -0.0773,0.02705 -0.08008,0.02734 -0.539188,0.0566 -1.053544,-0.3688 -1.400391,-0.71875 -0.0322,-0.03302 -0.06694,-0.0632 -0.09961,-0.0957 -0.156124,-0.115862 -0.444005,-0.317454 -0.304688,-0.277344 0.03377,0.0097 0.05841,0.03841 0.08398,0.06445 -0.06015,-0.05702 -0.119012,-0.115443 -0.179688,-0.171875 -0.122786,-0.06534 -0.240731,-0.138349 -0.361328,-0.207031 -0.0435,-0.10099 -0.100515,-0.201275 -0.162109,-0.298828 -0.07811,-0.07621 -0.160864,-0.147469 -0.236328,-0.226563 l -0.214844,-0.130859 c -0.02731,0.0014 -0.05466,0.0028 -0.08203,0.0039 -0.149854,0.02459 -0.265631,-0.109571 -0.367187,-0.273437 L 59.306635,11.494128 C 57.101173,11.395298 58.178159,11.2693 58.484369,10.998034 L 56.654297,9.8945312 C 56.385041,9.7584631 56.115071,9.6235365 55.845703,9.4882812 55.506101,9.312346 54.25655,8.8963145 54.072266,8.3378906 L 50.771484,6.3476562 C 50.374559,6.2182166 49.9982,6.0884256 49.9375,6.0683594 49.240831,5.819341 49.198211,5.789765 48.515625,5.5996094 48.21527,5.5159344 47.881874,5.4696407 47.652344,5.2304688 47.569081,5.1437248 47.514175,5.0340905 47.445312,4.9355469 47.418972,4.8763519 47.404957,4.8090251 47.365234,4.7578125 47.266249,4.6301023 47.123277,4.5446939 47.007812,4.4316406 46.686152,4.1167019 46.36066,3.8053547 46.037109,3.4921875 l -0.68164,-0.4101563 c -0.03386,0.00258 -0.06766,0.012928 -0.101563,0.011719 -0.08371,-0.00298 -0.917826,-0.603765 -0.964844,-0.6367188 -0.0444,-0.032899 -0.08844,-0.066494 -0.132812,-0.099609 l -0.310547,-0.1875 c -0.0021,-4.289e-4 -0.02065,0.00114 -0.01563,0 0.0082,-0.00185 0.0037,-1.643e-4 0.01172,-0.00195 L 43.384766,1.8925781 c -0.08243,-0.011985 -0.05114,-0.00292 -0.144532,-0.017578 -0.01249,-0.027914 -0.02134,-0.058375 -0.03125,-0.087891 l -0.123046,-0.074219 c 0.0068,0.025919 0.01239,0.051553 -0.0039,0.046875 C 42.854293,1.6944885 42.63233,1.6116519 42.414062,1.5195312 41.900088,1.3025946 41.959333,1.2585725 41.572266,0.80078125 Z M 33.019531,4.8027344 c 0.01539,-0.023464 0.03311,-0.045138 0.04883,-0.068359 -0.05435,0.038386 -0.112834,0.072257 -0.160156,0.1171875 -0.02966,0.028156 0.06972,-0.018141 0.111328,-0.048828 z m 0.04883,-0.068359 c 0.0022,-0.00158 0.0036,-0.00428 0.0059,-0.00586 0.0248,-0.040159 0.06974,-0.1000199 0.05078,-0.076172 -0.0207,0.02604 -0.03799,0.054474 -0.05664,0.082031 z m 5.357422,-3.3046875 c -0.0046,0.00324 -0.009,0.00661 -0.01367,0.00977 -0.01045,0.00481 -0.04824,0.1371955 -0.164062,0.3613281 -0.01924,-0.060682 0.10239,-0.1014911 0.152344,-0.1523437 0.01752,-0.1354097 0.02401,-0.1912237 0.02539,-0.21875 z m -0.794922,0.4804687 c -0.01619,0.020153 -0.03732,0.035798 -0.05273,0.056641 -0.0061,0.00789 -0.01514,0.017319 -0.02148,0.025391 -0.0014,0.011334 -0.0044,0.021882 -0.0059,0.033203 0.02555,-0.014238 0.05353,-0.025643 0.07813,-0.041016 -9.95e-4,-0.016629 0.0015,-0.049144 0.002,-0.074219 z M 35.36133,3.2148442 c -0.0075,0.00155 -0.01776,0.00239 -0.02539,0.00391 0.007,0.025393 0.0092,0.050777 0.01562,0.076172 0.002,-0.019668 0.009,-0.045638 0.01367,-0.068359 -0.0012,-0.00394 -0.0026,-0.00706 -0.0039,-0.011719 z m 23.335938,7.9121088 c 0.03361,0.138269 0.06403,0.230343 0.07813,0.134766 0.0044,-0.02993 -0.0047,-0.06135 -0.0059,-0.0918 z m -41.681641,2.058594 -0.05078,0.0293 c -0.02004,0.05345 -0.04047,0.106725 -0.06055,0.160156 0.0066,-0.0024 0.01352,-0.0043 0.01953,-0.0078 0.04156,-0.02453 0.07423,-0.110868 0.0918,-0.181641 z" />
    <path
       id="path1618"
       style="fill:#586227;fill-opacity:1;stroke:none;stroke-width:2.35087px;stroke-linecap:butt;stroke-linejoin:miter;stroke-opacity:1;filter:url(#filter1456)"
       transform="matrix(0.09510227,0,0,0.13318649,78.408532,62.609853)"
       d="m 40.923828,5.5390625 c -0.200736,0.026276 -0.404073,0.029142 -0.607422,0.03125 -0.639833,0.3398985 -1.184601,0.622444 -1.949218,1.0117187 -0.03303,0.046077 -0.05432,0.090168 -0.0957,0.1367188 -0.06603,0.074282 -0.251605,0.1144266 -0.412109,0.140625 -0.01245,0.02858 -0.0217,0.058085 -0.04102,0.083984 -0.0506,0.067842 -0.20344,0.086835 -0.357421,0.09375 -0.209149,0.1032651 -0.546656,0.2800845 -0.6875,0.3457031 -0.194776,0.090744 -0.397272,0.1744877 -0.59375,0.2636719 -0.0016,0.014184 0.0065,0.028879 0.002,0.042969 -0.118248,0.3601501 -0.633339,0.6160842 -1.029297,0.5683594 0.120959,-0.2478646 0.01356,0.0034 -0.138672,0.078125 -0.07017,0.034446 -0.144965,0.059124 -0.220703,0.082031 -0.142311,0.086055 -0.193667,0.08717 -0.205078,0.091797 0.01312,-0.017818 0.01438,-0.026602 0.02539,-0.042969 -0.0352,0.00866 -0.07039,0.01877 -0.105469,0.027344 -0.0239,0.00584 -0.04972,-0.00761 -0.07422,-0.013672 -0.03079,0.019107 -0.05743,0.041078 -0.08789,0.060547 -0.01813,0.026735 -0.02077,0.036991 -0.03711,0.050781 -0.0021,0.00175 -0.0049,0.00196 -0.0078,0.00391 -0.01012,0.014038 -0.0208,0.027199 -0.03125,0.041016 -0.102384,0.026928 -0.204223,0.052998 -0.30664,0.080078 -0.0079,0.00703 -0.01534,0.014657 -0.02344,0.021484 0.286287,-0.00532 0.611931,-0.088315 0.04102,0.1191407 -0.0632,0.022978 -0.133113,0.030235 -0.199219,0.044922 -0.21246,0.1404414 -0.433653,0.2699614 -0.660156,0.3925781 -0.0908,0.1520943 -0.310431,0.2508232 -0.53125,0.2675781 -0.256643,0.123636 -0.519168,0.2364961 -0.78125,0.3496094 -0.23027,0.2579513 -0.686998,0.8244783 -0.957032,0.5585933 -0.101318,0.05283 -0.201353,0.08911 -0.302734,0.126953 -0.02167,0.01002 -0.0424,0.02186 -0.06445,0.03125 -0.05714,0.02432 -0.140386,0.104919 -0.177734,0.05859 -0.0022,-0.0028 -0.0021,-0.01035 -0.0039,-0.01367 -0.03185,0.0059 -0.06476,0.01681 -0.0957,0.01953 -0.0021,0.04571 -0.0013,0.09161 -0.0098,0.134766 -0.176816,0.08762 -0.341845,0.20158 -0.53125,0.263672 -0.06532,0.0214 -0.138602,-0.01083 -0.207032,-0.02149 -0.03889,-0.0061 -0.07565,-0.01681 -0.115234,-0.02148 -0.258683,0.19487 -0.73139,0.544409 -1.064453,0.546875 -0.08262,0.08034 -0.182392,0.15642 -0.28125,0.173828 -0.0041,7.22e-4 -0.0073,-3.71e-4 -0.01172,-0.002 -0.005,0.0052 -0.0085,0.01253 -0.01367,0.01758 -0.01711,0.0168 -0.05678,0.0287 -0.0918,0.04297 -0.01411,0.02313 -0.03131,0.04442 -0.04687,0.06641 -0.30014,0.331515 -0.379934,0.361634 -0.738281,0.367188 -0.940626,0.779074 -2.153552,1.261318 -3.255859,1.816406 -0.381514,0.192118 -0.679545,0.127192 -0.830078,-0.03125 -0.03555,0.101121 -0.07586,0.182205 -0.08984,0.06836 0.02768,-0.0257 0.0558,-0.049 0.08398,-0.07422 -0.01107,-0.01224 -0.02594,-0.0238 -0.03516,-0.03711 -0.09124,0.157255 -0.166654,0.323274 -0.289062,0.460938 -0.0646,0.07264 -1.020174,0.42297 -1.181641,0.488281 0.06034,0.0066 -0.05167,0.03443 -0.191406,0.06055 -0.105979,0.256333 -0.21269,0.511071 -0.31836,0.767578 0,0.173926 0.04634,0.354715 0,0.523438 -0.05179,0.188629 -0.226477,0.334521 -0.285156,0.521484 -0.146138,0.465669 0.215371,1.434042 0,1.826172 -0.346707,0.631269 -1.31851,0.677882 -1.863281,1.173828 -0.03378,0.03075 0.03378,0.100105 0,0.130859 -0.03378,0.03075 -0.108796,-0.03075 -0.142578,0 -0.164728,0.149963 -0.746268,1.646166 -0.859375,1.955078 -0.02851,0.07794 -0.01425,0.48431 0,0.523438 0.07642,0.208684 0.495848,0.312786 0.572265,0.521484 0.03033,0.08249 -0.04273,0.183949 0,0.261719 0.02123,0.0389 0.09482,0 0.142578,0 0.04776,0.04348 0.123152,0.07057 0.144532,0.128906 0.327862,0.895436 -0.549314,-0.607396 0.142578,0.652344 0.09131,0.166251 0.366556,0.349062 0.429687,0.521484 0.07551,0.206228 -0.03927,0.437907 0,0.652344 0.08364,0.456775 0.221163,0.816325 0.144531,1.304688 -0.07463,0.475611 -0.350028,2.141661 -0.144531,2.609375 0.153356,0.349062 1.852378,0.901629 2.292969,1.302734 0.136707,0.124454 -0.362708,0.86199 -0.429688,1.044922 -0.327852,0.895433 0.547361,-0.607399 -0.144531,0.652344 -0.07699,0.140217 -0.237849,0.239886 -0.285156,0.390625 -0.05249,0.167217 0.02699,0.349316 0,0.521484 -0.106412,0.678166 -0.222013,1.38239 -0.144531,2.087891 0.05337,0.485989 1.215667,3.140058 1.71875,3.78125 0.157025,0.200153 0.424367,0.318792 0.574218,0.523437 0.219162,0.299261 0.216352,0.667768 0.574219,0.91211 0.564128,0.385164 1.260774,0.577611 1.861328,0.914062 0.04066,0.02291 -0.01365,0.08725 0,0.128906 0.130187,0.395081 0.255811,0.793675 0.431641,1.173828 0.471489,1.019424 1.350241,2.665099 2.578125,3.13086 0.374655,0.142122 2.946177,-0.09331 3.152344,-0.13086 0.296187,-0.05391 0.56796,-0.187434 0.859375,-0.259765 0.23493,-0.05833 0.488735,-0.04851 0.714844,-0.13086 0.02032,-0.0074 -0.0841,-0.191208 0.287109,-0.130859 4.439075,0.721646 3.453284,0.494676 7.880859,1.695312 1.245133,0.337646 2.446367,0.831392 3.72461,1.042969 0.187956,0.03111 0.384439,-0.01987 0.574218,0 1.053443,0.110651 2.101464,0.26329 3.152344,0.392578 1.097794,0.135056 2.190978,0.306876 3.294922,0.390625 0.190383,0.01435 0.383181,0 0.574219,0 0.04776,0 0.116074,0.03616 0.142578,0 0.408192,-0.557406 -0.06576,-0.21421 0.142578,-0.783203 0.225257,-0.615163 0.203408,-0.212453 0.429687,-0.521484 0.535647,-0.731456 0.799537,-1.472245 1.861329,-1.695313 0.375188,-0.07882 0.769245,-0.06993 1.148437,-0.130859 0.673406,-0.108193 1.325443,-0.328683 2.00586,-0.390625 1.441324,-0.131218 3.013062,0.216718 4.441406,0 0.275415,-0.0418 0.710595,-0.318319 0.859375,-0.521484 0.02638,-0.03616 -0.03821,-0.10477 0,-0.13086 0.170883,-0.116669 0.394553,-0.151904 0.572265,-0.259765 0.747624,-0.453744 1.55611,-0.935222 2.150391,-1.566407 0.247122,-0.26249 0.481578,-0.705621 0.574219,-1.042968 0.04634,-0.168737 -0.08543,-0.365929 0,-0.521485 0.02123,-0.0389 0.104368,0.02622 0.142578,0 0.162089,-0.110677 0.301153,-0.246567 0.427734,-0.390625 0.381952,-0.434647 0.476357,-0.997766 0.716797,-1.435547 0.149595,-0.272347 -0.429687,-0.172 -0.429687,-0.390625 0,-0.402134 0.592067,-1.117593 0.716796,-1.435546 0.229989,-0.586257 0.191552,-1.243285 0.431641,-1.826172 0.06047,-0.146789 0.224718,-0.243834 0.285156,-0.390625 0.08552,-0.20758 0.07568,-0.441126 0.142579,-0.654297 0.129781,-0.413539 0.493847,-0.732863 0.574218,-1.171875 0.154478,-0.84375 -0.239783,-2.235992 0,-3 0.227532,-0.725022 0.656537,-1.32455 1.003906,-1.957031 0.101773,-0.185301 0.0437,-1.888941 0,-2.087891 -0.03588,-0.165898 -1.666463,-2.689963 -1.863281,-2.869141 -0.03378,-0.03075 -0.108795,0.03075 -0.142578,0 -0.107382,-0.09776 0.653944,-1.94929 0.714844,-2.08789 L 66.72074,19.701133 c 0.198521,0.908101 -0.459526,0.02503 -0.738281,-0.404297 -0.02768,0.07263 -0.292086,-0.03286 -0.417969,-0.06836 -0.07175,-0.04361 -0.135361,-0.102282 -0.214844,-0.132813 -0.03585,-0.01377 -0.0738,-0.01627 -0.111328,-0.02539 -0.01512,0.0047 -0.06222,0.01932 -0.06445,0.01953 -0.432622,0.04134 -0.846704,-0.267819 -1.125,-0.523438 -0.02584,-0.02412 -0.05387,-0.04657 -0.08008,-0.07031 -0.125268,-0.08463 -0.355923,-0.232423 -0.244141,-0.203125 0.0271,0.0071 0.04784,0.02792 0.06836,0.04687 -0.04826,-0.04165 -0.09585,-0.08378 -0.144531,-0.125 -0.09852,-0.04773 -0.192301,-0.102176 -0.289063,-0.152344 -0.0349,-0.07377 -0.08144,-0.14554 -0.130859,-0.216797 -0.06267,-0.05567 -0.128904,-0.108253 -0.189454,-0.166015 l -0.171874,-0.0957 c -0.02191,0.001 -0.04445,0.0011 -0.06641,0.002 -0.120236,0.01796 -0.213437,-0.07952 -0.294922,-0.199219 l -7.113281,-3.904297 c -1.769572,-0.07219 -0.905847,-0.165137 -0.660156,-0.363281 L 53.26566,12.314459 C 53.04962,12.215069 52.831399,12.116381 52.615269,12.017584 52.342787,11.889073 51.341256,11.585638 51.193394,11.17774 L 48.544922,9.7226562 C 48.226445,9.6281089 47.923703,9.5341885 47.875,9.5195312 47.316021,9.3376382 47.282054,9.3166325 46.734375,9.1777344 46.493382,9.1166144 46.225181,9.0809518 46.041016,8.90625 45.974209,8.8428883 45.930253,8.7633869 45.875,8.6914062 45.853866,8.6481687 45.844372,8.599908 45.8125,8.5625 45.733078,8.4692148 45.618035,8.4067968 45.525391,8.3242188 45.267304,8.0941735 45.005698,7.8654689 44.746094,7.6367188 L 44.199219,7.3378906 c -0.02717,0.00188 -0.05483,0.0087 -0.08203,0.00781 -0.06717,-0.00218 -0.735713,-0.4407728 -0.773438,-0.4648437 -0.03563,-0.024031 -0.07182,-0.048077 -0.107422,-0.072266 L 42.988281,6.671875 c -0.0017,-3.133e-4 -0.0177,8.327e-4 -0.01367,0 0.0066,-0.00135 0.0033,-6.829e-4 0.0098,-0.00195 L 42.617188,6.46875 C 42.551048,6.46 42.576888,6.46774 42.501953,6.457031 42.491933,6.436641 42.484513,6.414138 42.476563,6.392578 l -0.09766,-0.054687 c 0.0055,0.018932 0.0092,0.03662 -0.0039,0.033203 C 42.192234,6.3234106 42.014973,6.2645547 41.839844,6.1972656 41.427452,6.0388055 41.474629,6.0062662 41.164062,5.671875 Z m -6.623047,3.0566406 c 0.01235,-0.017139 0.02645,-0.03382 0.03906,-0.050781 -0.04361,0.028039 -0.09094,0.053119 -0.128906,0.085937 -0.0238,0.020566 0.05646,-0.012741 0.08984,-0.035156 z m 0.03906,-0.050781 c 0.0018,-0.00115 0.004,-0.00275 0.0059,-0.00391 0.0199,-0.029334 0.05623,-0.07406 0.04102,-0.056641 -0.01661,0.019021 -0.03191,0.040418 -0.04687,0.060547 z m 20.564453,4.6699219 c 0.02697,0.100998 0.05119,0.167426 0.0625,0.09766 0.0035,-0.02186 -0.0049,-0.04416 -0.0059,-0.06641 z m -33.443359,1.503906 -0.04102,0.02148 c -0.01608,0.03904 -0.03272,0.07621 -0.04883,0.115235 0.0053,-0.0018 0.0108,-0.0013 0.01563,-0.0039 0.03335,-0.01792 0.06012,-0.08112 0.07422,-0.132812 z" />
    <path
       id="path1508"
       style="fill:#586227;fill-opacity:1;stroke:none;stroke-width:1.57245px;stroke-linecap:butt;stroke-linejoin:miter;stroke-opacity:1;filter:url(#filter1456)"
       transform="matrix(-0.15740237,0,0,-0.1798665,95.167945,79.087586)"
       d="m 41.273438,0.61914062 c -0.616229,0.0886033 -1.244835,0.0473486 -1.871094,0.0253906 -0.06044,0.0353178 -0.04465,0.0212148 -0.08984,0.046875 -0.04024,0.0385791 -0.07913,0.0785426 -0.126953,0.109375 -0.09084,0.13192952 -0.191121,0.25893538 -0.324219,0.34374998 -0.01487,0.00948 -0.0348,0.01593 -0.05078,0.025391 -0.09942,0.1842152 -0.245515,0.3444696 -0.400391,0.4941406 -0.0525,0.050741 -0.131244,0.208812 -0.166015,0.1445313 -0.06876,0.1318638 -0.157638,0.2802886 -0.275391,0.4257812 -0.0823,0.1016942 -0.313632,0.157493 -0.513672,0.1933594 -0.01552,0.039127 -0.0267,0.079777 -0.05078,0.1152344 -0.08611,0.1268057 -0.409193,0.1452335 -0.650391,0.1386718 -0.325901,0.2417902 -0.255018,0.2007467 -0.648437,0.2832032 -0.04957,0.010388 -0.08128,0.00875 -0.119141,0.011719 -0.121633,0.072831 -0.254115,0.1298584 -0.398437,0.1738281 -0.08451,0.077066 -0.165954,0.140495 -0.232422,0.1660156 0.01979,0.08374 0.03195,0.1674145 0.0078,0.2480469 -0.147375,0.493056 -0.789711,0.8426805 -1.283203,0.7773438 0.150754,-0.3393339 0.01785,0.00317 -0.171875,0.1054687 -0.08746,0.047157 -0.180997,0.081921 -0.275391,0.1132813 -0.177366,0.1178122 -0.241637,0.1206192 -0.255859,0.1269531 0.01635,-0.024394 0.01753,-0.038141 0.03125,-0.060547 -0.04387,0.011853 -0.08714,0.025371 -0.130859,0.037109 -0.02979,0.00799 -0.06127,-0.00928 -0.0918,-0.017578 -0.03837,0.026158 -0.07336,0.055378 -0.111328,0.082031 -0.0226,0.036601 -0.02456,0.051433 -0.04492,0.070312 -0.0026,0.0024 -0.0062,0.00125 -0.0098,0.00391 -0.01261,0.019219 -0.02604,0.037725 -0.03906,0.056641 -0.127604,0.036865 -0.255168,0.074255 -0.382813,0.1113281 -0.0098,0.00962 -0.01921,0.01995 -0.0293,0.029297 0.356807,-0.00728 0.762381,-0.1219033 0.05078,0.1621094 -0.07877,0.031457 -0.165657,0.04044 -0.248047,0.060547 -0.264794,0.19227 -0.539969,0.3711968 -0.822266,0.5390626 -0.113162,0.2082216 -0.386897,0.3422963 -0.662109,0.3652343 -0.31986,0.1692613 -0.646018,0.3236603 -0.972657,0.4785157 -0.286991,0.3531432 -0.856809,1.1296296 -1.193359,0.765625 -0.126289,0.072322 -0.250599,0.1220249 -0.376953,0.1738281 -0.02701,0.013713 -0.05259,0.030117 -0.08008,0.042969 -0.07122,0.033294 -0.176108,0.1434381 -0.222656,0.080078 -0.0028,-0.00386 -0.0016,-0.013035 -0.0039,-0.017578 -0.0397,0.0081 -0.08058,0.021669 -0.11914,0.025391 -0.0026,0.062578 -0.0031,0.1264692 -0.01367,0.1855469 -0.22037,0.1199509 -0.426049,0.2743697 -0.662109,0.359375 -0.08141,0.029303 -0.172528,-0.014708 -0.257813,-0.029297 -0.04847,-0.00829 -0.0952,-0.022898 -0.144531,-0.029297 -0.322403,0.2667821 -0.911067,0.7446707 -1.326172,0.7480468 -0.102966,0.1099921 -0.226401,0.2144492 -0.34961,0.2382813 -0.0051,9.886e-4 -0.01017,-4.916e-4 -0.01562,-0.00195 -0.0062,0.00707 -0.0092,0.01653 -0.01563,0.023437 -0.02132,0.022995 -0.07159,0.041008 -0.115234,0.060547 -0.01758,0.03167 -0.03919,0.059747 -0.05859,0.089844 -0.374072,0.4538533 -0.473305,0.4963024 -0.919922,0.5039063 -1.172326,1.0665759 -2.68476,1.7244439 -4.058593,2.4843749 -0.47549,0.263015 -0.845589,0.175892 -1.033203,-0.04102 -0.04431,0.138438 -0.09585,0.249623 -0.113282,0.09375 0.0345,-0.03519 0.07034,-0.06899 0.105469,-0.103516 -0.0138,-0.01675 -0.03148,-0.03061 -0.04297,-0.04883 -0.113714,0.215287 -0.208753,0.442394 -0.361328,0.63086 -0.08051,0.09944 -1.271415,0.578556 -1.472656,0.667968 0.0752,0.009 -0.06413,0.04628 -0.238281,0.08203 -0.132084,0.350927 -0.264786,0.701568 -0.396485,1.052734 0,0.23811 0.05775,0.483858 0,0.714844 -0.06455,0.258255 -0.282335,0.458886 -0.355468,0.714844 -0.182136,0.637515 0.268422,1.963163 0,2.5 -0.43211,0.864226 -1.643304,0.926503 -2.322266,1.605468 -0.0421,0.0421 0.0421,0.137584 0,0.179688 -0.0421,0.0421 -0.13563,-0.0421 -0.177734,0 -0.205304,0.205304 -0.931297,2.254824 -1.072266,2.677734 -0.03553,0.106696 -0.01776,0.661277 0,0.714844 0.09524,0.285694 0.619603,0.42913 0.714844,0.714844 0.0378,0.112932 -0.05325,0.250952 0,0.357422 0.02646,0.05325 0.118207,0 0.177734,0 0.05953,0.05953 0.153042,0.09787 0.179688,0.177734 0.408623,1.225878 -0.684588,-0.832043 0.177734,0.892578 0.113802,0.227603 0.456474,0.478793 0.535156,0.714844 0.09411,0.282331 -0.04894,0.599007 0,0.892578 0.10424,0.625338 0.275196,1.116573 0.179688,1.785156 -0.09301,0.651126 -0.435804,2.931953 -0.179688,3.572266 0.191131,0.477876 2.308302,1.236032 2.857422,1.785156 0.170381,0.170381 -0.451678,1.179249 -0.535156,1.429688 -0.408624,1.225874 0.682634,-0.832047 -0.179688,0.892578 -0.09596,0.191962 -0.296508,0.32879 -0.355468,0.535156 -0.06542,0.228926 0.03364,0.479141 0,0.714844 -0.132624,0.928429 -0.276255,1.891571 -0.179688,2.857422 0.06652,0.665333 1.515574,4.299924 2.142578,5.177734 0.195704,0.274016 0.528067,0.434679 0.714844,0.714844 0.273146,0.409697 0.268825,0.915489 0.714844,1.25 0.703086,0.527316 1.571826,0.789389 2.320312,1.25 0.05068,0.03137 -0.01701,0.120701 0,0.177734 0.162255,0.540877 0.317969,1.086981 0.53711,1.607422 0.587629,1.395621 1.682548,3.647516 3.21289,4.285156 0.466942,0.19457 3.672737,-0.126333 3.929688,-0.177734 0.369146,-0.07381 0.707115,-0.258398 1.070312,-0.357422 0.2928,-0.07986 0.610773,-0.06499 0.892578,-0.177734 0.02532,-0.0102 -0.10523,-0.262308 0.357422,-0.179688 5.532529,0.987954 4.304069,0.678545 9.822266,2.322266 1.55184,0.462247 3.049473,1.138079 4.642578,1.427734 0.234255,0.04259 0.478317,-0.02721 0.714844,0 1.312932,0.151484 2.617996,0.358157 3.927734,0.535156 1.368208,0.184895 2.731549,0.422454 4.107422,0.53711 0.237279,0.01965 0.476749,0 0.714844,0 0.05953,0 0.144701,0.04951 0.177734,0 0.50874,-0.763106 -0.07997,-0.293298 0.179688,-1.072266 0.280743,-0.842177 0.253124,-0.291771 0.535156,-0.714844 0.667589,-1.001385 0.996975,-2.014926 2.320312,-2.320312 0.467607,-0.107906 0.957092,-0.09627 1.429688,-0.179688 0.839282,-0.148119 1.65198,-0.450355 2.5,-0.535156 1.796372,-0.179641 3.754976,0.296693 5.535156,0 0.343257,-0.05722 0.886838,-0.436704 1.072266,-0.714844 0.03288,-0.04951 -0.04762,-0.142017 0,-0.177734 0.212976,-0.159723 0.491403,-0.209756 0.71289,-0.357422 0.931782,-0.621188 1.939021,-1.278468 2.679688,-2.142578 0.307994,-0.359357 0.599383,-0.965895 0.714844,-1.427734 0.05775,-0.231005 -0.10647,-0.501883 0,-0.714844 0.02646,-0.05325 0.130112,0.0359 0.177734,0 0.202016,-0.151521 0.377395,-0.337937 0.535156,-0.535156 0.476036,-0.595045 0.592911,-1.365509 0.892578,-1.964844 0.186444,-0.372851 -0.535156,-0.235852 -0.535156,-0.535156 0,-0.550534 0.737111,-1.529541 0.892578,-1.964844 0.28664,-0.802602 0.237881,-1.70201 0.53711,-2.5 0.07536,-0.200958 0.280142,-0.334195 0.355468,-0.535156 0.106583,-0.284183 0.09631,-0.602695 0.179688,-0.894532 0.161764,-0.566146 0.614675,-1.004448 0.714844,-1.605468 0.192529,-1.155118 -0.298848,-3.061472 0,-4.107422 0.283578,-0.992576 0.817051,-1.813787 1.25,-2.679688 0.126841,-0.253682 0.05446,-2.585054 0,-2.857422 C 78.52752,28.700614 76.495299,25.245299 76.25,25 c -0.0421,-0.0421 -0.13563,0.0421 -0.177734,0 -0.133833,-0.133833 0.816677,-2.667674 0.892578,-2.857422 l -3.539063,-2.134766 c 0.247421,1.243217 -0.574456,0.03308 -0.921875,-0.554687 -0.0345,0.09943 -0.36264,-0.04515 -0.519531,-0.09375 -0.08942,-0.0597 -0.168517,-0.137889 -0.267578,-0.179687 -0.04468,-0.01885 -0.09385,-0.02267 -0.140625,-0.03516 -0.01884,0.0064 -0.0773,0.02705 -0.08008,0.02734 -0.539188,0.0566 -1.053544,-0.3688 -1.400391,-0.71875 -0.0322,-0.03302 -0.06694,-0.0632 -0.09961,-0.0957 -0.156124,-0.115862 -0.444005,-0.317454 -0.304688,-0.277344 0.03377,0.0097 0.05841,0.03841 0.08398,0.06445 -0.06015,-0.05702 -0.119012,-0.115443 -0.179688,-0.171875 -0.122786,-0.06534 -0.240731,-0.138349 -0.361328,-0.207031 -0.0435,-0.10099 -0.100515,-0.201275 -0.162109,-0.298828 -0.07811,-0.07621 -0.160864,-0.147469 -0.236328,-0.226563 l -0.214844,-0.130859 c -0.02731,0.0014 -0.05466,0.0028 -0.08203,0.0039 -0.149854,0.02459 -0.265631,-0.109571 -0.367187,-0.273437 L 59.306635,11.494128 C 57.101173,11.395298 58.178159,11.2693 58.484369,10.998034 L 56.654297,9.8945312 C 56.385041,9.7584631 56.115071,9.6235365 55.845703,9.4882812 55.506101,9.312346 54.25655,8.8963145 54.072266,8.3378906 L 50.771484,6.3476562 C 50.374559,6.2182166 49.9982,6.0884256 49.9375,6.0683594 49.240831,5.819341 49.198211,5.789765 48.515625,5.5996094 48.21527,5.5159344 47.881874,5.4696407 47.652344,5.2304688 47.569081,5.1437248 47.514175,5.0340905 47.445312,4.9355469 47.418972,4.8763519 47.404957,4.8090251 47.365234,4.7578125 47.266249,4.6301023 47.123277,4.5446939 47.007812,4.4316406 46.686152,4.1167019 46.36066,3.8053547 46.037109,3.4921875 l -0.68164,-0.4101563 c -0.03386,0.00258 -0.06766,0.012928 -0.101563,0.011719 -0.08371,-0.00298 -0.917826,-0.603765 -0.964844,-0.6367188 -0.0444,-0.032899 -0.08844,-0.066494 -0.132812,-0.099609 l -0.310547,-0.1875 c -0.0021,-4.289e-4 -0.02065,0.00114 -0.01563,0 0.0082,-0.00185 0.0037,-1.643e-4 0.01172,-0.00195 L 43.384766,1.8925781 c -0.08243,-0.011985 -0.05114,-0.00292 -0.144532,-0.017578 -0.01249,-0.027914 -0.02134,-0.058375 -0.03125,-0.087891 l -0.123046,-0.074219 c 0.0068,0.025919 0.01239,0.051553 -0.0039,0.046875 C 42.854293,1.6944885 42.63233,1.6116519 42.414062,1.5195312 41.900088,1.3025946 41.959333,1.2585725 41.572266,0.80078125 Z M 33.019531,4.8027344 c 0.01539,-0.023464 0.03311,-0.045138 0.04883,-0.068359 -0.05435,0.038386 -0.112834,0.072257 -0.160156,0.1171875 -0.02966,0.028156 0.06972,-0.018141 0.111328,-0.048828 z m 0.04883,-0.068359 c 0.0022,-0.00158 0.0036,-0.00428 0.0059,-0.00586 0.0248,-0.040159 0.06974,-0.1000199 0.05078,-0.076172 -0.0207,0.02604 -0.03799,0.054474 -0.05664,0.082031 z m 5.357422,-3.3046875 c -0.0046,0.00324 -0.009,0.00661 -0.01367,0.00977 -0.01045,0.00481 -0.04824,0.1371955 -0.164062,0.3613281 -0.01924,-0.060682 0.10239,-0.1014911 0.152344,-0.1523437 0.01752,-0.1354097 0.02401,-0.1912237 0.02539,-0.21875 z m -0.794922,0.4804687 c -0.01619,0.020153 -0.03732,0.035798 -0.05273,0.056641 -0.0061,0.00789 -0.01514,0.017319 -0.02148,0.025391 -0.0014,0.011334 -0.0044,0.021882 -0.0059,0.033203 0.02555,-0.014238 0.05353,-0.025643 0.07813,-0.041016 -9.95e-4,-0.016629 0.0015,-0.049144 0.002,-0.074219 z M 35.36133,3.2148442 c -0.0075,0.00155 -0.01776,0.00239 -0.02539,0.00391 0.007,0.025393 0.0092,0.050777 0.01562,0.076172 0.002,-0.019668 0.009,-0.045638 0.01367,-0.068359 -0.0012,-0.00394 -0.0026,-0.00706 -0.0039,-0.011719 z m 23.335938,7.9121088 c 0.03361,0.138269 0.06403,0.230343 0.07813,0.134766 0.0044,-0.02993 -0.0047,-0.06135 -0.0059,-0.0918 z m -41.681641,2.058594 -0.05078,0.0293 c -0.02004,0.05345 -0.04047,0.106725 -0.06055,0.160156 0.0066,-0.0024 0.01352,-0.0043 0.01953,-0.0078 0.04156,-0.02453 0.07423,-0.110868 0.0918,-0.181641 z" />
    <path
       id="path1510"
       style="fill:#585527;fill-opacity:1;stroke:none;stroke-width:1.72816px;stroke-linecap:butt;stroke-linejoin:miter;stroke-opacity:1;filter:url(#filter1456)"
       transform="matrix(-0.13561743,0,0,-0.17283356,94.563602,78.081781)"
       d="m 41.273438,0.61914062 c -0.616229,0.0886033 -1.244835,0.0473486 -1.871094,0.0253906 -0.06044,0.0353178 -0.04465,0.0212148 -0.08984,0.046875 -0.04024,0.0385791 -0.07913,0.0785426 -0.126953,0.109375 -0.09084,0.13192952 -0.191121,0.25893538 -0.324219,0.34374998 -0.01487,0.00948 -0.0348,0.01593 -0.05078,0.025391 -0.09942,0.1842152 -0.245515,0.3444696 -0.400391,0.4941406 -0.0525,0.050741 -0.131244,0.208812 -0.166015,0.1445313 -0.06876,0.1318638 -0.157638,0.2802886 -0.275391,0.4257812 -0.0823,0.1016942 -0.313632,0.157493 -0.513672,0.1933594 -0.01552,0.039127 -0.0267,0.079777 -0.05078,0.1152344 -0.08611,0.1268057 -0.409193,0.1452335 -0.650391,0.1386718 -0.325901,0.2417902 -0.255018,0.2007467 -0.648437,0.2832032 -0.04957,0.010388 -0.08128,0.00875 -0.119141,0.011719 -0.121633,0.072831 -0.254115,0.1298584 -0.398437,0.1738281 -0.08451,0.077066 -0.165954,0.140495 -0.232422,0.1660156 0.01979,0.08374 0.03195,0.1674145 0.0078,0.2480469 -0.147375,0.493056 -0.789711,0.8426805 -1.283203,0.7773438 0.150754,-0.3393339 0.01785,0.00317 -0.171875,0.1054687 -0.08746,0.047157 -0.180997,0.081921 -0.275391,0.1132813 -0.177366,0.1178122 -0.241637,0.1206192 -0.255859,0.1269531 0.01635,-0.024394 0.01753,-0.038141 0.03125,-0.060547 -0.04387,0.011853 -0.08714,0.025371 -0.130859,0.037109 -0.02979,0.00799 -0.06127,-0.00928 -0.0918,-0.017578 -0.03837,0.026158 -0.07336,0.055378 -0.111328,0.082031 -0.0226,0.036601 -0.02456,0.051433 -0.04492,0.070312 -0.0026,0.0024 -0.0062,0.00125 -0.0098,0.00391 -0.01261,0.019219 -0.02604,0.037725 -0.03906,0.056641 -0.127604,0.036865 -0.255168,0.074255 -0.382813,0.1113281 -0.0098,0.00962 -0.01921,0.01995 -0.0293,0.029297 0.356807,-0.00728 0.762381,-0.1219033 0.05078,0.1621094 -0.07877,0.031457 -0.165657,0.04044 -0.248047,0.060547 -0.264794,0.19227 -0.539969,0.3711968 -0.822266,0.5390626 -0.113162,0.2082216 -0.386897,0.3422963 -0.662109,0.3652343 -0.31986,0.1692613 -0.646018,0.3236603 -0.972657,0.4785157 -0.286991,0.3531432 -0.856809,1.1296296 -1.193359,0.765625 -0.126289,0.072322 -0.250599,0.1220249 -0.376953,0.1738281 -0.02701,0.013713 -0.05259,0.030117 -0.08008,0.042969 -0.07122,0.033294 -0.176108,0.1434381 -0.222656,0.080078 -0.0028,-0.00386 -0.0016,-0.013035 -0.0039,-0.017578 -0.0397,0.0081 -0.08058,0.021669 -0.11914,0.025391 -0.0026,0.062578 -0.0031,0.1264692 -0.01367,0.1855469 -0.22037,0.1199509 -0.426049,0.2743697 -0.662109,0.359375 -0.08141,0.029303 -0.172528,-0.014708 -0.257813,-0.029297 -0.04847,-0.00829 -0.0952,-0.022898 -0.144531,-0.029297 -0.322403,0.2667821 -0.911067,0.7446707 -1.326172,0.7480468 -0.102966,0.1099921 -0.226401,0.2144492 -0.34961,0.2382813 -0.0051,9.886e-4 -0.01017,-4.916e-4 -0.01562,-0.00195 -0.0062,0.00707 -0.0092,0.01653 -0.01563,0.023437 -0.02132,0.022995 -0.07159,0.041008 -0.115234,0.060547 -0.01758,0.03167 -0.03919,0.059747 -0.05859,0.089844 -0.374072,0.4538533 -0.473305,0.4963024 -0.919922,0.5039063 -1.172326,1.0665759 -2.68476,1.7244439 -4.058593,2.4843749 -0.47549,0.263015 -0.845589,0.175892 -1.033203,-0.04102 -0.04431,0.138438 -0.09585,0.249623 -0.113282,0.09375 0.0345,-0.03519 0.07034,-0.06899 0.105469,-0.103516 -0.0138,-0.01675 -0.03148,-0.03061 -0.04297,-0.04883 -0.113714,0.215287 -0.208753,0.442394 -0.361328,0.63086 -0.08051,0.09944 -1.271415,0.578556 -1.472656,0.667968 0.0752,0.009 -0.06413,0.04628 -0.238281,0.08203 -0.132084,0.350927 -0.264786,0.701568 -0.396485,1.052734 0,0.23811 0.05775,0.483858 0,0.714844 -0.06455,0.258255 -0.282335,0.458886 -0.355468,0.714844 -0.182136,0.637515 0.268422,1.963163 0,2.5 -0.43211,0.864226 -1.643304,0.926503 -2.322266,1.605468 -0.0421,0.0421 0.0421,0.137584 0,0.179688 -0.0421,0.0421 -0.13563,-0.0421 -0.177734,0 -0.205304,0.205304 -0.931297,2.254824 -1.072266,2.677734 -0.03553,0.106696 -0.01776,0.661277 0,0.714844 0.09524,0.285694 0.619603,0.42913 0.714844,0.714844 0.0378,0.112932 -0.05325,0.250952 0,0.357422 0.02646,0.05325 0.118207,0 0.177734,0 0.05953,0.05953 0.153042,0.09787 0.179688,0.177734 0.408623,1.225878 -0.684588,-0.832043 0.177734,0.892578 0.113802,0.227603 0.456474,0.478793 0.535156,0.714844 0.09411,0.282331 -0.04894,0.599007 0,0.892578 0.10424,0.625338 0.275196,1.116573 0.179688,1.785156 -0.09301,0.651126 -0.435804,2.931953 -0.179688,3.572266 0.191131,0.477876 2.308302,1.236032 2.857422,1.785156 0.170381,0.170381 -0.451678,1.179249 -0.535156,1.429688 -0.408624,1.225874 0.682634,-0.832047 -0.179688,0.892578 -0.09596,0.191962 -0.296508,0.32879 -0.355468,0.535156 -0.06542,0.228926 0.03364,0.479141 0,0.714844 -0.132624,0.928429 -0.276255,1.891571 -0.179688,2.857422 0.06652,0.665333 1.515574,4.299924 2.142578,5.177734 0.195704,0.274016 0.528067,0.434679 0.714844,0.714844 0.273146,0.409697 0.268825,0.915489 0.714844,1.25 0.703086,0.527316 1.571826,0.789389 2.320312,1.25 0.05068,0.03137 -0.01701,0.120701 0,0.177734 0.162255,0.540877 0.317969,1.086981 0.53711,1.607422 0.587629,1.395621 1.682548,3.647516 3.21289,4.285156 0.466942,0.19457 3.672737,-0.126333 3.929688,-0.177734 0.369146,-0.07381 0.707115,-0.258398 1.070312,-0.357422 0.2928,-0.07986 0.610773,-0.06499 0.892578,-0.177734 0.02532,-0.0102 -0.10523,-0.262308 0.357422,-0.179688 5.532529,0.987954 4.304069,0.678545 9.822266,2.322266 1.55184,0.462247 3.049473,1.138079 4.642578,1.427734 0.234255,0.04259 0.478317,-0.02721 0.714844,0 1.312932,0.151484 2.617996,0.358157 3.927734,0.535156 1.368208,0.184895 2.731549,0.422454 4.107422,0.53711 0.237279,0.01965 0.476749,0 0.714844,0 0.05953,0 0.144701,0.04951 0.177734,0 0.50874,-0.763106 -0.07997,-0.293298 0.179688,-1.072266 0.280743,-0.842177 0.253124,-0.291771 0.535156,-0.714844 0.667589,-1.001385 0.996975,-2.014926 2.320312,-2.320312 0.467607,-0.107906 0.957092,-0.09627 1.429688,-0.179688 0.839282,-0.148119 1.65198,-0.450355 2.5,-0.535156 1.796372,-0.179641 3.754976,0.296693 5.535156,0 0.343257,-0.05722 0.886838,-0.436704 1.072266,-0.714844 0.03288,-0.04951 -0.04762,-0.142017 0,-0.177734 0.212976,-0.159723 0.491403,-0.209756 0.71289,-0.357422 0.931782,-0.621188 1.939021,-1.278468 2.679688,-2.142578 0.307994,-0.359357 0.599383,-0.965895 0.714844,-1.427734 0.05775,-0.231005 -0.10647,-0.501883 0,-0.714844 0.02646,-0.05325 0.130112,0.0359 0.177734,0 0.202016,-0.151521 0.377395,-0.337937 0.535156,-0.535156 0.476036,-0.595045 0.592911,-1.365509 0.892578,-1.964844 0.186444,-0.372851 -0.535156,-0.235852 -0.535156,-0.535156 0,-0.550534 0.737111,-1.529541 0.892578,-1.964844 0.28664,-0.802602 0.237881,-1.70201 0.53711,-2.5 0.07536,-0.200958 0.280142,-0.334195 0.355468,-0.535156 0.106583,-0.284183 0.09631,-0.602695 0.179688,-0.894532 0.161764,-0.566146 0.614675,-1.004448 0.714844,-1.605468 0.192529,-1.155118 -0.298848,-3.061472 0,-4.107422 0.283578,-0.992576 0.817051,-1.813787 1.25,-2.679688 0.126841,-0.253682 0.05446,-2.585054 0,-2.857422 C 78.52752,28.700614 76.495299,25.245299 76.25,25 c -0.0421,-0.0421 -0.13563,0.0421 -0.177734,0 -0.133833,-0.133833 0.816677,-2.667674 0.892578,-2.857422 l -3.539063,-2.134766 c 0.247421,1.243217 -0.574456,0.03308 -0.921875,-0.554687 -0.0345,0.09943 -0.36264,-0.04515 -0.519531,-0.09375 -0.08942,-0.0597 -0.168517,-0.137889 -0.267578,-0.179687 -0.04468,-0.01885 -0.09385,-0.02267 -0.140625,-0.03516 -0.01884,0.0064 -0.0773,0.02705 -0.08008,0.02734 -0.539188,0.0566 -1.053544,-0.3688 -1.400391,-0.71875 -0.0322,-0.03302 -0.06694,-0.0632 -0.09961,-0.0957 -0.156124,-0.115862 -0.444005,-0.317454 -0.304688,-0.277344 0.03377,0.0097 0.05841,0.03841 0.08398,0.06445 -0.06015,-0.05702 -0.119012,-0.115443 -0.179688,-0.171875 -0.122786,-0.06534 -0.240731,-0.138349 -0.361328,-0.207031 -0.0435,-0.10099 -0.100515,-0.201275 -0.162109,-0.298828 -0.07811,-0.07621 -0.160864,-0.147469 -0.236328,-0.226563 l -0.214844,-0.130859 c -0.02731,0.0014 -0.05466,0.0028 -0.08203,0.0039 -0.149854,0.02459 -0.265631,-0.109571 -0.367187,-0.273437 L 59.306635,11.494128 C 57.101173,11.395298 58.178159,11.2693 58.484369,10.998034 L 56.654297,9.8945312 C 56.385041,9.7584631 56.115071,9.6235365 55.845703,9.4882812 55.506101,9.312346 54.25655,8.8963145 54.072266,8.3378906 L 50.771484,6.3476562 C 50.374559,6.2182166 49.9982,6.0884256 49.9375,6.0683594 49.240831,5.819341 49.198211,5.789765 48.515625,5.5996094 48.21527,5.5159344 47.881874,5.4696407 47.652344,5.2304688 47.569081,5.1437248 47.514175,5.0340905 47.445312,4.9355469 47.418972,4.8763519 47.404957,4.8090251 47.365234,4.7578125 47.266249,4.6301023 47.123277,4.5446939 47.007812,4.4316406 46.686152,4.1167019 46.36066,3.8053547 46.037109,3.4921875 l -0.68164,-0.4101563 c -0.03386,0.00258 -0.06766,0.012928 -0.101563,0.011719 -0.08371,-0.00298 -0.917826,-0.603765 -0.964844,-0.6367188 -0.0444,-0.032899 -0.08844,-0.066494 -0.132812,-0.099609 l -0.310547,-0.1875 c -0.0021,-4.289e-4 -0.02065,0.00114 -0.01563,0 0.0082,-0.00185 0.0037,-1.643e-4 0.01172,-0.00195 L 43.384766,1.8925781 c -0.08243,-0.011985 -0.05114,-0.00292 -0.144532,-0.017578 -0.01249,-0.027914 -0.02134,-0.058375 -0.03125,-0.087891 l -0.123046,-0.074219 c 0.0068,0.025919 0.01239,0.051553 -0.0039,0.046875 C 42.854293,1.6944885 42.63233,1.6116519 42.414062,1.5195312 41.900088,1.3025946 41.959333,1.2585725 41.572266,0.80078125 Z M 33.019531,4.8027344 c 0.01539,-0.023464 0.03311,-0.045138 0.04883,-0.068359 -0.05435,0.038386 -0.112834,0.072257 -0.160156,0.1171875 -0.02966,0.028156 0.06972,-0.018141 0.111328,-0.048828 z m 0.04883,-0.068359 c 0.0022,-0.00158 0.0036,-0.00428 0.0059,-0.00586 0.0248,-0.040159 0.06974,-0.1000199 0.05078,-0.076172 -0.0207,0.02604 -0.03799,0.054474 -0.05664,0.082031 z m 5.357422,-3.3046875 c -0.0046,0.00324 -0.009,0.00661 -0.01367,0.00977 -0.01045,0.00481 -0.04824,0.1371955 -0.164062,0.3613281 -0.01924,-0.060682 0.10239,-0.1014911 0.152344,-0.1523437 0.01752,-0.1354097 0.02401,-0.1912237 0.02539,-0.21875 z m -0.794922,0.4804687 c -0.01619,0.020153 -0.03732,0.035798 -0.05273,0.056641 -0.0061,0.00789 -0.01514,0.017319 -0.02148,0.025391 -0.0014,0.011334 -0.0044,0.021882 -0.0059,0.033203 0.02555,-0.014238 0.05353,-0.025643 0.07813,-0.041016 -9.95e-4,-0.016629 0.0015,-0.049144 0.002,-0.074219 z M 35.36133,3.2148442 c -0.0075,0.00155 -0.01776,0.00239 -0.02539,0.00391 0.007,0.025393 0.0092,0.050777 0.01562,0.076172 0.002,-0.019668 0.009,-0.045638 0.01367,-0.068359 -0.0012,-0.00394 -0.0026,-0.00706 -0.0039,-0.011719 z m 23.335938,7.9121088 c 0.03361,0.138269 0.06403,0.230343 0.07813,0.134766 0.0044,-0.02993 -0.0047,-0.06135 -0.0059,-0.0918 z m -41.681641,2.058594 -0.05078,0.0293 c -0.02004,0.05345 -0.04047,0.106725 -0.06055,0.160156 0.0066,-0.0024 0.01352,-0.0043 0.01953,-0.0078 0.04156,-0.02453 0.07423,-0.110868 0.0918,-0.181641 z" />
    <path
       id="path1622"
       style="fill:#585527;fill-opacity:1;stroke:none;stroke-width:2.1832px;stroke-linecap:butt;stroke-linejoin:miter;stroke-opacity:1;filter:url(#filter1456)"
       transform="matrix(0.12114586,0,0,0.12123101,78.268924,63.334708)"
       d="m 40.923828,5.5390625 c -0.200736,0.026276 -0.404073,0.029142 -0.607422,0.03125 -0.639833,0.3398985 -1.184601,0.622444 -1.949218,1.0117187 -0.03303,0.046077 -0.05432,0.090168 -0.0957,0.1367188 -0.06603,0.074282 -0.251605,0.1144266 -0.412109,0.140625 -0.01245,0.02858 -0.0217,0.058085 -0.04102,0.083984 -0.0506,0.067842 -0.20344,0.086835 -0.357421,0.09375 -0.209149,0.1032651 -0.546656,0.2800845 -0.6875,0.3457031 -0.194776,0.090744 -0.397272,0.1744877 -0.59375,0.2636719 -0.0016,0.014184 0.0065,0.028879 0.002,0.042969 -0.118248,0.3601501 -0.633339,0.6160842 -1.029297,0.5683594 0.120959,-0.2478646 0.01356,0.0034 -0.138672,0.078125 -0.07017,0.034446 -0.144965,0.059124 -0.220703,0.082031 -0.142311,0.086055 -0.193667,0.08717 -0.205078,0.091797 0.01312,-0.017818 0.01438,-0.026602 0.02539,-0.042969 -0.0352,0.00866 -0.07039,0.01877 -0.105469,0.027344 -0.0239,0.00584 -0.04972,-0.00761 -0.07422,-0.013672 -0.03079,0.019107 -0.05743,0.041078 -0.08789,0.060547 -0.01813,0.026735 -0.02077,0.036991 -0.03711,0.050781 -0.0021,0.00175 -0.0049,0.00196 -0.0078,0.00391 -0.01012,0.014038 -0.0208,0.027199 -0.03125,0.041016 -0.102384,0.026928 -0.204223,0.052998 -0.30664,0.080078 -0.0079,0.00703 -0.01534,0.014657 -0.02344,0.021484 0.286287,-0.00532 0.611931,-0.088315 0.04102,0.1191407 -0.0632,0.022978 -0.133113,0.030235 -0.199219,0.044922 -0.21246,0.1404414 -0.433653,0.2699614 -0.660156,0.3925781 -0.0908,0.1520943 -0.310431,0.2508232 -0.53125,0.2675781 -0.256643,0.123636 -0.519168,0.2364961 -0.78125,0.3496094 -0.23027,0.2579513 -0.686998,0.8244783 -0.957032,0.5585933 -0.101318,0.05283 -0.201353,0.08911 -0.302734,0.126953 -0.02167,0.01002 -0.0424,0.02186 -0.06445,0.03125 -0.05714,0.02432 -0.140386,0.104919 -0.177734,0.05859 -0.0022,-0.0028 -0.0021,-0.01035 -0.0039,-0.01367 -0.03185,0.0059 -0.06476,0.01681 -0.0957,0.01953 -0.0021,0.04571 -0.0013,0.09161 -0.0098,0.134766 -0.176816,0.08762 -0.341845,0.20158 -0.53125,0.263672 -0.06532,0.0214 -0.138602,-0.01083 -0.207032,-0.02149 -0.03889,-0.0061 -0.07565,-0.01681 -0.115234,-0.02148 -0.258683,0.19487 -0.73139,0.544409 -1.064453,0.546875 -0.08262,0.08034 -0.182392,0.15642 -0.28125,0.173828 -0.0041,7.22e-4 -0.0073,-3.71e-4 -0.01172,-0.002 -0.005,0.0052 -0.0085,0.01253 -0.01367,0.01758 -0.01711,0.0168 -0.05678,0.0287 -0.0918,0.04297 -0.01411,0.02313 -0.03131,0.04442 -0.04687,0.06641 -0.30014,0.331515 -0.379934,0.361634 -0.738281,0.367188 -0.940626,0.779074 -2.153552,1.261318 -3.255859,1.816406 -0.381514,0.192118 -0.679545,0.127192 -0.830078,-0.03125 -0.03555,0.101121 -0.07586,0.182205 -0.08984,0.06836 0.02768,-0.0257 0.0558,-0.049 0.08398,-0.07422 -0.01107,-0.01224 -0.02594,-0.0238 -0.03516,-0.03711 -0.09124,0.157255 -0.166654,0.323274 -0.289062,0.460938 -0.0646,0.07264 -1.020174,0.42297 -1.181641,0.488281 0.06034,0.0066 -0.05167,0.03443 -0.191406,0.06055 -0.105979,0.256333 -0.21269,0.511071 -0.31836,0.767578 0,0.173926 0.04634,0.354715 0,0.523438 -0.05179,0.188629 -0.226477,0.334521 -0.285156,0.521484 -0.146138,0.465669 0.215371,1.434042 0,1.826172 -0.346707,0.631269 -1.31851,0.677882 -1.863281,1.173828 -0.03378,0.03075 0.03378,0.100105 0,0.130859 -0.03378,0.03075 -0.108796,-0.03075 -0.142578,0 -0.164728,0.149963 -0.746268,1.646166 -0.859375,1.955078 -0.02851,0.07794 -0.01425,0.48431 0,0.523438 0.07642,0.208684 0.495848,0.312786 0.572265,0.521484 0.03033,0.08249 -0.04273,0.183949 0,0.261719 0.02123,0.0389 0.09482,0 0.142578,0 0.04776,0.04348 0.123152,0.07057 0.144532,0.128906 0.327862,0.895436 -0.549314,-0.607396 0.142578,0.652344 0.09131,0.166251 0.366556,0.349062 0.429687,0.521484 0.07551,0.206228 -0.03927,0.437907 0,0.652344 0.08364,0.456775 0.221163,0.816325 0.144531,1.304688 -0.07463,0.475611 -0.350028,2.141661 -0.144531,2.609375 0.153356,0.349062 1.852378,0.901629 2.292969,1.302734 0.136707,0.124454 -0.362708,0.86199 -0.429688,1.044922 -0.327852,0.895433 0.547361,-0.607399 -0.144531,0.652344 -0.07699,0.140217 -0.237849,0.239886 -0.285156,0.390625 -0.05249,0.167217 0.02699,0.349316 0,0.521484 -0.106412,0.678166 -0.222013,1.38239 -0.144531,2.087891 0.05337,0.485989 1.215667,3.140058 1.71875,3.78125 0.157025,0.200153 0.424367,0.318792 0.574218,0.523437 0.219162,0.299261 0.216352,0.667768 0.574219,0.91211 0.564128,0.385164 1.260774,0.577611 1.861328,0.914062 0.04066,0.02291 -0.01365,0.08725 0,0.128906 0.130187,0.395081 0.255811,0.793675 0.431641,1.173828 0.471489,1.019424 1.350241,2.665099 2.578125,3.13086 0.374655,0.142122 2.946177,-0.09331 3.152344,-0.13086 0.296187,-0.05391 0.56796,-0.187434 0.859375,-0.259765 0.23493,-0.05833 0.488735,-0.04851 0.714844,-0.13086 0.02032,-0.0074 -0.0841,-0.191208 0.287109,-0.130859 4.439075,0.721646 3.453284,0.494676 7.880859,1.695312 1.245133,0.337646 2.446367,0.831392 3.72461,1.042969 0.187956,0.03111 0.384439,-0.01987 0.574218,0 1.053443,0.110651 2.101464,0.26329 3.152344,0.392578 1.097794,0.135056 2.190978,0.306876 3.294922,0.390625 0.190383,0.01435 0.383181,0 0.574219,0 0.04776,0 0.116074,0.03616 0.142578,0 0.408192,-0.557406 -0.06576,-0.21421 0.142578,-0.783203 0.225257,-0.615163 0.203408,-0.212453 0.429687,-0.521484 0.535647,-0.731456 0.799537,-1.472245 1.861329,-1.695313 0.375188,-0.07882 0.769245,-0.06993 1.148437,-0.130859 0.673406,-0.108193 1.325443,-0.328683 2.00586,-0.390625 1.441324,-0.131218 3.013062,0.216718 4.441406,0 0.275415,-0.0418 0.710595,-0.318319 0.859375,-0.521484 0.02638,-0.03616 -0.03821,-0.10477 0,-0.13086 0.170883,-0.116669 0.394553,-0.151904 0.572265,-0.259765 0.747624,-0.453744 1.55611,-0.935222 2.150391,-1.566407 0.247122,-0.26249 0.481578,-0.705621 0.574219,-1.042968 0.04634,-0.168737 -0.08543,-0.365929 0,-0.521485 0.02123,-0.0389 0.104368,0.02622 0.142578,0 0.162089,-0.110677 0.301153,-0.246567 0.427734,-0.390625 0.381952,-0.434647 0.476357,-0.997766 0.716797,-1.435547 0.149595,-0.272347 -0.429687,-0.172 -0.429687,-0.390625 0,-0.402134 0.592067,-1.117593 0.716796,-1.435546 0.229989,-0.586257 0.191552,-1.243285 0.431641,-1.826172 0.06047,-0.146789 0.224718,-0.243834 0.285156,-0.390625 0.08552,-0.20758 0.07568,-0.441126 0.142579,-0.654297 0.129781,-0.413539 0.493847,-0.732863 0.574218,-1.171875 0.154478,-0.84375 -0.239783,-2.235992 0,-3 0.227532,-0.725022 0.656537,-1.32455 1.003906,-1.957031 0.101773,-0.185301 0.0437,-1.888941 0,-2.087891 -0.03588,-0.165898 -1.666463,-2.689963 -1.863281,-2.869141 -0.03378,-0.03075 -0.108795,0.03075 -0.142578,0 -0.107382,-0.09776 0.653944,-1.94929 0.714844,-2.08789 L 66.72074,19.701133 c 0.198521,0.908101 -0.459526,0.02503 -0.738281,-0.404297 -0.02768,0.07263 -0.292086,-0.03286 -0.417969,-0.06836 -0.07175,-0.04361 -0.135361,-0.102282 -0.214844,-0.132813 -0.03585,-0.01377 -0.0738,-0.01627 -0.111328,-0.02539 -0.01512,0.0047 -0.06222,0.01932 -0.06445,0.01953 -0.432622,0.04134 -0.846704,-0.267819 -1.125,-0.523438 -0.02584,-0.02412 -0.05387,-0.04657 -0.08008,-0.07031 -0.125268,-0.08463 -0.355923,-0.232423 -0.244141,-0.203125 0.0271,0.0071 0.04784,0.02792 0.06836,0.04687 -0.04826,-0.04165 -0.09585,-0.08378 -0.144531,-0.125 -0.09852,-0.04773 -0.192301,-0.102176 -0.289063,-0.152344 -0.0349,-0.07377 -0.08144,-0.14554 -0.130859,-0.216797 -0.06267,-0.05567 -0.128904,-0.108253 -0.189454,-0.166015 l -0.171874,-0.0957 c -0.02191,0.001 -0.04445,0.0011 -0.06641,0.002 -0.120236,0.01796 -0.213437,-0.07952 -0.294922,-0.199219 l -7.113281,-3.904297 c -1.769572,-0.07219 -0.905847,-0.165137 -0.660156,-0.363281 L 53.26566,12.314459 C 53.04962,12.215069 52.831399,12.116381 52.615269,12.017584 52.342787,11.889073 51.341256,11.585638 51.193394,11.17774 L 48.544922,9.7226562 C 48.226445,9.6281089 47.923703,9.5341885 47.875,9.5195312 47.316021,9.3376382 47.282054,9.3166325 46.734375,9.1777344 46.493382,9.1166144 46.225181,9.0809518 46.041016,8.90625 45.974209,8.8428883 45.930253,8.7633869 45.875,8.6914062 45.853866,8.6481687 45.844372,8.599908 45.8125,8.5625 45.733078,8.4692148 45.618035,8.4067968 45.525391,8.3242188 45.267304,8.0941735 45.005698,7.8654689 44.746094,7.6367188 L 44.199219,7.3378906 c -0.02717,0.00188 -0.05483,0.0087 -0.08203,0.00781 -0.06717,-0.00218 -0.735713,-0.4407728 -0.773438,-0.4648437 -0.03563,-0.024031 -0.07182,-0.048077 -0.107422,-0.072266 L 42.988281,6.671875 c -0.0017,-3.133e-4 -0.0177,8.327e-4 -0.01367,0 0.0066,-0.00135 0.0033,-6.829e-4 0.0098,-0.00195 L 42.617188,6.46875 C 42.551048,6.46 42.576888,6.46774 42.501953,6.457031 42.491933,6.436641 42.484513,6.414138 42.476563,6.392578 l -0.09766,-0.054687 c 0.0055,0.018932 0.0092,0.03662 -0.0039,0.033203 C 42.192234,6.3234106 42.014973,6.2645547 41.839844,6.1972656 41.427452,6.0388055 41.474629,6.0062662 41.164062,5.671875 Z m -6.623047,3.0566406 c 0.01235,-0.017139 0.02645,-0.03382 0.03906,-0.050781 -0.04361,0.028039 -0.09094,0.053119 -0.128906,0.085937 -0.0238,0.020566 0.05646,-0.012741 0.08984,-0.035156 z m 0.03906,-0.050781 c 0.0018,-0.00115 0.004,-0.00275 0.0059,-0.00391 0.0199,-0.029334 0.05623,-0.07406 0.04102,-0.056641 -0.01661,0.019021 -0.03191,0.040418 -0.04687,0.060547 z m 20.564453,4.6699219 c 0.02697,0.100998 0.05119,0.167426 0.0625,0.09766 0.0035,-0.02186 -0.0049,-0.04416 -0.0059,-0.06641 z m -33.443359,1.503906 -0.04102,0.02148 c -0.01608,0.03904 -0.03272,0.07621 -0.04883,0.115235 0.0053,-0.0018 0.0108,-0.0013 0.01563,-0.0039 0.03335,-0.01792 0.06012,-0.08112 0.07422,-0.132812 z" />
  </g>
</svg>
