<?xml version="1.0" encoding="UTF-8" standalone="no"?>
<svg
   xmlns:osb="http://www.openswatchbook.org/uri/2009/osb"
   xmlns:dc="http://purl.org/dc/elements/1.1/"
   xmlns:cc="http://creativecommons.org/ns#"
   xmlns:rdf="http://www.w3.org/1999/02/22-rdf-syntax-ns#"
   xmlns:svg="http://www.w3.org/2000/svg"
   xmlns="http://www.w3.org/2000/svg"
   xmlns:sodipodi="http://sodipodi.sourceforge.net/DTD/sodipodi-0.dtd"
   xmlns:inkscape="http://www.inkscape.org/namespaces/inkscape"
   width="21.166666mm"
   height="24.442207mm"
   viewBox="0 0 21.166666 24.442207"
   version="1.1"
   id="svg8"
   inkscape:version="1.0.1 (3bc2e813f5, 2020-09-07)"
   sodipodi:docname="rockyTile.svg">
  <defs
     id="defs2">
    <inkscape:path-effect
       effect="spiro"
       id="path-effect1778"
       is_visible="true"
       lpeversion="1" />
    <linearGradient
       id="linearGradient1027"
       osb:paint="solid">
      <stop
         style="stop-color:#486336;stop-opacity:1;"
         offset="0"
         id="stop1025" />
    </linearGradient>
  </defs>
  <sodipodi:namedview
     id="base"
     pagecolor="#ffffff"
     bordercolor="#666666"
     borderopacity="1.0"
     inkscape:pageopacity="0.0"
     inkscape:pageshadow="2"
     inkscape:zoom="3.959798"
     inkscape:cx="42.213841"
     inkscape:cy="56.909312"
     inkscape:document-units="mm"
     inkscape:current-layer="layer1"
     inkscape:document-rotation="0"
     showgrid="false"
     inkscape:snap-page="true"
     inkscape:window-width="1038"
     inkscape:window-height="986"
     inkscape:window-x="52"
     inkscape:window-y="1"
     inkscape:window-maximized="0"
     inkscape:snap-nodes="false" />
  <metadata
     id="metadata5">
    <rdf:RDF>
      <cc:Work
         rdf:about="">
        <dc:format>image/svg+xml</dc:format>
        <dc:type
           rdf:resource="http://purl.org/dc/dcmitype/StillImage" />
        <dc:title></dc:title>
      </cc:Work>
    </rdf:RDF>
  </metadata>
  <g
     inkscape:label="Layer 1"
     inkscape:groupmode="layer"
     id="layer1"
     transform="translate(-78.619047,-56.731359)">
    <path
       sodipodi:type="star"
       style="mix-blend-mode:normal;fill:#949494;fill-opacity:1;stroke-width:0.264583"
       id="path10"
       sodipodi:sides="6"
       sodipodi:cx="105.83333"
       sodipodi:cy="144.3869"
       sodipodi:r1="99.202728"
       sodipodi:r2="85.912086"
       sodipodi:arg1="0.51820093"
       sodipodi:arg2="1.0417997"
       inkscape:flatsided="true"
       inkscape:rounded="0"
       inkscape:randomized="0"
       d="M 192.0119,193.52381 106.36881,243.58818 20.190236,194.45128 19.654758,95.249998 105.29785,45.185619 191.47642,94.322522 Z"
       transform="matrix(0.12280702,0,0,-0.12319502,76.205305,86.74021)" />
    <g
       id="g1937"
       transform="matrix(0.7839004,0,0,1.008548,17.376517,-0.61208792)"
       style="stroke-width:1.12466">
      <path
         style="fill:#878787;fill-opacity:1;stroke:none;stroke-width:0.297566px;stroke-linecap:butt;stroke-linejoin:miter;stroke-opacity:1"
         d="m 81.034575,71.605614 c -0.240427,-2.531006 -0.188876,-2.761002 -0.188876,-2.761002 l -0.435939,-1.245164 0.05074,-1.112538 -0.02246,-1.908423 0.279398,-0.124106 1.045475,-0.115576 0.599926,-0.549878 0.829936,1.909458 1.035057,-0.187253 0.363282,1.037637 0.518475,0.936003 0.984045,0.631104 0.280479,1.052618 0.21959,2.38766 z"
         id="path1914" />
      <path
         style="fill:#7c7c7c;fill-opacity:1;stroke:none;stroke-width:0.297566px;stroke-linecap:butt;stroke-linejoin:miter;stroke-opacity:1"
         d="M 81.904946,71.533005 C 81.73031,69.777842 81.767754,69.618346 81.767754,69.618346 l -0.316648,-0.863477 0.03686,-0.771506 -0.01632,-1.323425 0.202944,-0.08606 0.759388,-0.08015 0.435761,-0.381321 0.60283,1.324142 0.751822,-0.129853 0.263873,0.719565 0.376598,0.649085 0.71477,0.437649 0.203727,0.729954 0.159502,1.655759 z"
         id="path1916" />
    </g>
    <g
       id="g1933"
       transform="matrix(0.80821177,0,0,0.65491019,14.940999,25.171081)"
       style="stroke-width:1.37451">
      <path
         style="fill:#878787;fill-opacity:1;stroke:none;stroke-width:0.363671px;stroke-linecap:butt;stroke-linejoin:miter;stroke-opacity:1"
         d="m 84.523068,71.36748 v -4.356522 l 0.976261,-0.290435 0.715926,-1.887825 1.562019,-0.798696 0.520673,0.508261 1.757271,1.597391 -1.562019,1.597392 0.715925,2.759129 1.236599,1.234349 -2.343028,0.435651 z"
         id="path1918" />
      <path
         style="fill:#7c7c7c;fill-opacity:1;stroke:none;stroke-width:0.363671px;stroke-linecap:butt;stroke-linejoin:miter;stroke-opacity:1"
         d="m 85.304076,71.366184 v -3.967547 l 0.665146,-0.264503 0.487773,-1.719269 1.064233,-0.727384 0.354744,0.46288 1.19726,1.454767 -1.064231,1.454767 0.487773,2.512779 0.842518,1.124139 -1.59635,0.396754 z"
         id="path1920" />
    </g>
    <g
       id="g1943"
       transform="matrix(-0.88114522,0,0,0.49566538,169.60715,39.320421)"
       style="stroke-width:1.51315">
      <path
         style="fill:#878787;fill-opacity:1;stroke:none;stroke-width:0.400354px;stroke-linecap:butt;stroke-linejoin:miter;stroke-opacity:1"
         d="m 81.034575,71.605614 c -0.240427,-2.531006 -0.188876,-2.761002 -0.188876,-2.761002 l -0.435939,-1.245164 0.05074,-1.112538 -0.02246,-1.908423 0.279398,-0.124106 1.045475,-0.115576 0.599926,-0.549878 0.829936,1.909458 1.035057,-0.187253 0.363282,1.037637 0.518475,0.936003 0.984045,0.631104 0.280479,1.052618 0.21959,2.38766 z"
         id="path1939" />
      <path
         style="fill:#7c7c7c;fill-opacity:1;stroke:none;stroke-width:0.400354px;stroke-linecap:butt;stroke-linejoin:miter;stroke-opacity:1"
         d="M 81.904946,71.533005 C 81.73031,69.777842 81.767754,69.618346 81.767754,69.618346 l -0.316648,-0.863477 0.03686,-0.771506 -0.01632,-1.323425 0.202944,-0.08606 0.759388,-0.08015 0.435761,-0.381321 0.60283,1.324142 0.751822,-0.129853 0.263873,0.719565 0.376598,0.649085 0.71477,0.437649 0.203727,0.729954 0.159502,1.655759 z"
         id="path1941" />
    </g>
    <g
       id="g1949"
       transform="matrix(-0.5148886,0,0,1.1068135,139.57836,-4.7683564)"
       style="stroke-width:1.32467">
      <path
         style="fill:#878787;fill-opacity:1;stroke:none;stroke-width:0.350484px;stroke-linecap:butt;stroke-linejoin:miter;stroke-opacity:1"
         d="m 84.523068,71.36748 v -4.356522 l 0.976261,-0.290435 0.715926,-1.887825 1.562019,-0.798696 0.520673,0.508261 1.757271,1.597391 -1.562019,1.597392 0.715925,2.759129 1.236599,1.234349 -2.343028,0.435651 z"
         id="path1945" />
      <path
         style="fill:#7c7c7c;fill-opacity:1;stroke:none;stroke-width:0.350484px;stroke-linecap:butt;stroke-linejoin:miter;stroke-opacity:1"
         d="m 85.304076,71.366184 v -3.967547 l 0.665146,-0.264503 0.487773,-1.719269 1.064233,-0.727384 0.354744,0.46288 1.19726,1.454767 -1.064231,1.454767 0.487773,2.512779 0.842518,1.124139 -1.59635,0.396754 z"
         id="path1947" />
    </g>
    <g
       id="g1959"
       transform="translate(-0.60135645,-1.9377041)">
      <path
         style="fill:#878787;fill-opacity:1;stroke:none;stroke-width:0.264583px;stroke-linecap:butt;stroke-linejoin:miter;stroke-opacity:1"
         d="m 88.574837,65.952158 0.133635,-2.338609 0.467721,-0.467721 0.133635,-1.202713 0.601356,-0.06682 0.601357,0.133635 0.06682,0.668174 0.467722,0.601356 0.200452,0.668174 0.801808,0.26727 -0.06682,0.734991 -0.06682,1.002261 z"
         id="path1953" />
      <path
         style="fill:#7c7c7c;fill-opacity:1;stroke:none;stroke-width:0.264583px;stroke-linecap:butt;stroke-linejoin:miter;stroke-opacity:1"
         d="m 88.775289,65.952158 0.110506,-1.878555 0.386769,-0.375711 0.110506,-0.966114 0.497275,-0.05367 0.497276,0.107346 0.05525,0.53673 0.38677,0.483057 0.165759,0.53673 0.663033,0.214692 -0.05526,0.590403 -0.05526,0.805095 z"
         id="path1955" />
    </g>
    <g
       id="g1965"
       transform="matrix(-0.49232528,0,0,0.34268608,131.18994,39.618198)"
       style="stroke-width:2.4346">
      <path
         style="fill:#878787;fill-opacity:1;stroke:none;stroke-width:0.644151px;stroke-linecap:butt;stroke-linejoin:miter;stroke-opacity:1"
         d="m 84.523068,71.36748 v -4.356522 l 0.976261,-0.290435 0.715926,-1.887825 1.562019,-0.798696 0.520673,0.508261 1.757271,1.597391 -1.562019,1.597392 0.715925,2.759129 1.236599,1.234349 -2.343028,0.435651 z"
         id="path1961" />
      <path
         style="fill:#7c7c7c;fill-opacity:1;stroke:none;stroke-width:0.644151px;stroke-linecap:butt;stroke-linejoin:miter;stroke-opacity:1"
         d="m 85.304076,71.366184 v -3.967547 l 0.665146,-0.264503 0.487773,-1.719269 1.064233,-0.727384 0.354744,0.46288 1.19726,1.454767 -1.064231,1.454767 0.487773,2.512779 0.842518,1.124139 -1.59635,0.396754 z"
         id="path1963" />
    </g>
    <g
       id="g1971"
       transform="matrix(0.95678009,0,0,0.31615646,7.4843452,54.446059)"
       style="stroke-width:1.8182">
      <path
         style="fill:#878787;fill-opacity:1;stroke:none;stroke-width:0.481066px;stroke-linecap:butt;stroke-linejoin:miter;stroke-opacity:1"
         d="m 81.034575,71.605614 c -0.240427,-2.531006 -0.188876,-2.761002 -0.188876,-2.761002 l -0.435939,-1.245164 0.05074,-1.112538 -0.02246,-1.908423 0.279398,-0.124106 1.045475,-0.115576 0.599926,-0.549878 0.829936,1.909458 1.035057,-0.187253 0.363282,1.037637 0.518475,0.936003 0.984045,0.631104 0.280479,1.052618 0.21959,2.38766 z"
         id="path1967" />
      <path
         style="fill:#7c7c7c;fill-opacity:1;stroke:none;stroke-width:0.481066px;stroke-linecap:butt;stroke-linejoin:miter;stroke-opacity:1"
         d="M 81.904946,71.533005 C 81.73031,69.777842 81.767754,69.618346 81.767754,69.618346 l -0.316648,-0.863477 0.03686,-0.771506 -0.01632,-1.323425 0.202944,-0.08606 0.759388,-0.08015 0.435761,-0.381321 0.60283,1.324142 0.751822,-0.129853 0.263873,0.719565 0.376598,0.649085 0.71477,0.437649 0.203727,0.729954 0.159502,1.655759 z"
         id="path1969" />
    </g>
    <g
       id="g1977"
       transform="matrix(-0.93231003,0,0,0.41663388,171.51923,47.043788)"
       style="stroke-width:1.60451">
      <path
         style="fill:#878787;fill-opacity:1;stroke:none;stroke-width:0.424526px;stroke-linecap:butt;stroke-linejoin:miter;stroke-opacity:1"
         d="m 84.523068,71.36748 v -4.356522 l 0.976261,-0.290435 0.715926,-1.887825 1.562019,-0.798696 0.520673,0.508261 1.757271,1.597391 -1.562019,1.597392 0.715925,2.759129 1.236599,1.234349 -2.343028,0.435651 z"
         id="path1973" />
      <path
         style="fill:#7c7c7c;fill-opacity:1;stroke:none;stroke-width:0.424526px;stroke-linecap:butt;stroke-linejoin:miter;stroke-opacity:1"
         d="m 85.304076,71.366184 v -3.967547 l 0.665146,-0.264503 0.487773,-1.719269 1.064233,-0.727384 0.354744,0.46288 1.19726,1.454767 -1.064231,1.454767 0.487773,2.512779 0.842518,1.124139 -1.59635,0.396754 z"
         id="path1975" />
    </g>
  </g>
</svg>
