<?xml version="1.0" encoding="UTF-8" standalone="no"?>
<svg
   xmlns:dc="http://purl.org/dc/elements/1.1/"
   xmlns:cc="http://creativecommons.org/ns#"
   xmlns:rdf="http://www.w3.org/1999/02/22-rdf-syntax-ns#"
   xmlns:svg="http://www.w3.org/2000/svg"
   xmlns="http://www.w3.org/2000/svg"
   xmlns:sodipodi="http://sodipodi.sourceforge.net/DTD/sodipodi-0.dtd"
   xmlns:inkscape="http://www.inkscape.org/namespaces/inkscape"
   width="80"
   height="92.379997"
   viewBox="0 0 21.166666 24.442208"
   version="1.1"
   id="svg126"
   inkscape:version="1.0.1 (3bc2e813f5, 2020-09-07)"
   sodipodi:docname="soldier.svg">
  <defs
     id="defs120" />
  <sodipodi:namedview
     id="base"
     pagecolor="#ffffff"
     bordercolor="#666666"
     borderopacity="1.0"
     inkscape:pageopacity="0.0"
     inkscape:pageshadow="2"
     inkscape:zoom="2.8"
     inkscape:cx="45.125138"
     inkscape:cy="17.096929"
     inkscape:document-units="mm"
     inkscape:current-layer="layer1"
     inkscape:document-rotation="0"
     showgrid="false"
     inkscape:window-width="735"
     inkscape:window-height="1008"
     inkscape:window-x="1208"
     inkscape:window-y="0"
     inkscape:window-maximized="0"
     units="px" />
  <metadata
     id="metadata123">
    <rdf:RDF>
      <cc:Work
         rdf:about="">
        <dc:format>image/svg+xml</dc:format>
        <dc:type
           rdf:resource="http://purl.org/dc/dcmitype/StillImage" />
        <dc:title></dc:title>
      </cc:Work>
    </rdf:RDF>
  </metadata>
  <g
     inkscape:label="Layer 1"
     inkscape:groupmode="layer"
     id="layer1">
    <g
       id="g107"
       transform="matrix(0,-0.12206183,0.12206183,0,-6.6554492,25.717618)">
      <circle
         style="fill:none;stroke:#000000;stroke-width:0.828313;stroke-miterlimit:4;stroke-dasharray:none;stroke-opacity:1"
         id="path128"
         cx="85.644005"
         cy="138.70059"
         r="41.998905" />
      <circle
         style="fill:none;stroke:#000000;stroke-width:0.762352;stroke-miterlimit:4;stroke-dasharray:none;stroke-opacity:1"
         id="path128-3"
         cx="85.497162"
         cy="138.55376"
         r="38.654354" />
      <path
         style="fill:none;stroke:#000000;stroke-width:0.505174px;stroke-linecap:butt;stroke-linejoin:miter;stroke-opacity:1"
         d="m 52.039101,164.63413 c -6.26074,4.44971 -10.57103,10.18115 -5.05175,22.37202 14.77156,19.11937 34.3856,17.962 37.78242,18.19299 30.508409,-5.50835 40.918569,-10.6371 57.118269,-19.2755 l 14.07271,-1.44337 c 1.6084,-0.55865 2.21503,-1.68973 1.44337,-3.60839"
         id="path972"
         sodipodi:nodetypes="cccccc" />
      <path
         style="fill:none;stroke:#000000;stroke-width:0.505174px;stroke-linecap:butt;stroke-linejoin:miter;stroke-opacity:1"
         d="m 84.15377,181.05231 -19.48531,-0.18043 c -3.99319,2.16504 -3.12168,4.33007 0.18043,6.49511 l 98.32866,-7.03637 -0.36084,-5.59299 z"
         id="path974"
         sodipodi:nodetypes="cccccc" />
      <path
         style="fill:none;stroke:#000000;stroke-width:0.505174px;stroke-linecap:butt;stroke-linejoin:miter;stroke-opacity:1"
         d="m 162.8759,176.35652 21.43273,-1.91363"
         id="path976" />
      <path
         style="fill:none;stroke:#000000;stroke-width:0.505174px;stroke-linecap:butt;stroke-linejoin:miter;stroke-opacity:1"
         d="m 163.13105,178.90804 21.36897,-1.97743"
         id="path978" />
      <path
         style="fill:none;stroke:#000000;stroke-width:0.505174px;stroke-linecap:butt;stroke-linejoin:miter;stroke-opacity:1"
         d="m 184.11727,173.45417 0.41463,4.7203 9.94842,-0.82077 -0.40594,-4.73602 z"
         id="path980" />
      <path
         style="fill:none;stroke:#000000;stroke-width:0.505174px;stroke-linecap:butt;stroke-linejoin:miter;stroke-opacity:1"
         d="m 87.1307,185.74321 0.0901,1.714 40.50421,-2.79651 -0.18043,-1.8042"
         id="path982" />
      <path
         style="fill:none;stroke:#000000;stroke-width:0.505174px;stroke-linecap:butt;stroke-linejoin:miter;stroke-opacity:1"
         d="m 106.11987,186.32958 0.31574,5.68321 2.97691,-0.22553 -0.36085,-5.7283"
         id="path984" />
      <path
         style="fill:none;stroke:#000000;stroke-width:0.505174px;stroke-linecap:butt;stroke-linejoin:miter;stroke-opacity:1"
         d="M 45.90483,153.08727 C 37.66705,141.58449 26.549233,132.24175 28.584553,113.03415 31.85912,84.822455 48.871129,84.085645 65.750979,83.084495 c 14.29997,0.7483 25.7426,7.21128 35.723071,16.59859"
         id="path1002"
         sodipodi:nodetypes="cccc" />
      <path
         style="fill:none;stroke:#000000;stroke-width:0.505174px;stroke-linecap:butt;stroke-linejoin:miter;stroke-opacity:1"
         d="m 47.355923,85.522507 c 8.580729,-0.04086 16.428933,-3.27833 28.576993,12.247288"
         id="path1004"
         sodipodi:nodetypes="cc" />
      <path
         style="fill:none;stroke:#000000;stroke-width:0.505174px;stroke-linecap:butt;stroke-linejoin:miter;stroke-opacity:1"
         d="m 28.767874,111.60856 c 1.3572,9.27291 3.83409,17.28818 15.27107,19.84125"
         id="path1006"
         sodipodi:nodetypes="cc" />
      <path
         style="fill:none;stroke:#000000;stroke-width:0.505174px;stroke-linecap:butt;stroke-linejoin:miter;stroke-opacity:1"
         d="m 39.956519,89.34978 -2.806665,-5.358187 7.526976,-3.572132 2.679093,5.103045"
         id="path1008" />
      <path
         style="fill:none;stroke:#000000;stroke-width:0.505174px;stroke-linecap:butt;stroke-linejoin:miter;stroke-opacity:1"
         d="m 79.249894,97.387053 -1.02061,-4.465159 6.25122,-0.893028 0.76545,4.465159"
         id="path1010" />
      <path
         style="fill:none;stroke:#000000;stroke-width:0.505174px;stroke-linecap:butt;stroke-linejoin:miter;stroke-opacity:1"
         d="m 43.656216,135.40466 -4.84788,-0.76544 -0.25515,4.7203 5.10303,0.89303"
         id="path1012" />
      <path
         style="fill:none;stroke:#000000;stroke-width:0.505174px;stroke-linecap:butt;stroke-linejoin:miter;stroke-opacity:1"
         d="m 101.47405,99.683081 23.70316,-1.40301 c 15.23836,2.056489 23.87963,12.068319 27.55641,28.066719 l 5.95597,48.59382"
         id="path1014"
         sodipodi:nodetypes="cccc" />
      <path
         style="fill:none;stroke:#000000;stroke-width:0.505174px;stroke-linecap:butt;stroke-linejoin:miter;stroke-opacity:1"
         d="m 127.09364,131.25651 c 6.18265,-1.22996 9.22672,1.40295 11.0056,5.59301 l 11.18601,38.97062"
         id="path1016"
         sodipodi:nodetypes="ccc" />
      <path
         style="fill:none;stroke:#000000;stroke-width:0.505174px;stroke-linecap:butt;stroke-linejoin:miter;stroke-opacity:1"
         d="m 148.38313,172.03132 c 3.52327,0.51164 6.91992,0.26358 10.1035,-1.26292"
         id="path1018"
         sodipodi:nodetypes="cc" />
      <path
         style="fill:none;stroke:#000000;stroke-width:0.505174px;stroke-linecap:butt;stroke-linejoin:miter;stroke-opacity:1"
         d="m 141.88804,185.92364 c 0.63187,-1.7469 -0.0926,-2.77018 -1.31577,-4.01114"
         id="path1020"
         sodipodi:nodetypes="cc" />
      <path
         style="fill:none;stroke:#000000;stroke-width:0.505174px;stroke-linecap:butt;stroke-linejoin:miter;stroke-opacity:1"
         d="m 135.63845,132.85314 c 3.74095,-8.21123 9.60723,-10.04645 15.69183,-11.22667"
         id="path1022"
         inkscape:transform-center-x="0.25515179"
         inkscape:transform-center-y="-0.25515152"
         sodipodi:nodetypes="cc" />
      <path
         style="fill:none;stroke:#000000;stroke-width:0.505174px;stroke-linecap:butt;stroke-linejoin:miter;stroke-opacity:1"
         d="m 130.88244,99.68309 c -5.17086,8.48999 -5.99741,17.94541 -4.6909,27.87482"
         id="path1024"
         sodipodi:nodetypes="cc" />
      <path
         style="fill:none;stroke:#000000;stroke-width:0.505174px;stroke-linecap:butt;stroke-linejoin:miter;stroke-opacity:1"
         d="m 70.185965,177.69454 c -0.29635,1.17513 -1.98768,2.17095 -1.76739,3.51496"
         id="path1026"
         sodipodi:nodetypes="cc" />
      <path
         style="fill:none;stroke:#000000;stroke-width:0.505174px;stroke-linecap:butt;stroke-linejoin:miter;stroke-opacity:1"
         d="m 67.002605,187.20048 c -2.08988,6.84658 0.22255,8.55118 1.34917,15.39776"
         id="path1028"
         sodipodi:nodetypes="cc" />
      <path
         style="fill:none;stroke:#000000;stroke-width:0.505174px;stroke-linecap:butt;stroke-linejoin:miter;stroke-opacity:1"
         d="m 91.731385,187.5474 c -2.73898,7.53934 -3.01006,9.89615 0,16.23777"
         id="path1030"
         sodipodi:nodetypes="cc" />
      <path
         style="fill:none;stroke:#000000;stroke-width:0.505174px;stroke-linecap:butt;stroke-linejoin:miter;stroke-opacity:1"
         d="m 91.731385,187.54739 0.14855,-0.34692"
         id="path1032" />
      <path
         style="fill:#445016;stroke:#000000;stroke-width:0.726906;stroke-miterlimit:4;stroke-dasharray:none;stroke-opacity:1"
         d="m 77.380959,179.24072 c -23.38368,-5.06111 -37.730641,-28.13979 -31.735491,-51.05012 2.912541,-11.13023 10.810331,-20.94184 21.089541,-26.20003 23.73938,-12.14355 52.390571,0.7713 58.994511,26.59246 4.09447,16.00924 -1.94887,33.08009 -15.27882,43.15862 -3.74182,2.82912 -9.94315,5.82865 -14.534821,7.03034 -5.07847,1.32911 -13.56782,1.54379 -18.53492,0.46873 z m 16.04945,-2.28585 c 9.943471,-2.13645 18.897791,-8.05387 24.361051,-16.09888 2.26094,-3.32938 4.58403,-8.44075 5.65503,-12.44247 0.87282,-3.26127 0.96573,-4.21585 0.96573,-9.92307 0,-5.67285 -0.0958,-6.67065 -0.9423,-9.81692 -3.98003,-14.79259 -15.75907,-25.77935 -30.671111,-28.60812 -3.69314,-0.70058 -10.92058,-0.70058 -14.61372,0 -14.85566,2.81807 -26.70611,13.87145 -30.6711,28.60812 -0.846531,3.14627 -0.942301,4.14407 -0.942301,9.81692 0,5.6836 0.0948,6.66727 0.948851,9.84273 2.2976,8.54308 7.33544,16.17033 14.07779,21.31366 4.88854,3.72916 11.14885,6.50672 16.70497,7.41162 1.37375,0.22373 2.90368,0.47636 3.39984,0.56138 1.73594,0.29747 9.22402,-0.12712 11.72727,-0.66497 z"
         id="path1041" />
      <path
         style="fill:#5aa02c;stroke:#000000;stroke-width:0.726906;stroke-miterlimit:4;stroke-dasharray:none;stroke-opacity:1"
         d="m 80.801048,176.34831 c -1.38923,-0.16359 -3.98208,-0.7204 -5.7619,-1.23734 -12.9428,-3.7592 -22.90384,-14.00158 -26.4488,-27.1958 -0.82531,-3.07179 -0.93238,-4.15544 -0.93118,-9.42471 10e-4,-4.9457 0.13071,-6.4242 0.76534,-8.73162 3.52522,-12.81708 11.73007,-22.15395 23.48991,-26.73079 8.35227,-3.250637 18.80281,-3.250637 27.15507,0 18.016782,7.012 28.066632,26.38299 23.287902,44.88712 -3.94267,15.26672 -17.03154,26.66956 -32.669942,28.46158 -3.52118,0.40349 -5.26594,0.39791 -8.8864,-0.0284 z"
         id="path1043" />
      <path
         style="fill:#445016;stroke:#000000;stroke-width:0.181727;stroke-miterlimit:4;stroke-dasharray:none;stroke-opacity:1"
         d="m 124.94296,122.63446 c -2.06296,-5.12978 -5.24528,-9.90907 -9.2968,-13.96221 -3.35965,-3.36097 -6.89653,-5.89774 -11.1855,-8.0226 -1.10001,-0.54497 -1.40313,-0.730191 -1.24651,-0.761691 0.41484,-0.0834 22.04565,-1.30592 22.30833,-1.2608 2.39074,0.41067 4.91643,0.98769 4.91643,1.12319 0,0.0416 -0.12761,0.290551 -0.28358,0.553221 -0.48092,0.80991 -1.72937,3.40196 -2.14178,4.4468 -1.03045,2.61066 -1.80046,5.52922 -2.2134,8.38951 -0.32113,2.2243 -0.36788,3.09844 -0.36788,6.87851 0,2.09626 -0.002,3.81137 -0.005,3.81136 -0.003,-1e-5 -0.22062,-0.53789 -0.485,-1.19529 z"
         id="path1049" />
      <path
         style="fill:#445016;stroke:#000000;stroke-width:0.1285;stroke-miterlimit:4;stroke-dasharray:none;stroke-opacity:1"
         d="m 135.12041,132.25839 c -1.1239,-0.84448 -2.4893,-1.35885 -4.06257,-1.53043 -0.78849,-0.086 -2.23416,-0.0426 -3.11388,0.0935 -0.31575,0.0488 -0.57686,0.0848 -0.58024,0.08 -0.004,-0.005 -0.0701,-0.33895 -0.14837,-0.7424 -0.15161,-0.78204 -0.50448,-2.243 -0.71169,-2.94656 -0.12793,-0.43439 -0.30416,-1.91705 -0.45345,-3.81497 -0.12623,-1.60478 -0.10633,-6.16639 0.0334,-7.65455 0.5574,-5.93675 2.09066,-10.89607 4.77642,-15.44928 l 0.252,-0.427222 0.77613,0.275532 c 2.72469,0.96729 5.32694,2.31334 7.42315,3.83973 5.10425,3.71674 8.97062,9.31148 11.49576,16.63463 0.14302,0.41477 0.26003,0.76529 0.26003,0.77894 0,0.0136 -0.0461,0.0248 -0.10253,0.0248 -0.21985,0 -2.50273,0.53198 -3.45466,0.80504 -5.47959,1.57182 -9.01568,4.43231 -11.56043,9.3517 l -0.48594,0.93937 z"
         id="path1051" />
      <path
         style="fill:#445016;stroke:#000000;stroke-width:0.181727;stroke-miterlimit:4;stroke-dasharray:none;stroke-opacity:1"
         d="m 149.16259,171.82995 c -0.37116,-0.0464 -0.69238,-0.10189 -0.71382,-0.12333 -0.0214,-0.0214 -2.30229,-7.92459 -5.06857,-17.56257 -3.74297,-13.0409 -5.11437,-17.69667 -5.36102,-18.20017 -0.42362,-0.86473 -1.37722,-2.29989 -1.79425,-2.70031 l -0.3226,-0.30975 0.54758,-1.04254 c 2.27042,-4.32268 5.35016,-7.07033 9.61428,-8.57759 1.29111,-0.45637 4.68454,-1.35232 5.12195,-1.35232 0.0624,0 0.4469,1.28792 0.86614,2.90085 0.34271,1.31852 0.48792,2.4282 3.06423,23.41549 1.48747,12.11726 2.70448,22.13009 2.70448,22.25073 0,0.19383 -0.0918,0.25263 -0.78933,0.50534 -0.98351,0.35634 -2.35693,0.68773 -3.35795,0.81025 -0.91569,0.11207 -3.56813,0.10379 -4.51112,-0.0141 z"
         id="path1053" />
      <path
         style="fill:#445016;stroke:#000000;stroke-width:0.257;stroke-miterlimit:4;stroke-dasharray:none;stroke-opacity:1"
         d="m 91.631251,202.77511 c -0.521,-1.138 -1.20389,-3.02299 -1.43884,-3.97162 -0.30182,-1.21862 -0.29824,-3.84243 0.007,-5.26427 0.32604,-1.51783 1.85985,-6.12383 2.03888,-6.12271 0.0814,5e-4 3.1515,-0.20605 6.82253,-0.45903 3.671029,-0.25298 6.692989,-0.43997 6.715469,-0.41555 0.0225,0.0245 0.11327,1.34543 0.20174,2.93557 l 0.16087,2.89116 0.65065,-0.0599 c 0.35785,-0.0329 1.16722,-0.0997 1.79859,-0.14828 l 1.14796,-0.0884 -0.0286,-0.44652 c -0.22636,-3.53447 -0.3067,-5.25632 -0.24799,-5.31502 0.0631,-0.0631 17.31226,-1.30642 18.24984,-1.3154 l 0.36731,-0.004 -0.0871,-0.88419 -0.0871,-0.88418 0.54905,-0.0729 c 0.62117,-0.0825 11.20704,-0.83781 11.74179,-0.83781 0.26463,0 0.46807,0.15323 0.85744,0.64581 0.61316,0.77571 0.83841,1.50276 0.68784,2.22026 -0.12489,0.59516 0.16812,0.42198 -6.4868,3.83385 -5.66673,2.90523 -9.60481,4.70411 -14.12002,6.44987 -7.91938,3.06194 -17.36102,5.67372 -28.828449,7.97465 -0.30842,0.0619 -0.36747,0.004 -0.67219,-0.66188 z"
         id="path1055" />
      <path
         style="fill:#445016;stroke:#000000;stroke-width:0.363453;stroke-miterlimit:4;stroke-dasharray:none;stroke-opacity:1"
         d="m 82.837265,204.80316 c -4.19805,-0.16517 -8.68136,-0.84923 -12.19691,-1.861 -1.00488,-0.2892 -1.84597,-0.55033 -1.8691,-0.58027 -0.23875,-0.30913 -2.13563,-8.50394 -2.21141,-9.55358 -0.0987,-1.36702 0.31162,-4.44295 0.67002,-5.02284 0.12716,-0.20575 2.10523,-0.40026 9.50776,-0.93491 5.14095,-0.37131 9.52987,-0.67861 9.75314,-0.68289 0.36277,-0.007 0.40594,0.0797 0.40594,0.81497 v 0.82276 l 2.16503,-0.12664 c 1.3421,-0.0785 2.16504,-0.0612 2.16504,0.0455 0,0.0947 -0.24617,0.89776 -0.54704,1.78464 -1.82204,5.3708 -1.8607,8.22108 -0.16737,12.33899 0.38573,0.93802 0.68328,1.72354 0.66123,1.74559 -0.081,0.081 -6.73087,1.32888 -6.89928,1.2947 -0.0958,-0.0195 -0.74243,-0.0577 -1.43705,-0.085 z"
         id="path1057" />
      <path
         style="fill:#445016;stroke:#000000;stroke-width:0.0908633;stroke-miterlimit:4;stroke-dasharray:none;stroke-opacity:1"
         d="m 74.586325,180.68873 c -1.51327,-0.0164 -3.44658,-0.0326 -4.29624,-0.0362 -1.38735,-0.006 -1.54485,-0.0139 -1.54485,-0.0791 0,-0.14673 0.29341,-0.61567 0.82052,-1.31139 0.29726,-0.39235 0.57174,-0.77426 0.60995,-0.84868 0.0382,-0.0744 0.074,-0.14071 0.0795,-0.14731 0.006,-0.007 0.27187,0.0867 0.5919,0.20743 2.56295,0.9665 5.86118,1.81401 8.61056,2.21256 0.31922,0.0463 -0.78288,0.0469 -4.87133,0.003 z"
         id="path1059" />
      <path
         style="fill:#445016;stroke:#000000;stroke-width:0.181727;stroke-miterlimit:4;stroke-dasharray:none;stroke-opacity:1"
         d="m 66.335883,201.52919 c -4.04382,-1.61568 -8.34902,-4.19636 -11.77116,-7.05604 -2.97566,-2.48658 -6.9119,-6.73901 -7.54288,-8.14878 -0.87327,-1.95108 -1.69174,-4.57175 -2.02976,-6.49905 -0.2634,-1.50195 -0.28558,-3.81182 -0.0484,-5.04224 0.54965,-2.8514 1.81886,-5.08795 4.1741,-7.35543 0.72593,-0.69888 2.07206,-1.81674 2.79814,-2.32365 l 0.28424,-0.19844 0.88575,1.05974 c 1.66317,1.98986 4.01231,4.28154 6.08663,5.93772 2.75758,2.20173 6.43238,4.41159 9.53136,5.73174 0.50855,0.21664 0.92465,0.43214 0.92465,0.47887 0,0.0467 -0.22004,0.37225 -0.48898,0.72337 -0.57502,0.75075 -0.95177,1.38575 -0.95329,1.60675 -0.001,0.14512 -0.14873,0.15787 -1.82989,0.15787 h -1.8288 l -0.57279,0.33828 c -0.79067,0.46697 -1.63244,1.26158 -1.94817,1.83904 -0.22146,0.40503 -0.26452,0.58675 -0.2643,1.11533 2.7e-4,0.54356 0.0423,0.70997 0.30236,1.19536 0.33669,0.62848 1.38887,1.69503 2.21013,2.24032 l 0.50273,0.3338 0.91375,-0.0629 0.91374,-0.0629 -0.061,0.20792 c -0.21444,0.7313 -0.513,2.35517 -0.60474,3.28928 -0.18003,1.83314 0.0211,3.24123 0.92505,6.47509 0.48382,1.73096 1.06927,4.14065 1.06984,4.40351 1.8e-4,0.0868 -0.0504,0.15748 -0.11242,0.157 -0.062,-4.5e-4 -0.72168,-0.24414 -1.46591,-0.54149 z"
         id="path1061" />
      <path
         style="fill:#a05a2c;stroke:#000000;stroke-width:0.181727;stroke-miterlimit:4;stroke-dasharray:none;stroke-opacity:1"
         d="m 142.37748,184.75961 c -0.002,-0.88157 -0.20626,-1.45576 -0.76148,-2.14248 l -0.29174,-0.36084 0.34716,-0.0657 c 0.2616,-0.0495 13.04153,-0.96752 15.1319,-1.08697 0.32598,-0.0186 0.35946,0.003 0.46674,0.29567 0.15977,0.43647 0.15898,1.39493 -0.002,1.70508 -0.16569,0.32041 -0.71701,0.80728 -1.09117,0.96361 -0.2205,0.0921 -13.03945,1.48096 -13.66933,1.48096 -0.10154,0 -0.12914,-0.1667 -0.13067,-0.78933 z"
         id="path1063" />
      <path
         style="fill:#a05a2c;stroke:#000000;stroke-width:0.181727;stroke-miterlimit:4;stroke-dasharray:none;stroke-opacity:1"
         d="m 149.46814,175.32768 c -0.1654,-0.43835 -0.83175,-2.87661 -0.79593,-2.91243 0.0211,-0.0211 0.42036,0.002 0.88716,0.051 2.52145,0.26556 5.18448,-0.0106 7.42949,-0.77049 0.49365,-0.16709 0.91484,-0.28651 0.93597,-0.26537 0.0359,0.0359 0.46142,3.32185 0.43418,3.35255 -0.007,0.008 -1.85949,0.16018 -4.11699,0.33881 -2.2575,0.17862 -4.23834,0.34258 -4.40186,0.36436 -0.243,0.0323 -0.31096,0.004 -0.37202,-0.1584 z"
         id="path1065" />
      <path
         style="fill:#28220b;stroke:#000000;stroke-width:0.257;stroke-miterlimit:4;stroke-dasharray:none;stroke-opacity:1"
         d="m 98.731457,98.279751 c -2.9747,-1.07429 -8.59517,-2.022664 -11.9944,-2.023882 l -1.21423,-4.39e-4 -0.36649,-2.200683 c -0.20156,-1.210373 -0.40148,-2.240526 -0.44425,-2.289219 -0.0641,-0.07295 -5.696195,0.656449 -6.597875,0.854472 -0.26762,0.05877 -0.26676,0.06831 0.18258,2.036754 0.24831,1.087737 0.41798,2.011191 0.37705,2.052121 -0.0409,0.04092 -0.66124,0.192673 -1.37847,0.337209 l -1.30405,0.262787 -0.33502,-0.429192 c -0.98989,-1.268115 -2.86231,-3.310713 -4.4315,-4.834249 -3.28343,-3.187921 -6.096161,-5.005691 -9.476041,-6.124047 -2.4717,-0.817852 -3.54274,-0.955851 -7.37654,-0.950445 -1.83897,0.0025 -3.3316,-0.0071 -3.31697,-0.02157 0.0734,-0.07248 4.19873,-0.703855 5.70373,-0.872942 0.94725,-0.106426 3.38095,-0.307182 5.40822,-0.44613 3.39401,-0.232628 3.83933,-0.237943 5.622361,-0.06713 10.43928,1.000069 19.860615,5.050944 28.996905,12.467768 1.81019,1.469513 2.96545,2.51335 2.77423,2.506667 -0.0702,-0.0025 -0.44333,-0.118489 -0.82924,-0.257861 z"
         id="path1067" />
      <path
         style="fill:#28220b;stroke:#000000;stroke-width:0.257;stroke-miterlimit:4;stroke-dasharray:none;stroke-opacity:1"
         d="m 42.470468,148.02865 c -3.75826,-4.81538 -5.3904,-6.99791 -6.76307,-9.04369 -3.8155,-5.68646 -5.78175,-10.47788 -6.69778,-16.32133 -0.23401,-1.49278 -0.40876,-6.86329 -0.25583,-7.86218 l 0.0952,-0.62162 0.30172,1.46712 c 1.07595,5.23198 2.81675,8.78729 5.62841,11.49518 2.16438,2.08448 4.88467,3.51936 8.43764,4.45062 0.48148,0.1262 0.54515,0.18232 0.48123,0.42415 -0.0405,0.15329 -0.14025,0.8815 -0.22163,1.61826 -0.0814,0.73675 -0.15634,1.35103 -0.16657,1.36508 -0.0102,0.014 -1.07549,-0.1423 -2.36723,-0.34745 -1.29175,-0.20514 -2.36562,-0.356 -2.38638,-0.33524 -0.0712,0.0712 -0.33381,5.19049 -0.26956,5.25474 0.0353,0.0353 1.03419,0.23561 2.21973,0.44511 1.18553,0.2095 2.27297,0.4074 2.41653,0.43978 0.23895,0.0539 0.27376,0.21282 0.41185,1.88092 0.19338,2.336 0.56433,4.52109 1.17562,6.9251 0.26763,1.0525 0.47789,1.92248 0.46724,1.93328 -0.0107,0.0108 -1.13884,-1.41472 -2.50709,-3.16783 z"
         id="path1069" />
      <path
         style="fill:#504416;stroke:#000000;stroke-width:0.257;stroke-miterlimit:4;stroke-dasharray:none;stroke-opacity:1"
         d="m 42.342907,130.65431 c -1.78086,-0.55526 -3.09652,-1.12114 -4.32934,-1.86209 -4.73954,-2.84854 -7.20864,-7.22949 -8.60851,-15.27415 l -0.33318,-1.91473 0.3214,-1.90115 c 0.99693,-5.89689 2.71165,-10.621368 5.2277,-14.403588 2.7808,-4.18021 6.47519,-7.05581 11.485417,-8.93992 1.1642,-0.4378 1.4431,-0.49019 3.18939,-0.59913 1.0525,-0.0657 3.37758,-0.12753 5.16683,-0.13748 3.66624,-0.0204 4.66446,0.10507 6.98539,0.87797 2.44276,0.81347 4.63946,2.03735 6.91843,3.85456 1.48446,1.18368 4.42091,4.11264 5.85196,5.83703 l 1.05873,1.27576 -0.42444,0.11419 c -1.22103,0.32849 -4.66731,1.51383 -5.78263,1.98892 -4.92376,2.097348 -9.20114,4.957008 -13.05976,8.731158 -5.96661,5.83599 -10.10288,13.23634 -11.83878,21.18118 -0.19236,0.88044 -0.381097,1.59817 -0.419407,1.59496 -0.0383,-0.003 -0.67245,-0.19378 -1.4092,-0.42349 z"
         id="path1071" />
      <path
         style="fill:#504416;stroke:#000000;stroke-width:0.257;stroke-miterlimit:4;stroke-dasharray:none;stroke-opacity:1"
         d="m 38.793671,86.425738 -1.18908,-2.298182 1.061503,-0.494045 c 0.583831,-0.271724 2.094874,-0.987425 3.357877,-1.590452 1.262997,-0.603022 2.356685,-1.096477 2.43041,-1.096568 0.07373,-9.1e-5 0.257407,0.243823 0.408176,0.542028 0.15077,0.298209 0.674535,1.296571 1.163928,2.218586 l 0.889795,1.676381 -1.170394,0.418078 c -1.359567,0.48565 -3.752893,1.660004 -4.906298,2.407415 -0.440911,0.285712 -0.814069,0.518451 -0.829244,0.517208 -0.01516,-10e-4 -0.562679,-1.036452 -1.216673,-2.300449 z"
         id="path1073" />
      <path
         style="fill:#504416;stroke:#000000;stroke-width:0.257;stroke-miterlimit:4;stroke-dasharray:none;stroke-opacity:1"
         d="m 79.012915,94.935416 -0.39078,-1.722353 0.39078,-0.06781 c 1.80124,-0.312562 5.09872,-0.714353 5.17309,-0.630332 0.0768,0.08677 0.64952,3.33824 0.64202,3.644831 -0.002,0.05262 -0.36115,0.09717 -0.79969,0.09897 -0.74406,0.003 -2.50937,0.145976 -3.98675,0.322736 l -0.63788,0.07632 z"
         id="path1075" />
      <path
         style="fill:#504416;stroke:#000000;stroke-width:0.257;stroke-miterlimit:4;stroke-dasharray:none;stroke-opacity:1"
         d="m 41.068789,139.4822 c -1.15685,-0.2086 -2.12072,-0.39662 -2.14193,-0.41783 -0.0749,-0.0749 0.1382,-3.75518 0.22563,-3.89664 0.0643,-0.10413 0.55777,-0.0704 1.79902,0.12297 0.94069,0.14655 1.84041,0.2946 1.99939,0.329 0.28737,0.0622 0.28891,0.0747 0.26433,2.16461 -0.0136,1.15614 -0.0288,2.09646 -0.0339,2.08961 -0.005,-0.007 -0.9557,-0.18312 -2.11255,-0.39172 z"
         id="path1077" />
      <path
         style="fill:#28220b;stroke:#000000;stroke-width:0.1285;stroke-miterlimit:4;stroke-dasharray:none;stroke-opacity:1"
         d="m 142.49642,184.85387 c 0,-0.90522 -0.18457,-1.51473 -0.64236,-2.12135 -0.13787,-0.18268 -0.25067,-0.34643 -0.25067,-0.36389 0,-0.0622 0.45244,-0.10397 3.50834,-0.32435 7.96481,-0.57436 11.22514,-0.79757 11.65042,-0.79757 0.37597,0 0.37959,0.005 0.46604,0.61521 0.0752,0.53088 -0.008,1.10494 -0.19715,1.3608 -0.2843,0.38453 -0.77378,0.7027 -1.18226,0.76848 -1.00801,0.16234 -12.56452,1.40173 -13.07018,1.40173 h -0.28218 z"
         id="path1079" />
      <path
         style="fill:#28220b;stroke:#000000;stroke-width:0.1285;stroke-miterlimit:4;stroke-dasharray:none;stroke-opacity:1"
         d="m 149.59012,175.27322 c -0.0939,-0.17872 -0.79523,-2.70747 -0.76015,-2.74082 0.007,-0.007 0.27169,0.0172 0.58744,0.0538 0.31575,0.0366 1.2343,0.0675 2.04121,0.0688 1.98198,0.003 3.32944,-0.18193 5.08399,-0.69818 1.22807,-0.36134 1.25736,-0.36907 1.28527,-0.33881 0.0381,0.0413 0.41334,3.02147 0.38444,3.05327 -0.0133,0.0147 -0.17488,0.0368 -0.35903,0.0493 -0.81684,0.0551 -7.57605,0.59839 -7.87194,0.63273 -0.27906,0.0324 -0.33855,0.0202 -0.39123,-0.0801 z"
         id="path1081" />
      <path
         style="fill:#000000;stroke:#000000;stroke-width:0.0908633;stroke-miterlimit:4;stroke-dasharray:none;stroke-opacity:1"
         d="m 184.76455,177.62898 c -0.0767,-0.65942 -0.34289,-3.88357 -0.3223,-3.90416 0.0369,-0.0369 9.33434,-0.81186 9.36511,-0.78059 0.0376,0.0382 0.37612,4.10474 0.34435,4.13652 -0.0222,0.0222 -9.0064,0.78308 -9.26331,0.7845 -0.0827,4.6e-4 -0.10019,-0.0329 -0.12385,-0.23627 z"
         id="path1085" />
      <path
         style="fill:#000000;stroke:#000000;stroke-width:0.0908633;stroke-miterlimit:4;stroke-dasharray:none;stroke-opacity:1"
         d="m 163.34566,178.60152 c -3.6e-4,-0.01 -0.0306,-0.45311 -0.0673,-0.98546 -0.0366,-0.53234 -0.0515,-0.98048 -0.0332,-0.99586 0.043,-0.036 20.66019,-1.87135 20.68973,-1.84181 0.019,0.019 0.20439,1.90581 0.18804,1.91419 -0.003,0.002 -4.5829,0.42494 -10.17704,0.94062 -5.59413,0.51568 -10.26756,0.94846 -10.3854,0.96174 -0.11784,0.0133 -0.21454,0.0163 -0.21491,0.007 z"
         id="path1087" />
      <path
         style="fill:#000000;stroke:#000000;stroke-width:0.363453;stroke-miterlimit:4;stroke-dasharray:none;stroke-opacity:1"
         d="m 63.61876,185.89426 c -1.68396,-1.64776 -1.63552,-2.64151 0.19514,-4.00289 l 0.83821,-0.62334 11.7829,-0.0146 c 9.69711,-0.0121 12.23004,-0.067 14.30878,-0.31023 3.90015,-0.45635 71.50408,-5.82783 71.63976,-5.69215 0.11327,0.11327 0.49087,4.66526 0.39344,4.74293 -0.0722,0.0576 -96.86346,6.95281 -97.51287,6.94662 -0.46154,-0.005 -0.80154,-0.2206 -1.64536,-1.04627 z"
         id="path1089" />
      <path
         style="fill:#000000;stroke:#000000;stroke-width:0.181727;stroke-miterlimit:4;stroke-dasharray:none;stroke-opacity:1"
         d="m 106.70958,191.58413 c 0,-0.0599 -0.0646,-1.22426 -0.14351,-2.58755 -0.0789,-1.36329 -0.12645,-2.49576 -0.10561,-2.51659 0.0424,-0.0424 2.25096,-0.2327 2.28466,-0.19683 0.0292,0.0312 0.31142,4.45026 0.31058,4.86448 -0.001,0.39112 -0.0123,0.39505 -1.42147,0.4858 -0.69474,0.0448 -0.92465,0.0325 -0.92465,-0.0493 z"
         id="path1091" />
      <path
         style="fill:#000000;stroke:#000000;stroke-width:0.181727;stroke-miterlimit:4;stroke-dasharray:none;stroke-opacity:1"
         d="m 87.48045,186.62349 c -0.0306,-0.54278 -0.0303,-0.54367 0.23996,-0.58643 0.38138,-0.0603 39.50007,-2.84005 39.53112,-2.809 0.014,0.014 0.0513,0.27258 0.0829,0.57463 l 0.0574,0.54916 -0.39548,0.0524 c -0.21751,0.0288 -9.00149,0.64035 -19.51995,1.3589 -10.51847,0.71854 -19.31365,1.32837 -19.54486,1.35517 l -0.42038,0.0487 z"
         id="path1093" />
      <path
         style="fill:#677821;stroke:#000000;stroke-width:1.07682;stroke-miterlimit:4;stroke-dasharray:none;stroke-opacity:1"
         d="m 76.814906,174.8516 c -13.01271,-3.40659 -22.69792,-12.45078 -26.96592,-25.18116 -1.19455,-3.56305 -1.37567,-5.01063 -1.37567,-10.99467 0,-8.06301 0.58086,-10.49817 4.17644,-17.50892 4.37525,-8.531 12.25296,-15.14917 21.7487,-18.2714 3.63282,-1.19449 5.24155,-1.40934 10.69078,-1.42782 10.56186,-0.0358 18.429714,3.01475 25.779024,9.99517 8.38107,7.9604 12.35867,17.77955 11.78351,29.08893 -1.16624,22.93168 -23.998304,40.01697 -45.836864,34.29987 z"
         id="path1095" />
    </g>
  </g>
</svg>
