<?xml version="1.0" encoding="UTF-8" standalone="no"?>
<svg
   xmlns:osb="http://www.openswatchbook.org/uri/2009/osb"
   xmlns:dc="http://purl.org/dc/elements/1.1/"
   xmlns:cc="http://creativecommons.org/ns#"
   xmlns:rdf="http://www.w3.org/1999/02/22-rdf-syntax-ns#"
   xmlns:svg="http://www.w3.org/2000/svg"
   xmlns="http://www.w3.org/2000/svg"
   xmlns:sodipodi="http://sodipodi.sourceforge.net/DTD/sodipodi-0.dtd"
   xmlns:inkscape="http://www.inkscape.org/namespaces/inkscape"
   width="21.166666mm"
   height="24.442207mm"
   viewBox="0 0 21.166666 24.442207"
   version="1.1"
   id="svg8"
   inkscape:version="1.0.1 (3bc2e813f5, 2020-09-07)"
   sodipodi:docname="waterTile.svg">
  <defs
     id="defs2">
    <inkscape:path-effect
       effect="spiro"
       id="path-effect1778"
       is_visible="true"
       lpeversion="1" />
    <linearGradient
       id="linearGradient1027"
       osb:paint="solid">
      <stop
         style="stop-color:#486336;stop-opacity:1;"
         offset="0"
         id="stop1025" />
    </linearGradient>
  </defs>
  <sodipodi:namedview
     id="base"
     pagecolor="#ffffff"
     bordercolor="#666666"
     borderopacity="1.0"
     inkscape:pageopacity="0.0"
     inkscape:pageshadow="2"
     inkscape:zoom="3.959798"
     inkscape:cx="42.213841"
     inkscape:cy="56.909312"
     inkscape:document-units="mm"
     inkscape:current-layer="layer1"
     inkscape:document-rotation="0"
     showgrid="false"
     inkscape:snap-page="true"
     inkscape:window-width="1038"
     inkscape:window-height="986"
     inkscape:window-x="52"
     inkscape:window-y="1"
     inkscape:window-maximized="0"
     inkscape:snap-nodes="false" />
  <metadata
     id="metadata5">
    <rdf:RDF>
      <cc:Work
         rdf:about="">
        <dc:format>image/svg+xml</dc:format>
        <dc:type
           rdf:resource="http://purl.org/dc/dcmitype/StillImage" />
        <dc:title></dc:title>
      </cc:Work>
    </rdf:RDF>
  </metadata>
  <g
     inkscape:label="Layer 1"
     inkscape:groupmode="layer"
     id="layer1"
     transform="translate(-78.619047,-56.731359)">
    <path
       sodipodi:type="star"
       style="mix-blend-mode:normal;fill:#71c1e1;fill-opacity:1;stroke-width:0.264583"
       id="path10"
       sodipodi:sides="6"
       sodipodi:cx="105.83333"
       sodipodi:cy="144.3869"
       sodipodi:r1="99.202728"
       sodipodi:r2="85.912086"
       sodipodi:arg1="0.51820093"
       sodipodi:arg2="1.0417997"
       inkscape:flatsided="true"
       inkscape:rounded="0"
       inkscape:randomized="0"
       d="M 192.0119,193.52381 106.36881,243.58818 20.190236,194.45128 19.654758,95.249998 105.29785,45.185619 191.47642,94.322522 Z"
       transform="matrix(0.12280702,0,0,-0.12319502,76.205305,86.74021)" />
    <path
       style="fill:none;stroke:#bbe2f1;stroke-width:0.264583px;stroke-linecap:butt;stroke-linejoin:miter;stroke-opacity:1"
       d="m 81.73735,66.322505 c 0.220853,-0.09245 0.58937,0.106915 0.8032,0 0.143818,-0.07191 0.342332,-0.295085 0.425223,-0.377976 0.03834,-0.03834 0.659339,-0.02468 0.708705,0 0.0816,0.0408 0.09342,0.09342 0.141741,0.141741 0.09285,0.09285 0.561089,0.283482 0.708705,0.283482"
       id="path1888" />
    <path
       style="fill:none;stroke:#bbe2f1;stroke-width:0.264583px;stroke-linecap:butt;stroke-linejoin:miter;stroke-opacity:1"
       d="m 86.084077,69.866032 c 0.27601,-0.193067 0.619986,-0.47412 0.94494,-0.566964 0.166409,-0.04755 0.247988,0.07675 0.377976,0.141741 0.114088,0.05704 0.401626,0 0.519717,0 0.141231,0 0.961528,-0.03895 1.039435,0 0.06613,0.03307 0.07134,0.07134 0.09449,0.09449 0.05234,0.05234 0.237866,0.09612 0.330729,0.188988"
       id="path1890" />
    <path
       style="fill:none;stroke:#addcee;stroke-width:0.264583px;stroke-linecap:butt;stroke-linejoin:miter;stroke-opacity:1"
       d="m 91.895461,66.228011 c 0.45437,0 -0.139906,0.01235 0.661458,-0.09449 0.07805,-0.01041 0.159019,0.01544 0.236235,0 0.08316,-0.01663 0.155001,-0.07012 0.236235,-0.09449 0.231924,-0.06958 0.470266,-0.04725 0.708706,-0.04725 0.05682,0 0.17888,-0.01912 0.236235,0 0.138356,0.04612 0.217411,0.16069 0.330729,0.236235 0.01311,0.0087 0.03611,-0.01114 0.04725,0 0.04816,0.04816 -0.05203,0.09211 0.04725,0.141741 0.07696,0.03848 0.354768,-0.118255 0.425223,-0.141741 0.285164,-0.09505 0.695006,0.06676 0.944941,0.141741"
       id="path1892" />
    <path
       style="fill:none;stroke:#bbe2f1;stroke-width:0.264583px;stroke-linecap:butt;stroke-linejoin:miter;stroke-opacity:1"
       d="m 94.116071,72.275629 c 0.09449,0.01575 0.19106,0.02204 0.283482,0.04725 0.08182,0.02232 0.153071,0.07786 0.236235,0.09449 0.274738,0.05495 0.640703,-0.02107 0.897694,-0.09449 0.115326,-0.03295 0.214369,-0.112651 0.330729,-0.141741 0.12223,-0.03056 0.253698,0.02071 0.377976,0 0.185088,-0.03085 0.18516,-0.07726 0.425223,-0.04725 0.01829,0.0023 0.264201,0.07521 0.283482,0.09449 0.06073,0.06073 0.06331,0.188988 0.141741,0.188988"
       id="path1894" />
    <path
       style="fill:none;stroke:#bbe2f1;stroke-width:0.264583px;stroke-linecap:butt;stroke-linejoin:miter;stroke-opacity:1"
       d="m 83.95796,74.354499 c 0.370741,-0.290186 0.914423,-0.598217 1.417411,-0.47247 0.01528,0.0038 0,0.0315 0,0.04725 0.0315,0.01575 0.05996,0.04034 0.09449,0.04725 0.130673,0.02613 0.396313,-0.0617 0.519718,0 0.07764,0.03882 0.06579,0.131589 0.09449,0.188988 0.04906,0.09811 0.282297,0.04725 0.377976,0.04725"
       id="path1896" />
    <path
       style="fill:none;stroke:#bbe2f1;stroke-width:0.264583px;stroke-linecap:butt;stroke-linejoin:miter;stroke-opacity:1"
       d="m 90.478049,76.291626 c 0.507219,0.0679 1.011388,-0.04725 1.511905,-0.04725 0.2825,0 0.667392,0.04527 0.94494,-0.04725 0.03341,-0.01114 0.06959,-0.02235 0.09449,-0.04725 0.01114,-0.01114 -0.01409,-0.0402 0,-0.04725 0.02817,-0.01409 0.06632,0.01409 0.09449,0 0.115655,-0.05783 0.337946,-0.276267 0.472471,-0.141741"
       id="path1898" />
    <path
       style="fill:none;stroke:#bbe2f1;stroke-width:0.264583px;stroke-linecap:butt;stroke-linejoin:miter;stroke-opacity:1"
       d="m 87.406993,62.023025 c 0.942966,-0.377186 0.118368,-0.115196 0.708705,-0.188988 0.124526,-0.01557 0.150794,-0.09148 0.283483,-0.04725 0.392403,0.130801 0.550729,0.330729 0.94494,0.330729"
       id="path1900" />
    <path
       style="fill:none;stroke:#addcee;stroke-width:0.264583px;stroke-linecap:butt;stroke-linejoin:miter;stroke-opacity:1"
       d="m 89.107886,57.34557 c -0.063,0 -0.134292,-0.03125 -0.188988,0 -0.06837,0.03907 -0.09133,0.128495 -0.141741,0.188988 -0.116732,0.140079 -0.285591,0.266271 -0.425223,0.377977 -0.377251,0.3018 -0.860404,0.506792 -1.27567,0.755952 -0.182862,0.109717 -0.376314,0.154528 -0.566964,0.236235 -0.104385,0.04474 -0.178037,0.14681 -0.283482,0.188988 -0.02925,0.0117 -0.06394,-0.0076 -0.09449,0 -0.142749,0.03569 -0.296412,0.137464 -0.425224,0.188988 -0.06029,0.02412 -0.129303,0.02167 -0.188987,0.04725 -0.20281,0.08692 -0.384216,0.273549 -0.566965,0.377976 -0.07364,0.04208 -0.160378,0.05657 -0.236235,0.0945 -0.07998,0.03999 -0.15363,0.161453 -0.236235,0.188988 -0.02988,0.01 -0.06632,-0.01409 -0.09449,0 -0.12549,0.06274 -0.20524,0.126243 -0.330729,0.188988 -0.196631,0.09831 0.05051,-0.0033 -0.04725,0.09449 -0.07363,0.07363 -0.246611,0.125899 -0.330729,0.188988 -0.147859,0.110894 -0.36842,0.316394 -0.472471,0.47247 -0.01953,0.0293 -0.02235,0.06959 -0.04725,0.09449 -0.0502,0.0502 -0.972567,0.410364 -1.039434,0.425223 -0.07687,0.01708 -0.159366,-0.01708 -0.236235,0 -0.02513,0.0056 -0.750977,0.326998 -0.755953,0.33073 -0.02817,0.02113 -0.02525,0.06699 -0.04725,0.09449 -0.116617,0.145771 -0.31144,0.281358 -0.47247,0.377976 -0.0315,0.01575 -0.063,0.0315 -0.09449,0.04725 0,0.01575 0.0131,0.03851 0,0.04725 -0.04144,0.02763 -0.0972,0.02497 -0.141741,0.04725 -0.09637,0.04818 -0.18967,0.142081 -0.283482,0.188988 -0.07586,0.03793 -0.165668,0.04745 -0.236235,0.09449 -0.0293,0.01953 -0.02235,0.06959 -0.04725,0.09449 -0.07295,0.07295 -0.429472,0.247384 -0.519718,0.283482 -0.185298,0.07412 -0.236235,-0.0745 -0.236235,0.188988"
       id="path1902" />
    <path
       style="fill:none;stroke:#addcee;stroke-width:0.264583px;stroke-linecap:butt;stroke-linejoin:miter;stroke-opacity:1"
       d="m 89.448064,57.534558 c 0.063,0 0.134292,-0.03125 0.188988,0 0.06837,0.03907 0.09133,0.128495 0.141741,0.188988 0.116732,0.140079 0.285591,0.266271 0.425223,0.377977 0.377251,0.3018 0.860404,0.506792 1.27567,0.755952 0.182862,0.109717 0.376314,0.154528 0.566964,0.236235 0.104385,0.04474 0.178037,0.14681 0.283482,0.188988 0.02925,0.0117 0.06394,-0.0076 0.09449,0 0.142749,0.03569 0.296412,0.137464 0.425224,0.188988 0.06029,0.02412 0.129303,0.02167 0.188987,0.04725 0.20281,0.08692 0.384216,0.273549 0.566965,0.377976 0.07364,0.04208 0.160378,0.05657 0.236235,0.0945 0.07998,0.03999 0.15363,0.161453 0.236235,0.188988 0.02988,0.01 0.06632,-0.01409 0.09449,0 0.12549,0.06274 0.20524,0.126243 0.330729,0.188988 0.196631,0.09831 -0.05051,-0.0033 0.04725,0.09449 0.07363,0.07363 0.246611,0.125899 0.330729,0.188988 0.147859,0.110894 0.36842,0.316394 0.472471,0.47247 0.01953,0.0293 0.02235,0.06959 0.04725,0.09449 0.0502,0.0502 0.972567,0.410364 1.039434,0.425223 0.07687,0.01708 0.159366,-0.01708 0.236235,0 0.02513,0.0056 0.750977,0.326998 0.755953,0.33073 0.02817,0.02113 0.02525,0.06699 0.04725,0.09449 0.116617,0.145771 0.31144,0.281358 0.47247,0.377976 0.0315,0.01575 0.063,0.0315 0.09449,0.04725 0,0.01575 -0.0131,0.03851 0,0.04725 0.04144,0.02763 0.0972,0.02497 0.141741,0.04725 0.09637,0.04818 0.18967,0.142081 0.283482,0.188988 0.07586,0.03793 0.165668,0.04745 0.236235,0.09449 0.0293,0.01953 0.02235,0.06959 0.04725,0.09449 0.07295,0.07295 0.429472,0.247384 0.519718,0.283482 0.185298,0.07412 0.236235,-0.0745 0.236235,0.188988"
       id="path1904" />
    <path
       style="fill:none;stroke:#addcee;stroke-width:0.264583px;stroke-linecap:butt;stroke-linejoin:miter;stroke-opacity:1"
       d="m 99.407737,74.637981 c -0.063,0 -0.134292,-0.03125 -0.188988,0 -0.06837,0.03907 -0.09133,0.128495 -0.141741,0.188988 -0.116732,0.140079 -0.285591,0.266271 -0.425223,0.377977 -0.377251,0.3018 -0.860404,0.506792 -1.27567,0.755952 -0.182862,0.109717 -0.376314,0.154528 -0.566964,0.236235 -0.104385,0.04474 -0.178037,0.14681 -0.283482,0.188988 -0.02925,0.0117 -0.06394,-0.0076 -0.09449,0 -0.142749,0.03569 -0.296412,0.137464 -0.425224,0.188988 -0.06029,0.02412 -0.129303,0.02167 -0.188987,0.04725 -0.20281,0.08692 -0.384216,0.273549 -0.566965,0.377976 -0.07364,0.04208 -0.160378,0.05657 -0.236235,0.0945 -0.07998,0.03999 -0.15363,0.161453 -0.236235,0.188988 -0.02988,0.01 -0.06632,-0.01409 -0.09449,0 -0.12549,0.06274 -0.20524,0.126243 -0.330729,0.188988 -0.196631,0.09831 0.05051,-0.0033 -0.04725,0.09449 -0.07363,0.07363 -0.246611,0.125899 -0.330729,0.188988 -0.147859,0.110894 -0.36842,0.316394 -0.472471,0.47247 -0.01953,0.0293 -0.02235,0.06959 -0.04725,0.09449 -0.0502,0.0502 -0.972567,0.410364 -1.039434,0.425223 -0.07687,0.01708 -0.159366,-0.01708 -0.236235,0 -0.02513,0.0056 -0.750977,0.326998 -0.755953,0.33073 -0.02817,0.02113 -0.02525,0.06699 -0.04725,0.09449 -0.116617,0.145771 -0.31144,0.281358 -0.47247,0.377976 -0.0315,0.01575 -0.063,0.0315 -0.09449,0.04725 0,0.01575 0.0131,0.03851 0,0.04725 -0.04144,0.02763 -0.0972,0.02497 -0.141741,0.04725 -0.09637,0.04818 -0.18967,0.142081 -0.283482,0.188988 -0.07586,0.03793 -0.165668,0.04745 -0.236235,0.09449 -0.0293,0.01953 -0.02235,0.06959 -0.04725,0.09449 -0.07295,0.07295 -0.429472,0.247384 -0.519718,0.283482 -0.185298,0.07412 -0.236235,-0.0745 -0.236235,0.188988"
       id="path1906" />
    <path
       style="fill:none;stroke:#addcee;stroke-width:0.264583px;stroke-linecap:butt;stroke-linejoin:miter;stroke-opacity:1"
       d="m 78.742559,74.582628 c 0.063,0 0.134292,-0.03125 0.188988,0 0.06837,0.03907 0.09133,0.128495 0.141741,0.188988 0.116732,0.140079 0.285591,0.266271 0.425223,0.377977 0.377251,0.3018 0.860404,0.506792 1.27567,0.755952 0.182862,0.109717 0.376314,0.154528 0.566964,0.236235 0.104385,0.04474 0.178037,0.14681 0.283482,0.188988 0.02925,0.0117 0.06394,-0.0076 0.09449,0 0.142749,0.03569 0.296412,0.137464 0.425224,0.188988 0.06029,0.02412 0.129303,0.02167 0.188987,0.04725 0.20281,0.08692 0.384216,0.273549 0.566965,0.377976 0.07364,0.04208 0.160378,0.05657 0.236235,0.0945 0.07998,0.03999 0.15363,0.161453 0.236235,0.188988 0.02988,0.01 0.06632,-0.01409 0.09449,0 0.12549,0.06274 0.20524,0.126243 0.330729,0.188988 0.196631,0.09831 -0.05051,-0.0033 0.04725,0.09449 0.07363,0.07363 0.246611,0.125899 0.330729,0.188988 0.147859,0.110894 0.36842,0.316394 0.472471,0.47247 0.01953,0.0293 0.02235,0.06959 0.04725,0.09449 0.0502,0.0502 0.972567,0.410364 1.039434,0.425223 0.07687,0.01708 0.159366,-0.01708 0.236235,0 0.02513,0.0056 0.750977,0.326998 0.755953,0.33073 0.02817,0.02113 0.02525,0.06699 0.04725,0.09449 0.116617,0.145771 0.31144,0.281358 0.47247,0.377976 0.0315,0.01575 0.063,0.0315 0.09449,0.04725 0,0.01575 -0.0131,0.03851 0,0.04725 0.04144,0.02763 0.0972,0.02497 0.141741,0.04725 0.09637,0.04818 0.18967,0.142081 0.283482,0.188988 0.07586,0.03793 0.165668,0.04745 0.236235,0.09449 0.0293,0.01953 0.02235,0.06959 0.04725,0.09449 0.07295,0.07295 0.429472,0.247384 0.519718,0.283482 0.185298,0.07412 0.236235,-0.0745 0.236235,0.188988"
       id="path1908" />
    <path
       style="fill:none;stroke:#aadbed;stroke-width:0.264583px;stroke-linecap:butt;stroke-linejoin:miter;stroke-opacity:1"
       d="m 79.220403,63.947636 c -0.06545,0.465809 0.13741,1.061529 -0.06682,1.469983 -0.08534,0.170678 0.03287,0.83682 -0.06682,1.135895 -0.07341,0.220238 0,1.326869 0,1.670434 0,0.303569 -0.0047,0.58264 0.06682,0.868626 0.03568,0.142724 -0.0465,0.328237 0,0.467722 0.01,0.02988 0.05686,0.03694 0.06682,0.06682 0.02005,0.06014 -0.02005,0.140317 0,0.200453 0.105583,0.316746 0.05193,0.675429 0.133635,1.00226 0.082,0.328015 0.24621,0.931804 0.133635,1.269531 -0.195701,0.587103 -0.334087,1.151978 -0.334087,1.804069"
       id="path1910" />
    <path
       style="fill:none;stroke:#aadbed;stroke-width:0.264583px;stroke-linecap:butt;stroke-linejoin:miter;stroke-opacity:1"
       d="m 99.131983,63.947636 c -0.06545,0.465809 0.13741,1.061529 -0.06682,1.469983 -0.08534,0.170678 0.03287,0.83682 -0.06682,1.135895 -0.07341,0.220238 0,1.326869 0,1.670434 0,0.303569 -0.0047,0.58264 0.06682,0.868626 0.03568,0.142724 -0.0465,0.328237 0,0.467722 0.01,0.02988 0.05686,0.03694 0.06682,0.06682 0.02005,0.06014 -0.02005,0.140317 0,0.200453 0.105583,0.316746 0.05193,0.675429 0.133635,1.00226 0.082,0.328015 0.24621,0.931804 0.133635,1.269531 -0.195701,0.587103 -0.334087,1.151978 -0.334087,1.804069"
       id="path1912" />
  </g>
</svg>
