<?xml version="1.0" encoding="UTF-8" standalone="no"?>
<svg
   xmlns:dc="http://purl.org/dc/elements/1.1/"
   xmlns:cc="http://creativecommons.org/ns#"
   xmlns:rdf="http://www.w3.org/1999/02/22-rdf-syntax-ns#"
   xmlns:svg="http://www.w3.org/2000/svg"
   xmlns="http://www.w3.org/2000/svg"
   xmlns:sodipodi="http://sodipodi.sourceforge.net/DTD/sodipodi-0.dtd"
   xmlns:inkscape="http://www.inkscape.org/namespaces/inkscape"
   width="80"
   height="92.379997"
   viewBox="0 0 21.166666 24.442208"
   version="1.1"
   id="svg1103"
   inkscape:version="1.0.1 (3bc2e813f5, 2020-09-07)"
   sodipodi:docname="artillery6.svg">
  <defs
     id="defs1097" />
  <sodipodi:namedview
     id="base"
     pagecolor="#ffffff"
     bordercolor="#666666"
     borderopacity="1.0"
     inkscape:pageopacity="0.0"
     inkscape:pageshadow="2"
     inkscape:zoom="2"
     inkscape:cx="46.183503"
     inkscape:cy="132.05555"
     inkscape:document-units="mm"
     inkscape:current-layer="layer1"
     inkscape:document-rotation="0"
     showgrid="false"
     inkscape:window-width="900"
     inkscape:window-height="1040"
     inkscape:window-x="590"
     inkscape:window-y="0"
     inkscape:window-maximized="0"
     units="px" />
  <metadata
     id="metadata1100">
    <rdf:RDF>
      <cc:Work
         rdf:about="">
        <dc:format>image/svg+xml</dc:format>
        <dc:type
           rdf:resource="http://purl.org/dc/dcmitype/StillImage" />
        <dc:title></dc:title>
      </cc:Work>
    </rdf:RDF>
  </metadata>
  <g
     inkscape:label="Layer 1"
     inkscape:groupmode="layer"
     id="layer1">
    <path
       style="fill:none;stroke:#000000;stroke-width:0.0562486px;stroke-linecap:butt;stroke-linejoin:miter;stroke-opacity:1"
       d="m 10.948454,0.89100738 -0.912667,0.003565 -0.0398,1.85141512 1.008883,0.022058"
       id="path1105"
       sodipodi:nodetypes="cccc" />
    <path
       style="fill:none;stroke:#000000;stroke-width:0.0562486px;stroke-linecap:butt;stroke-linejoin:miter;stroke-opacity:1"
       d="m 10.494013,2.7500437 0.04018,7.3123233"
       id="path1107" />
    <path
       style="fill:none;stroke:#000000;stroke-width:0.0562486px;stroke-linecap:butt;stroke-linejoin:miter;stroke-opacity:1"
       d="m 10.106812,10.056736 h 1.065369"
       id="path1109" />
    <path
       style="fill:none;stroke:#000000;stroke-width:0.0562486px;stroke-linecap:butt;stroke-linejoin:miter;stroke-opacity:1"
       d="m 10.106812,10.056736 -0.0142,4.787058 1.06537,-0.0142"
       id="path1111" />
    <path
       style="fill:none;stroke:#000000;stroke-width:0.0562486px;stroke-linecap:butt;stroke-linejoin:miter;stroke-opacity:1"
       d="m 10.092607,14.843794 -0.3619694,0.0098 v 0.934121 l 1.4263044,-0.01004"
       id="path1113" />
    <path
       style="fill:none;stroke:#000000;stroke-width:0.0562486px;stroke-linecap:butt;stroke-linejoin:miter;stroke-opacity:1"
       d="m 10.10228,15.797719 v 0.261153"
       id="path1115" />
    <path
       style="fill:none;stroke:#000000;stroke-width:0.0562486px;stroke-linecap:butt;stroke-linejoin:miter;stroke-opacity:1"
       d="m 9.5498381,16.068918 1.5970589,-0.03013"
       id="path1117" />
    <path
       style="fill:none;stroke:#000000;stroke-width:0.0562486px;stroke-linecap:butt;stroke-linejoin:miter;stroke-opacity:1"
       d="m 9.5498381,16.068918 0.059802,4.371617 0.7437509,0.0078 v -1.104882 h 0.823639"
       id="path1119" />
    <path
       style="fill:none;stroke:#000000;stroke-width:0.0562486px;stroke-linecap:butt;stroke-linejoin:miter;stroke-opacity:1"
       d="m 10.393569,19.745167 0.763373,-0.01006"
       id="path1121" />
    <path
       style="fill:none;stroke:#000000;stroke-width:0.0562486px;stroke-linecap:butt;stroke-linejoin:miter;stroke-opacity:1"
       d="m 10.106812,13.7074 -1.1861473,0.04678 -0.021271,5.819859 0.7102467,-0.0142"
       id="path1123"
       sodipodi:nodetypes="cccc" />
    <path
       style="fill:none;stroke:#000000;stroke-width:0.0562486px;stroke-linecap:butt;stroke-linejoin:miter;stroke-opacity:1"
       d="m 8.925584,14.624062 1.177067,-0.03408"
       id="path1127"
       sodipodi:nodetypes="cc" />
    <path
       style="fill:none;stroke:#000000;stroke-width:0.0562486px;stroke-linecap:butt;stroke-linejoin:miter;stroke-opacity:1"
       d="M 8.9120196,14.049991 8.2079981,14.038018"
       id="path1129"
       sodipodi:nodetypes="cc" />
    <path
       style="fill:none;stroke:#000000;stroke-width:0.0562486px;stroke-linecap:butt;stroke-linejoin:miter;stroke-opacity:1"
       d="m 8.9248254,14.481062 -0.7038405,-0.0099"
       id="path1131"
       sodipodi:nodetypes="cc" />
    <path
       style="fill:none;stroke:#000000;stroke-width:0.0562486px;stroke-linecap:butt;stroke-linejoin:miter;stroke-opacity:1"
       d="m 8.2175565,15.568245 v -2.556887 l -1.1790083,0.0142 0.028412,2.542681 z"
       id="path1133"
       sodipodi:nodetypes="ccccc" />
    <path
       style="fill:none;stroke:#000000;stroke-width:0.0562486px;stroke-linecap:butt;stroke-linejoin:miter;stroke-opacity:1"
       d="m 7.0294434,13.17491 -0.1908435,0.0071 0.040176,2.232294 0.191732,-0.0059"
       id="path1135"
       sodipodi:nodetypes="cccc" />
    <path
       style="fill:none;stroke:#000000;stroke-width:0.0562486px;stroke-linecap:butt;stroke-linejoin:miter;stroke-opacity:1"
       d="m 8.8925407,16.889304 -0.4261474,0.0142 0.042614,0.852297 0.397738,0.0142"
       id="path1137" />
    <path
       style="fill:none;stroke:#000000;stroke-width:0.0562486px;stroke-linecap:butt;stroke-linejoin:miter;stroke-opacity:1"
       d="M 8.4770973,17.068333 2.2897475,21.975024"
       id="path1139" />
    <path
       style="fill:none;stroke:#000000;stroke-width:0.0562486px;stroke-linecap:butt;stroke-linejoin:miter;stroke-opacity:1"
       d="M 8.4983544,17.620857 2.6111682,22.316532"
       id="path1141" />
    <path
       style="fill:none;stroke:#000000;stroke-width:0.0562486px;stroke-linecap:butt;stroke-linejoin:miter;stroke-opacity:1"
       d="M 2.0637477,21.738979 2.8371671,22.532486 2.3818109,22.945771 1.6310911,22.093894 Z"
       id="path1143"
       sodipodi:nodetypes="ccccc" />
    <path
       style="fill:none;stroke:#000000;stroke-width:0.0562486px;stroke-linecap:butt;stroke-linejoin:miter;stroke-opacity:1"
       d="m 6.5184389,18.610149 0.3013324,0.361599 0.1104879,-0.0904 -0.2912874,-0.351553"
       id="path1145" />
    <path
       style="fill:none;stroke:#000000;stroke-width:0.0562486px;stroke-linecap:butt;stroke-linejoin:miter;stroke-opacity:1"
       d="m 5.8956864,19.142503 0.3013328,0.331466"
       id="path1147" />
    <path
       style="fill:none;stroke:#000000;stroke-width:0.0562486px;stroke-linecap:butt;stroke-linejoin:miter;stroke-opacity:1"
       d="M 6.3001421,19.389371 6.0160443,19.030697"
       id="path1149" />
    <path
       style="fill:none;stroke:#000000;stroke-width:0.0562486px;stroke-linecap:butt;stroke-linejoin:miter;stroke-opacity:1"
       d="m 10.644573,0.89455912 0.870208,-0.0218716 0.03358,1.89513778 -0.950363,-0.00548"
       id="path1105-0"
       sodipodi:nodetypes="cccc" />
    <path
       style="fill:none;stroke:#000000;stroke-width:0.0562486px;stroke-linecap:butt;stroke-linejoin:miter;stroke-opacity:1"
       d="m 11.146956,2.7482678 -0.04018,7.3123242"
       id="path1107-4" />
    <path
       style="fill:none;stroke:#000000;stroke-width:0.0562486px;stroke-linecap:butt;stroke-linejoin:miter;stroke-opacity:1"
       d="M 11.534154,10.054961 H 10.468787"
       id="path1109-7" />
    <path
       style="fill:none;stroke:#000000;stroke-width:0.0562486px;stroke-linecap:butt;stroke-linejoin:miter;stroke-opacity:1"
       d="m 11.534154,10.054961 0.0142,4.787057 -1.065368,-0.0142"
       id="path1111-6" />
    <path
       style="fill:none;stroke:#000000;stroke-width:0.0562486px;stroke-linecap:butt;stroke-linejoin:miter;stroke-opacity:1"
       d="m 11.54836,14.842018 0.36197,0.0098 v 0.934123 l -1.426304,-0.01004"
       id="path1113-1" />
    <path
       style="fill:none;stroke:#000000;stroke-width:0.0562486px;stroke-linecap:butt;stroke-linejoin:miter;stroke-opacity:1"
       d="m 11.538687,15.795944 v 0.261153"
       id="path1115-0" />
    <path
       style="fill:none;stroke:#000000;stroke-width:0.0562486px;stroke-linecap:butt;stroke-linejoin:miter;stroke-opacity:1"
       d="M 12.091128,16.067142 10.49407,16.037012"
       id="path1117-4" />
    <path
       style="fill:none;stroke:#000000;stroke-width:0.0562486px;stroke-linecap:butt;stroke-linejoin:miter;stroke-opacity:1"
       d="m 12.091128,16.067142 -0.0598,4.371617 -0.743751,0.0078 v -1.104917 h -0.823642"
       id="path1119-3" />
    <path
       style="fill:none;stroke:#000000;stroke-width:0.0562486px;stroke-linecap:butt;stroke-linejoin:miter;stroke-opacity:1"
       d="M 11.247397,19.743393 10.484026,19.73333"
       id="path1121-8" />
    <path
       style="fill:none;stroke:#000000;stroke-width:0.0562486px;stroke-linecap:butt;stroke-linejoin:miter;stroke-opacity:1"
       d="m 11.534154,13.705625 1.186148,0.04678 0.02127,5.819859 -0.710245,-0.0142"
       id="path1123-3"
       sodipodi:nodetypes="cccc" />
    <path
       style="fill:none;stroke:#000000;stroke-width:0.0562486px;stroke-linecap:butt;stroke-linejoin:miter;stroke-opacity:1"
       d="m 12.715382,14.622287 -1.177067,-0.03409"
       id="path1127-7"
       sodipodi:nodetypes="cc" />
    <path
       style="fill:none;stroke:#000000;stroke-width:0.0562486px;stroke-linecap:butt;stroke-linejoin:miter;stroke-opacity:1"
       d="m 12.728947,14.048216 0.70402,-0.01197"
       id="path1129-1"
       sodipodi:nodetypes="cc" />
    <path
       style="fill:none;stroke:#000000;stroke-width:0.0562486px;stroke-linecap:butt;stroke-linejoin:miter;stroke-opacity:1"
       d="m 12.716142,14.479287 0.703841,-0.0099"
       id="path1131-2"
       sodipodi:nodetypes="cc" />
    <path
       style="fill:none;stroke:#000000;stroke-width:0.0562486px;stroke-linecap:butt;stroke-linejoin:miter;stroke-opacity:1"
       d="m 13.42341,15.56647 10e-7,-2.556886 1.179009,0.0142 -0.02842,2.542681 z"
       id="path1133-3"
       sodipodi:nodetypes="ccccc" />
    <path
       style="fill:none;stroke:#000000;stroke-width:0.0562486px;stroke-linecap:butt;stroke-linejoin:miter;stroke-opacity:1"
       d="m 14.611522,13.173136 0.190846,0.0071 -0.04018,2.232293 -0.191731,-0.0058"
       id="path1135-7"
       sodipodi:nodetypes="cccc" />
    <path
       style="fill:none;stroke:#000000;stroke-width:0.0562486px;stroke-linecap:butt;stroke-linejoin:miter;stroke-opacity:1"
       d="m 12.748426,16.887529 0.426147,0.0142 -0.04261,0.852297 -0.397737,0.0142"
       id="path1137-3" />
    <path
       style="fill:none;stroke:#000000;stroke-width:0.0562486px;stroke-linecap:butt;stroke-linejoin:miter;stroke-opacity:1"
       d="m 13.163869,17.066558 6.187345,4.906691"
       id="path1139-3" />
    <path
       style="fill:none;stroke:#000000;stroke-width:0.0562486px;stroke-linecap:butt;stroke-linejoin:miter;stroke-opacity:1"
       d="m 13.142612,17.619082 5.887182,4.695677"
       id="path1141-9" />
    <path
       style="fill:none;stroke:#000000;stroke-width:0.0562486px;stroke-linecap:butt;stroke-linejoin:miter;stroke-opacity:1"
       d="m 19.577215,21.737205 -0.77342,0.793509 0.455356,0.413285 0.75072,-0.851879 z"
       id="path1143-6"
       sodipodi:nodetypes="ccccc" />
    <path
       style="fill:none;stroke:#000000;stroke-width:0.0562486px;stroke-linecap:butt;stroke-linejoin:miter;stroke-opacity:1"
       d="m 15.122527,18.608374 -0.301329,0.361599 -0.11049,-0.0904 0.291287,-0.351554"
       id="path1145-5" />
    <path
       style="fill:none;stroke:#000000;stroke-width:0.0562486px;stroke-linecap:butt;stroke-linejoin:miter;stroke-opacity:1"
       d="m 15.745279,19.140728 -0.30133,0.331466"
       id="path1147-7" />
    <path
       style="fill:none;stroke:#000000;stroke-width:0.0562486px;stroke-linecap:butt;stroke-linejoin:miter;stroke-opacity:1"
       d="m 15.340824,19.387596 0.2841,-0.358674"
       id="path1149-8" />
    <path
       style="fill:#e817c5;stroke:#000000;stroke-width:0.0286157;fill-opacity:0.90196079"
       d="m 10.568362,9.8077098 c 5.4e-5,-0.4173035 -0.02749,-5.2039492 -0.03509,-6.0974641 l -0.0078,-0.9162165 0.287766,0.00494 c 0.158273,0.00274 0.290008,0.00713 0.292749,0.00972 0.008,0.00759 -0.02653,6.9014865 -0.03531,7.0629143 l -0.0079,0.1456015 h -0.247245 -0.247218 z"
       id="path1229" />
    <path
       style="fill:#a21189;stroke:#000000;stroke-width:0.00715396;fill-opacity:0.90196079"
       d="m 10.132991,15.923293 v -0.106466 l 0.0222,-0.0019 c 0.04036,-0.0036 0.896362,-0.0064 1.126348,-0.0037 l 0.225782,0.0026 v 0.106379 0.106379 l -0.125182,-0.0022 c -0.194303,-0.0034 -0.233492,-0.0054 -0.233492,-0.01172 0,-0.0046 -0.0066,-0.005 -0.04705,-0.003 -0.07305,0.0037 -0.301773,0.0039 -0.463436,6.58e-4 -0.145064,-0.003 -0.146488,-0.0029 -0.146488,0.0041 0,0.0069 -0.0032,0.0071 -0.137611,0.0093 -0.07569,0.0013 -0.156386,0.0031 -0.179336,0.0042 l -0.04173,0.0019 z"
       id="path1233" />
    <path
       style="fill:#e718c5;stroke:#000000;stroke-width:0.0404686;fill-opacity:0.90196073"
       d="m 10.137992,12.461662 c 0.0033,-1.283863 0.01047,-2.338378 0.016,-2.343368 0.0055,-0.005 0.310622,-0.01386 0.677996,-0.01969 l 0.667953,-0.01061 v 2.295585 c 0,1.262572 0.0053,2.322265 0.01186,2.354873 l 0.01186,0.05929 -0.695803,-8.59e-4 -0.695802,-8.6e-4 0.0059,-2.334295 z"
       id="path1235" />
    <path
       style="fill:#e817c5;stroke:#000000;stroke-width:0.0202343;fill-opacity:0.90196079"
       d="m 10.306223,2.7201327 c -0.164614,-0.00393 -0.26825,-0.0033 -0.271138,-0.00617 -0.0048,-0.00484 0.01427,-1.4146042 0.02911,-1.6783131 l 0.0064,-0.11300039 0.453304,-0.001097 c 0.249317,-6.0689e-4 0.566305,-0.004113 0.704416,-0.007769 0.138109,-0.003656 0.251705,-0.006581 0.252434,-0.006489 6.57e-4,1.7e-4 0.0064,0.29406599 0.01257,0.65315369 0.0062,0.3590868 0.01414,0.7692754 0.01769,0.9115296 l 0.0064,0.2586428 -0.455933,-0.00165 c -0.250765,-0.00101 -0.590619,-0.00494 -0.755231,-0.00887 z"
       id="path1237"
       sodipodi:nodetypes="cccccsccccccc" />
    <path
       style="fill:#e817c5;stroke:#000000;stroke-width:0.0404686;fill-opacity:0.90196079"
       d="m 9.7685326,15.314075 v -0.431013 l 0.5642304,-0.0059 c 0.310327,-0.0032 0.784925,-0.0034 1.054662,-2.12e-4 l 0.490432,0.0057 v 0.431225 0.431226 H 10.823194 9.7685326 Z"
       id="path1239" />
    <path
       style="fill:#e817c5;stroke:#000000;stroke-width:0.0404686;fill-opacity:0.90196079"
       d="m 9.6479097,20.370535 c -5.11e-5,-0.01934 -0.013797,-0.983413 -0.030542,-2.142395 -0.01675,-1.158982 -0.024994,-2.112696 -0.018328,-2.119369 0.014505,-0.0145 2.4321523,-0.01656 2.4452683,-0.0021 0.005,0.0055 -0.0027,0.819121 -0.0173,1.807994 -0.01452,0.988866 -0.0269,1.953882 -0.02751,2.144474 l -0.0011,0.346532 h -0.331467 -0.331465 v -0.552443 -0.55244 h -0.512263 -0.512265 v 0.55244 0.552443 H 9.9794727 c -0.3022531,0 -0.3314721,-0.0031 -0.3315555,-0.03516 z"
       id="path1241" />
    <path
       style="fill:#445016;stroke:#000000;stroke-width:0.0404686"
       d="M 10.391285,19.541872 V 19.38116 h 0.431909 0.431908 v 0.160712 0.16071 h -0.431908 -0.431909 z"
       id="path1243" />
    <path
       style="fill:#a2118a;stroke:#000000;stroke-width:0.0404686;fill-opacity:0.90196073"
       d="m 12.344724,19.526857 -0.266371,-0.0062 0.01246,-0.717591 c 0.03447,-1.986153 0.03822,-2.731361 0.0139,-2.754057 -0.01533,-0.01429 -0.117099,-0.02264 -0.276219,-0.02264 h -0.251956 v -0.100443 -0.100445 h 0.190843 0.190842 v -0.499357 -0.499359 l -0.123477,-0.0129 c -0.06791,-0.0071 -0.153795,-0.01291 -0.190843,-0.01291 -0.06624,0 -0.06736,-0.0015 -0.06736,-0.0885 v -0.08851 l 0.246087,0.0087 c 0.135348,0.0048 0.382475,0.01382 0.549172,0.02015 l 0.303083,0.0115 0.01331,1.188298 c 0.0073,0.653565 0.01331,1.751037 0.01331,2.438827 l 1.9e-5,1.250529 -0.04521,-0.0044 c -0.02486,-0.0024 -0.165066,-0.0072 -0.311572,-0.01063 z"
       id="path1245" />
    <path
       style="fill:#a21189;stroke:#000000;stroke-width:0.0404686;fill-opacity:0.90196079"
       d="m 8.9495225,17.112015 c 0.00299,-1.33556 0.010545,-2.433419 0.016811,-2.439686 0.00627,-0.0063 0.2526158,-0.01833 0.5474383,-0.02678 l 0.5360392,-0.01539 -1.9e-5,0.08258 -1.7e-5,0.08258 -0.1054663,0.01267 c -0.058011,0.0069 -0.1393663,0.01273 -0.1807994,0.01284 l -0.075333,2.11e-4 v 0.502219 0.50222 h 0.1908436 0.1908451 v 0.100444 0.100444 H 9.8173174 c -0.1820537,0 -0.2599266,0.0074 -0.2789909,0.02644 -0.021832,0.02183 -0.022263,0.325944 -0.00248,1.742703 0.01318,0.943942 0.023466,1.717267 0.02286,1.718501 -6.574e-4,0.0013 -0.1391383,0.0077 -0.3078477,0.01429 l -0.3067473,0.01203 z"
       id="path1247" />
    <path
       style="fill:#445016;stroke:#000000;stroke-width:0.0404686"
       d="m 8.9649799,14.193275 v -0.393029 l 0.095422,-0.01137 c 0.052483,-0.0062 0.2965607,-0.01728 0.5423976,-0.02453 l 0.4469765,-0.01316 v 0.404334 0.404334 H 9.9023396 c -0.081089,0 -0.3251679,0.0059 -0.5423972,0.01322 l -0.3949625,0.01322 z"
       id="path1249" />
    <path
       style="fill:#22280b;stroke:#000000;stroke-width:0.0404686"
       d="m 11.913011,14.564907 -0.336486,-0.006 -2.9e-5,-0.406312 -2.5e-5,-0.406309 0.487182,0.01549 c 0.267947,0.0085 0.516558,0.02023 0.552465,0.02602 l 0.06529,0.01052 v 0.39082 0.390823 l -0.215955,-0.0045 c -0.118775,-0.0025 -0.367374,-0.0072 -0.552442,-0.01052 z"
       id="path1251" />
    <path
       style="fill:#22280b;stroke:#000000;stroke-width:0.0404686"
       d="m 8.989627,14.196177 0.00548,-0.369568 0.1807995,-0.01292 c 0.099439,-0.0071 0.3322177,-0.01748 0.5172862,-0.02304 l 0.3364873,-0.01012 v 0.379619 0.379619 l -0.386709,2.11e-4 c -0.2126899,5.8e-5 -0.447938,0.0059 -0.522774,0.01299 l -0.136064,0.01284 z"
       id="path1253" />
    <path
       style="fill:#22280b;stroke:#000000;stroke-width:0.0404686"
       d="M 10.411373,19.541872 V 19.40125 h 0.411821 0.411822 v 0.140622 0.140621 h -0.411822 -0.411821 z"
       id="path1255" />
    <path
       style="fill:#a21189;stroke:#000000;stroke-width:0.0143079;fill-opacity:0.90196079"
       d="m 8.3523471,14.441148 -0.1012106,-0.0022 v -0.18459 -0.184617 l 0.2894257,0.004 c 0.1591833,0.0022 0.3030089,0.0057 0.3196107,0.0077 l 0.030187,0.0037 v 0.115664 c 0,0.06361 -0.00207,0.144921 -0.0046,0.180679 l -0.00461,0.06501 -0.2137867,-0.0015 c -0.1175824,-8.61e-4 -0.2593305,-0.0026 -0.3149964,-0.0037 z"
       id="path1257" />
    <path
       style="fill:#a21189;stroke:#000000;stroke-width:0.0143079;fill-opacity:0.90196079"
       d="m 12.754097,14.262942 v -0.185811 l 0.09056,-1.3e-5 c 0.0498,-5e-6 0.193632,-0.0021 0.319611,-0.0048 l 0.229054,-0.0047 v 0.185813 0.185811 l -0.09056,1.3e-5 c -0.0498,6e-6 -0.193629,0.0021 -0.319609,0.0048 l -0.229056,0.0047 z"
       id="path1259" />
    <path
       style="fill:#a21189;stroke:#000000;stroke-width:0.0202343;fill-opacity:0.90196079"
       d="m 8.6679453,17.73013 -0.1226468,-0.0031 -0.00495,-0.03234 c -0.00687,-0.04493 -0.039356,-0.750572 -0.034744,-0.754957 0.00207,-0.0019 0.086234,-0.0069 0.187056,-0.01089 l 0.18331,-0.0073 v 0.408082 0.408081 l -0.042689,-0.0022 c -0.023481,-0.0013 -0.09788,-0.0036 -0.1653351,-0.0053 z"
       id="path1261" />
    <path
       style="fill:#a21189;stroke:#000000;stroke-width:0.0202343;fill-opacity:0.90196079"
       d="m 12.76315,17.327115 v -0.406252 l 0.182475,0.0066 c 0.100363,0.0037 0.184794,0.009 0.187628,0.01176 0.0071,0.0071 -0.02947,0.771726 -0.03732,0.779807 -0.0035,0.0036 -0.07979,0.0083 -0.169563,0.01042 l -0.163222,0.0039 z"
       id="path1263" />
    <path
       style="fill:#e916c5;stroke:#000000;stroke-width:0.0286157;fill-opacity:0.90196079"
       d="m 2.4865273,22.117064 -0.1360802,-0.142937 1.7625173,-1.397682 1.7625173,-1.397679 0.1298349,0.139454 0.1298358,0.139453 -0.037227,0.03084 c -0.033551,0.02778 -2.0278816,1.618458 -3.0631266,2.44314 l -0.4121907,0.328352 z"
       id="path1265" />
    <path
       style="fill:#e915c5;stroke:#000000;stroke-width:0.0286157;fill-opacity:0.90196079"
       d="m 6.1930547,19.193783 c -0.058058,-0.07241 -0.110235,-0.13944 -0.1159477,-0.148941 -0.0087,-0.01445 0.1459183,-0.145789 0.4263384,-0.362116 0.011415,-0.0088 0.054505,0.03245 0.1378958,0.131989 l 0.121295,0.144797 -0.2160236,0.170468 c -0.1188133,0.09376 -0.2232182,0.176093 -0.2320115,0.182968 -0.010671,0.0083 -0.051064,-0.03125 -0.1215464,-0.119165 z"
       id="path1267" />
    <path
       style="fill:#e916c5;stroke:#000000;stroke-width:0.0286157;fill-opacity:0.90196079"
       d="M 6.808237,18.676383 C 6.716179,18.565689 6.6963916,18.53402 6.71056,18.520054 c 0.00977,-0.0096 0.4012995,-0.321591 0.8700627,-0.693231 l 0.8522955,-0.675713 0.00886,0.04283 c 0.00485,0.02355 0.011263,0.125347 0.014206,0.226208 l 0.00535,0.183382 -0.7511284,0.599042 c -0.4131214,0.329474 -0.7590912,0.602098 -0.7688246,0.605833 -0.00988,0.0037 -0.068679,-0.05451 -0.1331379,-0.132021 z"
       id="path1271" />
    <path
       style="fill:#e916c5;stroke:#000000;stroke-width:0.0143079;fill-opacity:0.90196079"
       d="m 13.938974,18.212352 c -0.421609,-0.3363 -0.766563,-0.615236 -0.766563,-0.61986 0,-0.06099 0.02132,-0.439492 0.02511,-0.445609 0.0034,-0.0054 0.31423,0.236678 0.881366,0.686131 0.481936,0.38193 0.876939,0.694868 0.877784,0.695416 0.003,0.0019 -0.238294,0.291093 -0.244671,0.293219 -0.0036,0.0013 -0.35142,-0.272997 -0.773026,-0.609297 z"
       id="path1273" />
    <path
       style="fill:#d91bb2;stroke:#000000;stroke-width:0.0143079;fill-opacity:1"
       d="m 15.105396,19.142561 -0.231507,-0.185181 0.124116,-0.148427 0.124116,-0.148425 0.229012,0.181808 c 0.125957,0.1 0.229014,0.183815 0.229014,0.186267 0,0.0069 -0.232738,0.299139 -0.238294,0.299139 -0.0027,0 -0.109128,-0.08333 -0.236457,-0.185181 z"
       id="path1275" />
    <path
       style="fill:#445500;stroke:#000000;stroke-width:0.0202343"
       d="m 17.270724,20.868512 c -0.958485,-0.764717 -1.74684,-1.39671 -1.7519,-1.404427 -0.0068,-0.0104 0.02267,-0.04891 0.113547,-0.148383 0.06751,-0.0739 0.127393,-0.13435 0.133079,-0.13435 0.0057,0 0.802631,0.628277 1.770991,1.396173 l 1.760658,1.396172 -0.136251,0.140622 c -0.07494,0.07734 -0.138764,0.141513 -0.141836,0.142605 -0.003,0.0011 -0.789801,-0.623693 -1.748288,-1.388412 z"
       id="path1277" />
    <path
       style="fill:#445500;stroke:#000000;stroke-width:0.0202343"
       d="M 2.035259,22.50165 C 1.8478116,22.287983 1.6929387,22.108456 1.6910983,22.102701 c -0.00187,-0.0058 0.080623,-0.07948 0.1832524,-0.163839 l 0.1865998,-0.153375 0.2425991,0.249216 c 0.1334296,0.13707 0.2968242,0.304651 0.3630985,0.372404 l 0.1205,0.12319 -0.024741,0.02379 c -0.085163,0.08191 -0.3724855,0.337389 -0.3787587,0.336778 -0.00415,-4.22e-4 -0.1609443,-0.175552 -0.3483917,-0.389218 z"
       id="path1279" />
    <path
       style="fill:#a21189;stroke:#000000;stroke-width:0.00252929;fill-opacity:0.90196079"
       d="m 6.0577428,19.277811 c -0.073173,-0.0805 -0.1330438,-0.146839 -0.1330438,-0.147419 0,-0.0019 0.0812,-0.06545 0.082279,-0.06435 0.00389,0.0039 0.2446914,0.30886 0.2444578,0.309547 -2.12e-4,6.58e-4 -0.044839,0.03641 -0.059349,0.04759 -7.586e-4,6.58e-4 -0.053315,-0.05622 -0.134344,-0.145363 z"
       id="path1281" />
    <path
       style="fill:#a21189;stroke:#000000;stroke-width:0.00357697;fill-opacity:0.90196079"
       d="m 6.6935277,18.774583 c -0.067712,-0.08132 -0.1241054,-0.14911 -0.1253186,-0.150648 -0.00187,-0.0024 0.00238,-0.0064 0.030865,-0.02899 l 0.033075,-0.0262 0.00491,0.005 c 0.00726,0.0075 0.2470899,0.297445 0.2464426,0.297926 -3.171e-4,2.11e-4 -0.014707,0.01173 -0.032008,0.02556 -0.017296,0.01384 -0.032211,0.02515 -0.033141,0.02515 -9.597e-4,0 -0.057087,-0.06654 -0.1248007,-0.147857 z"
       id="path1283" />
    <path
       style="fill:#a21189;stroke:#000000;stroke-width:0.00715396;fill-opacity:0.90196079"
       d="m 15.419809,19.396678 -0.02926,-0.0235 0.01182,-0.01452 c 0.0065,-0.008 0.06106,-0.07686 0.121242,-0.153028 0.06019,-0.07617 0.109852,-0.139031 0.110372,-0.139685 0.0017,-0.0021 0.07986,0.06095 0.07887,0.06369 -8.6e-4,0.0025 -0.262315,0.291042 -0.263326,0.290694 -2.11e-4,-5.6e-5 -0.0136,-0.01072 -0.0297,-0.02365 z"
       id="path1285" />
    <path
       style="fill:#a21189;stroke:#000000;stroke-width:0.00715396;fill-opacity:0.90196079"
       d="m 14.790875,18.895072 c -0.0163,-0.01331 -0.02934,-0.0256 -0.029,-0.02729 4.23e-4,-0.0017 0.05584,-0.06973 0.123337,-0.151197 0.106946,-0.129095 0.123463,-0.147572 0.128576,-0.143825 0.0032,0.0024 0.01809,0.01384 0.03302,0.02549 l 0.02715,0.0212 -0.01512,0.01788 c -0.0083,0.0098 -0.06433,0.077 -0.124469,0.149269 -0.06014,0.07227 -0.110371,0.131689 -0.111613,0.132048 -0.0013,4.24e-4 -0.0156,-0.01025 -0.03189,-0.02356 z"
       id="path1287" />
    <path
       style="fill:#6c6753;stroke:#000000;stroke-width:0.0143079"
       d="m 19.050293,22.710101 -0.19964,-0.181437 0.363707,-0.37268 c 0.200038,-0.204974 0.365785,-0.371824 0.36833,-0.370777 0.01013,0.0041 0.37611,0.307032 0.37611,0.311248 0,0.0074 -0.696263,0.795085 -0.702821,0.795085 -0.0034,0 -0.09588,-0.08165 -0.205686,-0.181439 z"
       id="path1289" />
    <path
       style="fill:#6c6753;stroke:#000000;stroke-width:0.0101172"
       d="m 6.9091568,15.382515 c -0.00309,-0.07739 -0.038633,-2.167209 -0.036878,-2.168972 0.00142,-0.0015 0.032939,-0.0034 0.070007,-0.0042 l 0.067396,-0.0017 5.61e-5,0.01169 c 3.89e-5,0.0064 0.00561,0.494088 0.012381,1.083687 0.00677,0.5896 0.011723,1.072582 0.01101,1.073294 -0.00222,0.0022 -0.1238975,0.0083 -0.1239825,0.0062 z"
       id="path1291" />
    <path
       style="fill:#24221c;stroke:#000000;stroke-width:0.0143079"
       d="m 14.608753,15.213287 c 0.0024,-0.09082 0.0076,-0.534283 0.01163,-0.985467 0.004,-0.451182 0.0091,-0.866333 0.01144,-0.922551 l 0.0041,-0.10222 0.06433,0.0046 c 0.03538,0.0026 0.06562,0.0059 0.0672,0.0074 0.0015,0.0015 -0.0054,0.454626 -0.01546,1.006766 -0.01008,0.552144 -0.01831,1.038254 -0.01826,1.080248 l 5.7e-5,0.07635 h -0.06472 -0.06472 z"
       id="path1293" />
    <path
       style="fill:#24221c;stroke:#000000;stroke-width:0.0143079"
       d="m 13.455392,14.288192 v -1.246484 l 0.0799,1.06e-4 c 0.1682,2.11e-4 1.030549,0.01419 1.033013,0.01663 0.0027,0.0027 -0.01597,1.779169 -0.02336,2.211629 l -0.0046,0.264568 h -0.54251 -0.542508 z"
       id="path1295" />
    <path
       style="fill:#24221c;stroke:#000000;stroke-width:0.0143079"
       d="m 6.9160657,15.266463 c -0.00243,-0.05999 -0.00936,-0.414298 -0.01543,-0.787355 -0.00606,-0.373055 -0.013397,-0.807728 -0.016295,-0.965933 -0.00288,-0.158211 -0.00491,-0.288385 -0.00445,-0.289285 4.234e-4,-8.6e-4 0.028084,-0.0037 0.061394,-0.0063 l 0.060563,-0.0047 0.00485,0.4715 c 0.00268,0.259324 0.00814,0.742727 0.012178,1.07423 0.00405,0.3315 0.00538,0.604674 0.00298,0.607049 -0.00238,0.0024 -0.026167,0.0056 -0.052872,0.007 l -0.048551,0.0027 z"
       id="path1297" />
    <path
       style="fill:#24221c;stroke:#000000;stroke-width:0.0143079"
       d="m 7.0964829,15.436165 c 2.47e-5,-0.124962 -0.019612,-1.926647 -0.023835,-2.186811 l -0.00309,-0.189244 0.1359604,-0.0041 c 0.074779,-0.0023 0.3253301,-0.0061 0.5567827,-0.0085 l 0.4208209,-0.0043 v 1.247101 1.247101 H 7.6397845 7.0964453 l 2.02e-5,-0.10121 z"
       id="path1299" />
    <path
       style="fill:#a21189;fill-opacity:0.90196079;stroke:#000000;stroke-width:0.056949"
       d="m 19.06342,22.691035 -0.183754,-0.167091 0.351079,-0.353087 0.351078,-0.353085 0.164845,0.129509 c 0.09067,0.07123 0.164846,0.138839 0.164846,0.150241 0,0.01775 -0.646509,0.764155 -0.659622,0.761543 -0.0026,-5.05e-4 -0.0874,-0.07613 -0.188472,-0.16803 z"
       id="path1301" />
    <path
       style="fill:#a21189;fill-opacity:0.90196079;stroke:#000000;stroke-width:0.056949"
       d="M 2.0984529,22.534161 C 1.692428,22.077064 1.7115154,22.114762 1.8323775,22.008644 c 0.055595,-0.04882 0.1312079,-0.112448 0.1680307,-0.141413 l 0.066949,-0.05266 0.3403044,0.361812 0.340304,0.36181 -0.1799766,0.160976 -0.1799767,0.160977 z"
       id="path1303" />
    <path
       style="fill:#e916c5;fill-opacity:0.90196079;stroke:#000000;stroke-width:0.0201346"
       d="m 18.877736,22.128297 c -0.07421,-0.05969 -0.553213,-0.441399 -1.064451,-0.848245 -1.463811,-1.164905 -2.268604,-1.811332 -2.27159,-1.824587 -0.0039,-0.01737 0.2172,-0.258539 0.229858,-0.250716 0.0136,0.0084 0.589838,0.462091 1.172177,0.922885 1.409048,1.114953 2.291045,1.814366 2.307774,1.830039 0.01842,0.01726 0.0155,0.02138 -0.104702,0.14845 -0.06801,0.07188 -0.126008,0.130701 -0.128894,0.130701 -0.0029,0 -0.06596,-0.04883 -0.140172,-0.108527 z"
       id="path1305" />
  </g>
</svg>
