<?xml version="1.0" encoding="UTF-8" standalone="no"?>
<svg
   xmlns:dc="http://purl.org/dc/elements/1.1/"
   xmlns:cc="http://creativecommons.org/ns#"
   xmlns:rdf="http://www.w3.org/1999/02/22-rdf-syntax-ns#"
   xmlns:svg="http://www.w3.org/2000/svg"
   xmlns="http://www.w3.org/2000/svg"
   xmlns:sodipodi="http://sodipodi.sourceforge.net/DTD/sodipodi-0.dtd"
   xmlns:inkscape="http://www.inkscape.org/namespaces/inkscape"
   width="80"
   height="92.379997"
   viewBox="0 0 21.166666 24.442208"
   version="1.1"
   id="svg8"
   inkscape:version="1.0.1 (3bc2e813f5, 2020-09-07)"
   sodipodi:docname="base2.svg">
  <defs
     id="defs2" />
  <sodipodi:namedview
     id="base"
     pagecolor="#ffffff"
     bordercolor="#666666"
     borderopacity="1.0"
     inkscape:pageopacity="0.0"
     inkscape:pageshadow="2"
     inkscape:zoom="3.959798"
     inkscape:cx="20.859967"
     inkscape:cy="54.991713"
     inkscape:document-units="mm"
     inkscape:current-layer="layer1"
     inkscape:document-rotation="0"
     showgrid="false"
     units="px"
     inkscape:window-width="1395"
     inkscape:window-height="1040"
     inkscape:window-x="26"
     inkscape:window-y="0"
     inkscape:window-maximized="0" />
  <metadata
     id="metadata5">
    <rdf:RDF>
      <cc:Work
         rdf:about="">
        <dc:format>image/svg+xml</dc:format>
        <dc:type
           rdf:resource="http://purl.org/dc/dcmitype/StillImage" />
        <dc:title></dc:title>
      </cc:Work>
    </rdf:RDF>
  </metadata>
  <g
     inkscape:label="Layer 1"
     inkscape:groupmode="layer"
     id="layer1">
    <rect
       style="fill:#656565;stroke:#ececec;stroke-width:0.0649997;stroke-linejoin:round"
       id="rect833"
       width="12.774853"
       height="11.365072"
       x="4.2940216"
       y="7.1147132"
       ry="2.8657618" />
    <path
       style="fill:#b31414;fill-opacity:0.89999998;stroke:#730d0d;stroke-width:0.065;stroke-linecap:butt;stroke-linejoin:miter;stroke-miterlimit:4;stroke-dasharray:none;stroke-opacity:0.90196073"
       d="m 4.6625537,4.1893346 c 0,0 0.1176781,0.1023459 0.1176781,0.3340124 0,0.2316725 -0.1700464,0.2934518 -0.1700464,0.2934518 0.5010273,0.085028 1.0220498,0.1102325 1.5883583,0 0,0 -0.080056,-0.1145055 -0.080056,-0.2844032 0,-0.1698932 0.099931,-0.3227807 0.099931,-0.3227807 C 6.0439255,4.0741933 5.3474321,4.1339425 4.6625537,4.1893286 Z"
       id="path837"
       sodipodi:nodetypes="csccscc" />
    <path
       style="fill:#b31414;fill-opacity:0.89999998;stroke:#730d0d;stroke-width:0.065;stroke-linecap:butt;stroke-linejoin:miter;stroke-miterlimit:4;stroke-dasharray:none;stroke-opacity:0.90196073"
       d="m 8.8026549,4.0330016 c 0,0 0.1176781,0.1023308 0.1176781,0.3340109 0,0.2316725 -0.1700479,0.2934533 -0.1700479,0.2934533 0.5010273,0.085028 1.0220513,0.1102324 1.5883599,0 0,0 -0.08006,-0.1145056 -0.08006,-0.2844047 0,-0.1698932 0.09993,-0.3227807 0.09993,-0.3227807 C 10.184027,3.9178588 9.4875318,3.977593 8.8026534,4.0329941 Z"
       id="path839"
       sodipodi:nodetypes="csccscc" />
    <path
       style="fill:#b31414;fill-opacity:0.89999998;stroke:#730d0d;stroke-width:0.065;stroke-linecap:butt;stroke-linejoin:miter;stroke-miterlimit:4;stroke-dasharray:none;stroke-opacity:0.90196073"
       d="m 7.426901,4.1064819 c 0,0 0.1176781,0.1023308 0.1176781,0.3340123 0,0.2316726 -0.1700479,0.2934519 -0.1700479,0.2934519 0.5010273,0.085028 1.0220513,0.1102324 1.5883598,0 0,0 -0.080056,-0.1145056 -0.080056,-0.2844033 0,-0.1698931 0.099931,-0.3227807 0.099931,-0.3227807 C 8.8082743,3.9913406 8.1117809,4.0510748 7.426901,4.1064759 Z"
       id="path841"
       sodipodi:nodetypes="csccscc" />
    <path
       style="fill:#b31414;fill-opacity:0.89999998;stroke:#730d0d;stroke-width:0.065;stroke-linecap:butt;stroke-linejoin:miter;stroke-miterlimit:4;stroke-dasharray:none;stroke-opacity:0.90196073"
       d="m 6.0757155,4.057495 c 0,0 0.117678,0.1023459 0.117678,0.3340109 0,0.231674 -0.1700478,0.2934533 -0.1700478,0.2934533 0.5010273,0.085028 1.0220512,0.1102325 1.5883598,0 0,0 -0.080056,-0.1145055 -0.080056,-0.2844047 0,-0.1698932 0.099931,-0.3227807 0.099931,-0.3227807 C 7.4570872,3.9423522 6.7605939,4.0020865 6.0757155,4.0574875 Z"
       id="path843"
       sodipodi:nodetypes="csccscc" />
    <path
       style="fill:#b31414;fill-opacity:0.89999998;stroke:#730d0d;stroke-width:0.065;stroke-linecap:butt;stroke-linejoin:miter;stroke-miterlimit:4;stroke-dasharray:none;stroke-opacity:0.90196073"
       d="m 15.888182,4.5983341 c 0,0 -0.117693,-0.1023458 -0.117693,-0.3340123 0,-0.2316725 0.170047,-0.2934519 0.170047,-0.2934519 -0.501027,-0.085028 -1.022052,-0.1102324 -1.588361,0 0,0 0.08006,0.1145056 0.08006,0.2844033 0,0.1698932 -0.09993,0.3227807 -0.09993,0.3227807 0.174492,0.1354215 0.870987,0.075687 1.555867,0.020286 z"
       id="path845"
       sodipodi:nodetypes="csccscc" />
    <path
       style="fill:#b31414;fill-opacity:0.89999998;stroke:#730d0d;stroke-width:0.065;stroke-linecap:butt;stroke-linejoin:miter;stroke-miterlimit:4;stroke-dasharray:none;stroke-opacity:0.90196073"
       d="m 11.748077,4.7546672 c 0,0 -0.117678,-0.1023459 -0.117678,-0.3340109 0,-0.2316725 0.170048,-0.2934533 0.170048,-0.2934533 -0.501027,-0.085028 -1.022051,-0.1102325 -1.58836,0 0,0 0.08006,0.1145055 0.08006,0.2844047 0,0.1698932 -0.09993,0.3227807 -0.09993,0.3227807 0.174494,0.1354216 0.870989,0.075672 1.555865,0.020286 z"
       id="path847"
       sodipodi:nodetypes="csccscc" />
    <path
       style="fill:#b31414;fill-opacity:0.89999998;stroke:#730d0d;stroke-width:0.065;stroke-linecap:butt;stroke-linejoin:miter;stroke-miterlimit:4;stroke-dasharray:none;stroke-opacity:0.90196073"
       d="m 13.123833,4.6811869 c 0,0 -0.117678,-0.1023459 -0.117678,-0.3340124 0,-0.2316725 0.170048,-0.2934518 0.170048,-0.2934518 -0.501028,-0.085028 -1.022052,-0.1102325 -1.58836,0 0,0 0.08006,0.1145055 0.08006,0.2844032 0,0.1698932 -0.09993,0.3227807 -0.09993,0.3227807 0.174492,0.1354216 0.870985,0.075672 1.555865,0.020286 z"
       id="path849"
       sodipodi:nodetypes="csccscc" />
    <path
       style="fill:#b31414;fill-opacity:0.89999998;stroke:#730d0d;stroke-width:0.065;stroke-linecap:butt;stroke-linejoin:miter;stroke-miterlimit:4;stroke-dasharray:none;stroke-opacity:0.90196073"
       d="m 14.475018,4.7301737 c 0,0 -0.117693,-0.1023308 -0.117693,-0.3340108 0,-0.231674 0.170048,-0.2934534 0.170048,-0.2934534 -0.501027,-0.085028 -1.02205,-0.1102324 -1.58836,0 0,0 0.08006,0.1145056 0.08006,0.2844048 0,0.1698932 -0.09993,0.3227807 -0.09993,0.3227807 0.174492,0.1354215 0.870987,0.075687 1.555865,0.020286 z"
       id="path851"
       sodipodi:nodetypes="csccscc" />
    <path
       style="fill:#b41414;fill-opacity:0.90196079;stroke:#730b0b;stroke-width:0.065;stroke-linecap:butt;stroke-linejoin:miter;stroke-miterlimit:4;stroke-dasharray:none;stroke-opacity:0.90196079"
       d="m 0.74557017,9.2507302 c 0,0 0.10264415,-0.1173393 0.33501143,-0.1173393 0.2323658,0 0.2943315,0.1695393 0.2943315,0.1695393 0.085272,-0.4995319 0.1105583,-1.0190007 0,-1.583618 0,0 -0.1148601,0.079826 -0.2852557,0.079826 -0.17040157,0 -0.32374726,-0.099632 -0.32374726,-0.099632 -0.13582963,0.1739714 -0.0759039,0.8683877 -0.02034,1.5512215 z"
       id="path853"
       sodipodi:nodetypes="csccscc" />
    <path
       style="fill:#b41414;fill-opacity:0.90196079;stroke:#730b0b;stroke-width:0.065;stroke-linecap:butt;stroke-linejoin:miter;stroke-miterlimit:4;stroke-dasharray:none;stroke-opacity:0.90196079"
       d="m 0.95494745,12.988893 c 0,0 0.10264415,-0.117339 0.33501145,-0.117339 0.2323673,0 0.2943315,0.169539 0.2943315,0.169539 0.085272,-0.499532 0.1105733,-1.019001 0,-1.583618 0,0 -0.1148451,0.07982 -0.2852557,0.07982 -0.1704016,0 -0.32374728,-0.09963 -0.32374728,-0.09963 -0.13582962,0.173973 -0.0759039,0.868388 -0.02034,1.551222 z"
       id="path855"
       sodipodi:nodetypes="csccscc" />
    <path
       style="fill:#b41414;fill-opacity:0.90196079;stroke:#730b0b;stroke-width:0.065;stroke-linecap:butt;stroke-linejoin:miter;stroke-miterlimit:4;stroke-dasharray:none;stroke-opacity:0.90196079"
       d="m 0.73384434,11.739713 c 0,0 0.10264415,-0.117339 0.33501146,-0.117339 0.2323658,0 0.2943315,0.169539 0.2943315,0.169539 0.085272,-0.49953 0.1105583,-1.018999 0,-1.583618 0,0 -0.1148451,0.07982 -0.2852557,0.07982 -0.17040161,0 -0.32374579,-0.09963 -0.32374579,-0.09963 -0.13582963,0.173972 -0.0759039,0.868387 -0.02034,1.551221 z"
       id="path857"
       sodipodi:nodetypes="csccscc" />
    <path
       style="fill:#b41414;fill-opacity:0.90196079;stroke:#730b0b;stroke-width:0.065;stroke-linecap:butt;stroke-linejoin:miter;stroke-miterlimit:4;stroke-dasharray:none;stroke-opacity:0.90196079"
       d="m 0.90581376,10.392559 c 0,0 0.10264414,-0.117339 0.33501144,-0.117339 0.2323673,0 0.29433,0.169541 0.29433,0.169541 0.085272,-0.4995305 0.1105733,-1.0189993 0,-1.5836181 0,0 -0.1148451,0.079825 -0.2852542,0.079825 -0.1704016,0 -0.32374727,-0.099632 -0.32374727,-0.099632 -0.13582963,0.1739714 -0.0759039,0.8683862 -0.02034,1.5512201 z"
       id="path859"
       sodipodi:nodetypes="csccscc" />
    <path
       style="fill:#b41414;fill-opacity:0.90196079;stroke:#730b0b;stroke-width:0.065;stroke-linecap:butt;stroke-linejoin:miter;stroke-miterlimit:4;stroke-dasharray:none;stroke-opacity:0.90196079"
       d="m 1.6746976,16.60904 c 0,0 -0.1026442,0.117339 -0.3350099,0.117339 -0.2323673,0 -0.2943316,-0.169539 -0.2943316,-0.169539 -0.0852719,0.49953 -0.11055826,1.019001 0,1.583618 0,0 0.1148452,-0.07983 0.2852543,-0.07983 0.170403,0 0.3237472,0.09963 0.3237472,0.09963 0.1358297,-0.173971 0.075904,-0.868387 0.02034,-1.551223 z"
       id="path861"
       sodipodi:nodetypes="csccscc" />
    <path
       style="fill:#b41414;fill-opacity:0.90196079;stroke:#730b0b;stroke-width:0.065;stroke-linecap:butt;stroke-linejoin:miter;stroke-miterlimit:4;stroke-dasharray:none;stroke-opacity:0.90196079"
       d="m 1.4653203,12.797399 c 0,0 -0.1026441,0.117339 -0.3350114,0.117339 -0.23236732,0 -0.29433003,-0.169541 -0.29433003,-0.169541 -0.085272,0.499532 -0.11055831,1.019001 0,1.583618 0,0 0.11484513,-0.07983 0.28525423,-0.07983 0.1704016,0 0.3237472,0.09963 0.3237472,0.09963 0.1358297,-0.173972 0.075904,-0.868387 0.02034,-1.55122 z"
       id="path863"
       sodipodi:nodetypes="csccscc" />
    <path
       style="fill:#b41414;fill-opacity:0.90196079;stroke:#730b0b;stroke-width:0.065;stroke-linecap:butt;stroke-linejoin:miter;stroke-miterlimit:4;stroke-dasharray:none;stroke-opacity:0.90196079"
       d="m 1.5390224,14.022082 c 0,0 -0.1026442,0.117339 -0.3350115,0.117339 -0.23236728,0 -0.29433149,-0.169539 -0.29433149,-0.169539 -0.085272,0.499532 -0.11055831,1.019001 0,1.583618 0,0 0.11486009,-0.07983 0.28525569,-0.07983 0.1704016,0 0.3237473,0.09963 0.3237473,0.09963 0.1358296,-0.173972 0.075904,-0.868386 0.02034,-1.551221 z"
       id="path865"
       sodipodi:nodetypes="csccscc" />
    <path
       style="fill:#b41414;fill-opacity:0.90196079;stroke:#730b0b;stroke-width:0.065;stroke-linecap:butt;stroke-linejoin:miter;stroke-miterlimit:4;stroke-dasharray:none;stroke-opacity:0.90196079"
       d="m 1.6372897,15.344742 c 0,0 -0.1026441,0.117339 -0.3350114,0.117339 -0.2323658,0 -0.2943315,-0.169539 -0.2943315,-0.169539 -0.085272,0.499532 -0.1105733,1.018999 0,1.583618 0,0 0.1148451,-0.07982 0.2852542,-0.07982 0.1704031,0 0.3237473,0.09963 0.3237473,0.09963 0.1358296,-0.173972 0.075904,-0.868387 0.02034,-1.55122 z"
       id="path867"
       sodipodi:nodetypes="csccscc" />
    <path
       style="fill:#b31414;fill-opacity:0.90196079;stroke:#770b0b;stroke-width:0.065;stroke-linecap:butt;stroke-linejoin:miter;stroke-miterlimit:4;stroke-dasharray:none;stroke-opacity:0.96470588"
       d="m 16.256687,21.621449 c 0,0 -0.117693,-0.102346 -0.117693,-0.334011 0,-0.231674 0.170048,-0.293454 0.170048,-0.293454 -0.501027,-0.08503 -1.022053,-0.110232 -1.58836,0 0,0 0.08006,0.114506 0.08006,0.284404 0,0.169893 -0.09993,0.32278 -0.09993,0.32278 0.174492,0.135422 0.870985,0.07569 1.555865,0.02029 z"
       id="path885"
       sodipodi:nodetypes="csccscc" />
    <path
       style="fill:#b31414;fill-opacity:0.90196079;stroke:#770b0b;stroke-width:0.065;stroke-linecap:butt;stroke-linejoin:miter;stroke-miterlimit:4;stroke-dasharray:none;stroke-opacity:0.96470588"
       d="m 12.116585,21.777783 c 0,0 -0.117693,-0.102346 -0.117693,-0.334012 0,-0.231673 0.170047,-0.293452 0.170047,-0.293452 -0.501027,-0.08503 -1.022049,-0.110232 -1.588359,0 0,0 0.08005,0.114506 0.08005,0.284403 0,0.169893 -0.09993,0.322779 -0.09993,0.322779 0.174492,0.135422 0.870987,0.07569 1.555866,0.02029 z"
       id="path887"
       sodipodi:nodetypes="csccscc" />
    <path
       style="fill:#b31414;fill-opacity:0.90196079;stroke:#770b0b;stroke-width:0.065;stroke-linecap:butt;stroke-linejoin:miter;stroke-miterlimit:4;stroke-dasharray:none;stroke-opacity:0.96470588"
       d="m 13.492339,21.704301 c 0,0 -0.117679,-0.10233 -0.117679,-0.334012 0,-0.231672 0.170048,-0.293452 0.170048,-0.293452 -0.501027,-0.08503 -1.022051,-0.110232 -1.588359,0 0,0 0.08005,0.114506 0.08005,0.284403 0,0.169894 -0.09993,0.322781 -0.09993,0.322781 0.174494,0.135422 0.870986,0.07569 1.555866,0.02029 z"
       id="path889"
       sodipodi:nodetypes="csccscc" />
    <path
       style="fill:#b31414;fill-opacity:0.90196079;stroke:#770b0b;stroke-width:0.065;stroke-linecap:butt;stroke-linejoin:miter;stroke-miterlimit:4;stroke-dasharray:none;stroke-opacity:0.96470588"
       d="m 14.843524,21.753288 c 0,0 -0.117678,-0.102346 -0.117678,-0.334011 0,-0.231672 0.170046,-0.293453 0.170046,-0.293453 -0.501027,-0.08503 -1.022051,-0.110232 -1.588359,0 0,0 0.08005,0.114506 0.08005,0.284405 0,0.169893 -0.09993,0.322781 -0.09993,0.322781 0.174494,0.135421 0.870987,0.07567 1.555866,0.02029 z"
       id="path891"
       sodipodi:nodetypes="csccscc" />
    <path
       style="fill:#b31414;fill-opacity:0.90196079;stroke:#770b0b;stroke-width:0.065;stroke-linecap:butt;stroke-linejoin:miter;stroke-miterlimit:4;stroke-dasharray:none;stroke-opacity:0.96470588"
       d="m 5.0310579,21.212449 c 0,0 0.1176931,0.102346 0.1176931,0.334011 0,0.231674 -0.1700494,0.293453 -0.1700494,0.293453 0.5010273,0.08503 1.0220528,0.110233 1.5883613,0 0,0 -0.080056,-0.114505 -0.080056,-0.284403 0,-0.169893 0.099931,-0.322781 0.099931,-0.322781 -0.174492,-0.135421 -0.8709869,-0.07569 -1.5558668,-0.02029 z"
       id="path893"
       sodipodi:nodetypes="csccscc" />
    <path
       style="fill:#b31414;fill-opacity:0.90196079;stroke:#770b0b;stroke-width:0.065;stroke-linecap:butt;stroke-linejoin:miter;stroke-miterlimit:4;stroke-dasharray:none;stroke-opacity:0.96470588"
       d="m 9.1711621,21.056115 c 0,0 0.1176781,0.102345 0.1176781,0.334012 0,0.231673 -0.1700479,0.293452 -0.1700479,0.293452 0.5010273,0.08503 1.0220517,0.110232 1.5883597,0 0,0 -0.08006,-0.114506 -0.08006,-0.284403 0,-0.169894 0.09993,-0.32278 0.09993,-0.32278 -0.174492,-0.135421 -0.8709865,-0.07569 -1.5558649,-0.02029 z"
       id="path895"
       sodipodi:nodetypes="csccscc" />
    <path
       style="fill:#b31414;fill-opacity:0.90196079;stroke:#770b0b;stroke-width:0.065;stroke-linecap:butt;stroke-linejoin:miter;stroke-miterlimit:4;stroke-dasharray:none;stroke-opacity:0.96470588"
       d="m 7.7954082,21.129596 c 0,0 0.1176781,0.102331 0.1176781,0.334013 0,0.231672 -0.1700464,0.293452 -0.1700464,0.293452 0.5010273,0.08503 1.0220513,0.110232 1.5883598,0 0,0 -0.080056,-0.114506 -0.080056,-0.284404 0,-0.169893 0.099931,-0.32278 0.099931,-0.32278 -0.1744935,-0.135422 -0.8709869,-0.07567 -1.5558653,-0.02029 z"
       id="path897"
       sodipodi:nodetypes="csccscc" />
    <path
       style="fill:#b31414;fill-opacity:0.90196079;stroke:#770b0b;stroke-width:0.065;stroke-linecap:butt;stroke-linejoin:miter;stroke-miterlimit:4;stroke-dasharray:none;stroke-opacity:0.96470588"
       d="m 6.4442227,21.08061 c 0,0 0.117678,0.102345 0.117678,0.33401 0,0.231673 -0.1700463,0.293454 -0.1700463,0.293454 0.5010272,0.08503 1.0220497,0.110232 1.5883583,0 0,0 -0.080056,-0.114506 -0.080056,-0.284405 0,-0.169893 0.099931,-0.322781 0.099931,-0.322781 -0.1744936,-0.135421 -0.8709884,-0.07567 -1.5558653,-0.02029 z"
       id="path899"
       sodipodi:nodetypes="csccscc" />
    <path
       style="fill:#b31414;fill-opacity:0.90196079;stroke:#730c0c;stroke-width:0.065;stroke-linecap:butt;stroke-linejoin:miter;stroke-miterlimit:4;stroke-dasharray:none;stroke-opacity:0.90196079"
       d="m 20.653285,16.462079 c 0,0 -0.102644,0.11734 -0.335011,0.11734 -0.232368,0 -0.294332,-0.16954 -0.294332,-0.16954 -0.08527,0.499532 -0.110573,1.019001 0,1.583618 0,0 0.11486,-0.07983 0.285256,-0.07983 0.170401,0 0.323747,0.09963 0.323747,0.09963 0.13583,-0.173973 0.0759,-0.868388 0.02034,-1.551222 z"
       id="path917"
       sodipodi:nodetypes="csccscc" />
    <path
       style="fill:#b31414;fill-opacity:0.90196079;stroke:#730c0c;stroke-width:0.065;stroke-linecap:butt;stroke-linejoin:miter;stroke-miterlimit:4;stroke-dasharray:none;stroke-opacity:0.90196079"
       d="m 20.443906,12.723917 c 0,0 -0.102644,0.117339 -0.335011,0.117339 -0.232368,0 -0.294332,-0.169539 -0.294332,-0.169539 -0.08527,0.499532 -0.110558,1.019 0,1.583618 0,0 0.114845,-0.07983 0.285256,-0.07983 0.170402,0 0.323747,0.09963 0.323747,0.09963 0.13583,-0.173971 0.0759,-0.868386 0.02034,-1.55122 z"
       id="path919"
       sodipodi:nodetypes="csccscc" />
    <path
       style="fill:#b31414;fill-opacity:0.90196079;stroke:#730c0c;stroke-width:0.065;stroke-linecap:butt;stroke-linejoin:miter;stroke-miterlimit:4;stroke-dasharray:none;stroke-opacity:0.90196079"
       d="m 20.665009,13.973095 c 0,0 -0.102644,0.117339 -0.33501,0.117339 -0.232367,0 -0.294331,-0.169539 -0.294331,-0.169539 -0.08527,0.499532 -0.110573,1.019001 0,1.583618 0,0 0.114845,-0.07982 0.285254,-0.07982 0.170403,0 0.323747,0.09963 0.323747,0.09963 0.13583,-0.173972 0.0759,-0.868387 0.02034,-1.551222 z"
       id="path921"
       sodipodi:nodetypes="csccscc" />
    <path
       style="fill:#b31414;fill-opacity:0.90196079;stroke:#730c0c;stroke-width:0.065;stroke-linecap:butt;stroke-linejoin:miter;stroke-miterlimit:4;stroke-dasharray:none;stroke-opacity:0.90196079"
       d="m 20.49304,15.320249 c 0,0 -0.102644,0.117339 -0.335012,0.117339 -0.232365,0 -0.29433,-0.169541 -0.29433,-0.169541 -0.08527,0.499532 -0.110558,1.019001 0,1.583618 0,0 0.114846,-0.07982 0.285255,-0.07982 0.170401,0 0.323747,0.09963 0.323747,0.09963 0.13583,-0.173972 0.0759,-0.868387 0.02034,-1.551223 z"
       id="path923"
       sodipodi:nodetypes="csccscc" />
    <path
       style="fill:#b31414;fill-opacity:0.90196079;stroke:#730c0c;stroke-width:0.065;stroke-linecap:butt;stroke-linejoin:miter;stroke-miterlimit:4;stroke-dasharray:none;stroke-opacity:0.90196079"
       d="m 19.724156,9.1037681 c 0,0 0.102644,-0.1173393 0.335011,-0.1173393 0.232366,0 0.29433,0.1695408 0.29433,0.1695408 0.08527,-0.4995319 0.110574,-1.0190007 0,-1.5836195 0,0 -0.114845,0.079825 -0.285254,0.079825 -0.170401,0 -0.323747,-0.099632 -0.323747,-0.099632 -0.13583,0.1739714 -0.0759,0.8683862 -0.02034,1.5512215 z"
       id="path925"
       sodipodi:nodetypes="csccscc" />
    <path
       style="fill:#b31414;fill-opacity:0.90196079;stroke:#730c0c;stroke-width:0.065;stroke-linecap:butt;stroke-linejoin:miter;stroke-miterlimit:4;stroke-dasharray:none;stroke-opacity:0.90196079"
       d="m 19.933533,12.915411 c 0,0 0.102644,-0.117339 0.335012,-0.117339 0.232367,0 0.29433,0.169541 0.29433,0.169541 0.08527,-0.499532 0.110573,-1.019001 0,-1.583618 0,0 -0.114845,0.07982 -0.285254,0.07982 -0.170402,0 -0.323748,-0.09963 -0.323748,-0.09963 -0.135829,0.173973 -0.0759,0.868388 -0.02034,1.551223 z"
       id="path927"
       sodipodi:nodetypes="csccscc" />
    <path
       style="fill:#b31414;fill-opacity:0.90196079;stroke:#730c0c;stroke-width:0.065;stroke-linecap:butt;stroke-linejoin:miter;stroke-miterlimit:4;stroke-dasharray:none;stroke-opacity:0.90196079"
       d="m 19.859831,11.690728 c 0,0 0.102644,-0.11734 0.335012,-0.11734 0.232367,0 0.294331,0.16954 0.294331,0.16954 0.08527,-0.499532 0.110574,-1.019001 0,-1.583618 0,0 -0.114845,0.07982 -0.285255,0.07982 -0.170402,0 -0.323748,-0.09963 -0.323748,-0.09963 -0.135829,0.173972 -0.0759,0.868386 -0.02034,1.551222 z"
       id="path929"
       sodipodi:nodetypes="csccscc" />
    <path
       style="fill:#b31414;fill-opacity:0.90196079;stroke:#730c0c;stroke-width:0.065;stroke-linecap:butt;stroke-linejoin:miter;stroke-miterlimit:4;stroke-dasharray:none;stroke-opacity:0.90196079"
       d="m 19.761564,10.368067 c 0,0 0.102644,-0.117339 0.335013,-0.117339 0.232364,0 0.29433,0.169539 0.29433,0.169539 0.08527,-0.4995315 0.110558,-1.0189988 0,-1.5836176 0,0 -0.114845,0.079826 -0.285254,0.079826 -0.170403,0 -0.323748,-0.099632 -0.323748,-0.099632 -0.135829,0.1739729 -0.0759,0.8683877 -0.02034,1.5512206 z"
       id="path931"
       sodipodi:nodetypes="csccscc" />
    <ellipse
       style="fill:#858585;fill-opacity:1;stroke:none;stroke-width:0.0649999;stroke-linejoin:round;stroke-opacity:1"
       id="path933"
       cx="6.3571343"
       cy="12.526955"
       rx="1.2597523"
       ry="1.2559918" />
    <ellipse
       style="fill:#757575;fill-opacity:1;stroke:none;stroke-width:0.0649997;stroke-linejoin:round;stroke-opacity:1"
       id="circle935"
       cx="6.3571343"
       cy="12.555827"
       rx="0.73847538"
       ry="0.7362709" />
    <rect
       style="fill:#757575;fill-opacity:1;stroke:none;stroke-width:0.0649999;stroke-linejoin:round;stroke-opacity:1"
       id="rect937"
       width="0.17375894"
       height="1.154935"
       x="5.0394626"
       y="11.96392" />
    <g
       id="g967"
       transform="matrix(0.12999245,0,0,0.12960441,-2.9849137,-4.7179221)"
       style="stroke-width:0.385213;stroke-miterlimit:4;stroke-dasharray:none">
      <g
         id="g958"
         style="stroke-width:0.385213;stroke-miterlimit:4;stroke-dasharray:none">
        <g
           id="g945"
           style="fill:#101010;fill-opacity:1;stroke-width:0.84286;stroke-miterlimit:4;stroke-dasharray:none"
           transform="matrix(0.87590755,0,0,0.2384679,-51.655533,82.658906)">
          <path
             style="fill:#101010;fill-opacity:1;stroke:#000000;stroke-width:0.84286;stroke-linecap:butt;stroke-linejoin:miter;stroke-miterlimit:4;stroke-dasharray:none;stroke-opacity:1"
             d="m 89.401655,246.4225 v 1.73725 h 1.336347 l 0.209405,0.78151 h 2.864196 v -0.64787 h 6.815377 v 1.06907 h 3.20723 v -1.20271 h 4.67722 v -1.33635"
             id="path939" />
          <path
             style="fill:#101010;fill-opacity:1;stroke:#000000;stroke-width:0.84286;stroke-linecap:butt;stroke-linejoin:miter;stroke-miterlimit:4;stroke-dasharray:none;stroke-opacity:1"
             d="m 89.401655,247.2243 v -1.73725 h 1.336347 l 0.209405,-0.78151 h 2.864196 v 0.64787 h 6.815377 v -1.06907 h 3.20723 v 1.20271 h 4.67722 v 1.33635"
             id="path941" />
        </g>
        <path
           style="fill:none;stroke:#000000;stroke-width:0.385213;stroke-linecap:butt;stroke-linejoin:miter;stroke-miterlimit:4;stroke-dasharray:none;stroke-opacity:1"
           d="m 30.514757,141.01332 -0.955511,-2.83581"
           id="path947" />
        <path
           style="fill:none;stroke:#000000;stroke-width:0.385213;stroke-linecap:butt;stroke-linejoin:miter;stroke-miterlimit:4;stroke-dasharray:none;stroke-opacity:1"
           d="m 30.514757,142.02341 -0.554606,2.16766"
           id="path949" />
      </g>
      <path
         style="fill:#101010;fill-opacity:1;stroke:#000000;stroke-width:0.385213;stroke-linecap:butt;stroke-linejoin:miter;stroke-miterlimit:4;stroke-dasharray:none;stroke-opacity:1"
         d="m 43.390444,141.83704 2.60588,0.48315 -0.0668,-1.73725 -2.53906,0.61675"
         id="path951" />
    </g>
    <g
       id="g983"
       transform="matrix(0.02261428,0.12762816,-0.12801027,0.02254679,25.598275,-2.7384044)"
       style="stroke-width:0.385213;stroke-miterlimit:4;stroke-dasharray:none">
      <g
         id="g979"
         style="stroke-width:0.385213;stroke-miterlimit:4;stroke-dasharray:none">
        <g
           id="g973"
           style="fill:#101010;fill-opacity:1;stroke-width:0.84286;stroke-miterlimit:4;stroke-dasharray:none"
           transform="matrix(0.87590755,0,0,0.2384679,-51.655533,82.658906)">
          <path
             style="fill:#101010;fill-opacity:1;stroke:#000000;stroke-width:0.84286;stroke-linecap:butt;stroke-linejoin:miter;stroke-miterlimit:4;stroke-dasharray:none;stroke-opacity:1"
             d="m 89.401655,246.4225 v 1.73725 h 1.336347 l 0.209405,0.78151 h 2.864196 v -0.64787 h 6.815377 v 1.06907 h 3.20723 v -1.20271 h 4.67722 v -1.33635"
             id="path969" />
          <path
             style="fill:#101010;fill-opacity:1;stroke:#000000;stroke-width:0.84286;stroke-linecap:butt;stroke-linejoin:miter;stroke-miterlimit:4;stroke-dasharray:none;stroke-opacity:1"
             d="m 89.401655,247.2243 v -1.73725 h 1.336347 l 0.209405,-0.78151 h 2.864196 v 0.64787 h 6.815377 v -1.06907 h 3.20723 v 1.20271 h 4.67722 v 1.33635"
             id="path971" />
        </g>
        <path
           style="fill:none;stroke:#000000;stroke-width:0.385213;stroke-linecap:butt;stroke-linejoin:miter;stroke-miterlimit:4;stroke-dasharray:none;stroke-opacity:1"
           d="m 30.514757,141.01332 -0.955511,-2.83581"
           id="path975" />
        <path
           style="fill:none;stroke:#000000;stroke-width:0.385213;stroke-linecap:butt;stroke-linejoin:miter;stroke-miterlimit:4;stroke-dasharray:none;stroke-opacity:1"
           d="m 30.514757,142.02341 -0.554606,2.16766"
           id="path977" />
      </g>
      <path
         style="fill:#101010;fill-opacity:1;stroke:#000000;stroke-width:0.385213;stroke-linecap:butt;stroke-linejoin:miter;stroke-miterlimit:4;stroke-dasharray:none;stroke-opacity:1"
         d="m 43.390444,141.83704 2.60588,0.48315 -0.0668,-1.73725 -2.53906,0.61675"
         id="path981" />
    </g>
    <g
       id="g999"
       transform="matrix(-0.01248774,0.129005,0.12939124,0.01245046,-4.432571,-1.2404624)"
       style="stroke-width:0.385213;stroke-miterlimit:4;stroke-dasharray:none">
      <g
         id="g995"
         style="stroke-width:0.385213;stroke-miterlimit:4;stroke-dasharray:none">
        <g
           id="g989"
           style="fill:#101010;fill-opacity:1;stroke-width:0.84286;stroke-miterlimit:4;stroke-dasharray:none"
           transform="matrix(0.87590755,0,0,0.2384679,-51.655533,82.658906)">
          <path
             style="fill:#101010;fill-opacity:1;stroke:#000000;stroke-width:0.84286;stroke-linecap:butt;stroke-linejoin:miter;stroke-miterlimit:4;stroke-dasharray:none;stroke-opacity:1"
             d="m 89.401655,246.4225 v 1.73725 h 1.336347 l 0.209405,0.78151 h 2.864196 v -0.64787 h 6.815377 v 1.06907 h 3.20723 v -1.20271 h 4.67722 v -1.33635"
             id="path985" />
          <path
             style="fill:#101010;fill-opacity:1;stroke:#000000;stroke-width:0.84286;stroke-linecap:butt;stroke-linejoin:miter;stroke-miterlimit:4;stroke-dasharray:none;stroke-opacity:1"
             d="m 89.401655,247.2243 v -1.73725 h 1.336347 l 0.209405,-0.78151 h 2.864196 v 0.64787 h 6.815377 v -1.06907 h 3.20723 v 1.20271 h 4.67722 v 1.33635"
             id="path987" />
        </g>
        <path
           style="fill:none;stroke:#000000;stroke-width:0.385213;stroke-linecap:butt;stroke-linejoin:miter;stroke-miterlimit:4;stroke-dasharray:none;stroke-opacity:1"
           d="m 30.514757,141.01332 -0.955511,-2.83581"
           id="path991" />
        <path
           style="fill:none;stroke:#000000;stroke-width:0.385213;stroke-linecap:butt;stroke-linejoin:miter;stroke-miterlimit:4;stroke-dasharray:none;stroke-opacity:1"
           d="m 30.514757,142.02341 -0.554606,2.16766"
           id="path993" />
      </g>
      <path
         style="fill:#101010;fill-opacity:1;stroke:#000000;stroke-width:0.385213;stroke-linecap:butt;stroke-linejoin:miter;stroke-miterlimit:4;stroke-dasharray:none;stroke-opacity:1"
         d="m 43.390444,141.83704 2.60588,0.48315 -0.0668,-1.73725 -2.53906,0.61675"
         id="path997" />
    </g>
    <g
       id="g1015"
       transform="matrix(-0.02278702,-0.12759762,0.12797964,-0.02271899,-7.7420654,28.525838)"
       style="stroke-width:0.385213;stroke-miterlimit:4;stroke-dasharray:none">
      <g
         id="g1011"
         style="stroke-width:0.385213;stroke-miterlimit:4;stroke-dasharray:none">
        <g
           id="g1005"
           style="fill:#101010;fill-opacity:1;stroke-width:0.84286;stroke-miterlimit:4;stroke-dasharray:none"
           transform="matrix(0.87590755,0,0,0.2384679,-51.655533,82.658906)">
          <path
             style="fill:#101010;fill-opacity:1;stroke:#000000;stroke-width:0.84286;stroke-linecap:butt;stroke-linejoin:miter;stroke-miterlimit:4;stroke-dasharray:none;stroke-opacity:1"
             d="m 89.401655,246.4225 v 1.73725 h 1.336347 l 0.209405,0.78151 h 2.864196 v -0.64787 h 6.815377 v 1.06907 h 3.20723 v -1.20271 h 4.67722 v -1.33635"
             id="path1001" />
          <path
             style="fill:#101010;fill-opacity:1;stroke:#000000;stroke-width:0.84286;stroke-linecap:butt;stroke-linejoin:miter;stroke-miterlimit:4;stroke-dasharray:none;stroke-opacity:1"
             d="m 89.401655,247.2243 v -1.73725 h 1.336347 l 0.209405,-0.78151 h 2.864196 v 0.64787 h 6.815377 v -1.06907 h 3.20723 v 1.20271 h 4.67722 v 1.33635"
             id="path1003" />
        </g>
        <path
           style="fill:none;stroke:#000000;stroke-width:0.385213;stroke-linecap:butt;stroke-linejoin:miter;stroke-miterlimit:4;stroke-dasharray:none;stroke-opacity:1"
           d="m 30.514757,141.01332 -0.955511,-2.83581"
           id="path1007" />
        <path
           style="fill:none;stroke:#000000;stroke-width:0.385213;stroke-linecap:butt;stroke-linejoin:miter;stroke-miterlimit:4;stroke-dasharray:none;stroke-opacity:1"
           d="m 30.514757,142.02341 -0.554606,2.16766"
           id="path1009" />
      </g>
      <path
         style="fill:#101010;fill-opacity:1;stroke:#000000;stroke-width:0.385213;stroke-linecap:butt;stroke-linejoin:miter;stroke-miterlimit:4;stroke-dasharray:none;stroke-opacity:1"
         d="m 43.390444,141.83704 2.60588,0.48315 -0.0668,-1.73725 -2.53906,0.61675"
         id="path1013" />
    </g>
    <g
       id="g1031"
       transform="matrix(-0.12999245,0,0,-0.12960441,24.192928,27.837847)"
       style="stroke-width:0.385213;stroke-miterlimit:4;stroke-dasharray:none">
      <g
         id="g1027"
         style="stroke-width:0.385213;stroke-miterlimit:4;stroke-dasharray:none">
        <g
           id="g1021"
           style="fill:#101010;fill-opacity:1;stroke-width:0.84286;stroke-miterlimit:4;stroke-dasharray:none"
           transform="matrix(0.87590755,0,0,0.2384679,-51.655533,82.658906)">
          <path
             style="fill:#101010;fill-opacity:1;stroke:#000000;stroke-width:0.84286;stroke-linecap:butt;stroke-linejoin:miter;stroke-miterlimit:4;stroke-dasharray:none;stroke-opacity:1"
             d="m 89.401655,246.4225 v 1.73725 h 1.336347 l 0.209405,0.78151 h 2.864196 v -0.64787 h 6.815377 v 1.06907 h 3.20723 v -1.20271 h 4.67722 v -1.33635"
             id="path1017" />
          <path
             style="fill:#101010;fill-opacity:1;stroke:#000000;stroke-width:0.84286;stroke-linecap:butt;stroke-linejoin:miter;stroke-miterlimit:4;stroke-dasharray:none;stroke-opacity:1"
             d="m 89.401655,247.2243 v -1.73725 h 1.336347 l 0.209405,-0.78151 h 2.864196 v 0.64787 h 6.815377 v -1.06907 h 3.20723 v 1.20271 h 4.67722 v 1.33635"
             id="path1019" />
        </g>
        <path
           style="fill:none;stroke:#000000;stroke-width:0.385213;stroke-linecap:butt;stroke-linejoin:miter;stroke-miterlimit:4;stroke-dasharray:none;stroke-opacity:1"
           d="m 30.514757,141.01332 -0.955511,-2.83581"
           id="path1023" />
        <path
           style="fill:none;stroke:#000000;stroke-width:0.385213;stroke-linecap:butt;stroke-linejoin:miter;stroke-miterlimit:4;stroke-dasharray:none;stroke-opacity:1"
           d="m 30.514757,142.02341 -0.554606,2.16766"
           id="path1025" />
      </g>
      <path
         style="fill:#101010;fill-opacity:1;stroke:#000000;stroke-width:0.385213;stroke-linecap:butt;stroke-linejoin:miter;stroke-miterlimit:4;stroke-dasharray:none;stroke-opacity:1"
         d="m 43.390444,141.83704 2.60588,0.48315 -0.0668,-1.73725 -2.53906,0.61675"
         id="path1029" />
    </g>
    <g
       id="g1047"
       transform="matrix(-0.12454194,-0.03713584,0.03724703,-0.12417017,18.908616,33.659258)"
       style="stroke-width:0.385213;stroke-miterlimit:4;stroke-dasharray:none">
      <g
         id="g1043"
         style="stroke-width:0.385213;stroke-miterlimit:4;stroke-dasharray:none">
        <g
           id="g1037"
           style="fill:#101010;fill-opacity:1;stroke-width:0.84286;stroke-miterlimit:4;stroke-dasharray:none"
           transform="matrix(0.87590755,0,0,0.2384679,-51.655533,82.658906)">
          <path
             style="fill:#101010;fill-opacity:1;stroke:#000000;stroke-width:0.84286;stroke-linecap:butt;stroke-linejoin:miter;stroke-miterlimit:4;stroke-dasharray:none;stroke-opacity:1"
             d="m 89.401655,246.4225 v 1.73725 h 1.336347 l 0.209405,0.78151 h 2.864196 v -0.64787 h 6.815377 v 1.06907 h 3.20723 v -1.20271 h 4.67722 v -1.33635"
             id="path1033" />
          <path
             style="fill:#101010;fill-opacity:1;stroke:#000000;stroke-width:0.84286;stroke-linecap:butt;stroke-linejoin:miter;stroke-miterlimit:4;stroke-dasharray:none;stroke-opacity:1"
             d="m 89.401655,247.2243 v -1.73725 h 1.336347 l 0.209405,-0.78151 h 2.864196 v 0.64787 h 6.815377 v -1.06907 h 3.20723 v 1.20271 h 4.67722 v 1.33635"
             id="path1035" />
        </g>
        <path
           style="fill:none;stroke:#000000;stroke-width:0.385213;stroke-linecap:butt;stroke-linejoin:miter;stroke-miterlimit:4;stroke-dasharray:none;stroke-opacity:1"
           d="m 30.514757,141.01332 -0.955511,-2.83581"
           id="path1039" />
        <path
           style="fill:none;stroke:#000000;stroke-width:0.385213;stroke-linecap:butt;stroke-linejoin:miter;stroke-miterlimit:4;stroke-dasharray:none;stroke-opacity:1"
           d="m 30.514757,142.02341 -0.554606,2.16766"
           id="path1041" />
      </g>
      <path
         style="fill:#101010;fill-opacity:1;stroke:#000000;stroke-width:0.385213;stroke-linecap:butt;stroke-linejoin:miter;stroke-miterlimit:4;stroke-dasharray:none;stroke-opacity:1"
         d="m 43.390444,141.83704 2.60588,0.48315 -0.0668,-1.73725 -2.53906,0.61675"
         id="path1045" />
    </g>
    <path
       style="fill:none;fill-opacity:1;stroke:#ababab;stroke-width:0.0499999;stroke-linecap:butt;stroke-linejoin:miter;stroke-miterlimit:4;stroke-dasharray:none;stroke-opacity:1"
       d="M 5.953157,7.9922424 C 6.1443168,7.8696553 6.3921302,8.0340443 6.347075,7.7141589 6.4130412,7.4766254 6.2070185,7.4059864 6.0162439,7.3259854 5.7742493,7.3875938 5.7078348,7.5448175 5.7587312,7.765936 v 0 c 0.00585,0.1965442 0.3109797,0.3609423 0.6356938,0.4830525"
       id="path1059"
       sodipodi:nodetypes="cccccc" />
    <path
       style="fill:none;fill-opacity:1;stroke:#ababab;stroke-width:0.0499999;stroke-linecap:butt;stroke-linejoin:miter;stroke-miterlimit:4;stroke-dasharray:none;stroke-opacity:1"
       d="M 6.394425,8.2489885 C 6.5855847,8.1264015 6.7758766,8.0350489 6.7308214,7.7151589 6.7967877,7.477627 6.5907649,7.4069879 6.3999919,7.326987 6.1579957,7.3885954 6.0915828,7.545819 6.1424792,7.7669376 v 0 c 0.00585,0.1965442 0.3109797,0.3609437 0.6356937,0.4830525"
       id="path1061"
       sodipodi:nodetypes="cccccc" />
    <path
       style="fill:none;fill-opacity:1;stroke:#ababab;stroke-width:0.0499999;stroke-linecap:butt;stroke-linejoin:miter;stroke-miterlimit:4;stroke-dasharray:none;stroke-opacity:1"
       d="M 6.7781729,8.2499901 C 6.9693312,8.127403 7.1596245,8.0360505 7.1145693,7.7161605 7.1805356,7.4786285 6.9745128,7.4079895 6.7837398,7.3279885 6.5417436,7.389597 6.4753292,7.5468206 6.5262256,7.7679392 v 0 c 0.00585,0.1965441 0.3109812,0.3609437 0.6356952,0.4830525"
       id="path1063"
       sodipodi:nodetypes="cccccc" />
    <path
       style="fill:none;fill-opacity:1;stroke:#ababab;stroke-width:0.0499999;stroke-linecap:butt;stroke-linejoin:miter;stroke-miterlimit:4;stroke-dasharray:none;stroke-opacity:1"
       d="M 7.1619208,8.2509917 C 7.3530791,8.1284046 7.5433725,8.037052 7.4983173,7.7171636 7.5642835,7.4796316 7.3582608,7.4089911 7.1674877,7.3289901 6.9254915,7.3905985 6.8590771,7.5478222 6.9099735,7.7689407 v 0 c 0.00585,0.1965442 0.3109812,0.3609423 0.6356938,0.4830541"
       id="path1065"
       sodipodi:nodetypes="cccccc" />
    <path
       style="fill:none;fill-opacity:1;stroke:#ababab;stroke-width:0.0499999;stroke-linecap:butt;stroke-linejoin:miter;stroke-miterlimit:4;stroke-dasharray:none;stroke-opacity:1"
       d="M 7.5456673,8.2519948 C 7.736827,8.1294077 7.9271204,8.0380551 7.8820652,7.7181651 7.9480314,7.4806332 7.7420087,7.4099926 7.5512342,7.3299917 7.3092395,7.3916001 7.2428251,7.5488237 7.2937214,7.7699423 v 0 c 0.00585,0.1965442 0.3109797,0.3609437 0.6356938,0.483054"
       id="path1067"
       sodipodi:nodetypes="cccccc" />
    <path
       style="fill:none;fill-opacity:1;stroke:#ababab;stroke-width:0.0499999;stroke-linecap:butt;stroke-linejoin:miter;stroke-miterlimit:4;stroke-dasharray:none;stroke-opacity:1"
       d="M 7.9294152,8.2529963 C 8.1205749,8.1304092 8.3108683,8.0390552 8.2658131,7.7191667 8.3317794,7.4816347 8.1257566,7.4109957 7.9349821,7.3309947 7.6929874,7.3926032 7.626573,7.5498268 7.6774694,7.7709454 v 0 c 0.00585,0.1965441 0.3109797,0.3609422 0.6356937,0.4830525"
       id="path1069"
       sodipodi:nodetypes="cccccc" />
    <path
       style="fill:none;fill-opacity:1;stroke:#ababab;stroke-width:0.0499999;stroke-linecap:butt;stroke-linejoin:miter;stroke-miterlimit:4;stroke-dasharray:none;stroke-opacity:1"
       d="M 8.3131631,8.2539979 C 8.5043229,8.1314108 8.6946163,8.0400582 8.6495611,7.7201683 8.7155273,7.4826363 8.5095045,7.4119973 8.31873,7.3319963 8.0767338,7.3936047 8.0103209,7.5508284 8.0612173,7.7719469 v 0 c 0.00585,0.1965427 0.3109797,0.3609438 0.6356938,0.4830526"
       id="path1071"
       sodipodi:nodetypes="cccccc" />
    <path
       style="fill:none;fill-opacity:1;stroke:#ababab;stroke-width:0.0499999;stroke-linecap:butt;stroke-linejoin:miter;stroke-miterlimit:4;stroke-dasharray:none;stroke-opacity:1"
       d="M 8.6969111,8.2549995 C 8.8880708,8.1324124 9.0783627,8.0410598 9.0333075,7.7211698 9.0992737,7.4836379 8.893251,7.4129989 8.702478,7.3329979 8.4604818,7.3946063 8.3940688,7.5518299 8.4449637,7.7729485 v 0 c 0.00585,0.1965442 0.3109812,0.3609422 0.6356953,0.4830525"
       id="path1073"
       sodipodi:nodetypes="cccccc" />
    <path
       style="fill:none;fill-opacity:1;stroke:#ababab;stroke-width:0.0499999;stroke-linecap:butt;stroke-linejoin:miter;stroke-miterlimit:4;stroke-dasharray:none;stroke-opacity:1"
       d="M 9.080659,8.256001 C 9.2718172,8.1334139 9.4621106,8.0420629 9.4170554,7.7221729 9.4830217,7.4846394 9.2769989,7.4140004 9.0862259,7.3339994 8.8442297,7.3956079 8.7778153,7.5528315 8.8287117,7.7739501 v 0 c 0.00585,0.1965441 0.3109812,0.3609422 0.6356937,0.483054"
       id="path1075"
       sodipodi:nodetypes="cccccc" />
    <path
       style="fill:none;fill-opacity:1;stroke:#ababab;stroke-width:0.0499999;stroke-linecap:butt;stroke-linejoin:miter;stroke-miterlimit:4;stroke-dasharray:none;stroke-opacity:1"
       d="M 9.4644054,8.2570041 C 9.6555652,8.134417 9.8458586,8.0430644 9.8008033,7.7231745 9.8667696,7.4856425 9.6607468,7.415002 9.4699738,7.335001 9.2279776,7.3966094 9.1615632,7.5538331 9.2124596,7.7749516 v 0 c 0.00585,0.1965457 0.3109797,0.3609438 0.6356938,0.4830541"
       id="path1077"
       sodipodi:nodetypes="cccccc" />
    <path
       style="fill:none;fill-opacity:1;stroke:#ababab;stroke-width:0.0499999;stroke-linecap:butt;stroke-linejoin:miter;stroke-miterlimit:4;stroke-dasharray:none;stroke-opacity:1"
       d="M 9.8481534,8.2580057 C 10.039313,8.1354186 10.229606,8.0440645 10.184551,7.7241761 10.250518,7.4866441 10.044495,7.4160051 9.8537202,7.3360026 9.6117256,7.397611 9.5453111,7.5548361 9.5962075,7.7759532 v 0 c 0.00585,0.1965457 0.3109797,0.3609437 0.6356935,0.4830555"
       id="path1079"
       sodipodi:nodetypes="cccccc" />
    <path
       style="fill:none;fill-opacity:1;stroke:#ababab;stroke-width:0.0499999;stroke-linecap:butt;stroke-linejoin:miter;stroke-miterlimit:4;stroke-dasharray:none;stroke-opacity:1"
       d="m 10.231901,8.2590087 c 0.191159,-0.1225871 0.381453,-0.2139411 0.336397,-0.5338311 0.06597,-0.237532 -0.140057,-0.308171 -0.33083,-0.388172 -0.2419945,0.061608 -0.3084104,0.2188321 -0.257514,0.4399507 v 0 c 0.00585,0.1965426 0.310981,0.3609422 0.635695,0.483051"
       id="path1081"
       sodipodi:nodetypes="cccccc" />
    <path
       style="fill:none;fill-opacity:1;stroke:#ababab;stroke-width:0.0499999;stroke-linecap:butt;stroke-linejoin:miter;stroke-miterlimit:4;stroke-dasharray:none;stroke-opacity:1"
       d="m 16.004418,9.3691401 c 0.12096,0.1918527 0.210603,0.3825149 0.531901,0.3409199 0.237545,0.068236 0.310533,-0.1364261 0.39275,-0.3257914 C 16.869803,9.1423675 16.7128,9.0745233 16.490503,9.1229674 v 0 c -0.197183,0.00375 -0.365234,0.3062848 -0.491078,0.6287431"
       id="path1083"
       sodipodi:nodetypes="cccccc" />
    <path
       style="fill:none;fill-opacity:1;stroke:#ababab;stroke-width:0.0499999;stroke-linecap:butt;stroke-linejoin:miter;stroke-miterlimit:4;stroke-dasharray:none;stroke-opacity:1"
       d="m 10.999397,8.2610104 c 0.191158,-0.1225871 0.381452,-0.2139367 0.336397,-0.5338281 0.06597,-0.2375335 -0.140057,-0.3081725 -0.33083,-0.3881735 -0.241996,0.061608 -0.308411,0.218832 -0.257513,0.4399506 v 0 c 0.0058,0.1965442 0.310979,0.3609437 0.635694,0.4830525"
       id="path1085"
       sodipodi:nodetypes="cccccc" />
    <path
       style="fill:none;fill-opacity:1;stroke:#ababab;stroke-width:0.0499999;stroke-linecap:butt;stroke-linejoin:miter;stroke-miterlimit:4;stroke-dasharray:none;stroke-opacity:1"
       d="M 11.383145,8.2620119 C 11.574303,8.1394248 11.764597,8.0480738 11.71954,7.7281838 11.78551,7.4906518 11.579484,7.4200113 11.388712,7.3400104 11.146716,7.4016184 11.080301,7.5588424 11.131198,7.779961 v 0 c 0.0058,0.1965456 0.310979,0.3609437 0.635694,0.483054"
       id="path1087"
       sodipodi:nodetypes="cccccc" />
    <path
       style="fill:none;fill-opacity:1;stroke:#ababab;stroke-width:0.0499999;stroke-linecap:butt;stroke-linejoin:miter;stroke-miterlimit:4;stroke-dasharray:none;stroke-opacity:1"
       d="m 11.766892,8.263015 c 0.191159,-0.1225871 0.381453,-0.2139397 0.336397,-0.5338296 0.06597,-0.237532 -0.140056,-0.308171 -0.330829,-0.3881735 -0.241998,0.061608 -0.308412,0.2188321 -0.257514,0.4399506 v 0 c 0.0058,0.1965442 0.310978,0.3609423 0.635693,0.4830541"
       id="path1089"
       sodipodi:nodetypes="cccccc" />
    <path
       style="fill:none;fill-opacity:1;stroke:#ababab;stroke-width:0.0499999;stroke-linecap:butt;stroke-linejoin:miter;stroke-miterlimit:4;stroke-dasharray:none;stroke-opacity:1"
       d="M 12.150639,8.2640166 C 12.341798,8.1414295 12.532091,8.0500784 12.487037,7.730187 12.553004,7.492655 12.346981,7.422016 12.156206,7.342015 11.914212,7.4036234 11.847797,7.560847 11.898694,7.7819656 v 0 c 0.0058,0.1965442 0.310978,0.3609422 0.635693,0.4830525"
       id="path1091"
       sodipodi:nodetypes="cccccc" />
    <path
       style="fill:none;fill-opacity:1;stroke:#ababab;stroke-width:0.0499999;stroke-linecap:butt;stroke-linejoin:miter;stroke-miterlimit:4;stroke-dasharray:none;stroke-opacity:1"
       d="M 12.534387,8.2650181 C 12.725546,8.142431 12.915839,8.05108 12.870784,7.7311885 12.93675,7.4936565 12.730727,7.4230175 12.539953,7.3430166 12.29796,7.404625 12.231545,7.5618486 12.28244,7.7829672 v 0 c 0.0058,0.1965442 0.31098,0.3609422 0.635695,0.4830525"
       id="path1093"
       sodipodi:nodetypes="cccccc" />
    <path
       style="fill:none;fill-opacity:1;stroke:#ababab;stroke-width:0.0499999;stroke-linecap:butt;stroke-linejoin:miter;stroke-miterlimit:4;stroke-dasharray:none;stroke-opacity:1"
       d="m 12.918135,8.2660197 c 0.191159,-0.1225871 0.381452,-0.2139382 0.336397,-0.5338296 0.06597,-0.237532 -0.140057,-0.308171 -0.330831,-0.388172 -0.241995,0.061608 -0.308408,0.2188321 -0.257513,0.4399506 v 0 c 0.0058,0.1965442 0.31098,0.3609438 0.635695,0.4830526"
       id="path1095"
       sodipodi:nodetypes="cccccc" />
    <path
       style="fill:none;fill-opacity:1;stroke:#ababab;stroke-width:0.0499999;stroke-linecap:butt;stroke-linejoin:miter;stroke-miterlimit:4;stroke-dasharray:none;stroke-opacity:1"
       d="M 13.301883,8.2670213 C 13.49304,8.1444342 13.683333,8.0530831 13.63828,7.7331932 13.704246,7.4956597 13.498223,7.4250207 13.307449,7.3450197 13.065454,7.4066281 12.99904,7.5638517 13.049937,7.7849703 v 0 c 0.0057,0.1965457 0.310979,0.3609437 0.635694,0.483054"
       id="path1097"
       sodipodi:nodetypes="cccccc" />
    <path
       style="fill:none;fill-opacity:1;stroke:#ababab;stroke-width:0.0499999;stroke-linecap:butt;stroke-linejoin:miter;stroke-miterlimit:4;stroke-dasharray:none;stroke-opacity:1"
       d="m 13.685631,8.2680243 c 0.191158,-0.1225871 0.381452,-0.2139381 0.336395,-0.5338296 0.06597,-0.237532 -0.140056,-0.3081725 -0.330829,-0.3881734 -0.241995,0.061608 -0.30841,0.218832 -0.257513,0.4399506 v 0 c 0.0058,0.1965442 0.31098,0.3609437 0.635694,0.483054"
       id="path1099"
       sodipodi:nodetypes="cccccc" />
    <path
       style="fill:none;fill-opacity:1;stroke:#ababab;stroke-width:0.0499999;stroke-linecap:butt;stroke-linejoin:miter;stroke-miterlimit:4;stroke-dasharray:none;stroke-opacity:1"
       d="m 14.069378,8.2690259 c 0.191159,-0.1225871 0.381453,-0.2139382 0.336398,-0.5338296 0.06597,-0.237532 -0.140057,-0.308171 -0.330832,-0.388172 -0.241996,0.061608 -0.308409,0.2188321 -0.257512,0.4399506 v 0 c 0.0058,0.1965442 0.310981,0.3609438 0.635692,0.4830526"
       id="path1101"
       sodipodi:nodetypes="cccccc" />
    <path
       style="fill:none;fill-opacity:1;stroke:#ababab;stroke-width:0.0499999;stroke-linecap:butt;stroke-linejoin:miter;stroke-miterlimit:4;stroke-dasharray:none;stroke-opacity:1"
       d="m 14.453124,8.2700275 c 0.19116,-0.1225871 0.381455,-0.2139397 0.336399,-0.5338296 0.06597,-0.237532 -0.140056,-0.308171 -0.330831,-0.388172 -0.241996,0.061608 -0.30841,0.218832 -0.257512,0.4399506 v 0 c 0.0057,0.1965457 0.310979,0.3609437 0.635693,0.483054"
       id="path1103"
       sodipodi:nodetypes="cccccc" />
    <path
       style="fill:none;fill-opacity:1;stroke:#ababab;stroke-width:0.0499999;stroke-linecap:butt;stroke-linejoin:miter;stroke-miterlimit:4;stroke-dasharray:none;stroke-opacity:1"
       d="m 14.836873,8.2710305 c 0.191159,-0.1225871 0.381452,-0.2139396 0.336397,-0.5338311 0.06597,-0.237532 -0.140057,-0.308171 -0.33083,-0.3881719 -0.241994,0.061608 -0.308409,0.218832 -0.257514,0.4399491 v 0 c 0.0058,0.1965457 0.310981,0.3609452 0.635694,0.4830525"
       id="path1105"
       sodipodi:nodetypes="cccccc" />
    <path
       style="fill:none;fill-opacity:1;stroke:#ababab;stroke-width:0.0499999;stroke-linecap:butt;stroke-linejoin:miter;stroke-miterlimit:4;stroke-dasharray:none;stroke-opacity:1"
       d="M 15.22062,8.2720291 C 15.411781,8.149442 15.602072,8.0580924 15.557018,7.738201 15.622984,7.500669 15.416961,7.43003 15.226187,7.350029 14.984191,7.4116374 14.917779,7.5688611 14.968674,7.7899797 v 0 c 0.0058,0.1965441 0.31098,0.3609437 0.635694,0.4830525"
       id="path1107"
       sodipodi:nodetypes="cccccc" />
    <path
       style="fill:none;fill-opacity:1;stroke:#ababab;stroke-width:0.0499999;stroke-linecap:butt;stroke-linejoin:miter;stroke-miterlimit:4;stroke-dasharray:none;stroke-opacity:1"
       d="m 15.604368,8.2730322 c 0.191158,-0.1225871 0.438974,0.041802 0.393918,-0.2780835 0.06597,-0.2375335 -0.140057,-0.3081725 -0.33083,-0.3881735 -0.241996,0.061608 -0.308412,0.2188321 -0.257514,0.4399506 v 0 c 0.0058,0.1965442 -0.123194,0.3059955 0.20152,0.4281043"
       id="path1109"
       sodipodi:nodetypes="cccccc" />
    <path
       style="fill:none;fill-opacity:1;stroke:#ababab;stroke-width:0.0499999;stroke-linecap:butt;stroke-linejoin:miter;stroke-miterlimit:4;stroke-dasharray:none;stroke-opacity:1"
       d="m 16.009409,8.9865682 c 0.120961,0.1918512 0.210605,0.3825164 0.531903,0.3409229 0.237546,0.068236 0.310532,-0.1364411 0.39275,-0.3257929 C 16.874796,8.7597986 16.71779,8.6919514 16.495494,8.7403955 v 0 c -0.197181,0.00375 -0.365235,0.3062848 -0.491076,0.6287446"
       id="path1111"
       sodipodi:nodetypes="cccccc" />
    <path
       style="fill:none;fill-opacity:1;stroke:#ababab;stroke-width:0.0499999;stroke-linecap:butt;stroke-linejoin:miter;stroke-miterlimit:4;stroke-dasharray:none;stroke-opacity:1"
       d="m 10.231901,8.2590087 c 0.191159,-0.1225871 0.381453,-0.2139411 0.336397,-0.5338311 0.06597,-0.237532 -0.140057,-0.308171 -0.33083,-0.388172 -0.2419945,0.061608 -0.3084104,0.2188321 -0.257514,0.4399507 v 0 c 0.00585,0.1965426 0.310981,0.3609422 0.635695,0.483051"
       id="path1113"
       sodipodi:nodetypes="cccccc" />
    <path
       style="fill:none;fill-opacity:1;stroke:#ababab;stroke-width:0.0499999;stroke-linecap:butt;stroke-linejoin:miter;stroke-miterlimit:4;stroke-dasharray:none;stroke-opacity:1"
       d="m 15.999425,9.7517105 c 0.120961,0.1918527 0.210603,0.3825145 0.531901,0.3409215 0.237546,0.06823 0.310533,-0.1364263 0.392751,-0.3257915 -0.05927,-0.2419011 -0.21627,-0.3097469 -0.438566,-0.2613028 v 0 c -0.197184,0.00375 -0.365236,0.3062849 -0.491079,0.6287443"
       id="path1115"
       sodipodi:nodetypes="cccccc" />
    <path
       style="fill:none;fill-opacity:1;stroke:#ababab;stroke-width:0.0499999;stroke-linecap:butt;stroke-linejoin:miter;stroke-miterlimit:4;stroke-dasharray:none;stroke-opacity:1"
       d="m 15.994432,10.134282 c 0.120961,0.191852 0.210605,0.382514 0.531903,0.340922 0.237545,0.06823 0.310532,-0.136441 0.39275,-0.325792 -0.05927,-0.2419022 -0.21627,-0.3097465 -0.438567,-0.2613039 v 0 c -0.197185,0.00375 -0.365236,0.3062849 -0.491079,0.6287449"
       id="path1117"
       sodipodi:nodetypes="cccccc" />
    <path
       style="fill:none;fill-opacity:1;stroke:#ababab;stroke-width:0.0499999;stroke-linecap:butt;stroke-linejoin:miter;stroke-miterlimit:4;stroke-dasharray:none;stroke-opacity:1"
       d="m 15.989439,10.516853 c 0.120961,0.191852 0.210605,0.382515 0.531903,0.340921 0.237545,0.06824 0.310532,-0.136441 0.392751,-0.325793 -0.05927,-0.241899 -0.216271,-0.309745 -0.438567,-0.261301 v 0 c -0.197184,0.0037 -0.365237,0.306285 -0.491078,0.628743"
       id="path1119"
       sodipodi:nodetypes="cccccc" />
    <path
       style="fill:none;fill-opacity:1;stroke:#ababab;stroke-width:0.0499999;stroke-linecap:butt;stroke-linejoin:miter;stroke-miterlimit:4;stroke-dasharray:none;stroke-opacity:1"
       d="m 15.984448,10.899423 c 0.120961,0.191854 0.210603,0.382517 0.531901,0.340922 0.237545,0.06823 0.310532,-0.136427 0.392751,-0.325792 -0.05927,-0.241901 -0.216271,-0.309747 -0.438569,-0.261301 v 0 c -0.197182,0.0037 -0.365233,0.306283 -0.491077,0.628743"
       id="path1121"
       sodipodi:nodetypes="cccccc" />
    <path
       style="fill:none;fill-opacity:1;stroke:#ababab;stroke-width:0.0499999;stroke-linecap:butt;stroke-linejoin:miter;stroke-miterlimit:4;stroke-dasharray:none;stroke-opacity:1"
       d="m 15.979454,11.281995 c 0.12096,0.191853 0.210603,0.382515 0.531903,0.340921 0.237544,0.06824 0.310531,-0.136441 0.39275,-0.325791 -0.05927,-0.241901 -0.216271,-0.309747 -0.438567,-0.261303 v 0 c -0.197184,0.0037 -0.365235,0.306285 -0.491079,0.628745"
       id="path1123"
       sodipodi:nodetypes="cccccc" />
    <path
       style="fill:none;fill-opacity:1;stroke:#ababab;stroke-width:0.0499999;stroke-linecap:butt;stroke-linejoin:miter;stroke-miterlimit:4;stroke-dasharray:none;stroke-opacity:1"
       d="m 10.615649,8.2600073 c 0.191158,-0.1225871 0.381453,-0.2139367 0.336397,-0.5338281 0.06597,-0.237532 -0.140057,-0.3081725 -0.33083,-0.3881735 -0.241996,0.061608 -0.30841,0.2188321 -0.257514,0.4399506 v 0 c 0.0058,0.1965442 0.31098,0.3609438 0.635695,0.4830526"
       id="path1125"
       sodipodi:nodetypes="cccccc" />
    <path
       style="fill:none;fill-opacity:1;stroke:#ababab;stroke-width:0.0499999;stroke-linecap:butt;stroke-linejoin:miter;stroke-miterlimit:4;stroke-dasharray:none;stroke-opacity:1"
       d="m 6.0303365,17.600544 c 0.1906876,0.123307 0.439129,-0.04014 0.3928507,0.27958 0.065052,0.237782 -0.1412406,0.307639 -0.3323134,0.386912 -0.2417579,-0.06252 -0.3075697,-0.220003 -0.255828,-0.440926 v 0 c 0.0066,-0.196522 0.3123587,-0.359758 0.6375359,-0.480633"
       id="path1127"
       sodipodi:nodetypes="cccccc" />
    <path
       style="fill:none;fill-opacity:1;stroke:#ababab;stroke-width:0.0499999;stroke-linecap:butt;stroke-linejoin:miter;stroke-miterlimit:4;stroke-dasharray:none;stroke-opacity:1"
       d="m 6.4725817,17.345477 c 0.1906891,0.123307 0.3806318,0.21539 0.3343535,0.535106 0.065052,0.237781 -0.1412407,0.307637 -0.3323135,0.386912 C 6.2328639,18.204972 6.167052,18.047492 6.2187938,17.826568 v 0 c 0.0066,-0.196521 0.3123586,-0.35976 0.6375374,-0.480634"
       id="path1129"
       sodipodi:nodetypes="cccccc" />
    <path
       style="fill:none;fill-opacity:1;stroke:#ababab;stroke-width:0.0499999;stroke-linecap:butt;stroke-linejoin:miter;stroke-miterlimit:4;stroke-dasharray:none;stroke-opacity:1"
       d="m 6.8563312,17.345934 c 0.190689,0.123307 0.3806317,0.21539 0.3343519,0.535106 0.065052,0.237781 -0.1412406,0.307637 -0.332312,0.386911 -0.2417578,-0.06252 -0.3075712,-0.220003 -0.2558279,-0.440925 v 0 c 0.0066,-0.19652 0.3123572,-0.359761 0.6375374,-0.480633"
       id="path1131"
       sodipodi:nodetypes="cccccc" />
    <path
       style="fill:none;fill-opacity:1;stroke:#ababab;stroke-width:0.0499999;stroke-linecap:butt;stroke-linejoin:miter;stroke-miterlimit:4;stroke-dasharray:none;stroke-opacity:1"
       d="m 7.2400806,17.346393 c 0.1906876,0.123307 0.3806302,0.21539 0.3343519,0.535104 0.065052,0.237781 -0.1412406,0.307638 -0.3323119,0.386911 -0.2417594,-0.06252 -0.3075712,-0.220003 -0.2558295,-0.440925 v 0 c 0.0066,-0.19652 0.3123587,-0.359759 0.6375374,-0.480632"
       id="path1133"
       sodipodi:nodetypes="cccccc" />
    <path
       style="fill:none;fill-opacity:1;stroke:#ababab;stroke-width:0.0499999;stroke-linecap:butt;stroke-linejoin:miter;stroke-miterlimit:4;stroke-dasharray:none;stroke-opacity:1"
       d="m 7.6238285,17.346851 c 0.1906891,0.123306 0.3806317,0.215388 0.3343534,0.535104 0.065052,0.23778 -0.1412406,0.307637 -0.3323134,0.386911 -0.2417578,-0.06252 -0.3075697,-0.220003 -0.255828,-0.440926 v 0 c 0.0066,-0.19652 0.3123572,-0.359759 0.6375359,-0.480632"
       id="path1135"
       sodipodi:nodetypes="cccccc" />
    <path
       style="fill:none;fill-opacity:1;stroke:#ababab;stroke-width:0.0499999;stroke-linecap:butt;stroke-linejoin:miter;stroke-miterlimit:4;stroke-dasharray:none;stroke-opacity:1"
       d="m 8.0075764,17.347308 c 0.1906891,0.123307 0.3806318,0.215389 0.3343535,0.535104 0.065052,0.237781 -0.1412407,0.307637 -0.3323135,0.386912 C 7.7678586,18.206801 7.7020467,18.04932 7.7537885,17.828398 v 0 c 0.0066,-0.196522 0.3123587,-0.359758 0.6375374,-0.480634"
       id="path1137"
       sodipodi:nodetypes="cccccc" />
    <path
       style="fill:none;fill-opacity:1;stroke:#ababab;stroke-width:0.0499999;stroke-linecap:butt;stroke-linejoin:miter;stroke-miterlimit:4;stroke-dasharray:none;stroke-opacity:1"
       d="m 8.3913259,17.347764 c 0.1906891,0.123306 0.3806317,0.215389 0.3343534,0.535105 0.065052,0.237781 -0.1412406,0.307637 -0.3323134,0.386913 -0.2417579,-0.06252 -0.3075698,-0.220005 -0.255828,-0.440927 v 0 c 0.0066,-0.19652 0.3123587,-0.359759 0.6375374,-0.480634"
       id="path1139"
       sodipodi:nodetypes="cccccc" />
    <path
       style="fill:none;fill-opacity:1;stroke:#ababab;stroke-width:0.0499999;stroke-linecap:butt;stroke-linejoin:miter;stroke-miterlimit:4;stroke-dasharray:none;stroke-opacity:1"
       d="m 8.7750753,17.348221 c 0.1906876,0.123307 0.3806302,0.215389 0.3343519,0.535106 0.065052,0.23778 -0.1412406,0.307637 -0.3323134,0.386912 -0.2417579,-0.06252 -0.3075697,-0.220003 -0.255828,-0.440927 v 0 c 0.0066,-0.196521 0.3123587,-0.359757 0.6375374,-0.480634"
       id="path1141"
       sodipodi:nodetypes="cccccc" />
    <path
       style="fill:none;fill-opacity:1;stroke:#ababab;stroke-width:0.0499999;stroke-linecap:butt;stroke-linejoin:miter;stroke-miterlimit:4;stroke-dasharray:none;stroke-opacity:1"
       d="m 9.1588232,17.348678 c 0.1906891,0.123307 0.3806318,0.21539 0.3343535,0.535104 0.065052,0.237784 -0.1412407,0.307639 -0.3323135,0.386913 C 8.9191054,18.208172 8.8532935,18.050693 8.9050338,17.82977 v 0 c 0.0066,-0.196522 0.3123587,-0.359758 0.6375374,-0.480633"
       id="path1143"
       sodipodi:nodetypes="cccccc" />
    <path
       style="fill:none;fill-opacity:1;stroke:#ababab;stroke-width:0.0499999;stroke-linecap:butt;stroke-linejoin:miter;stroke-miterlimit:4;stroke-dasharray:none;stroke-opacity:1"
       d="m 9.5425712,17.349137 c 0.1906891,0.123307 0.3806317,0.215388 0.3343534,0.535104 0.065052,0.237782 -0.1412406,0.307637 -0.3323119,0.386911 -0.2417594,-0.06252 -0.3075713,-0.220001 -0.2558295,-0.440925 v 0 c 0.0066,-0.196522 0.3123587,-0.359759 0.6375374,-0.480633"
       id="path1145"
       sodipodi:nodetypes="cccccc" />
    <path
       style="fill:none;fill-opacity:1;stroke:#ababab;stroke-width:0.0499999;stroke-linecap:butt;stroke-linejoin:miter;stroke-miterlimit:4;stroke-dasharray:none;stroke-opacity:1"
       d="m 9.9263206,17.349594 c 0.1906894,0.123307 0.3806314,0.21539 0.3343534,0.535104 0.06505,0.237783 -0.141241,0.307636 -0.3323134,0.386911 -0.2417579,-0.06252 -0.3075697,-0.220001 -0.255828,-0.440925 v 0 c 0.0066,-0.19652 0.3123587,-0.359759 0.6375374,-0.480634"
       id="path1147"
       sodipodi:nodetypes="cccccc" />
    <path
       style="fill:none;fill-opacity:1;stroke:#ababab;stroke-width:0.0499999;stroke-linecap:butt;stroke-linejoin:miter;stroke-miterlimit:4;stroke-dasharray:none;stroke-opacity:1"
       d="m 10.31007,17.35005 c 0.190689,0.123307 0.380632,0.21539 0.334352,0.535106 0.06505,0.237782 -0.141241,0.307637 -0.332312,0.386911 -0.241759,-0.06252 -0.307571,-0.220002 -0.255829,-0.440927 v 0 c 0.0066,-0.196519 0.312358,-0.359756 0.637537,-0.480631"
       id="path1149"
       sodipodi:nodetypes="cccccc" />
    <path
       style="fill:none;fill-opacity:1;stroke:#ababab;stroke-width:0.0499999;stroke-linecap:butt;stroke-linejoin:miter;stroke-miterlimit:4;stroke-dasharray:none;stroke-opacity:1"
       d="m 11.077567,17.350965 c 0.190688,0.123307 0.380631,0.215386 0.334354,0.535105 0.06505,0.237781 -0.141241,0.307638 -0.332314,0.386913 -0.241757,-0.06252 -0.307569,-0.220003 -0.255828,-0.440927 v 0 c 0.0066,-0.196522 0.312358,-0.359759 0.637536,-0.480634"
       id="path1153"
       sodipodi:nodetypes="cccccc" />
    <path
       style="fill:none;fill-opacity:1;stroke:#ababab;stroke-width:0.0499999;stroke-linecap:butt;stroke-linejoin:miter;stroke-miterlimit:4;stroke-dasharray:none;stroke-opacity:1"
       d="m 11.461315,17.351422 c 0.190689,0.123307 0.380632,0.215388 0.334354,0.535104 0.06505,0.237784 -0.141241,0.307639 -0.332314,0.386914 -0.241756,-0.06252 -0.307569,-0.220003 -0.255829,-0.440927 v 0 c 0.0066,-0.196521 0.31236,-0.359759 0.637539,-0.480634"
       id="path1155"
       sodipodi:nodetypes="cccccc" />
    <path
       style="fill:none;fill-opacity:1;stroke:#ababab;stroke-width:0.0499999;stroke-linecap:butt;stroke-linejoin:miter;stroke-miterlimit:4;stroke-dasharray:none;stroke-opacity:1"
       d="m 11.845065,17.351879 c 0.190687,0.123307 0.380631,0.21539 0.334353,0.535106 0.06505,0.237782 -0.14124,0.307637 -0.332313,0.386912 -0.241758,-0.06252 -0.307571,-0.220003 -0.25583,-0.440926 v 0 c 0.0066,-0.19652 0.312359,-0.359758 0.637539,-0.480633"
       id="path1157"
       sodipodi:nodetypes="cccccc" />
    <path
       style="fill:none;fill-opacity:1;stroke:#ababab;stroke-width:0.0499999;stroke-linecap:butt;stroke-linejoin:miter;stroke-miterlimit:4;stroke-dasharray:none;stroke-opacity:1"
       d="m 12.228814,17.352338 c 0.190686,0.123307 0.38063,0.215387 0.334352,0.535104 0.06505,0.237783 -0.141241,0.307636 -0.332313,0.386913 -0.241757,-0.06252 -0.30757,-0.220003 -0.255828,-0.440927 v 0 c 0.0064,-0.19652 0.312358,-0.359759 0.637537,-0.480631"
       id="path1159"
       sodipodi:nodetypes="cccccc" />
    <path
       style="fill:none;fill-opacity:1;stroke:#ababab;stroke-width:0.0499999;stroke-linecap:butt;stroke-linejoin:miter;stroke-miterlimit:4;stroke-dasharray:none;stroke-opacity:1"
       d="m 12.612562,17.352797 c 0.190688,0.123307 0.380632,0.215385 0.334352,0.535103 0.06505,0.237782 -0.141241,0.307637 -0.332313,0.386912 -0.241755,-0.06252 -0.30757,-0.220003 -0.255828,-0.440927 v 0 c 0.0066,-0.196521 0.312358,-0.359759 0.637537,-0.480632"
       id="path1161"
       sodipodi:nodetypes="cccccc" />
    <path
       style="fill:none;fill-opacity:1;stroke:#ababab;stroke-width:0.0499999;stroke-linecap:butt;stroke-linejoin:miter;stroke-miterlimit:4;stroke-dasharray:none;stroke-opacity:1"
       d="m 12.99631,17.353253 c 0.190689,0.123307 0.380632,0.215386 0.334353,0.535105 0.06505,0.23778 -0.14124,0.307636 -0.332313,0.386911 -0.241758,-0.06252 -0.30757,-0.220003 -0.255828,-0.440926 v 0 c 0.0066,-0.196522 0.312357,-0.35976 0.637537,-0.480633"
       id="path1163"
       sodipodi:nodetypes="cccccc" />
    <path
       style="fill:none;fill-opacity:1;stroke:#ababab;stroke-width:0.0499999;stroke-linecap:butt;stroke-linejoin:miter;stroke-miterlimit:4;stroke-dasharray:none;stroke-opacity:1"
       d="m 13.380059,17.35371 c 0.190687,0.123307 0.380631,0.215387 0.334354,0.535106 0.06505,0.237779 -0.141241,0.307635 -0.332314,0.386912 -0.241757,-0.06252 -0.307571,-0.220006 -0.255827,-0.44093 v 0 c 0.0064,-0.19652 0.312357,-0.359756 0.637537,-0.480631"
       id="path1165"
       sodipodi:nodetypes="cccccc" />
    <path
       style="fill:none;fill-opacity:1;stroke:#ababab;stroke-width:0.0499999;stroke-linecap:butt;stroke-linejoin:miter;stroke-miterlimit:4;stroke-dasharray:none;stroke-opacity:1"
       d="m 13.763809,17.354167 c 0.190686,0.123307 0.38063,0.215387 0.33435,0.535104 0.06505,0.237783 -0.14124,0.307638 -0.332312,0.386913 -0.241756,-0.06252 -0.307569,-0.220003 -0.255828,-0.440927 v 0 c 0.0066,-0.196521 0.312359,-0.359757 0.637538,-0.480632"
       id="path1167"
       sodipodi:nodetypes="cccccc" />
    <path
       style="fill:none;fill-opacity:1;stroke:#ababab;stroke-width:0.0499999;stroke-linecap:butt;stroke-linejoin:miter;stroke-miterlimit:4;stroke-dasharray:none;stroke-opacity:1"
       d="m 14.147557,17.354625 c 0.190687,0.123306 0.380632,0.215386 0.334352,0.535104 0.06505,0.237782 -0.141241,0.307637 -0.332312,0.386912 -0.241758,-0.06252 -0.307571,-0.220003 -0.255828,-0.440926 v 0 c 0.0066,-0.196522 0.312359,-0.35976 0.637536,-0.480633"
       id="path1169"
       sodipodi:nodetypes="cccccc" />
    <path
       style="fill:none;fill-opacity:1;stroke:#ababab;stroke-width:0.0499999;stroke-linecap:butt;stroke-linejoin:miter;stroke-miterlimit:4;stroke-dasharray:none;stroke-opacity:1"
       d="m 14.531305,17.355082 c 0.190689,0.123307 0.380631,0.215388 0.334353,0.535104 0.06505,0.237782 -0.14124,0.307636 -0.332312,0.386913 -0.241759,-0.06252 -0.307571,-0.220003 -0.255829,-0.440927 v 0 c 0.0064,-0.196522 0.312358,-0.359759 0.637537,-0.480633"
       id="path1171"
       sodipodi:nodetypes="cccccc" />
    <path
       style="fill:none;fill-opacity:1;stroke:#ababab;stroke-width:0.0499999;stroke-linecap:butt;stroke-linejoin:miter;stroke-miterlimit:4;stroke-dasharray:none;stroke-opacity:1"
       d="m 14.915054,17.355539 c 0.190688,0.123307 0.38063,0.215387 0.334352,0.535106 0.06505,0.237779 -0.141241,0.307634 -0.33231,0.386911 -0.24176,-0.06252 -0.307572,-0.220003 -0.255831,-0.440927 v 0 c 0.0066,-0.19652 0.31236,-0.359759 0.637537,-0.480631"
       id="path1173"
       sodipodi:nodetypes="cccccc" />
    <path
       style="fill:none;fill-opacity:1;stroke:#ababab;stroke-width:0.0499999;stroke-linecap:butt;stroke-linejoin:miter;stroke-miterlimit:4;stroke-dasharray:none;stroke-opacity:1"
       d="m 15.298802,17.355998 c 0.190691,0.123307 0.38063,0.215385 0.334352,0.535104 0.06505,0.23778 -0.141241,0.307636 -0.332312,0.386911 -0.241759,-0.06252 -0.307568,-0.220003 -0.255828,-0.440927 v 0 c 0.0066,-0.196521 0.312359,-0.359757 0.637538,-0.480632"
       id="path1175"
       sodipodi:nodetypes="cccccc" />
    <path
       style="fill:none;fill-opacity:1;stroke:#ababab;stroke-width:0.0499999;stroke-linecap:butt;stroke-linejoin:miter;stroke-miterlimit:4;stroke-dasharray:none;stroke-opacity:1"
       d="m 15.682552,17.356454 c 0.190687,0.123307 0.43913,-0.04014 0.39285,0.27958 0.06505,0.237782 -0.14124,0.307638 -0.332313,0.386914 -0.241757,-0.06252 -0.307571,-0.220005 -0.25583,-0.440928 v 0 c 0.0066,-0.196522 0.04961,-0.367074 0.374798,-0.487948"
       id="path1177"
       sodipodi:nodetypes="cccccc" />
    <path
       style="fill:none;fill-opacity:1;stroke:#ababab;stroke-width:0.0499999;stroke-linecap:butt;stroke-linejoin:miter;stroke-miterlimit:4;stroke-dasharray:none;stroke-opacity:1"
       d="m 10.31007,17.35005 c 0.190689,0.123307 0.380632,0.21539 0.334352,0.535106 0.06505,0.237782 -0.141241,0.307637 -0.332312,0.386911 -0.241759,-0.06252 -0.307571,-0.220002 -0.255829,-0.440927 v 0 c 0.0066,-0.196519 0.312358,-0.359756 0.637537,-0.480631"
       id="path1181"
       sodipodi:nodetypes="cccccc" />
    <path
       style="fill:none;fill-opacity:1;stroke:#ababab;stroke-width:0.0499999;stroke-linecap:butt;stroke-linejoin:miter;stroke-miterlimit:4;stroke-dasharray:none;stroke-opacity:1"
       d="m 10.693818,17.350509 c 0.190689,0.123307 0.380633,0.215387 0.334353,0.535104 0.06505,0.237782 -0.14124,0.307639 -0.332312,0.386913 -0.241759,-0.06252 -0.307572,-0.220004 -0.255829,-0.440927 v 0 c 0.0064,-0.19652 0.312357,-0.359758 0.637537,-0.480633"
       id="path1193"
       sodipodi:nodetypes="cccccc" />
    <path
       style="fill:none;fill-opacity:1;stroke:#ababab;stroke-width:0.0499999;stroke-linecap:butt;stroke-linejoin:miter;stroke-miterlimit:4;stroke-dasharray:none;stroke-opacity:1"
       d="m 15.974461,11.664567 c 0.12096,0.191853 0.210603,0.382515 0.531903,0.340921 0.237544,0.06824 0.310531,-0.136441 0.392749,-0.325791 -0.05927,-0.241903 -0.21627,-0.309747 -0.438566,-0.261303 v 0 c -0.197184,0.0037 -0.365235,0.306283 -0.491079,0.628743"
       id="path1195"
       sodipodi:nodetypes="cccccc" />
    <path
       style="fill:none;fill-opacity:1;stroke:#ababab;stroke-width:0.0499999;stroke-linecap:butt;stroke-linejoin:miter;stroke-miterlimit:4;stroke-dasharray:none;stroke-opacity:1"
       d="m 15.969468,12.047137 c 0.120961,0.191853 0.210605,0.382515 0.531903,0.340923 0.237544,0.06824 0.310532,-0.136426 0.39275,-0.325793 -0.05927,-0.241901 -0.21627,-0.309747 -0.438567,-0.261302 v 0 c -0.197183,0.0037 -0.365236,0.306284 -0.491079,0.628744"
       id="path1197"
       sodipodi:nodetypes="cccccc" />
    <path
       style="fill:none;fill-opacity:1;stroke:#ababab;stroke-width:0.0499999;stroke-linecap:butt;stroke-linejoin:miter;stroke-miterlimit:4;stroke-dasharray:none;stroke-opacity:1"
       d="m 15.964475,12.429709 c 0.120961,0.191853 0.210605,0.382515 0.531903,0.340922 0.237545,0.06823 0.310532,-0.136442 0.39275,-0.325793 -0.05927,-0.2419 -0.21627,-0.309746 -0.438566,-0.261302 v 0 c -0.197184,0.0037 -0.365237,0.306285 -0.491078,0.628744"
       id="path1199"
       sodipodi:nodetypes="cccccc" />
    <path
       style="fill:none;fill-opacity:1;stroke:#ababab;stroke-width:0.0499999;stroke-linecap:butt;stroke-linejoin:miter;stroke-miterlimit:4;stroke-dasharray:none;stroke-opacity:1"
       d="m 15.959484,12.81228 c 0.120961,0.191852 0.210603,0.382516 0.531901,0.340921 0.237545,0.06824 0.310533,-0.136441 0.392751,-0.325791 -0.05927,-0.241902 -0.21627,-0.309747 -0.438567,-0.261302 v 0 c -0.197184,0.0037 -0.365235,0.306284 -0.491078,0.628743"
       id="path1201"
       sodipodi:nodetypes="cccccc" />
    <path
       style="fill:none;fill-opacity:1;stroke:#ababab;stroke-width:0.0499999;stroke-linecap:butt;stroke-linejoin:miter;stroke-miterlimit:4;stroke-dasharray:none;stroke-opacity:1"
       d="m 15.954491,13.194851 c 0.120961,0.191852 0.210603,0.382514 0.531902,0.340922 0.237544,0.06823 0.310533,-0.136426 0.39275,-0.325792 -0.05927,-0.241902 -0.216271,-0.309746 -0.438567,-0.261302 v 0 c -0.197184,0.0037 -0.365235,0.306285 -0.491078,0.628743"
       id="path1203"
       sodipodi:nodetypes="cccccc" />
    <path
       style="fill:none;fill-opacity:1;stroke:#ababab;stroke-width:0.0499999;stroke-linecap:butt;stroke-linejoin:miter;stroke-miterlimit:4;stroke-dasharray:none;stroke-opacity:1"
       d="m 15.959484,12.81228 c 0.120961,0.191852 0.210603,0.382516 0.531901,0.340921 0.237545,0.06824 0.310533,-0.136441 0.392751,-0.325791 -0.05927,-0.241902 -0.21627,-0.309747 -0.438567,-0.261302 v 0 c -0.197184,0.0037 -0.365235,0.306284 -0.491078,0.628743"
       id="path1205"
       sodipodi:nodetypes="cccccc" />
    <path
       style="fill:none;fill-opacity:1;stroke:#ababab;stroke-width:0.0499999;stroke-linecap:butt;stroke-linejoin:miter;stroke-miterlimit:4;stroke-dasharray:none;stroke-opacity:1"
       d="m 15.949498,13.577422 c 0.120961,0.191853 0.210604,0.382515 0.531902,0.340923 0.237544,0.06823 0.310531,-0.136441 0.39275,-0.325793 -0.05927,-0.241901 -0.216271,-0.309747 -0.438567,-0.261301 v 0 c -0.197184,0.0037 -0.365235,0.306283 -0.491079,0.628743"
       id="path1207"
       sodipodi:nodetypes="cccccc" />
    <path
       style="fill:none;fill-opacity:1;stroke:#ababab;stroke-width:0.0499999;stroke-linecap:butt;stroke-linejoin:miter;stroke-miterlimit:4;stroke-dasharray:none;stroke-opacity:1"
       d="m 15.944504,13.959994 c 0.120961,0.191852 0.210603,0.382515 0.531903,0.340921 0.237544,0.06824 0.310531,-0.136426 0.392749,-0.325791 -0.05927,-0.241901 -0.216269,-0.309747 -0.438566,-0.261301 v 0 c -0.197183,0.0037 -0.365235,0.306283 -0.491079,0.628743"
       id="path1209"
       sodipodi:nodetypes="cccccc" />
    <path
       style="fill:none;fill-opacity:1;stroke:#ababab;stroke-width:0.0499999;stroke-linecap:butt;stroke-linejoin:miter;stroke-miterlimit:4;stroke-dasharray:none;stroke-opacity:1"
       d="m 15.939511,14.342566 c 0.120961,0.191852 0.210604,0.382515 0.531902,0.340921 0.237546,0.06824 0.310533,-0.136426 0.39275,-0.325791 -0.05927,-0.241901 -0.216269,-0.309747 -0.438566,-0.261303 v 0 c -0.197183,0.0037 -0.365235,0.306285 -0.491079,0.628745"
       id="path1211"
       sodipodi:nodetypes="cccccc" />
    <path
       style="fill:none;fill-opacity:1;stroke:#ababab;stroke-width:0.0499999;stroke-linecap:butt;stroke-linejoin:miter;stroke-miterlimit:4;stroke-dasharray:none;stroke-opacity:1"
       d="m 15.934518,14.725138 c 0.120961,0.191851 0.210605,0.382513 0.531903,0.340921 0.237545,0.06824 0.310532,-0.136441 0.392751,-0.325791 -0.05927,-0.241903 -0.216271,-0.309747 -0.438567,-0.261305 v 0 c -0.197184,0.0037 -0.365237,0.306285 -0.491079,0.628745"
       id="path1213"
       sodipodi:nodetypes="cccccc" />
    <path
       style="fill:none;fill-opacity:1;stroke:#ababab;stroke-width:0.0499999;stroke-linecap:butt;stroke-linejoin:miter;stroke-miterlimit:4;stroke-dasharray:none;stroke-opacity:1"
       d="m 15.929526,15.107708 c 0.12096,0.191853 0.210604,0.382515 0.531903,0.340921 0.237544,0.06824 0.310531,-0.136441 0.39275,-0.325793 -0.05927,-0.241899 -0.216271,-0.309745 -0.438567,-0.261301 v 0 c -0.197184,0.0037 -0.365237,0.306285 -0.491078,0.628743"
       id="path1215"
       sodipodi:nodetypes="cccccc" />
    <path
       style="fill:none;fill-opacity:1;stroke:#ababab;stroke-width:0.0499999;stroke-linecap:butt;stroke-linejoin:miter;stroke-miterlimit:4;stroke-dasharray:none;stroke-opacity:1"
       d="m 15.924534,15.490278 c 0.120961,0.191855 0.210604,0.382517 0.531902,0.340922 0.237544,0.06823 0.310533,-0.136426 0.39275,-0.325792 -0.05927,-0.241901 -0.216271,-0.309747 -0.438567,-0.261301 v 0 c -0.197184,0.0037 -0.365235,0.306283 -0.491078,0.628743"
       id="path1217"
       sodipodi:nodetypes="cccccc" />
    <path
       style="fill:none;fill-opacity:1;stroke:#ababab;stroke-width:0.0499999;stroke-linecap:butt;stroke-linejoin:miter;stroke-miterlimit:4;stroke-dasharray:none;stroke-opacity:1"
       d="m 15.919541,15.87285 c 0.120961,0.191853 0.210604,0.382515 0.531902,0.340922 0.237544,0.06824 0.310531,-0.136427 0.39275,-0.325792 -0.05927,-0.241901 -0.216271,-0.309747 -0.438567,-0.261303 v 0 c -0.197184,0.0037 -0.365235,0.306285 -0.491079,0.628745"
       id="path1219"
       sodipodi:nodetypes="cccccc" />
    <path
       style="fill:none;fill-opacity:1;stroke:#ababab;stroke-width:0.0499999;stroke-linecap:butt;stroke-linejoin:miter;stroke-miterlimit:4;stroke-dasharray:none;stroke-opacity:1"
       d="m 15.924534,15.490278 c 0.120961,0.191855 0.210604,0.382517 0.531902,0.340922 0.237544,0.06823 0.310533,-0.136426 0.39275,-0.325792 -0.05927,-0.241901 -0.216271,-0.309747 -0.438567,-0.261301 v 0 c -0.197184,0.0037 -0.365235,0.306283 -0.491078,0.628743"
       id="path1221"
       sodipodi:nodetypes="cccccc" />
    <path
       style="fill:none;fill-opacity:1;stroke:#ababab;stroke-width:0.0499999;stroke-linecap:butt;stroke-linejoin:miter;stroke-miterlimit:4;stroke-dasharray:none;stroke-opacity:1"
       d="m 15.914547,16.255422 c 0.120961,0.191851 0.210603,0.382513 0.531903,0.340921 0.237545,0.06824 0.310532,-0.136441 0.39275,-0.325791 -0.05927,-0.241903 -0.21627,-0.309747 -0.438567,-0.261303 v 0 c -0.197183,0.0037 -0.365235,0.306284 -0.491079,0.628743"
       id="path1223"
       sodipodi:nodetypes="cccccc" />
    <path
       style="fill:none;fill-opacity:1;stroke:#ababab;stroke-width:0.0499999;stroke-linecap:butt;stroke-linejoin:miter;stroke-miterlimit:4;stroke-dasharray:none;stroke-opacity:1"
       d="m 15.909554,16.637992 c 0.120961,0.191853 0.210604,0.382515 0.531903,0.340923 0.237543,0.06824 0.310532,-0.136426 0.392749,-0.325793 -0.05927,-0.241901 -0.216269,-0.309746 -0.438565,-0.261301 v 0 c -0.197184,0.0037 -0.260256,0.293043 -0.3861,0.615503"
       id="path1225"
       sodipodi:nodetypes="cccccc" />
    <path
       style="fill:none;fill-opacity:1;stroke:#ababab;stroke-width:0.0499999;stroke-linecap:butt;stroke-linejoin:miter;stroke-miterlimit:4;stroke-dasharray:none;stroke-opacity:1"
       d="m 15.611462,8.4748301 c 0.223316,0.042177 0.42445,0.106424 0.612509,-0.1566239 0.21179,-0.1271152 0.111023,-0.319713 0.0278,-0.508633 -0.218121,-0.1212977 -0.37482,-0.052762 -0.490479,0.1426184 v 0 c -0.131438,0.1465918 -0.02341,0.4752559 0.12796,0.7866161"
       id="path1227"
       sodipodi:nodetypes="cccccc" />
    <path
       style="fill:none;fill-opacity:1;stroke:#ababab;stroke-width:0.0499999;stroke-linecap:butt;stroke-linejoin:miter;stroke-miterlimit:4;stroke-dasharray:none;stroke-opacity:1"
       d="m 15.88925,8.7388017 c 0.223316,0.042177 0.418185,0.2646357 0.606244,0.00165 0.21179,-0.1271151 0.111023,-0.319713 0.0278,-0.5086329 -0.218123,-0.1212977 -0.374822,-0.052762 -0.490481,0.1426184 v 0 c -0.131438,0.1465917 -0.174778,0.3008332 -0.02341,0.6121918"
       id="path1229"
       sodipodi:nodetypes="cccccc" />
    <path
       style="fill:none;fill-opacity:1;stroke:#ababab;stroke-width:0.0499999;stroke-linecap:butt;stroke-linejoin:miter;stroke-miterlimit:4;stroke-dasharray:none;stroke-opacity:1"
       d="m 16.009541,17.007324 c -0.08397,0.210573 -0.170237,0.05156 0.05305,0.285635 0.08493,0.231469 0.293721,0.169444 0.495571,0.123877 0.160903,-0.190454 0.123194,-0.356863 -0.04721,-0.507204 v 0 c -0.119372,-0.156522 -0.313514,0.09545 -0.648886,0.184435"
       id="path1231"
       sodipodi:nodetypes="cccccc" />
    <rect
       style="fill:#7b5a15;fill-opacity:1;stroke:#644911;stroke-width:0.0499999;stroke-linejoin:round;stroke-miterlimit:4;stroke-dasharray:none;stroke-opacity:1"
       id="rect1233"
       width="2.6230979"
       height="1.4894902"
       x="9.5291576"
       y="8.4227123" />
    <path
       style="fill:none;stroke:#59420f;stroke-width:0.0499999;stroke-linecap:butt;stroke-linejoin:miter;stroke-miterlimit:4;stroke-dasharray:none;stroke-opacity:1"
       d="M 9.9634467,9.9121967 V 8.4227066"
       id="path1235" />
    <path
       style="fill:none;stroke:#59420f;stroke-width:0.0499999;stroke-linecap:butt;stroke-linejoin:miter;stroke-miterlimit:4;stroke-dasharray:none;stroke-opacity:1"
       d="M 10.797279,9.9121967 V 8.4227066"
       id="path1237" />
    <path
       style="fill:none;stroke:#59420f;stroke-width:0.0499999;stroke-linecap:butt;stroke-linejoin:miter;stroke-miterlimit:4;stroke-dasharray:none;stroke-opacity:1"
       d="M 11.49214,9.9121967 V 8.4227066"
       id="path1239" />
    <path
       style="fill:none;stroke:#59420f;stroke-width:0.0499999;stroke-linecap:butt;stroke-linejoin:miter;stroke-miterlimit:4;stroke-dasharray:none;stroke-opacity:1"
       d="M 10.797279,9.9121967 V 8.4227066"
       id="path1241" />
    <path
       style="fill:none;stroke:#59420f;stroke-width:0.0499999;stroke-linecap:butt;stroke-linejoin:miter;stroke-miterlimit:4;stroke-dasharray:none;stroke-opacity:1"
       d="M 10.797279,9.9121967 V 8.4227066"
       id="path1243" />
    <path
       style="fill:none;stroke:#59420f;stroke-width:0.0499999;stroke-linecap:butt;stroke-linejoin:miter;stroke-miterlimit:4;stroke-dasharray:none;stroke-opacity:1"
       d="M 10.797279,9.9121967 V 8.4227066"
       id="path1245" />
    <path
       style="fill:none;stroke:#59420f;stroke-width:0.0499999;stroke-linecap:butt;stroke-linejoin:miter;stroke-miterlimit:4;stroke-dasharray:none;stroke-opacity:1"
       d="M 10.797279,9.9121967 V 8.4227066"
       id="path1247" />
    <path
       style="fill:none;stroke:#59420f;stroke-width:0.0499999;stroke-linecap:butt;stroke-linejoin:miter;stroke-miterlimit:4;stroke-dasharray:none;stroke-opacity:1"
       d="M 10.797279,9.9121967 V 8.4227066"
       id="path1249" />
    <path
       style="fill:none;stroke:#59420f;stroke-width:0.0499999;stroke-linecap:butt;stroke-linejoin:miter;stroke-miterlimit:4;stroke-dasharray:none;stroke-opacity:1"
       d="M 10.797279,9.9121967 V 8.4227066"
       id="path1251" />
    <path
       style="fill:none;stroke:#59420f;stroke-width:0.0499999;stroke-linecap:butt;stroke-linejoin:miter;stroke-miterlimit:4;stroke-dasharray:none;stroke-opacity:1"
       d="M 10.797279,9.9121967 V 8.4227066"
       id="path1253" />
    <path
       style="fill:none;stroke:#59420f;stroke-width:0.0499999;stroke-linecap:butt;stroke-linejoin:miter;stroke-miterlimit:4;stroke-dasharray:none;stroke-opacity:1"
       d="M 10.797279,9.9121967 V 8.4227066"
       id="path1255" />
    <path
       style="fill:none;stroke:#59420f;stroke-width:0.0499999;stroke-linecap:butt;stroke-linejoin:miter;stroke-miterlimit:4;stroke-dasharray:none;stroke-opacity:1"
       d="M 10.797279,9.9121967 V 8.4227066"
       id="path1257" />
    <path
       style="fill:none;stroke:#59420f;stroke-width:0.0499999;stroke-linecap:butt;stroke-linejoin:miter;stroke-miterlimit:4;stroke-dasharray:none;stroke-opacity:1"
       d="M 10.484592,9.9121967 V 8.4227066"
       id="path1259" />
    <path
       style="fill:none;stroke:#59420f;stroke-width:0.0499999;stroke-linecap:butt;stroke-linejoin:miter;stroke-miterlimit:4;stroke-dasharray:none;stroke-opacity:1"
       d="M 10.797279,9.9121967 V 8.4227066"
       id="path1261" />
    <path
       style="fill:none;stroke:#59420f;stroke-width:0.0499999;stroke-linecap:butt;stroke-linejoin:miter;stroke-miterlimit:4;stroke-dasharray:none;stroke-opacity:1"
       d="M 10.797279,9.9121967 V 8.4227066"
       id="path1263" />
    <path
       style="fill:none;stroke:#59420f;stroke-width:0.0499999;stroke-linecap:butt;stroke-linejoin:miter;stroke-miterlimit:4;stroke-dasharray:none;stroke-opacity:1"
       d="M 10.797279,9.9121967 V 8.4227066"
       id="path1265" />
    <path
       style="fill:none;stroke:#59420f;stroke-width:0.0499999;stroke-linecap:butt;stroke-linejoin:miter;stroke-miterlimit:4;stroke-dasharray:none;stroke-opacity:1"
       d="M 10.797279,9.9121967 V 8.4227066"
       id="path1267" />
    <path
       style="fill:none;stroke:#59420f;stroke-width:0.0499999;stroke-linecap:butt;stroke-linejoin:miter;stroke-miterlimit:4;stroke-dasharray:none;stroke-opacity:1"
       d="M 10.797279,9.9121967 V 8.4227066"
       id="path1269" />
    <path
       style="fill:none;stroke:#59420f;stroke-width:0.0499999;stroke-linecap:butt;stroke-linejoin:miter;stroke-miterlimit:4;stroke-dasharray:none;stroke-opacity:1"
       d="M 10.797279,9.9121967 V 8.4227066"
       id="path1271" />
    <path
       style="fill:none;stroke:#59420f;stroke-width:0.0499999;stroke-linecap:butt;stroke-linejoin:miter;stroke-miterlimit:4;stroke-dasharray:none;stroke-opacity:1"
       d="M 11.179452,9.9121967 V 8.4227066"
       id="path1273" />
    <path
       style="fill:none;stroke:#59420f;stroke-width:0.0499999;stroke-linecap:butt;stroke-linejoin:miter;stroke-miterlimit:4;stroke-dasharray:none;stroke-opacity:1"
       d="M 11.804827,9.9121967 V 8.4227066"
       id="path1275" />
    <path
       style="fill:none;stroke:#59420f;stroke-width:0.0499999;stroke-linecap:butt;stroke-linejoin:miter;stroke-miterlimit:4;stroke-dasharray:none;stroke-opacity:1"
       d="M 10.224019,9.9121967 V 8.4227066"
       id="path1277" />
    <g
       id="g1293"
       transform="matrix(-0.00376807,0.12954995,-0.12993783,-0.00375681,29.402019,5.7195772)"
       style="stroke-width:0.385213;stroke-miterlimit:4;stroke-dasharray:none">
      <g
         id="g1289"
         style="stroke-width:0.385213;stroke-miterlimit:4;stroke-dasharray:none">
        <g
           id="g1283"
           style="fill:#101010;fill-opacity:1;stroke-width:0.84286;stroke-miterlimit:4;stroke-dasharray:none"
           transform="matrix(0.87590755,0,0,0.2384679,-51.655533,82.658906)">
          <path
             style="fill:#101010;fill-opacity:1;stroke:#000000;stroke-width:0.84286;stroke-linecap:butt;stroke-linejoin:miter;stroke-miterlimit:4;stroke-dasharray:none;stroke-opacity:1"
             d="m 89.401655,246.4225 v 1.73725 h 1.336347 l 0.209405,0.78151 h 2.864196 v -0.64787 h 6.815377 v 1.06907 h 3.20723 v -1.20271 h 4.67722 v -1.33635"
             id="path1279" />
          <path
             style="fill:#101010;fill-opacity:1;stroke:#000000;stroke-width:0.84286;stroke-linecap:butt;stroke-linejoin:miter;stroke-miterlimit:4;stroke-dasharray:none;stroke-opacity:1"
             d="m 89.401655,247.2243 v -1.73725 h 1.336347 l 0.209405,-0.78151 h 2.864196 v 0.64787 h 6.815377 v -1.06907 h 3.20723 v 1.20271 h 4.67722 v 1.33635"
             id="path1281" />
        </g>
        <path
           style="fill:none;stroke:#000000;stroke-width:0.385213;stroke-linecap:butt;stroke-linejoin:miter;stroke-miterlimit:4;stroke-dasharray:none;stroke-opacity:1"
           d="m 30.514757,141.01332 -0.955511,-2.83581"
           id="path1285" />
        <path
           style="fill:none;stroke:#000000;stroke-width:0.385213;stroke-linecap:butt;stroke-linejoin:miter;stroke-miterlimit:4;stroke-dasharray:none;stroke-opacity:1"
           d="m 30.514757,142.02341 -0.554606,2.16766"
           id="path1287" />
      </g>
      <path
         style="fill:#101010;fill-opacity:1;stroke:#000000;stroke-width:0.385213;stroke-linecap:butt;stroke-linejoin:miter;stroke-miterlimit:4;stroke-dasharray:none;stroke-opacity:1"
         d="m 43.390444,141.83704 2.60588,0.48315 -0.0668,-1.73725 -2.53906,0.61675"
         id="path1291" />
    </g>
    <rect
       style="fill:#7b5a15;fill-opacity:1;stroke:#644911;stroke-width:0.0499999;stroke-linejoin:round;stroke-miterlimit:4;stroke-dasharray:none;stroke-opacity:1"
       id="rect1295"
       width="2.6230979"
       height="1.4894902"
       x="-14.236835"
       y="-17.203773"
       transform="scale(-1)" />
    <path
       style="fill:none;stroke:#59420f;stroke-width:0.0499999;stroke-linecap:butt;stroke-linejoin:miter;stroke-miterlimit:4;stroke-dasharray:none;stroke-opacity:1"
       d="m 12.04803,15.714283 v 1.48949"
       id="path1297" />
    <path
       style="fill:none;stroke:#59420f;stroke-width:0.0499999;stroke-linecap:butt;stroke-linejoin:miter;stroke-miterlimit:4;stroke-dasharray:none;stroke-opacity:1"
       d="m 12.881861,15.714282 v 1.489491"
       id="path1299" />
    <path
       style="fill:none;stroke:#59420f;stroke-width:0.0499999;stroke-linecap:butt;stroke-linejoin:miter;stroke-miterlimit:4;stroke-dasharray:none;stroke-opacity:1"
       d="m 13.57672,15.71428 v 1.489492"
       id="path1301" />
    <path
       style="fill:none;stroke:#59420f;stroke-width:0.0499999;stroke-linecap:butt;stroke-linejoin:miter;stroke-miterlimit:4;stroke-dasharray:none;stroke-opacity:1"
       d="m 12.881861,15.714282 v 1.489491"
       id="path1303" />
    <path
       style="fill:none;stroke:#59420f;stroke-width:0.0499999;stroke-linecap:butt;stroke-linejoin:miter;stroke-miterlimit:4;stroke-dasharray:none;stroke-opacity:1"
       d="m 12.881861,15.714282 v 1.489491"
       id="path1305" />
    <path
       style="fill:none;stroke:#59420f;stroke-width:0.0499999;stroke-linecap:butt;stroke-linejoin:miter;stroke-miterlimit:4;stroke-dasharray:none;stroke-opacity:1"
       d="m 12.881861,15.714282 v 1.489491"
       id="path1307" />
    <path
       style="fill:none;stroke:#59420f;stroke-width:0.0499999;stroke-linecap:butt;stroke-linejoin:miter;stroke-miterlimit:4;stroke-dasharray:none;stroke-opacity:1"
       d="m 12.881861,15.714282 v 1.489491"
       id="path1309" />
    <path
       style="fill:none;stroke:#59420f;stroke-width:0.0499999;stroke-linecap:butt;stroke-linejoin:miter;stroke-miterlimit:4;stroke-dasharray:none;stroke-opacity:1"
       d="m 12.881861,15.714282 v 1.489491"
       id="path1311" />
    <path
       style="fill:none;stroke:#59420f;stroke-width:0.0499999;stroke-linecap:butt;stroke-linejoin:miter;stroke-miterlimit:4;stroke-dasharray:none;stroke-opacity:1"
       d="m 12.881861,15.714282 v 1.489491"
       id="path1313" />
    <path
       style="fill:none;stroke:#59420f;stroke-width:0.0499999;stroke-linecap:butt;stroke-linejoin:miter;stroke-miterlimit:4;stroke-dasharray:none;stroke-opacity:1"
       d="m 12.881861,15.714282 v 1.489491"
       id="path1315" />
    <path
       style="fill:none;stroke:#59420f;stroke-width:0.0499999;stroke-linecap:butt;stroke-linejoin:miter;stroke-miterlimit:4;stroke-dasharray:none;stroke-opacity:1"
       d="m 12.881861,15.714282 v 1.489491"
       id="path1317" />
    <path
       style="fill:none;stroke:#59420f;stroke-width:0.0499999;stroke-linecap:butt;stroke-linejoin:miter;stroke-miterlimit:4;stroke-dasharray:none;stroke-opacity:1"
       d="m 12.881861,15.714282 v 1.489491"
       id="path1319" />
    <path
       style="fill:none;stroke:#59420f;stroke-width:0.0499999;stroke-linecap:butt;stroke-linejoin:miter;stroke-miterlimit:4;stroke-dasharray:none;stroke-opacity:1"
       d="m 12.569172,15.714282 v 1.489491"
       id="path1321" />
    <path
       style="fill:none;stroke:#59420f;stroke-width:0.0499999;stroke-linecap:butt;stroke-linejoin:miter;stroke-miterlimit:4;stroke-dasharray:none;stroke-opacity:1"
       d="m 12.881861,15.714282 v 1.489491"
       id="path1323" />
    <path
       style="fill:none;stroke:#59420f;stroke-width:0.0499999;stroke-linecap:butt;stroke-linejoin:miter;stroke-miterlimit:4;stroke-dasharray:none;stroke-opacity:1"
       d="m 12.881861,15.714282 v 1.489491"
       id="path1325" />
    <path
       style="fill:none;stroke:#59420f;stroke-width:0.0499999;stroke-linecap:butt;stroke-linejoin:miter;stroke-miterlimit:4;stroke-dasharray:none;stroke-opacity:1"
       d="m 12.881861,15.714282 v 1.489491"
       id="path1327" />
    <path
       style="fill:none;stroke:#59420f;stroke-width:0.0499999;stroke-linecap:butt;stroke-linejoin:miter;stroke-miterlimit:4;stroke-dasharray:none;stroke-opacity:1"
       d="m 12.881861,15.714282 v 1.489491"
       id="path1329" />
    <path
       style="fill:none;stroke:#59420f;stroke-width:0.0499999;stroke-linecap:butt;stroke-linejoin:miter;stroke-miterlimit:4;stroke-dasharray:none;stroke-opacity:1"
       d="m 12.881861,15.714282 v 1.489491"
       id="path1331" />
    <path
       style="fill:none;stroke:#59420f;stroke-width:0.0499999;stroke-linecap:butt;stroke-linejoin:miter;stroke-miterlimit:4;stroke-dasharray:none;stroke-opacity:1"
       d="m 12.881861,15.714282 v 1.489491"
       id="path1333" />
    <path
       style="fill:none;stroke:#59420f;stroke-width:0.0499999;stroke-linecap:butt;stroke-linejoin:miter;stroke-miterlimit:4;stroke-dasharray:none;stroke-opacity:1"
       d="m 13.264035,15.714282 v 1.489491"
       id="path1335" />
    <path
       style="fill:none;stroke:#59420f;stroke-width:0.0499999;stroke-linecap:butt;stroke-linejoin:miter;stroke-miterlimit:4;stroke-dasharray:none;stroke-opacity:1"
       d="m 13.889409,15.714282 v 1.489491"
       id="path1337" />
    <path
       style="fill:none;stroke:#59420f;stroke-width:0.0499999;stroke-linecap:butt;stroke-linejoin:miter;stroke-miterlimit:4;stroke-dasharray:none;stroke-opacity:1"
       d="m 12.308602,15.71428 v 1.489492"
       id="path1339" />
    <g
       id="g1355"
       transform="matrix(0.00376805,-0.12954995,0.12993783,0.00375681,-5.722879,19.906903)"
       style="stroke-width:0.385213;stroke-miterlimit:4;stroke-dasharray:none">
      <g
         id="g1351"
         style="stroke-width:0.385213;stroke-miterlimit:4;stroke-dasharray:none">
        <g
           id="g1345"
           style="fill:#101010;fill-opacity:1;stroke-width:0.84286;stroke-miterlimit:4;stroke-dasharray:none"
           transform="matrix(0.87590755,0,0,0.2384679,-51.655533,82.658906)">
          <path
             style="fill:#101010;fill-opacity:1;stroke:#000000;stroke-width:0.84286;stroke-linecap:butt;stroke-linejoin:miter;stroke-miterlimit:4;stroke-dasharray:none;stroke-opacity:1"
             d="m 89.401655,246.4225 v 1.73725 h 1.336347 l 0.209405,0.78151 h 2.864196 v -0.64787 h 6.815377 v 1.06907 h 3.20723 v -1.20271 h 4.67722 v -1.33635"
             id="path1341" />
          <path
             style="fill:#101010;fill-opacity:1;stroke:#000000;stroke-width:0.84286;stroke-linecap:butt;stroke-linejoin:miter;stroke-miterlimit:4;stroke-dasharray:none;stroke-opacity:1"
             d="m 89.401655,247.2243 v -1.73725 h 1.336347 l 0.209405,-0.78151 h 2.864196 v 0.64787 h 6.815377 v -1.06907 h 3.20723 v 1.20271 h 4.67722 v 1.33635"
             id="path1343" />
        </g>
        <path
           style="fill:none;stroke:#000000;stroke-width:0.385213;stroke-linecap:butt;stroke-linejoin:miter;stroke-miterlimit:4;stroke-dasharray:none;stroke-opacity:1"
           d="m 30.514757,141.01332 -0.955511,-2.83581"
           id="path1347" />
        <path
           style="fill:none;stroke:#000000;stroke-width:0.385213;stroke-linecap:butt;stroke-linejoin:miter;stroke-miterlimit:4;stroke-dasharray:none;stroke-opacity:1"
           d="m 30.514757,142.02341 -0.554606,2.16766"
           id="path1349" />
      </g>
      <path
         style="fill:#101010;fill-opacity:1;stroke:#000000;stroke-width:0.385213;stroke-linecap:butt;stroke-linejoin:miter;stroke-miterlimit:4;stroke-dasharray:none;stroke-opacity:1"
         d="m 43.390444,141.83704 2.60588,0.48315 -0.0668,-1.73725 -2.53906,0.61675"
         id="path1353" />
    </g>
  </g>
</svg>
