<?xml version="1.0" encoding="UTF-8" standalone="no"?>
<svg
   xmlns:dc="http://purl.org/dc/elements/1.1/"
   xmlns:cc="http://creativecommons.org/ns#"
   xmlns:rdf="http://www.w3.org/1999/02/22-rdf-syntax-ns#"
   xmlns:svg="http://www.w3.org/2000/svg"
   xmlns="http://www.w3.org/2000/svg"
   xmlns:sodipodi="http://sodipodi.sourceforge.net/DTD/sodipodi-0.dtd"
   xmlns:inkscape="http://www.inkscape.org/namespaces/inkscape"
   width="80"
   height="92.379997"
   viewBox="0 0 21.166666 24.442208"
   version="1.1"
   id="svg126"
   inkscape:version="1.0.1 (3bc2e813f5, 2020-09-07)"
   sodipodi:docname="soldier2.svg">
  <defs
     id="defs120" />
  <sodipodi:namedview
     id="base"
     pagecolor="#ffffff"
     bordercolor="#666666"
     borderopacity="1.0"
     inkscape:pageopacity="0.0"
     inkscape:pageshadow="2"
     inkscape:zoom="3.959798"
     inkscape:cx="39.81427"
     inkscape:cy="51.79876"
     inkscape:document-units="mm"
     inkscape:current-layer="layer1"
     inkscape:document-rotation="0"
     showgrid="false"
     inkscape:window-width="846"
     inkscape:window-height="1008"
     inkscape:window-x="-13"
     inkscape:window-y="0"
     inkscape:window-maximized="0"
     units="px" />
  <metadata
     id="metadata123">
    <rdf:RDF>
      <cc:Work
         rdf:about="">
        <dc:format>image/svg+xml</dc:format>
        <dc:type
           rdf:resource="http://purl.org/dc/dcmitype/StillImage" />
        <dc:title></dc:title>
      </cc:Work>
    </rdf:RDF>
  </metadata>
  <g
     inkscape:label="Layer 1"
     inkscape:groupmode="layer"
     id="layer1">
    <circle
       style="fill:none;stroke:#000000;stroke-width:0.101105;stroke-miterlimit:4;stroke-dasharray:none;stroke-opacity:1"
       id="path128"
       cx="-15.263754"
       cy="10.274599"
       r="5.1264634"
       transform="rotate(-90)" />
    <circle
       style="fill:none;stroke:#000000;stroke-width:0.0930541;stroke-miterlimit:4;stroke-dasharray:none;stroke-opacity:1"
       id="path128-3"
       cx="-15.281678"
       cy="10.256676"
       r="4.7182212"
       transform="rotate(-90)" />
    <path
       style="fill:none;stroke:#000000;stroke-width:0.0616625px;stroke-linecap:butt;stroke-linejoin:miter;stroke-opacity:1"
       d="m 13.440094,19.36563 c 0.54314,0.764197 1.24273,1.290319 2.73077,0.616626 2.333745,-1.803044 2.192474,-4.197169 2.220669,-4.611791 -0.672359,-3.723913 -1.298384,-4.994596 -2.352802,-6.9719608 L 15.86255,6.6807634 C 15.79436,6.4844392 15.656299,6.4103928 15.422103,6.5045831"
       id="path972"
       sodipodi:nodetypes="cccccc" />
    <path
       style="fill:none;stroke:#000000;stroke-width:0.0616625px;stroke-linecap:butt;stroke-linejoin:miter;stroke-opacity:1"
       d="m 15.444127,15.445655 -0.02202,2.378412 c 0.264269,0.487417 0.528537,0.381038 0.792805,-0.02202 L 15.35604,5.7998706 14.67335,5.8439156 Z"
       id="path974"
       sodipodi:nodetypes="cccccc" />
    <path
       style="fill:none;stroke:#000000;stroke-width:0.0616625px;stroke-linecap:butt;stroke-linejoin:miter;stroke-opacity:1"
       d="M 14.87095,5.8366876 14.637369,3.2205693"
       id="path976" />
    <path
       style="fill:none;stroke:#000000;stroke-width:0.0616625px;stroke-linecap:butt;stroke-linejoin:miter;stroke-opacity:1"
       d="M 15.182394,5.8055435 14.941025,3.1972079"
       id="path978" />
    <path
       style="fill:none;stroke:#000000;stroke-width:0.0616625px;stroke-linecap:butt;stroke-linejoin:miter;stroke-opacity:1"
       d="m 14.516684,3.2439271 0.576169,-0.05061 -0.100185,-1.2143224 -0.578087,0.04955 z"
       id="path980" />
    <path
       style="fill:none;stroke:#000000;stroke-width:0.0616625px;stroke-linecap:butt;stroke-linejoin:miter;stroke-opacity:1"
       d="m 16.016707,15.082285 0.209214,-0.011 -0.341347,-4.944018 -0.220224,0.02202"
       id="path982" />
    <path
       style="fill:none;stroke:#000000;stroke-width:0.0616625px;stroke-linecap:butt;stroke-linejoin:miter;stroke-opacity:1"
       d="m 16.08828,12.764432 0.693703,-0.03854 -0.02753,-0.363367 -0.699207,0.04405"
       id="path984" />
    <path
       style="fill:none;stroke:#000000;stroke-width:0.0616625px;stroke-linecap:butt;stroke-linejoin:miter;stroke-opacity:1"
       d="m 12.030663,20.11439 c -1.40405,1.005519 -2.5444422,2.36258 -4.888957,2.114145 -3.4435711,-0.399699 -3.5335075,-2.476216 -3.6557097,-4.536602 0.091339,-1.74548 0.880222,-3.142189 2.0260543,-4.360423"
       id="path1002"
       sodipodi:nodetypes="cccc" />
    <path
       style="fill:none;stroke:#000000;stroke-width:0.0616625px;stroke-linecap:butt;stroke-linejoin:miter;stroke-opacity:1"
       d="m 3.7835845,19.937267 c -0.00499,-1.047379 -0.4001589,-2.005345 1.4949264,-3.48816"
       id="path1004"
       sodipodi:nodetypes="cc" />
    <path
       style="fill:none;stroke:#000000;stroke-width:0.0616625px;stroke-linecap:butt;stroke-linejoin:miter;stroke-opacity:1"
       d="M 6.9676959,22.206159 C 8.0995642,22.040496 9.0779228,21.738163 9.3895552,20.342144"
       id="path1006"
       sodipodi:nodetypes="cc" />
    <path
       style="fill:none;stroke:#000000;stroke-width:0.0616625px;stroke-linecap:butt;stroke-linejoin:miter;stroke-opacity:1"
       d="M 4.2507485,20.840452 3.5967183,21.183039 3.1606974,20.264282 3.7835844,19.937267"
       id="path1008" />
    <path
       style="fill:none;stroke:#000000;stroke-width:0.0616625px;stroke-linecap:butt;stroke-linejoin:miter;stroke-opacity:1"
       d="M 5.2317927,16.044231 4.6867672,16.168808 4.5777626,15.405773 5.1227881,15.312341"
       id="path1010" />
    <path
       style="fill:none;stroke:#000000;stroke-width:0.0616625px;stroke-linecap:butt;stroke-linejoin:miter;stroke-opacity:1"
       d="m 9.8722914,20.38886 -0.093431,0.591741 0.5761686,0.03114 0.109005,-0.622886"
       id="path1012" />
    <path
       style="fill:none;stroke:#000000;stroke-width:0.0616625px;stroke-linecap:butt;stroke-linejoin:miter;stroke-opacity:1"
       d="M 5.5120501,13.33151 5.3407961,10.438259 C 5.5918149,8.5782366 6.8138772,7.5234673 8.7666712,7.0746728 L 14.698122,6.3476762"
       id="path1014"
       sodipodi:nodetypes="cccc" />
    <path
       style="fill:none;stroke:#000000;stroke-width:0.0616625px;stroke-linecap:butt;stroke-linejoin:miter;stroke-opacity:1"
       d="M 9.3659606,10.204336 C 9.2158294,9.4496701 9.5372073,9.0781054 10.048654,8.860972 l 4.756825,-1.3653848"
       id="path1016"
       sodipodi:nodetypes="ccc" />
    <path
       style="fill:none;stroke:#000000;stroke-width:0.0616625px;stroke-linecap:butt;stroke-linejoin:miter;stroke-opacity:1"
       d="M 14.343009,7.6057016 C 14.40546,7.1756448 14.375182,6.7610435 14.188854,6.3724499"
       id="path1018"
       sodipodi:nodetypes="cc" />
    <path
       style="fill:none;stroke:#000000;stroke-width:0.0616625px;stroke-linecap:butt;stroke-linejoin:miter;stroke-opacity:1"
       d="m 16.038731,8.3985042 c -0.21323,-0.077127 -0.338134,0.011303 -0.489608,0.1606053"
       id="path1020"
       sodipodi:nodetypes="cc" />
    <path
       style="fill:none;stroke:#000000;stroke-width:0.0616625px;stroke-linecap:butt;stroke-linejoin:miter;stroke-opacity:1"
       d="M 9.5608482,9.1613406 C 8.5585704,8.7047134 8.3345601,7.9886645 8.1905003,7.2459671"
       id="path1022"
       inkscape:transform-center-x="0.25515179"
       inkscape:transform-center-y="-0.25515152"
       sodipodi:nodetypes="cc" />
    <path
       style="fill:none;stroke:#000000;stroke-width:0.0616625px;stroke-linecap:butt;stroke-linejoin:miter;stroke-opacity:1"
       d="M 5.5120512,9.7418679 C 6.5483549,10.373032 7.7025008,10.473923 8.9145027,10.314448"
       id="path1024"
       sodipodi:nodetypes="cc" />
    <path
       style="fill:none;stroke:#000000;stroke-width:0.0616625px;stroke-linecap:butt;stroke-linejoin:miter;stroke-opacity:1"
       d="m 15.034272,17.150591 c 0.143438,0.03617 0.26499,0.24262 0.429042,0.215731"
       id="path1026"
       sodipodi:nodetypes="cc" />
    <path
       style="fill:none;stroke:#000000;stroke-width:0.0616625px;stroke-linecap:butt;stroke-linejoin:miter;stroke-opacity:1"
       d="m 16.194584,17.539157 c 0.835706,0.255095 1.043773,-0.02716 1.879479,-0.164682"
       id="path1028"
       sodipodi:nodetypes="cc" />
    <path
       style="fill:none;stroke:#000000;stroke-width:0.0616625px;stroke-linecap:butt;stroke-linejoin:miter;stroke-opacity:1"
       d="m 16.23693,14.520717 c 0.920265,0.334325 1.207942,0.367414 1.982012,0"
       id="path1030"
       sodipodi:nodetypes="cc" />
    <path
       style="fill:none;stroke:#000000;stroke-width:0.0616625px;stroke-linecap:butt;stroke-linejoin:miter;stroke-opacity:1"
       d="m 16.236928,14.520717 -0.04234,-0.01813"
       id="path1032" />
    <path
       style="fill:#730d0d;stroke:#000000;stroke-width:0.0887275;stroke-miterlimit:4;stroke-dasharray:none;stroke-opacity:1;fill-opacity:0.89999998"
       d="m 15.223001,16.272357 c -0.617768,2.854254 -3.434794,4.605471 -6.231271,3.873692 -1.3585762,-0.35551 -2.5561993,-1.319529 -3.1980236,-2.574228 -1.4822639,-2.897672 0.094146,-6.394889 3.2459243,-7.200978 1.9541173,-0.4997788 4.0378163,0.237882 5.2680203,1.86496 0.345327,0.456734 0.711456,1.21368 0.858136,1.774147 0.162234,0.619888 0.188438,1.656113 0.05721,2.262407 z m -0.279015,-1.959026 c -0.260779,-1.213718 -0.98307,-2.306699 -1.965059,-2.973554 -0.40639,-0.275975 -1.030293,-0.559535 -1.51875,-0.690263 -0.398077,-0.106538 -0.514595,-0.117879 -1.211228,-0.117879 -0.6924389,0 -0.8142322,0.01169 -1.1982717,0.115019 -1.8056106,0.485809 -3.1466746,1.923581 -3.4919594,3.743772 -0.085514,0.450791 -0.085514,1.332986 0,1.783777 0.3439787,1.813309 1.6931745,3.259797 3.4919594,3.743771 0.3840395,0.103329 0.5058328,0.115019 1.1982717,0.115019 0.69375,0 0.813819,-0.01157 1.201421,-0.115819 1.042784,-0.280449 1.97378,-0.895377 2.601585,-1.718361 0.455188,-0.596704 0.794222,-1.360849 0.904675,-2.039039 0.02731,-0.167682 0.05815,-0.354428 0.06852,-0.414991 0.03631,-0.211892 -0.01552,-1.1259 -0.08117,-1.431452 z"
       id="path1041" />
    <path
       style="fill:#5aa02c;stroke:#000000;stroke-width:0.0887275;stroke-miterlimit:4;stroke-dasharray:none;stroke-opacity:1"
       d="m 14.869948,15.854894 c -0.01997,0.169572 -0.08793,0.48606 -0.151032,0.703308 -0.458855,1.579822 -1.709058,2.795685 -3.319569,3.228389 -0.374948,0.100739 -0.50722,0.113808 -1.150397,0.113662 C 9.6452686,19.900131 9.4648002,19.884298 9.1831523,19.806834 7.618676,19.376539 6.4790006,18.37504 5.9203431,16.939613 c -0.3967787,-1.019494 -0.3967787,-2.295106 0,-3.314598 0.8558976,-2.199161 3.2203561,-3.425864 5.4790039,-2.842564 1.863484,0.48125 3.255335,2.078901 3.474073,3.987753 0.04925,0.429802 0.04857,0.64277 -0.0035,1.08469 z"
       id="path1043" />
    <path
       style="fill:#720b0b;stroke:#000000;stroke-width:0.0221819;stroke-miterlimit:4;stroke-dasharray:none;stroke-opacity:1;fill-opacity:0.90196079"
       d="M 8.3135374,10.466852 C 7.6873871,10.71866 7.1040182,11.1071 6.6092845,11.601636 c -0.4102461,0.410085 -0.7198889,0.841803 -0.9792532,1.365323 -0.06652,0.134269 -0.089129,0.171268 -0.092973,0.152151 -0.01018,-0.05064 -0.159403,-2.690932 -0.1538956,-2.722996 0.050127,-0.291818 0.1205593,-0.6001081 0.1370986,-0.6001081 0.00508,0 0.035465,0.015576 0.067527,0.034614 0.098859,0.058702 0.4152495,0.2110901 0.5427846,0.2614301 0.3186619,0.125778 0.6749067,0.219767 1.0240389,0.270171 0.2715021,0.0392 0.3782013,0.0449 0.8396035,0.0449 0.2558733,0 0.4652228,2.44e-4 0.4652216,6.1e-4 -1.2e-6,3.66e-4 -0.065656,0.02693 -0.1458993,0.0592 z"
       id="path1049" />
    <path
       style="fill:#720b0b;stroke:#000000;stroke-width:0.0156849;stroke-miterlimit:4;stroke-dasharray:none;stroke-opacity:1;fill-opacity:0.90196079"
       d="M 9.4882519,9.2245735 C 9.3851731,9.3617588 9.3223882,9.528422 9.3014448,9.7204582 c -0.010497,0.096245 -0.0052,0.2727057 0.011413,0.3800858 0.00596,0.03854 0.010351,0.07041 0.00977,0.07083 -6.104e-4,4.89e-4 -0.041373,0.0086 -0.090619,0.01811 -0.095457,0.01851 -0.2737847,0.06158 -0.3596626,0.08687 -0.053022,0.01561 -0.2339986,0.03713 -0.4656622,0.05535 -0.1958824,0.01541 -0.7526808,0.01298 -0.9343284,-0.0041 -0.7246505,-0.06804 -1.3299942,-0.25519 -1.8857673,-0.5830187 l -0.052148,-0.03076 0.033632,-0.094736 C 5.686137,9.2865272 5.8504383,8.9688918 6.0367523,8.7130246 6.4904244,8.0899905 7.1733286,7.6180543 8.0672057,7.3098311 c 0.050627,-0.017457 0.093413,-0.03174 0.095079,-0.03174 0.00166,0 0.00303,0.00563 0.00303,0.012515 0,0.026835 0.064934,0.3054878 0.098265,0.4216821 0.1918592,0.6688488 0.5410159,1.1004704 1.1414856,1.4110873 l 0.1146612,0.059315 z"
       id="path1051" />
    <path
       style="fill:#720c0c;stroke:#000000;stroke-width:0.0221819;stroke-miterlimit:4;stroke-dasharray:none;stroke-opacity:1;fill-opacity:0.90196079"
       d="m 14.318429,7.5105593 c -0.0057,0.045305 -0.01244,0.084513 -0.01505,0.08713 -0.0026,0.00261 -0.96729,0.2810217 -2.143719,0.6186789 C 10.56786,8.6732422 9.9995677,8.8406378 9.9381096,8.8707443 9.832559,8.9224521 9.6573808,9.0388503 9.6085048,9.0897538 L 9.5706961,9.1291309 9.4434418,9.0622923 C 8.9158076,8.7851607 8.5804244,8.409242 8.3964455,7.8887557 8.3407401,7.7311604 8.2313788,7.3169521 8.2313788,7.2635611 c 0,-0.00762 0.1572059,-0.05455 0.3540831,-0.1057227 0.1609409,-0.041832 0.2963905,-0.059556 2.8581371,-0.3740255 1.479055,-0.1815633 2.70124,-0.3301138 2.715965,-0.3301138 0.02366,0 0.03084,0.011205 0.06168,0.096347 0.0435,0.120049 0.08395,0.2876912 0.0989,0.4098775 0.01368,0.1117708 0.01267,0.4355325 -0.0017,0.5506356 z"
       id="path1053" />
    <path
       style="fill:#720b0b;stroke:#000000;stroke-width:0.0313699;stroke-miterlimit:4;stroke-dasharray:none;stroke-opacity:1;fill-opacity:0.90196079"
       d="m 18.095652,14.53294 c -0.138907,0.06359 -0.368992,0.146949 -0.484783,0.175627 -0.148747,0.03684 -0.469014,0.0364 -0.642567,-8.54e-4 -0.185269,-0.0398 -0.747486,-0.227017 -0.747349,-0.24887 6.1e-5,-0.0099 -0.02515,-0.384677 -0.05603,-0.83277 -0.03088,-0.448093 -0.0537,-0.816959 -0.05072,-0.819703 0.003,-0.0027 0.164226,-0.01382 0.358321,-0.02462 l 0.3529,-0.01964 -0.0073,-0.07942 c -0.004,-0.04368 -0.01217,-0.142473 -0.0181,-0.219539 l -0.01079,-0.140122 -0.0545,0.0035 c -0.431424,0.02763 -0.641596,0.03744 -0.648761,0.03027 -0.0077,-0.0077 -0.159464,-2.113166 -0.16056,-2.227609 l -4.88e-4,-0.04483 -0.107926,0.01063 -0.107925,0.01063 -0.0089,-0.06702 c -0.01007,-0.075821 -0.102265,-1.3679522 -0.102265,-1.4332248 0,-0.032301 0.0187,-0.057133 0.07883,-0.1046606 0.09468,-0.074843 0.18343,-0.1023379 0.271009,-0.083959 0.07265,0.015244 0.05151,-0.020521 0.467967,0.7917907 0.354618,0.6916915 0.574192,1.1723807 0.787283,1.7235157 0.373746,0.966654 0.692545,2.119118 0.9734,3.518853 0.0076,0.03765 4.89e-4,0.04485 -0.08079,0.08205 z"
       id="path1055" />
    <path
       style="fill:#720b0b;stroke:#000000;stroke-width:0.0443637;stroke-miterlimit:4;stroke-dasharray:none;stroke-opacity:1;fill-opacity:0.90196079"
       d="m 18.343199,15.60635 c -0.02016,0.512422 -0.103658,1.059663 -0.227157,1.488777 -0.0353,0.122657 -0.06717,0.225322 -0.07083,0.228146 -0.03773,0.02914 -1.038006,0.260679 -1.166127,0.269929 -0.166861,0.01205 -0.542315,-0.03804 -0.613097,-0.08178 -0.02511,-0.01552 -0.04886,-0.256969 -0.114117,-1.160535 -0.04532,-0.627514 -0.08283,-1.163233 -0.08336,-1.190486 -8.54e-4,-0.04428 0.0097,-0.04955 0.09948,-0.04955 h 0.100428 l -0.01546,-0.264267 c -0.0096,-0.16382 -0.0075,-0.264269 0.0056,-0.264269 0.01156,0 0.109582,0.03005 0.217836,0.06677 0.65557,0.222401 1.00348,0.22712 1.50612,0.02043 0.114496,-0.04708 0.210378,-0.0834 0.21307,-0.08071 0.0099,0.0099 0.162205,0.821582 0.158033,0.842139 -0.0024,0.01169 -0.007,0.09062 -0.01037,0.175409 z"
       id="path1057" />
    <path
       style="fill:#720a0a;stroke:#000000;stroke-width:0.0110909;stroke-miterlimit:4;stroke-dasharray:none;stroke-opacity:1;fill-opacity:0.90196079"
       d="m 15.399748,16.613475 c -0.002,0.184712 -0.004,0.420696 -0.0044,0.524407 -7.32e-4,0.169342 -0.0017,0.188567 -0.0097,0.188567 -0.01791,0 -0.07515,-0.03581 -0.160071,-0.100154 -0.04789,-0.03628 -0.09451,-0.06979 -0.103591,-0.07445 -0.0091,-0.0047 -0.01717,-0.009 -0.01798,-0.0097 -8.54e-4,-7.32e-4 0.01058,-0.03318 0.02532,-0.07225 0.117973,-0.312839 0.221422,-0.715427 0.270069,-1.051021 0.0057,-0.03896 0.0057,0.09556 3.67e-4,0.594603 z"
       id="path1059" />
    <path
       style="fill:#720b0b;stroke:#000000;stroke-width:0.0221819;stroke-miterlimit:4;stroke-dasharray:none;stroke-opacity:1;fill-opacity:0.90196079"
       d="m 17.943573,17.620539 c -0.197213,0.493596 -0.512216,1.019096 -0.861274,1.436809 -0.303516,0.363215 -0.822576,0.843679 -0.994655,0.920698 -0.238152,0.106593 -0.558036,0.206497 -0.793286,0.247756 -0.18333,0.03215 -0.465277,0.03486 -0.615465,0.0059 -0.348047,-0.06709 -0.621044,-0.222014 -0.897817,-0.509498 -0.08531,-0.08861 -0.221754,-0.25292 -0.283629,-0.341547 l -0.02422,-0.03469 0.129354,-0.108117 c 0.242886,-0.203009 0.522613,-0.48975 0.724769,-0.742945 0.268747,-0.336595 0.538487,-0.785148 0.699627,-1.163415 0.02644,-0.06208 0.05275,-0.112865 0.05845,-0.112865 0.0057,0 0.04544,0.02686 0.0883,0.05969 0.09164,0.07019 0.169147,0.116175 0.196123,0.116361 0.01771,1.22e-4 0.01927,0.01815 0.01927,0.223359 v 0.223227 l 0.04129,0.06992 c 0.057,0.09651 0.153991,0.199258 0.224477,0.237797 0.04944,0.02703 0.07162,0.03229 0.136139,0.03226 0.06635,-3.3e-5 0.08666,-0.0052 0.145908,-0.03691 0.07671,-0.0411 0.206898,-0.169528 0.273457,-0.269772 l 0.04074,-0.06136 -0.0077,-0.111534 -0.0077,-0.111533 0.02538,0.0074 c 0.08926,0.02618 0.287477,0.06262 0.401496,0.07381 0.223756,0.02198 0.39563,-0.0026 0.790361,-0.112913 0.211284,-0.05906 0.505415,-0.130517 0.537501,-0.130587 0.01059,-2.2e-5 0.01922,0.0062 0.01916,0.01372 -5.5e-5,0.0076 -0.0298,0.08809 -0.0661,0.178931 z"
       id="path1061" />
    <path
       style="fill:#a05a2c;stroke:#000000;stroke-width:0.0221819;stroke-miterlimit:4;stroke-dasharray:none;stroke-opacity:1"
       d="m 15.896647,8.3387622 c -0.107606,2.442e-4 -0.177693,0.025177 -0.261515,0.092948 l -0.04405,0.03561 -0.008,-0.042375 c -0.006,-0.031931 -0.118098,-1.591873 -0.132678,-1.8470274 -0.0023,-0.03979 3.66e-4,-0.043876 0.03609,-0.056971 0.05328,-0.019502 0.170268,-0.019405 0.208125,2.441e-4 0.03911,0.020224 0.09854,0.087519 0.11762,0.1331902 0.01124,0.026915 0.180769,1.5916191 0.180769,1.6685034 0,0.012394 -0.02035,0.015763 -0.09635,0.01595 z"
       id="path1063" />
    <path
       style="fill:#a05a2c;stroke:#000000;stroke-width:0.0221819;stroke-miterlimit:4;stroke-dasharray:none;stroke-opacity:1"
       d="m 14.745368,7.4732633 c -0.05351,0.020189 -0.351124,0.1015249 -0.355496,0.097153 -0.0026,-0.00258 2.44e-4,-0.05131 0.0062,-0.1082884 0.03242,-0.3077728 -0.0013,-0.6328271 -0.09405,-0.9068571 -0.0204,-0.060256 -0.03497,-0.1116671 -0.03239,-0.1142463 0.0044,-0.00438 0.405471,-0.056322 0.409218,-0.052997 9.77e-4,8.545e-4 0.01955,0.2269728 0.04136,0.5025274 0.0218,0.2755546 0.04182,0.5173395 0.04448,0.5372991 0.0039,0.029661 4.88e-4,0.037956 -0.01933,0.045409 z"
       id="path1065" />
    <path
       style="fill:#28220b;stroke:#000000;stroke-width:0.0313699;stroke-miterlimit:4;stroke-dasharray:none;stroke-opacity:1"
       d="M 5.3407571,13.666276 C 5.2096273,14.029373 5.093867,14.715418 5.0937183,15.130334 l -5.36e-5,0.148211 -0.2686194,0.04474 c -0.1477403,0.0246 -0.2734827,0.049 -0.2794262,0.05423 -0.0089,0.0078 0.080127,0.695288 0.1042984,0.805348 0.00717,0.03267 0.00834,0.03256 0.2486099,-0.02229 0.1327712,-0.03031 0.2454897,-0.05102 0.2504857,-0.04602 0.00499,0.005 0.023518,0.08071 0.04116,0.168258 l 0.032076,0.159175 -0.052388,0.04089 C 5.0150733,16.603699 4.76575,16.83225 4.5797844,17.023788 4.190661,17.42457 3.9687806,17.767897 3.832272,18.180451 c -0.099829,0.3017 -0.1166729,0.432434 -0.116013,0.900394 3.051e-4,0.224468 -8.666e-4,0.406661 -0.00263,0.404876 -0.00885,-0.009 -0.085914,-0.512505 -0.1065529,-0.696208 C 3.5940827,18.67389 3.569578,18.376828 3.5526178,18.129376 3.5242228,17.715097 3.523574,17.66074 3.5444238,17.4431 3.666494,16.168862 4.1609512,15.018877 5.0662623,13.903685 5.2456338,13.68273 5.3730464,13.541716 5.3722307,13.565057 c -3.052e-4,0.0086 -0.014463,0.05411 -0.031475,0.101219 z"
       id="path1067" />
    <path
       style="fill:#28220b;stroke:#000000;stroke-width:0.0313699;stroke-miterlimit:4;stroke-dasharray:none;stroke-opacity:1"
       d="m 11.413199,20.533595 c -0.587774,0.45874 -0.854178,0.657962 -1.10389,0.825513 -0.6940994,0.465727 -1.2789488,0.705731 -1.992211,0.817543 -0.1822115,0.02856 -0.8377458,0.04989 -0.9596721,0.03123 l -0.075876,-0.01162 0.1790794,-0.03683 c 0.638625,-0.131332 1.0725926,-0.343817 1.4031227,-0.687014 0.2544354,-0.264188 0.4295795,-0.596232 0.5432508,-1.029914 0.015404,-0.05877 0.022254,-0.06654 0.051773,-0.05874 0.018711,0.0049 0.1075975,0.01712 0.1975278,0.02705 0.089929,0.0099 0.1649092,0.01908 0.1666241,0.02033 0.00171,0.0012 -0.017369,0.131276 -0.04241,0.288948 -0.02504,0.157674 -0.043454,0.288752 -0.04092,0.291286 0.00869,0.0087 0.6335603,0.04075 0.6414033,0.0329 0.0043,-0.0043 0.02876,-0.126235 0.05433,-0.270944 0.02557,-0.144708 0.04973,-0.277443 0.05368,-0.294966 0.0066,-0.02917 0.02598,-0.03342 0.229589,-0.05027 0.285136,-0.0236 0.551852,-0.06888 0.84529,-0.143499 0.12847,-0.03267 0.234662,-0.05833 0.23598,-0.05703 0.0013,0.0013 -0.172683,0.139009 -0.386671,0.30602 z"
       id="path1069" />
    <path
       style="fill:#504416;stroke:#000000;stroke-width:0.0313699;stroke-miterlimit:4;stroke-dasharray:none;stroke-opacity:1"
       d="m 9.292455,20.549165 c -0.067776,0.217375 -0.1368484,0.377967 -0.2272901,0.528447 -0.347698,0.578517 -0.8824448,0.8799 -1.8643907,1.050771 l -0.2337155,0.04067 -0.2320578,-0.03923 C 6.0152157,22.008134 5.4385373,21.798832 4.9768726,21.491718 4.4666285,21.152289 4.1156275,20.701345 3.8856496,20.089787 3.8322109,19.947683 3.8258161,19.91364 3.8125187,19.700484 c -0.00802,-0.12847 -0.015567,-0.412273 -0.016781,-0.630672 -0.00249,-0.447508 0.012825,-0.569353 0.1071666,-0.85265 0.099294,-0.298168 0.2486827,-0.566301 0.4704947,-0.844476 0.1444821,-0.181196 0.5019963,-0.539624 0.7124785,-0.714301 l 0.1557216,-0.129231 0.013938,0.05181 c 0.040096,0.149042 0.1847808,0.569701 0.2427712,0.705839 0.2560061,0.601003 0.6050615,1.123108 1.0657411,1.594098 0.7123516,0.728295 1.6156519,1.233176 2.5854136,1.445063 0.1074681,0.02348 0.1950756,0.04652 0.1946837,0.05119 -3.661e-4,0.0047 -0.023653,0.08208 -0.051692,0.172009 z"
       id="path1071" />
    <path
       style="fill:#504416;stroke:#000000;stroke-width:0.0313699;stroke-miterlimit:4;stroke-dasharray:none;stroke-opacity:1"
       d="M 3.8938345,20.982392 3.6133142,21.127533 3.5530102,20.997964 C 3.5198431,20.9267 3.4324833,20.74226 3.3588767,20.588095 c -0.073606,-0.154164 -0.133838,-0.287661 -0.1338491,-0.29666 -1.11e-5,-0.009 0.029761,-0.03142 0.066161,-0.04982 0.0364,-0.0184 0.1582618,-0.08234 0.2708046,-0.142071 l 0.2046222,-0.10861 0.051031,0.14286 c 0.059279,0.165952 0.2026231,0.458085 0.2938535,0.598872 0.034874,0.05382 0.063283,0.09937 0.063131,0.101219 -1.221e-4,0.0019 -0.1265113,0.06868 -0.2807971,0.14851 z"
       id="path1073" />
    <path
       style="fill:#504416;stroke:#000000;stroke-width:0.0313699;stroke-miterlimit:4;stroke-dasharray:none;stroke-opacity:1"
       d="m 4.9325414,16.073157 -0.2102336,0.0477 -0.00828,-0.0477 c -0.038152,-0.219863 -0.087195,-0.622359 -0.076939,-0.631437 0.010591,-0.0094 0.4074716,-0.07928 0.4448947,-0.07837 0.00642,2.44e-4 0.011861,0.04408 0.01208,0.09761 3.661e-4,0.09082 0.017818,0.306298 0.039394,0.48663 l 0.00932,0.07786 z"
       id="path1075" />
    <path
       style="fill:#504416;stroke:#000000;stroke-width:0.0313699;stroke-miterlimit:4;stroke-dasharray:none;stroke-opacity:1"
       d="m 10.370003,20.704686 c -0.02546,0.141208 -0.04841,0.258859 -0.051,0.261448 -0.0091,0.0091 -0.4583639,-0.01687 -0.4756307,-0.02754 -0.01271,-0.0078 -0.00859,-0.06808 0.01501,-0.219592 0.017888,-0.114822 0.035959,-0.224644 0.040158,-0.244049 0.00759,-0.03508 0.00912,-0.03526 0.2642167,-0.03226 0.14112,0.0017 0.255898,0.0035 0.255061,0.0041 -8.54e-4,6.1e-4 -0.02235,0.116654 -0.04781,0.257862 z"
       id="path1077" />
    <path
       style="fill:#28220b;stroke:#000000;stroke-width:0.0156849;stroke-miterlimit:4;stroke-dasharray:none;stroke-opacity:1"
       d="m 15.908152,8.3242442 c -0.110492,0 -0.18489,0.022529 -0.258935,0.078408 -0.0223,0.016829 -0.04229,0.030597 -0.04442,0.030597 -0.0076,0 -0.01269,-0.055226 -0.03959,-0.4282344 -0.07011,-0.9721993 -0.09735,-1.3701611 -0.09735,-1.4220716 0,-0.045892 6.1e-4,-0.046333 0.07509,-0.056886 0.0648,-0.00918 0.134871,9.765e-4 0.166101,0.024064 0.04694,0.034702 0.08577,0.094449 0.0938,0.1443088 0.01982,0.1230396 0.171098,1.5336483 0.171098,1.5953701 v 0.034443 z"
       id="path1079" />
    <path
       style="fill:#28220b;stroke:#000000;stroke-width:0.0156849;stroke-miterlimit:4;stroke-dasharray:none;stroke-opacity:1"
       d="m 14.738721,7.4583742 c -0.02182,0.011462 -0.330479,0.097067 -0.33455,0.092785 -8.54e-4,-8.544e-4 0.0021,-0.033163 0.0066,-0.071704 0.0045,-0.038541 0.0082,-0.1506609 0.0084,-0.2491538 3.66e-4,-0.2419241 -0.02221,-0.4063976 -0.08522,-0.6205611 -0.04411,-0.1499005 -0.04505,-0.1534757 -0.04136,-0.1568825 0.005,-0.00465 0.368806,-0.050453 0.372688,-0.046925 0.0018,0.00162 0.0045,0.021346 0.006,0.043824 0.0067,0.099705 0.07304,0.9247465 0.07723,0.9608634 0.004,0.034063 0.0025,0.041324 -0.0098,0.047754 z"
       id="path1081" />
    <path
       style="fill:#000000;stroke:#000000;stroke-width:0.0110909;stroke-miterlimit:4;stroke-dasharray:none;stroke-opacity:1"
       d="m 15.026269,3.1649189 c -0.08049,0.00936 -0.474036,0.041854 -0.476549,0.039341 -0.0045,-0.0045 -0.0991,-1.1393666 -0.09528,-1.1431224 0.0047,-0.00459 0.501032,-0.04591 0.504911,-0.042032 0.0027,0.00271 0.09558,1.0993376 0.09576,1.1306966 5.6e-5,0.010095 -0.004,0.012229 -0.02884,0.015117 z"
       id="path1085" />
    <path
       style="fill:#000000;stroke:#000000;stroke-width:0.0110909;stroke-miterlimit:4;stroke-dasharray:none;stroke-opacity:1"
       d="m 15.144979,5.7793478 c -0.0012,4.4e-5 -0.05531,0.00374 -0.120287,0.00821 -0.06498,0.00447 -0.119679,0.00629 -0.121556,0.00405 -0.0044,-0.00525 -0.228421,-2.5218206 -0.224815,-2.5254263 0.0023,-0.00232 0.232627,-0.024948 0.233649,-0.022952 2.45e-4,3.662e-4 0.05187,0.5593972 0.114814,1.2422281 0.06295,0.6828298 0.115771,1.2532772 0.117392,1.267661 0.0016,0.014384 0.002,0.026187 8.54e-4,0.026232 z"
       id="path1087" />
    <path
       style="fill:#000000;stroke:#000000;stroke-width:0.0443637;stroke-miterlimit:4;stroke-dasharray:none;stroke-opacity:1"
       d="m 16.035144,17.952196 c -0.201128,0.205547 -0.322427,0.199634 -0.4886,-0.02382 l -0.07609,-0.102314 -0.0018,-1.438242 c -0.0015,-1.183647 -0.0082,-1.492821 -0.03787,-1.746556 -0.0557,-0.47606 -0.711356,-8.7279189 -0.694794,-8.7444803 0.01383,-0.013826 0.56945,-0.059917 0.57893,-0.048024 0.007,0.00881 0.848673,11.8233313 0.847918,11.9025993 -6.11e-4,0.05634 -0.02693,0.09784 -0.12771,0.200836 z"
       id="path1089" />
    <path
       style="fill:#000000;stroke:#000000;stroke-width:0.0221819;stroke-miterlimit:4;stroke-dasharray:none;stroke-opacity:1"
       d="m 16.72966,12.692451 c -0.0073,0 -0.149435,0.0079 -0.315841,0.01752 -0.166405,0.0096 -0.304637,0.01544 -0.307179,0.01289 -0.0052,-0.0052 -0.0284,-0.274756 -0.02403,-0.278869 0.0038,-0.0036 0.543207,-0.03801 0.593768,-0.03791 0.04774,1.22e-4 0.04822,0.0015 0.0593,0.173507 0.0055,0.0848 0.004,0.112864 -0.006,0.112864 z"
       id="path1091" />
    <path
       style="fill:#000000;stroke:#000000;stroke-width:0.0221819;stroke-miterlimit:4;stroke-dasharray:none;stroke-opacity:1"
       d="m 16.124156,15.039594 c -0.06625,0.0037 -0.06636,0.0037 -0.07158,-0.02929 -0.0074,-0.04655 -0.346662,-4.821451 -0.342872,-4.825241 0.0017,-0.0017 0.03327,-0.0063 0.07014,-0.01012 l 0.06703,-0.007 0.0064,0.04827 c 0.0035,0.02655 0.07816,1.098738 0.16587,2.382641 0.08771,1.283904 0.162143,2.357459 0.165414,2.385681 l 0.0059,0.05131 z"
       id="path1093" />
    <path
       style="fill:#b71414;stroke:#000000;stroke-width:0.131439;stroke-miterlimit:4;stroke-dasharray:none;stroke-opacity:1;fill-opacity:0.89999998"
       d="m 14.687257,16.34145 c -0.415815,1.588355 -1.519765,2.77055 -3.073658,3.29151 -0.434913,0.145809 -0.611607,0.167916 -1.34203,0.167916 -0.9841857,0 -1.2814258,-0.0709 -2.1371708,-0.509784 C 7.0930888,18.757041 6.2852628,17.795474 5.9041577,16.636406 5.7583561,16.192978 5.7321311,15.996613 5.7298754,15.33147 c -0.00437,-1.2892 0.3679859,-2.249564 1.2200287,-3.146635 0.971661,-1.023008 2.1702045,-1.508522 3.5506479,-1.438316 2.799083,0.142353 4.884545,2.929276 4.186705,5.594931 z"
       id="path1095" />
  </g>
</svg>
