<?xml version="1.0" encoding="UTF-8" standalone="no"?>
<svg
   xmlns:dc="http://purl.org/dc/elements/1.1/"
   xmlns:cc="http://creativecommons.org/ns#"
   xmlns:rdf="http://www.w3.org/1999/02/22-rdf-syntax-ns#"
   xmlns:svg="http://www.w3.org/2000/svg"
   xmlns="http://www.w3.org/2000/svg"
   xmlns:sodipodi="http://sodipodi.sourceforge.net/DTD/sodipodi-0.dtd"
   xmlns:inkscape="http://www.inkscape.org/namespaces/inkscape"
   width="80"
   height="92.379997"
   viewBox="0 0 21.166666 24.442208"
   version="1.1"
   id="svg8"
   inkscape:version="1.0.1 (3bc2e813f5, 2020-09-07)"
   sodipodi:docname="tank6.svg">
  <defs
     id="defs2" />
  <sodipodi:namedview
     id="base"
     pagecolor="#ffffff"
     bordercolor="#666666"
     borderopacity="1.0"
     inkscape:pageopacity="0.0"
     inkscape:pageshadow="2"
     inkscape:zoom="5.6"
     inkscape:cx="34.766298"
     inkscape:cy="58.992795"
     inkscape:document-units="px"
     inkscape:current-layer="layer1"
     inkscape:document-rotation="0"
     showgrid="false"
     inkscape:window-width="969"
     inkscape:window-height="1008"
     inkscape:window-x="952"
     inkscape:window-y="0"
     inkscape:window-maximized="0"
     units="px" />
  <metadata
     id="metadata5">
    <rdf:RDF>
      <cc:Work
         rdf:about="">
        <dc:format>image/svg+xml</dc:format>
        <dc:type
           rdf:resource="http://purl.org/dc/dcmitype/StillImage" />
        <dc:title></dc:title>
      </cc:Work>
    </rdf:RDF>
  </metadata>
  <g
     inkscape:label="Layer 1"
     inkscape:groupmode="layer"
     id="layer1">
    <path
       style="fill:#454837;stroke:none;stroke-width:0.00787442;stroke-miterlimit:4;stroke-dasharray:none;stroke-opacity:1"
       d=""
       id="path1351"
       transform="scale(0.26458333)" />
    <path
       style="fill:none;stroke:#000000;stroke-width:0.103579px;stroke-linecap:butt;stroke-linejoin:miter;stroke-opacity:1"
       d="m 10.452586,8.6634887 -1.576539,0.025168 -2.881259,2.1648063 2.6366258,6.9727 1.7939882,0.02516"
       id="path182" />
    <path
       style="fill:none;stroke:#000000;stroke-width:0.103579px;stroke-linecap:butt;stroke-linejoin:miter;stroke-opacity:1"
       d="M 8.876047,8.6886538 8.8767936,8.1979811 H 10.433643"
       id="path186" />
    <path
       style="fill:none;stroke:#000000;stroke-width:0.103579px;stroke-linecap:butt;stroke-linejoin:miter;stroke-opacity:1"
       d="M 9.472647,8.1445827 V 7.112215 h 0.98024"
       id="path188" />
    <path
       style="fill:none;stroke:#000000;stroke-width:0.103579px;stroke-linecap:butt;stroke-linejoin:miter;stroke-opacity:1"
       d="m 9.7032941,7.112215 -0.025387,-5.6731452 0.6659489,-0.012584 0.08981,-0.0011"
       id="path192" />
    <path
       style="fill:none;stroke:#000000;stroke-width:0.103579px;stroke-linecap:butt;stroke-linejoin:miter;stroke-opacity:1"
       d="M 9.6264122,6.4358398 H 8.2233276 v 1.6553453 l -1.7682754,0.01778 0.038442,2.4741179"
       id="path194" />
    <path
       style="fill:none;stroke:#000000;stroke-width:0.103579px;stroke-linecap:butt;stroke-linejoin:miter;stroke-opacity:1"
       d="m 9.6264122,6.4358398 0.031975,-9.16e-5"
       id="path198" />
    <path
       style="fill:none;stroke:#000000;stroke-width:0.103579px;stroke-linecap:butt;stroke-linejoin:miter;stroke-opacity:1"
       d="m 6.5384219,12.414145 0.3261807,8.483029 h 1.4406301 l -0.027174,1.258608 1.4134493,0.02517"
       id="path200" />
    <path
       style="fill:none;stroke:#000000;stroke-width:0.103579px;stroke-linecap:butt;stroke-linejoin:miter;stroke-opacity:1"
       d="M 8.2233276,6.4358398 8.2041251,5.4212719 5.455614,5.4034555 5.6414466,23.011621 l 2.6298297,-0.01887 0.00679,-0.836977"
       id="path202" />
    <path
       style="fill:none;stroke:#000000;stroke-width:0.103579px;stroke-linecap:butt;stroke-linejoin:miter;stroke-opacity:1"
       d="m 6.8010182,18.575048 3.6326518,-0.0534"
       id="path204" />
    <path
       style="fill:none;stroke:#000000;stroke-width:0.103579px;stroke-linecap:butt;stroke-linejoin:miter;stroke-opacity:1"
       d="m 6.5384219,12.414145 -0.0017,-0.08653 -9.045e-4,-0.0165 9.045e-4,-0.02283"
       id="path208" />
    <path
       style="fill:none;stroke:#000000;stroke-width:0.103579px;stroke-linecap:butt;stroke-linejoin:miter;stroke-opacity:1"
       d="m 7.5698341,19.260326 2.287223,-0.02671 v 1.130261 l -2.2583939,0.0089 z"
       id="path212" />
    <path
       style="fill:none;stroke:#000000;stroke-width:0.103579px;stroke-linecap:butt;stroke-linejoin:miter;stroke-opacity:1"
       d="m 8.0334175,19.260981 0.020378,1.11387"
       id="path214" />
    <path
       style="fill:none;stroke:#000000;stroke-width:0.103579px;stroke-linecap:butt;stroke-linejoin:miter;stroke-opacity:1"
       d="m 8.2780498,20.374851 v -1.11387"
       id="path216" />
    <path
       style="fill:none;stroke:#000000;stroke-width:0.103579px;stroke-linecap:butt;stroke-linejoin:miter;stroke-opacity:1"
       d="m 9.4468637,20.381143 0.00679,-1.145334"
       id="path220" />
    <path
       style="fill:none;stroke:#000000;stroke-width:0.103579px;stroke-linecap:butt;stroke-linejoin:miter;stroke-opacity:1"
       d="m 9.1886361,19.254686 -0.013587,1.126457"
       id="path222" />
    <path
       style="fill:none;stroke:#000000;stroke-width:0.103579px;stroke-linecap:butt;stroke-linejoin:miter;stroke-opacity:1"
       d="m 8.1656664,19.220275 v -0.129044 l 0.2258375,0.0044 v 0.13795"
       id="path224" />
    <path
       style="fill:none;stroke:#000000;stroke-width:0.103579px;stroke-linecap:butt;stroke-linejoin:miter;stroke-opacity:1"
       d="m 9.0723542,19.232439 v -0.129043 l 0.2258389,0.0044 v 0.137948"
       id="path224-5" />
    <path
       style="fill:none;stroke:#000000;stroke-width:0.103579px;stroke-linecap:butt;stroke-linejoin:miter;stroke-opacity:1"
       d="M 5.4652029,5.7238632 5.0135257,5.7149699 5.192928,22.583717 5.6278348,22.57114"
       id="path241" />
    <path
       style="fill:none;stroke:#000000;stroke-width:0.103579px;stroke-linecap:butt;stroke-linejoin:miter;stroke-opacity:1"
       d="M 6.4976489,9.3053788 H 8.0877785"
       id="path243" />
    <path
       style="fill:none;stroke:#000000;stroke-width:0.103579px;stroke-linecap:butt;stroke-linejoin:miter;stroke-opacity:1"
       d="m 8.2780702,22.155768 1.9162908,0.02517"
       id="path245" />
    <path
       style="fill:none;stroke:#000000;stroke-width:0.103579px;stroke-linecap:butt;stroke-linejoin:miter;stroke-opacity:1"
       d="m 10.453187,8.6634887 1.57654,0.025168 2.88126,2.1648063 -2.636629,6.9727 -1.793988,0.02516"
       id="path182-1" />
    <path
       style="fill:none;stroke:#000000;stroke-width:0.103579px;stroke-linecap:butt;stroke-linejoin:miter;stroke-opacity:1"
       d="m 12.029727,8.6886538 -7.28e-4,-0.4906727 h -1.55688"
       id="path186-4" />
    <path
       style="fill:none;stroke:#000000;stroke-width:0.103579px;stroke-linecap:butt;stroke-linejoin:miter;stroke-opacity:1"
       d="M 11.433125,8.1445827 V 7.112215 h -0.980238"
       id="path188-9" />
    <path
       style="fill:none;stroke:#000000;stroke-width:0.103579px;stroke-linecap:butt;stroke-linejoin:miter;stroke-opacity:1"
       d="m 11.20248,7.112215 0.02539,-5.6731452 -0.665947,-0.012584 -0.08981,-0.0011"
       id="path192-2" />
    <path
       style="fill:none;stroke:#000000;stroke-width:0.103579px;stroke-linecap:butt;stroke-linejoin:miter;stroke-opacity:1"
       d="m 11.279362,6.4358398 h 1.403085 v 1.6553453 l 1.768275,0.01778 -0.03844,2.4741179"
       id="path194-3" />
    <path
       style="fill:none;stroke:#000000;stroke-width:0.103579px;stroke-linecap:butt;stroke-linejoin:miter;stroke-opacity:1"
       d="m 11.279362,6.4358398 -0.03197,-9.16e-5"
       id="path198-2" />
    <path
       style="fill:none;stroke:#000000;stroke-width:0.103579px;stroke-linecap:butt;stroke-linejoin:miter;stroke-opacity:1"
       d="m 14.367356,12.414145 -0.326182,8.483029 H 12.60054 l 0.02718,1.258608 -1.413451,0.02517"
       id="path200-9" />
    <path
       style="fill:none;stroke:#000000;stroke-width:0.103579px;stroke-linecap:butt;stroke-linejoin:miter;stroke-opacity:1"
       d="m 12.682447,6.4358398 0.01921,-1.0145679 2.748515,-0.017816 -0.185834,17.6081621 -2.629831,-0.01887 -0.0068,-0.836977"
       id="path202-6" />
    <path
       style="fill:none;stroke:#000000;stroke-width:0.103579px;stroke-linecap:butt;stroke-linejoin:miter;stroke-opacity:1"
       d="m 14.104759,18.575048 -3.632655,-0.0534"
       id="path204-6" />
    <path
       style="fill:none;stroke:#000000;stroke-width:0.103579px;stroke-linecap:butt;stroke-linejoin:miter;stroke-opacity:1"
       d="m 14.367356,12.414145 0.0016,-0.08653 7.29e-4,-0.0165 -7.29e-4,-0.02283"
       id="path208-6" />
    <path
       style="fill:none;stroke:#000000;stroke-width:0.103579px;stroke-linecap:butt;stroke-linejoin:miter;stroke-opacity:1"
       d="m 13.33594,19.260326 -2.287225,-0.02671 v 1.130261 l 2.258394,0.0089 z"
       id="path212-3" />
    <path
       style="fill:none;stroke:#000000;stroke-width:0.103579px;stroke-linecap:butt;stroke-linejoin:miter;stroke-opacity:1"
       d="m 12.872356,19.260981 -0.02038,1.11387"
       id="path214-1" />
    <path
       style="fill:none;stroke:#000000;stroke-width:0.103579px;stroke-linecap:butt;stroke-linejoin:miter;stroke-opacity:1"
       d="m 12.627722,20.374851 v -1.11387"
       id="path216-7" />
    <path
       style="fill:none;stroke:#000000;stroke-width:0.103579px;stroke-linecap:butt;stroke-linejoin:miter;stroke-opacity:1"
       d="m 11.458908,20.381143 -0.0068,-1.14533"
       id="path220-2" />
    <path
       style="fill:none;stroke:#000000;stroke-width:0.103579px;stroke-linecap:butt;stroke-linejoin:miter;stroke-opacity:1"
       d="m 11.717137,19.254686 0.01358,1.126457"
       id="path222-7" />
    <path
       style="fill:none;stroke:#000000;stroke-width:0.103579px;stroke-linecap:butt;stroke-linejoin:miter;stroke-opacity:1"
       d="m 12.740106,19.220281 v -0.129048 l -0.225837,0.0044 v 0.137945"
       id="path224-9" />
    <path
       style="fill:none;stroke:#000000;stroke-width:0.103579px;stroke-linecap:butt;stroke-linejoin:miter;stroke-opacity:1"
       d="m 11.83342,19.232445 v -0.129049 l -0.225838,0.0044 v 0.137948"
       id="path224-5-7" />
    <path
       style="fill:none;stroke:#000000;stroke-width:0.103579px;stroke-linecap:butt;stroke-linejoin:miter;stroke-opacity:1"
       d="m 15.440574,5.7238632 0.451675,-0.00889 -0.179401,16.8687508 -0.434907,-0.01259"
       id="path241-4" />
    <path
       style="fill:none;stroke:#000000;stroke-width:0.103579px;stroke-linecap:butt;stroke-linejoin:miter;stroke-opacity:1"
       d="M 14.408125,9.3053788 H 12.817994"
       id="path243-2" />
    <path
       style="fill:none;stroke:#000000;stroke-width:0.103579px;stroke-linecap:butt;stroke-linejoin:miter;stroke-opacity:1"
       d="m 12.627701,22.155768 -1.916288,0.02517"
       id="path245-9" />
    <path
       style="fill:none;stroke:#000000;stroke-width:0.103579px;stroke-linecap:butt;stroke-linejoin:miter;stroke-opacity:1"
       d="m 10.43371,8.1979811 h 0.03836"
       id="path319" />
    <path
       style="fill:none;stroke:#000000;stroke-width:0.103579px;stroke-linecap:butt;stroke-linejoin:miter;stroke-opacity:1"
       d="M 9.6779097,1.4390698 H 11.227863"
       id="path321" />
    <path
       style="fill:none;stroke:#000000;stroke-width:0.103579px;stroke-linecap:butt;stroke-linejoin:miter;stroke-opacity:1"
       d="m 10.425402,17.851326 0.203862,1.5e-5"
       id="path323" />
    <path
       style="fill:none;stroke:#000000;stroke-width:0.103579px;stroke-linecap:butt;stroke-linejoin:miter;stroke-opacity:1"
       d="m 10.43367,18.52165 h 0.03844"
       id="path325" />
    <path
       style="fill:none;stroke:#000000;stroke-width:0.103579px;stroke-linecap:butt;stroke-linejoin:miter;stroke-opacity:1"
       d="m 10.194361,22.180933 h 0.517052"
       id="path327" />
    <path
       style="fill:none;stroke:#000000;stroke-width:0.103579px;stroke-linecap:butt;stroke-linejoin:miter;stroke-opacity:1"
       d="m 10.425402,9.6452057 h 1.440635 l 1.902715,1.3844723 -2.25608,5.739256 -1.223174,-0.02516"
       id="path329" />
    <path
       style="fill:none;stroke:#000000;stroke-width:0.103579px;stroke-linecap:butt;stroke-linejoin:miter;stroke-opacity:1"
       d="M 10.425402,9.6452057 H 8.9847696 L 7.082053,11.029678 9.3381334,16.768934 10.561308,16.74377"
       id="path329-2" />
    <path
       style="fill:none;stroke:#000000;stroke-width:0.103579px;stroke-linecap:butt;stroke-linejoin:miter;stroke-opacity:1"
       d="M 8.9847696,9.6452057 8.876047,8.6886538"
       id="path346" />
    <path
       style="fill:none;stroke:#000000;stroke-width:0.103579px;stroke-linecap:butt;stroke-linejoin:miter;stroke-opacity:1"
       d="m 11.866037,9.6452057 0.16369,-0.9565519"
       id="path348" />
    <path
       style="fill:none;stroke:#000000;stroke-width:0.103579px;stroke-linecap:butt;stroke-linejoin:miter;stroke-opacity:1"
       d="m 13.768752,11.029678 1.142235,-0.176217"
       id="path350" />
    <path
       style="fill:none;stroke:#000000;stroke-width:0.103579px;stroke-linecap:butt;stroke-linejoin:miter;stroke-opacity:1"
       d="M 7.082053,11.029678 5.994788,10.853461"
       id="path352" />
    <path
       style="fill:none;stroke:#000000;stroke-width:0.103579px;stroke-linecap:butt;stroke-linejoin:miter;stroke-opacity:1"
       d="M 9.3381334,16.768934 8.6314138,17.82616"
       id="path354" />
    <path
       style="fill:none;stroke:#000000;stroke-width:0.103743;stroke-linecap:butt;stroke-linejoin:miter;stroke-miterlimit:4;stroke-dasharray:none;stroke-opacity:1"
       d="m 11.512672,16.768934 0.761686,1.057226"
       id="path356" />
    <ellipse
       style="fill:#5d6c53;stroke:#000000;stroke-width:0.08481;stroke-miterlimit:4;stroke-dasharray:none;stroke-opacity:1"
       id="path1185-2-1"
       cx="9.0882483"
       cy="11.704469"
       rx="1.0769179"
       ry="0.99882984" />
    <path
       style="fill:none;stroke:#000000;stroke-width:0.103579px;stroke-linecap:butt;stroke-linejoin:miter;stroke-opacity:1"
       d="m 8.3460071,12.451905 0.013587,0.28948 1.5017884,-0.02516 0.00679,-0.314653"
       id="path1217" />
    <path
       style="fill:none;stroke:#000000;stroke-width:0.103579px;stroke-linecap:butt;stroke-linejoin:miter;stroke-opacity:1"
       d="m 11.173653,11.33958 v 0.756475 h 1.556845 l 0.0096,-0.756475 -1.624119,0.0089"
       id="path1219" />
    <path
       style="fill:none;stroke:#000000;stroke-width:0.103579px;stroke-linecap:butt;stroke-linejoin:miter;stroke-opacity:1"
       d="m 12.461413,12.140536 v 0.177995 l -1.057117,0.01783 V 12.15836 l -0.0071,-0.03368"
       id="path1221" />
    <path
       style="fill:none;stroke:#000000;stroke-width:0.103579px;stroke-linecap:butt;stroke-linejoin:miter;stroke-opacity:1"
       d="m 11.668968,12.341775 v -0.22655"
       id="path1223" />
    <path
       style="fill:none;stroke:#000000;stroke-width:0.103579px;stroke-linecap:butt;stroke-linejoin:miter;stroke-opacity:1"
       d="M 12.161638,12.326043 V 12.099492"
       id="path1225" />
    <path
       style="fill:#677821;stroke:none;stroke-width:0.0129189;stroke-miterlimit:4;stroke-dasharray:none;stroke-opacity:1"
       d="m 6.8323076,18.500059 c 0,-0.01252 -0.049143,-1.297571 -0.1092072,-2.855672 -0.060062,-1.5581 -0.1074611,-2.861957 -0.1053278,-2.897461 0.00351,-0.05862 0.093704,0.173291 0.9813225,2.523512 0.5375944,1.423436 0.9823195,2.593255 0.9882797,2.5996 0.035877,0.0382 3.7080392,0.03664 3.7329772,-0.0016 0.0052,-0.008 0.449796,-1.179716 0.987995,-2.603878 0.633112,-1.675289 0.979877,-2.576405 0.982332,-2.552675 0.0021,0.02017 -0.04532,1.309272 -0.105329,2.864662 -0.06002,1.555391 -0.109121,2.854569 -0.109121,2.887065 v 0.05909 l -0.336373,-0.0081 c -0.185006,-0.0044 -1.001349,-0.01732 -1.814098,-0.02868 -1.369966,-0.01912 -1.582052,-0.01912 -2.9084402,3.9e-5 -0.7868953,0.01137 -1.6004338,0.02431 -1.8078648,0.02875 -0.3579814,0.0076 -0.3771454,0.0069 -0.3771454,-0.01469 z"
       id="path1231" />
    <path
       style="fill:#677821;stroke:none;stroke-width:0.000288369;stroke-miterlimit:4;stroke-dasharray:none;stroke-opacity:1"
       d="m 6.5455445,10.372729 c -3.729e-4,-0.0036 -0.016052,-1.0154253 -0.01565,-1.0158465 3.727e-4,-3.46e-4 0.3082923,-3.46e-4 0.6844367,0 L 7.8982281,9.3574415 7.2274948,9.861388 C 6.4949942,10.41174 6.5456761,10.373738 6.545546,10.372727 Z"
       id="path1233" />
    <path
       style="fill:#e618c4;stroke:none;stroke-width:0.00081562;stroke-miterlimit:4;stroke-dasharray:none;stroke-opacity:1;fill-opacity:0.90196079"
       d="m 6.5268194,9.0238788 c -0.00243,-0.125467 -0.00644,-0.3701047 -0.00891,-0.5436413 l -0.00449,-0.315516 0.1046811,-0.0037 c 0.057575,-0.00206 0.3080352,-0.00522 0.5565771,-0.00702 0.2485439,-0.00182 0.5994426,-0.00516 0.7797758,-0.00744 l 0.3278785,-0.00413 V 7.3158824 6.4893268 H 8.9618779 9.64142 l 1.39e-5,0.1022626 c 5.8e-6,0.056243 0.00202,0.1850936 0.00449,0.2863333 l 0.00448,0.1840718 H 9.5337861 9.417169 V 7.6031967 8.1443988 H 9.1181696 8.8191717 l -2.481e-4,0.2595875 -2.482e-4,0.2595879 -0.3921967,0.2942002 -0.392197,0.2942 H 7.2827408 6.5312 Z"
       id="path1235" />
    <path
       style="fill:#e618c4;stroke:none;stroke-width:0.00057674;stroke-miterlimit:4;stroke-dasharray:none;stroke-opacity:1;fill-opacity:0.90196079"
       d="M 12.479789,8.9595384 12.087199,8.6648485 12.086852,8.4056447 12.086506,8.146441 H 11.78859 11.490676 V 7.6035585 7.0606748 H 11.375352 11.260031 V 6.7736599 6.4866436 h 0.682321 0.682322 v 0.8276738 c 0,0.6591527 0.0012,0.8276805 0.006,0.8277085 0.0513,2.926e-4 1.319666,0.01372 1.506396,0.015935 l 0.25587,0.00303 -7.7e-5,0.040557 c -5.8e-5,0.022303 -0.0033,0.2267794 -0.0071,0.45439 -0.0038,0.22761 -0.007,0.455387 -0.0071,0.5061708 l -7.7e-5,0.092335 -0.7532,-8.26e-5 -0.753196,-8.37e-5 z"
       id="path1237" />
    <path
       style="fill:#445016;stroke:none;stroke-width:0.000576736;stroke-miterlimit:4;stroke-dasharray:none;stroke-opacity:1"
       d="m 13.68519,9.8646133 -0.670883,-0.5040606 0.678196,-0.0011 c 0.373006,-5.591e-4 0.679211,-1.664e-4 0.680458,0.00104 0.0024,0.0023 -0.01277,1.0044663 -0.01532,1.0068233 -9.11e-4,8.5e-4 -0.303461,-0.225376 -0.672448,-0.5026062 z"
       id="path1239" />
    <path
       style="fill:#a21189;stroke:none;stroke-width:0.00326251;stroke-miterlimit:4;stroke-dasharray:none;stroke-opacity:1;fill-opacity:0.90196079"
       d="M 5.701391,22.419138 C 5.7005229,22.122685 5.659742,18.18737 5.6107696,13.673995 5.5617961,9.1606216 5.5227537,5.4673474 5.5240088,5.4667185 c 0.00128,-6.071e-4 0.5924644,0.0034 1.3137981,0.00888 l 1.3115172,0.010026 v 1.2646891 1.264689 l -0.387339,0.016408 c -0.2130372,0.00903 -0.612418,0.01645 -0.8875128,0.0165 l -0.5001729,9.16e-5 0.017698,0.4971518 c 0.00972,0.2734318 0.018861,0.8143188 0.020285,1.2019708 l 0.00258,0.7048212 -0.2316174,0.176206 c -0.1273896,0.09691 -0.2397391,0.18383 -0.2496648,0.193151 -0.00992,0.0094 0.1056999,0.343401 0.256947,0.742401 l 0.2749912,0.725456 0.162313,4.203934 c 0.089271,2.312165 0.1623313,4.263404 0.1623565,4.33609 l 4.73e-5,0.132151 H 7.5131185 8.236006 l -0.019538,0.975421 c -0.01074,0.536484 -0.02228,0.978426 -0.025628,0.982093 -0.00335,0.0036 -0.5644921,0.01401 -1.2469824,0.02298 l -1.2408938,0.01631 z"
       id="path1247" />
    <path
       style="fill:#a2118a;stroke:none;stroke-width:0.00326251;stroke-miterlimit:4;stroke-dasharray:none;stroke-opacity:1;fill-opacity:0.90196073"
       d="m 13.103188,22.931121 -0.41452,-0.0077 -3.47e-4,-0.77339 c -7.7e-5,-0.425364 -0.0081,-0.866841 -0.01762,-0.98106 L 12.653251,20.9613 h 0.72111 0.721111 l 0.01655,-0.232843 c 0.0092,-0.128062 0.08462,-2.067894 0.167823,-4.310737 l 0.151273,-4.077895 0.104618,-0.289479 c 0.05755,-0.159215 0.183936,-0.499605 0.280877,-0.756425 l 0.176256,-0.466949 -0.255283,-0.187532 -0.255282,-0.187534 0.01795,-1.2019721 0.01795,-1.2019714 h -0.475626 c -0.261593,0 -0.661047,-0.00744 -0.887674,-0.016518 l -0.412046,-0.016518 7.6e-5,-0.833045 c 4.7e-5,-0.4581751 0.0081,-1.027282 0.01777,-1.2646824 l 0.01768,-0.4316373 1.293753,-0.010056 c 0.711562,-0.00553 1.297494,-0.00794 1.30207,-0.00535 0.01242,0.00701 -0.156349,16.3784122 -0.174952,16.9700222 l -0.01602,0.509737 -0.832846,-0.0055 c -0.458064,-0.0031 -1.019382,-0.0091 -1.247368,-0.01327 z"
       id="path1249" />
    <path
       style="fill:#445016;stroke:none;stroke-width:0.000203906;stroke-miterlimit:4;stroke-dasharray:none;stroke-opacity:1"
       d="m 13.12169,20.960736 c 0.178699,-1.66e-4 0.471115,-1.66e-4 0.649813,0 0.178699,1.67e-4 0.03249,4e-4 -0.324906,4e-4 -0.357397,0 -0.503604,-1.66e-4 -0.324907,-4e-4 z"
       id="path1251" />
    <path
       style="fill:#a21189;stroke:none;stroke-width:0.00040781;stroke-miterlimit:4;stroke-dasharray:none;stroke-opacity:1;fill-opacity:0.90196079"
       d="m 9.0078869,12.658308 c -0.00654,-6.67e-4 -0.02642,-0.0028 -0.044171,-0.0046 -0.1612471,-0.01701 -0.3306513,-0.0772 -0.4668252,-0.165879 -0.066653,-0.0434 -0.1518126,-0.116367 -0.203264,-0.17415 -0.2883611,-0.323843 -0.3153218,-0.786094 -0.066182,-1.134669 0.041351,-0.05786 0.078748,-0.100124 0.1330345,-0.150352 0.1689788,-0.156363 0.3746005,-0.247987 0.6185265,-0.275618 0.04377,-0.005 0.1736075,-0.005 0.2174529,-10e-6 0.018688,0.002 0.051561,0.0066 0.073051,0.01015 0.164488,0.02654 0.3256003,0.09394 0.4594243,0.19221 0.04526,0.03323 0.1301738,0.111789 0.1650289,0.152669 0.1546262,0.181357 0.2312402,0.395383 0.2239162,0.625523 -0.0023,0.07475 -0.01063,0.130811 -0.02984,0.202748 -0.01894,0.07092 -0.03864,0.120247 -0.0761,0.190567 -0.082194,0.154299 -0.2037617,0.282575 -0.355082,0.374678 -0.1351188,0.08224 -0.265778,0.127975 -0.4315098,0.151042 -0.03386,0.0047 -0.1884583,0.0088 -0.2174532,0.0057 z"
       id="path1255" />
    <path
       style="fill:#445016;stroke:none;stroke-width:0.000407811;stroke-miterlimit:4;stroke-dasharray:none;stroke-opacity:1"
       d="m 12.684881,19.810944 v -0.508597 l 0.06541,0.0023 c 0.03598,0.0012 0.06553,0.0025 0.06568,0.0028 3.46e-4,4e-4 -0.01773,0.959864 -0.01875,1.003457 l -3.46e-4,0.0087 h -0.05606 -0.05606 z"
       id="path1257" />
    <path
       style="fill:#445016;stroke:none;stroke-width:0.000407811;stroke-miterlimit:4;stroke-dasharray:none;stroke-opacity:1"
       d="m 12.61268,19.200174 -0.04332,-0.0011 v -0.02664 -0.02664 h 0.03177 c 0.01747,0 0.04346,-8.51e-4 0.05776,-0.0021 l 0.026,-0.0021 v 0.03035 0.03035 l -0.01444,-7.29e-4 c -0.008,-4e-4 -0.03393,-0.0011 -0.05776,-0.0017 z"
       id="path1259" />
    <path
       style="fill:#445016;stroke:none;stroke-width:0.000407811;stroke-miterlimit:4;stroke-dasharray:none;stroke-opacity:1"
       d="m 11.662171,19.174203 v -0.01573 h 0.01645 c 0.0091,0 0.03505,-9.1e-4 0.05776,-0.0021 l 0.04131,-0.0021 v 0.0178 0.0178 h -0.05776 -0.05776 z"
       id="path1261" />
    <path
       style="fill:#445016;stroke:none;stroke-width:0.000407811;stroke-miterlimit:4;stroke-dasharray:none;stroke-opacity:1"
       d="m 11.568446,20.314042 -0.05465,-9.11e-4 -0.0022,-0.382747 c -0.0012,-0.210513 -0.0022,-0.440568 -0.0022,-0.511235 v -0.128488 h 0.07645 0.07645 l -1.5e-5,0.01338 c -2.9e-5,0.02555 0.01,0.857101 0.01126,0.934518 l 0.0012,0.07788 -0.0258,-7.29e-4 c -0.01418,-3.99e-4 -0.05039,-0.0011 -0.08046,-0.0016 z"
       id="path1263" />
    <path
       style="fill:#445016;stroke:none;stroke-width:0.000407811;stroke-miterlimit:4;stroke-dasharray:none;stroke-opacity:1"
       d="m 9.2329905,20.22619 c 3.92e-5,-0.04802 0.00228,-0.257229 0.00502,-0.464899 0.00273,-0.207671 0.00498,-0.398467 0.00502,-0.423995 l 7.36e-5,-0.0464 h 0.077298 l 0.077298,-3e-6 -7.467e-4,0.07788 c -3.727e-4,0.04283 -0.00175,0.272922 -0.00296,0.51131 l -0.00218,0.433435 h -0.079428 -0.079429 z"
       id="path1265" />
    <path
       style="fill:#445016;stroke:none;stroke-width:0.000407811;stroke-miterlimit:4;stroke-dasharray:none;stroke-opacity:1"
       d="m 8.1071955,20.243494 c -0.00405,-0.144566 -0.017234,-0.93355 -0.015629,-0.935034 9.045e-4,-7.29e-4 0.030999,-0.0025 0.066921,-0.0037 l 0.065314,-0.0022 v 0.508641 0.50864 h -0.057235 -0.057234 z"
       id="path1267" />
    <path
       style="fill:#445016;stroke:none;stroke-width:0.000407811;stroke-miterlimit:4;stroke-dasharray:none;stroke-opacity:1"
       d="m 8.220402,19.172853 v -0.03081 l 0.036205,0.0021 c 0.019913,0.0011 0.045904,0.0021 0.057761,0.0021 h 0.021558 v 0.02674 0.02674 l -0.039924,3e-5 c -0.021956,1.3e-5 -0.04795,9.1e-4 -0.057761,0.002 l -0.017839,0.002 z"
       id="path1269" />
    <path
       style="fill:#89a02c;stroke:none;stroke-width:0.000407811;stroke-miterlimit:4;stroke-dasharray:none;stroke-opacity:1"
       d="m 9.1275907,19.172891 v -0.0173 h 0.021558 c 0.011859,0 0.037849,9.11e-4 0.057761,0.0021 l 0.036205,0.0021 v 0.01526 0.01526 h -0.057764 -0.057761 z"
       id="path1271" />
    <path
       style="fill:#89a02c;stroke:none;stroke-width:0.00163125;stroke-miterlimit:4;stroke-dasharray:none;stroke-opacity:1"
       d="M 14.257528,10.28304 C 14.20894,10.246071 13.931568,10.037753 13.641145,9.820113 13.350722,9.6024732 13.096911,9.411864 13.077125,9.3965378 l -0.03599,-0.027863 0.662553,-4.789e-4 0.662553,-4.795e-4 -0.0018,0.248575 c -10e-4,0.1367167 -0.0055,0.3577773 -0.01019,0.4912466 l -0.0084,0.242669 z"
       id="path1273" />
    <path
       style="fill:#89a02c;stroke:none;stroke-width:0.00163125;stroke-miterlimit:4;stroke-dasharray:none;stroke-opacity:1"
       d="M 6.5469326,10.000218 C 6.5420095,9.808122 6.5379629,9.5872363 6.5379629,9.5093606 L 6.5379366,9.3677668 H 7.2047145 7.8714927 L 7.2183464,9.8586254 c -0.3592311,0.2699696 -0.655239,0.4908566 -0.6577976,0.4908566 -0.00258,0 -0.00868,-0.157168 -0.013608,-0.349264 z"
       id="path1275" />
    <path
       style="fill:#677821;stroke:none;stroke-width:0.00163125;stroke-miterlimit:4;stroke-dasharray:none;stroke-opacity:1"
       d="m 13.491093,18.506066 c -1.763466,-0.03687 -3.357232,-0.04534 -4.57332,-0.02431 -1.6124173,0.02789 -2.0793976,0.0305 -2.0794421,0.01165 -2.42e-5,-0.0098 -0.033447,-0.892784 -0.074274,-1.962289 C 6.7232309,15.461613 6.6775659,14.241075 6.66258,13.818813 6.647593,13.396551 6.632416,12.985928 6.628848,12.906322 c -0.00815,-0.181869 -0.0098,-0.184495 0.15929,0.251721 0.131965,0.340429 0.1934843,0.502332 1.128633,2.970318 0.2950826,0.778765 0.5651618,1.490588 0.6001738,1.581828 l 0.063659,0.165893 0.090436,0.01031 c 0.1188696,0.01356 3.3854312,0.01341 3.5378582,-1.66e-4 l 0.117664,-0.01048 0.0748,-0.197198 c 0.04114,-0.108459 0.359279,-0.947643 0.706975,-1.864854 0.873086,-2.303167 1.164287,-3.062866 1.171309,-3.055748 0.0045,0.0045 -4.52e-4,0.141719 -0.116173,3.207895 -0.05212,1.381625 -0.09477,2.521452 -0.09477,2.532952 0,0.01653 -0.01212,0.02049 -0.05776,0.01891 -0.03177,-0.001 -0.265701,-0.0063 -0.51985,-0.01165 z"
       id="path1277" />
    <path
       style="fill:#e618c4;stroke:none;stroke-width:0.00163125;stroke-miterlimit:4;stroke-dasharray:none;stroke-opacity:1;fill-opacity:0.90196079"
       d="m 9.1982459,22.112938 c -0.3102118,-0.0051 -0.6304976,-0.01023 -0.711746,-0.01118 l -0.1477257,-0.0017 0.00857,-0.418489 c 0.00472,-0.230168 0.01226,-0.513355 0.01677,-0.629305 l 0.0082,-0.210817 H 7.650439 c -0.3970294,0 -0.7225432,-0.0013 -0.7233646,-0.0031 -0.00199,-0.0042 -0.090002,-2.205303 -0.088238,-2.207232 0.0057,-0.0062 3.1940256,-0.04777 3.6505336,-0.04758 0.576438,1.66e-4 3.5629,0.04236 3.572841,0.05038 0.0055,0.0044 -0.06068,1.822121 -0.07524,2.065983 l -0.0085,0.14159 H 13.258372 12.53823 l 0.0087,0.449952 c 0.0048,0.247475 0.01232,0.52974 0.0168,0.627256 l 0.0082,0.177303 -0.317522,0.0084 c -0.510536,0.01345 -2.4426195,0.01892 -3.0560739,0.0087 z m 0.6489626,-1.695045 0.07135,-0.008 V 19.794989 19.180023 H 9.6399479 9.3613354 v -0.06293 -0.06293 H 9.2477106 c -0.062494,0 -0.1420011,-0.0036 -0.1766813,-0.008 l -0.063055,-0.0081 v 0.07722 0.07723 H 8.7293618 8.4507477 v -0.07551 -0.07551 H 8.3233339 c -0.070077,0 -0.1465256,-0.0035 -0.1698848,-0.0079 l -0.042471,-0.0079 v 0.08204 c 0,0.06319 -0.00493,0.08379 -0.021499,0.08968 -0.011818,0.0042 -0.1472861,0.0077 -0.3010264,0.0077 H 7.5089241 l 0.00896,0.405903 c 0.00492,0.223247 0.012833,0.497937 0.01757,0.610425 l 0.00861,0.204523 1.1158996,-8.3e-5 c 0.6137419,-6.2e-5 1.1480061,-0.0037 1.1872483,-0.0081 z M 13.375588,20.04532 c 0.0049,-0.209402 0.01277,-0.484093 0.0175,-0.610427 l 0.0086,-0.229695 -0.22958,-8.5e-5 c -0.126268,-6e-5 -0.261686,-0.0037 -0.30093,-0.0081 l -0.07136,-0.008 v -0.08162 -0.08163 l -0.04247,0.0079 c -0.02336,0.0043 -0.0998,0.0079 -0.169888,0.0079 h -0.127415 v 0.07551 0.07551 H 12.174638 11.88923 v -0.07717 -0.07716 l -0.05096,0.0078 c -0.02803,0.0043 -0.104479,0.0079 -0.169883,0.008 l -0.118921,8.3e-5 v 0.06293 0.06293 h -0.278612 -0.278613 v 0.615956 0.615961 l 0.05096,0.0049 c 0.02802,0.0027 0.562279,0.0059 1.187221,0.007 l 1.136254,0.0021 z"
       id="path1279" />
    <path
       style="fill:#e618c4;stroke:none;stroke-width:0.00115347;stroke-miterlimit:4;stroke-dasharray:none;stroke-opacity:1;fill-opacity:0.90196079"
       d="M 9.7586255,6.1831734 C 9.7551931,5.6998077 9.7502105,4.5874547 9.747528,3.7112784 9.7448606,2.8351015 9.7401498,1.9770577 9.737115,1.8045141 L 9.731565,1.4907994 h 0.71831 0.718307 l -0.0063,1.5997239 c -0.0034,0.8798478 -0.0092,2.133372 -0.01271,2.7856098 l -0.0063,1.185887 H 10.453821 9.7648725 Z"
       id="path1281" />
    <path
       style="fill:#677821;stroke:none;stroke-width:0.000576736;stroke-miterlimit:4;stroke-dasharray:none;stroke-opacity:1"
       d="m 8.3336165,19.812982 v -0.507445 l 0.1045102,-0.0027 c 0.057482,-0.0015 0.237298,-0.004 0.3995921,-0.0055 l 0.2950803,-0.0028 -0.00314,0.210843 c -0.00173,0.115963 -0.00458,0.345504 -0.00634,0.510095 l -0.00319,0.299252 -0.1373812,4e-6 c -0.075558,3e-6 -0.2525205,0.0013 -0.3932497,0.003 l -0.2558714,0.003 z"
       id="path1283" />
    <path
       style="fill:#677821;stroke:none;stroke-width:0.000576736;stroke-miterlimit:4;stroke-dasharray:none;stroke-opacity:1"
       d="m 7.6512804,20.271135 c -7.6e-6,-0.02631 -0.00544,-0.251908 -0.012035,-0.50133 -0.0066,-0.249421 -0.010754,-0.454671 -0.0092,-0.456111 0.00154,-0.0015 0.080485,-0.0033 0.1754057,-0.0041 l 0.1725865,-0.0015 3.8e-6,0.01043 c 1.27e-5,0.03573 0.014457,0.796035 0.016874,0.888169 l 0.00295,0.11236 H 7.8245815 7.6512938 Z"
       id="path1285" />
    <path
       style="fill:#445500;stroke:none;stroke-width:0.000576736;stroke-miterlimit:4;stroke-dasharray:none;stroke-opacity:1"
       d="m 9.5047123,19.977446 c 5.324e-4,-0.185393 0.00246,-0.415379 0.00416,-0.511078 l 0.0031,-0.174 0.057866,-0.0028 c 0.031827,-0.0016 0.096447,-0.0028 0.1436028,-0.0028 h 0.085737 v 0.511127 0.511128 l -0.022296,0.0028 c -0.01226,0.0015 -0.078753,0.0028 -0.1477558,0.0028 l -0.1254635,3e-6 z"
       id="path1287" />
    <path
       style="fill:#445500;stroke:none;stroke-width:0.000815623;stroke-miterlimit:4;stroke-dasharray:none;stroke-opacity:1"
       d="m 8.3385743,19.813099 v -0.503643 l 0.1511976,-0.0037 c 0.083159,-0.0021 0.2607799,-0.0049 0.3947139,-0.0065 l 0.2435136,-0.0028 -0.00484,0.504564 c -0.00267,0.277513 -0.00593,0.505683 -0.00723,0.507044 -0.00131,0.0013 -0.176746,0.0039 -0.389866,0.0055 l -0.3874934,0.0031 z"
       id="path1289" />
    <path
       style="fill:#445500;stroke:none;stroke-width:0.000815623;stroke-miterlimit:4;stroke-dasharray:none;stroke-opacity:1"
       d="M 7.6466036,19.935787 C 7.642074,19.727249 7.6364301,19.50226 7.6340767,19.435808 l -0.00429,-0.120824 0.1692191,-0.0019 c 0.093071,-0.0011 0.170748,-0.0011 0.1726169,1.65e-4 0.00324,0.002 0.018627,0.704902 0.019817,0.905679 l 5.349e-4,0.09597 H 7.8233925 7.6548109 Z"
       id="path1291" />
    <path
       style="fill:#445500;stroke:none;stroke-width:0.000576736;stroke-miterlimit:4;stroke-dasharray:none;stroke-opacity:1"
       d="m 13.053487,20.319149 -0.144531,-0.0012 0.0017,-0.07002 c 0.0029,-0.118794 0.01589,-0.855153 0.01588,-0.899525 l -1.3e-5,-0.04188 0.173851,0.003 c 0.09562,0.0017 0.174787,0.0039 0.175938,0.0049 10e-4,0.0011 -0.0036,0.220804 -0.01056,0.488312 -0.0069,0.267507 -0.01261,0.493888 -0.01256,0.503063 l 7.6e-5,0.01669 -0.02763,-0.001 c -0.0152,-5.63e-4 -0.09267,-0.0016 -0.172159,-0.0023 z"
       id="path1295" />
    <path
       style="fill:#445500;stroke:none;stroke-width:0.000576736;stroke-miterlimit:4;stroke-dasharray:none;stroke-opacity:1"
       d="m 11.909548,20.3147 -0.120832,-0.0012 -0.0028,-0.06333 c -0.0015,-0.03483 -0.0039,-0.199499 -0.0053,-0.365926 -0.0013,-0.166424 -0.0039,-0.367438 -0.0056,-0.446697 l -0.0031,-0.144111 0.239749,0.0028 c 0.131864,0.0016 0.311646,0.004 0.399519,0.0056 l 0.159769,0.0028 v 0.506707 0.506705 l -0.27029,-0.0011 c -0.148656,-5.58e-4 -0.324661,-0.0016 -0.391118,-0.0023 z"
       id="path1297" />
    <path
       style="fill:#445500;stroke:none;stroke-width:0.000576736;stroke-miterlimit:4;stroke-dasharray:none;stroke-opacity:1"
       d="m 11.105402,19.799031 v -0.514554 l 0.145354,0.0033 c 0.07994,0.0018 0.145617,0.0036 0.145937,0.0039 4.53e-4,4e-4 0.0017,0.230453 0.003,0.511294 l 0.0024,0.510621 h -0.148357 -0.148393 z"
       id="path1299" />
    <path
       style="fill:#a21189;stroke:none;stroke-width:0.00081562;stroke-miterlimit:4;stroke-dasharray:none;stroke-opacity:1;fill-opacity:0.90196079"
       d="m 11.229734,11.724538 v -0.320236 l 0.164791,-0.0039 c 0.09063,-0.0022 0.418283,-0.0046 0.728109,-0.0054 l 0.563324,-0.0015 -0.0044,0.103267 c -0.0023,0.05679 -0.0043,0.203346 -0.0043,0.325665 v 0.222404 h -0.72372 -0.72371 z"
       id="path1301" />
    <path
       style="fill:#e619c4;stroke:none;stroke-width:0.00163125;stroke-miterlimit:4;stroke-dasharray:none;stroke-opacity:1;fill-opacity:0.89999998"
       d="M 9.3668347,16.674965 C 9.3591137,16.654853 8.8618648,15.389546 8.2618213,13.863168 7.6617768,12.336788 7.1682179,11.078786 7.1650219,11.067609 7.1608575,11.053034 7.4216888,10.856295 8.0869307,10.372228 L 9.0146502,9.697169 h 1.4110648 1.411062 l 0.927524,0.675035 c 0.510139,0.371267 0.926077,0.681358 0.924305,0.689088 -0.0017,0.0078 -0.500883,1.279902 -1.109141,2.827047 l -1.10592,2.812993 -0.263536,-1.67e-4 c -0.144944,-8.3e-5 -0.413374,-0.0021 -0.596511,-0.0045 -0.183137,-0.0023 -0.535401,-3.7e-5 -0.7828085,0.0053 l -0.4498319,0.0097 z m 0.3852198,-3.902087 0.1646665,-0.0075 0.00653,-0.178434 0.00654,-0.178434 0.063837,-0.08031 c 0.148753,-0.187107 0.215116,-0.376578 0.216187,-0.617203 0.0014,-0.313202 -0.111025,-0.557367 -0.3544064,-0.769759 -0.3492984,-0.304823 -0.8612724,-0.368065 -1.295348,-0.160008 -0.2550971,0.12227 -0.4504125,0.337903 -0.5454184,0.602156 -0.041124,0.114383 -0.043142,0.12927 -0.043563,0.321316 -3.727e-4,0.199164 9.32e-5,0.202792 0.048209,0.329818 0.053422,0.141042 0.1073233,0.231145 0.2056081,0.343709 0.062831,0.07196 0.064558,0.07623 0.064652,0.159597 5.33e-5,0.04711 0.00408,0.124621 0.00892,0.172236 l 0.00882,0.08658 0.6400397,-0.0081 c 0.3520209,-0.0044 0.7141383,-0.01148 0.8047043,-0.01562 z m 2.5772875,-0.394846 0.186875,-2.3e-5 v -0.113277 -0.113274 h 0.133746 0.133749 l 0.009,-0.266336 c 0.0049,-0.146487 0.009,-0.342807 0.009,-0.436266 v -0.16993 l -0.845284,0.0087 c -0.464904,0.0048 -0.845779,0.01 -0.846387,0.01149 -5.6e-4,0.0015 0.0012,0.193942 0.0039,0.427572 l 0.005,0.424781 h 0.114279 0.114282 v 0.121596 0.121596 l 0.397532,-0.0083 c 0.218643,-0.0045 0.481626,-0.0084 0.584407,-0.0084 z"
       id="path1303" />
    <path
       style="fill:#668000;stroke:none;stroke-width:0.00163125;stroke-miterlimit:4;stroke-dasharray:none;stroke-opacity:1"
       d="m 9.3039808,17.782204 c -0.3004686,-0.0046 -0.5488168,-0.01117 -0.5518853,-0.01442 -0.00307,-0.0033 0.1353195,-0.216264 0.3075317,-0.473356 l 0.3131116,-0.467439 0.2998701,-0.0093 c 0.3971571,-0.01226 1.1077651,-0.01247 1.4959881,-3.98e-4 l 0.312591,0.0097 0.336404,0.467439 0.336405,0.467443 -0.105359,0.008 c -0.169379,0.01276 -2.148263,0.0217 -2.7446572,0.01241 z"
       id="path1305" />
    <path
       style="fill:#e618c4;stroke:none;stroke-width:0.00326251;stroke-miterlimit:4;stroke-dasharray:none;stroke-opacity:1;fill-opacity:0.90196079"
       d="m 8.9087277,17.754509 -0.125804,-0.01493 0.2935432,-0.440512 0.2935427,-0.440513 0.117669,-0.01702 c 0.1477039,-0.02136 1.6738284,-0.02561 1.8574084,-0.0051 l 0.13602,0.01514 0.319209,0.444034 0.319208,0.444033 -0.237775,0.01622 c -0.295788,0.02016 -2.8012963,0.01908 -2.9730213,-0.0013 z"
       id="path1317" />
    <path
       style="fill:#e618c4;stroke:none;stroke-width:0.00163125;stroke-miterlimit:4;stroke-dasharray:none;stroke-opacity:1;fill-opacity:0.90196079"
       d="m 11.922571,17.235068 c -0.179398,-0.249761 -0.328172,-0.462082 -0.330611,-0.471825 -0.0032,-0.01294 2.20291,-5.654267 2.220765,-5.678705 0.0057,-0.0079 0.986385,-0.155714 0.992907,-0.149674 0.0078,0.0071 -2.539719,6.754645 -2.550084,6.754443 -0.0037,-7.1e-5 -0.153577,-0.204481 -0.332977,-0.454239 z"
       id="path1319" />
    <path
       style="fill:#e618c4;stroke:none;stroke-width:0.00163125;stroke-miterlimit:4;stroke-dasharray:none;stroke-opacity:1;fill-opacity:0.90196079"
       d="m 12.86034,10.295129 c -0.508299,-0.3702742 -0.923693,-0.6802508 -0.9231,-0.6888375 0.0039,-0.056692 0.134882,-0.8022222 0.140914,-0.8021396 0.0041,5.71e-5 0.516654,0.3826826 1.138947,0.8502815 1.102654,0.8285506 1.131438,0.8512816 1.131438,0.8935096 0,0.04256 0.0012,0.04333 0.05776,0.04351 0.0522,1.66e-4 0.07187,0.01074 0.204518,0.10999 0.118449,0.08863 0.142041,0.11153 0.122316,0.118747 -0.01879,0.0068 -0.926879,0.149542 -0.944659,0.148413 -0.0022,-8.3e-5 -0.419834,-0.303203 -0.928131,-0.673478 z"
       id="path1321" />
    <path
       style="fill:#e618c4;stroke:none;stroke-width:0.00163125;stroke-miterlimit:4;stroke-dasharray:none;stroke-opacity:1;fill-opacity:0.90196079"
       d="M 9.0340497,9.5560687 C 9.0338014,9.5404918 9.013197,9.352173 8.9882813,9.1375806 8.9633657,8.9229869 8.9437003,8.7466165 8.9445788,8.745644 c 8.801e-4,-9.712e-4 0.3410287,-0.00743 0.7558889,-0.014345 0.5012473,-0.00835 1.0050573,-0.00837 1.5017893,-5.71e-5 0.411124,0.0069 0.749244,0.014011 0.75138,0.015844 0.0022,0.00182 -0.02819,0.190968 -0.06742,0.4203123 l -0.07131,0.416987 H 10.424715 9.0345172 Z"
       id="path1323" />
    <path
       style="fill:#e618c4;stroke:none;stroke-width:0.00230694;stroke-miterlimit:4;stroke-dasharray:none;stroke-opacity:1;fill-opacity:0.90196079"
       d="m 8.6388514,17.654263 c -0.029698,-0.04517 -2.5340715,-6.699732 -2.524652,-6.708455 0.015006,-0.01389 0.8974731,0.128561 0.9167993,0.148001 0.031314,0.03149 2.2299101,5.656966 2.2201298,5.680569 -0.013808,0.03332 -0.5884512,0.893234 -0.5969105,0.893234 -0.00363,0 -0.010539,-0.006 -0.015365,-0.01335 z"
       id="path1325" />
    <path
       style="fill:#e618c4;stroke:none;stroke-width:0.00057674;stroke-miterlimit:4;stroke-dasharray:none;stroke-opacity:1;fill-opacity:0.90196079"
       d="M 6.5936089,10.897945 6.127001,10.821935 6.2810221,10.706201 C 6.4509825,10.57849 6.4404144,10.58407 6.5134569,10.58351 l 0.034658,-3.45e-4 0.00136,-0.03991 0.00136,-0.03991 0.7612879,-0.5719452 c 0.4187106,-0.3145625 0.7649647,-0.571939 0.7694577,-0.571939 0.00449,0 0.00916,-0.00352 0.010379,-0.00782 0.00243,-0.00861 0.7332572,-0.5595623 0.7372921,-0.5558254 0.00136,0.00128 0.023637,0.187191 0.049464,0.4131444 0.034585,0.3025821 0.045544,0.4121402 0.041593,0.4158249 -0.011235,0.010478 -1.8499122,1.3464223 -1.8548927,1.3477273 -0.00287,8.51e-4 -0.2152105,-0.03284 -0.4718446,-0.07464 z"
       id="path1329" />
    <path
       style="fill:#89a02c;stroke:none;stroke-width:0.00115347;stroke-miterlimit:4;stroke-dasharray:none;stroke-opacity:1"
       d="m 6.5629499,10.320193 c -0.006,-0.02489 -0.02702,-0.9419515 -0.021713,-0.9468693 0.00207,-0.00194 0.2988423,-0.00249 0.659439,-0.00122 l 0.6556304,0.00224 -0.4207757,0.3159402 C 6.5282707,10.371513 6.5683431,10.342588 6.5629486,10.320178 Z"
       id="path1331" />
    <path
       style="fill:#89a02c;stroke:none;stroke-width:0.00115347;stroke-miterlimit:4;stroke-dasharray:none;stroke-opacity:1"
       d="M 13.711925,9.867606 C 13.368359,9.6096928 13.08093,9.3930164 13.073191,9.3861045 c -0.01212,-0.010824 0.07621,-0.012572 0.638206,-0.012572 h 0.652279 l -0.0074,0.4071612 c -0.0041,0.2239393 -0.01021,0.4406153 -0.01355,0.4815013 l -0.006,0.07434 z"
       id="path1333" />
    <path
       style="fill:#e618c4;stroke:none;stroke-width:0.00230694;stroke-miterlimit:4;stroke-dasharray:none;stroke-opacity:1;fill-opacity:0.90196079"
       d="m 6.8522398,18.478152 c -0.00926,-0.0232 -0.022618,-0.214396 -0.029664,-0.424875 -0.00705,-0.210479 -0.047005,-1.279778 -0.088793,-2.376223 -0.085283,-2.237711 -0.1059771,-2.88759 -0.091539,-2.874607 0.013563,0.01219 0.3572044,0.907847 0.9663328,2.51862 0.9086632,2.402853 0.962171,2.539666 1.0012449,2.560085 0.047423,0.02478 3.6093905,0.0242 3.6768065,-5.6e-4 0.04038,-0.01486 0.08346,-0.115013 0.339663,-0.789866 1.495557,-3.939351 1.64443,-4.328947 1.65068,-4.319789 0.0041,0.006 -0.0071,0.316775 -0.114694,3.164249 -0.04752,1.257976 -0.08638,2.354278 -0.08637,2.436229 l 1.8e-5,0.149002 -0.293109,-0.01103 c -0.161214,-0.006 -0.975201,-0.02026 -1.808865,-0.03155 -1.440559,-0.01949 -3.8713322,-0.0035 -4.8121484,0.03161 l -0.292709,0.01093 z"
       id="path1335" />
    <path
       style="fill:#e618c4;stroke:none;stroke-width:0.00115347;stroke-miterlimit:4;stroke-dasharray:none;stroke-opacity:1;fill-opacity:0.90196079"
       d="m 6.5565027,10.184273 c -0.00338,-0.08675 -0.00903,-0.3049025 -0.012554,-0.4847882 L 6.5375187,9.3724193 H 7.197646 7.8577733 l -0.031567,0.025125 C 7.7839498,9.4311753 6.7066451,10.237747 6.6260541,10.296089 l -0.063415,0.04591 z"
       id="path1337" />
    <path
       style="fill:#e618c4;stroke:none;stroke-width:0.00163125;stroke-miterlimit:4;stroke-dasharray:none;stroke-opacity:1;fill-opacity:0.90196079"
       d="m 13.734591,9.8844321 c -0.32516,-0.24568 -0.609549,-0.4603307 -0.631975,-0.477002 l -0.04077,-0.030316 0.648964,-8.32e-5 0.648961,-8.32e-5 V 9.551115 c 0,0.2701507 -0.01702,0.782505 -0.02596,0.781245 -0.0044,-5.59e-4 -0.27406,-0.202139 -0.59922,-0.4478181 z"
       id="path1339" />
    <path
       style="fill:#a21189;stroke:none;stroke-width:0.00230694;stroke-miterlimit:4;stroke-dasharray:none;stroke-opacity:1;fill-opacity:0.90196079"
       d="M 9.5291652,7.6573199 V 7.1678351 H 10.451743 11.37432 V 7.6573199 8.1468033 H 10.451743 9.5291652 Z"
       id="path1341" />
    <path
       style="fill:#a21189;stroke:none;stroke-width:0.00230694;stroke-miterlimit:4;stroke-dasharray:none;stroke-opacity:1;fill-opacity:0.90196079"
       d="M 8.9333345,8.4360438 V 8.2536006 h 1.5184085 1.518408 V 8.4360438 8.6184895 H 10.451743 8.9333345 Z"
       id="path1343" />
    <path
       style="fill:#454837;stroke:none;stroke-width:0.000815623;stroke-miterlimit:4;stroke-dasharray:none;stroke-opacity:1"
       d="m 11.463302,12.216382 v -0.06608 h 0.07475 0.07475 v 0.06608 0.06607 h -0.07475 -0.07475 z"
       id="path1349" />
    <path
       style="fill:#454837;stroke:none;stroke-width:0.000815623;stroke-miterlimit:4;stroke-dasharray:none;stroke-opacity:1"
       d="m 11.728324,12.213235 v -0.06293 h 0.186876 0.186875 v 0.05887 0.05888 l -0.04587,0.004 c -0.02522,0.0022 -0.109323,0.004 -0.186875,0.004 l -0.141005,4.4e-5 z"
       id="path1353" />
    <path
       style="fill:#454837;stroke:none;stroke-width:0.000815623;stroke-miterlimit:4;stroke-dasharray:none;stroke-opacity:1"
       d="m 12.217593,12.210087 v -0.05978 h 0.09174 0.09174 v 0.05978 0.05978 h -0.09174 -0.09174 z"
       id="path1355" />
    <path
       style="fill:#454837;stroke:none;stroke-width:0.000815623;stroke-miterlimit:4;stroke-dasharray:none;stroke-opacity:1"
       d="m 9.6047553,12.629835 c 0.077907,-0.03774 0.1227808,-0.06394 0.1715825,-0.100205 l 0.028883,-0.02146 v 0.07909 0.07909 l -0.1376079,-8.4e-5 -0.1376064,-8.3e-5 z"
       id="path1357" />
    <path
       style="fill:#454837;stroke:none;stroke-width:0.000407811;stroke-miterlimit:4;stroke-dasharray:none;stroke-opacity:1"
       d="m 8.408933,12.612021 c -0.00189,-0.0425 -0.00307,-0.07768 -0.00267,-0.07818 3.728e-4,-4.8e-4 0.013263,0.0073 0.028535,0.01749 0.068217,0.04525 0.1546498,0.08963 0.2271675,0.116624 l 0.041737,0.01554 -0.085905,0.0019 c -0.04725,10e-4 -0.1128062,0.0023 -0.1456808,0.0029 l -0.059773,10e-4 z"
       id="path1359" />
    <path
       style="fill:#22241c;stroke:none;stroke-width:0.00326251;stroke-miterlimit:4;stroke-dasharray:none;stroke-opacity:1"
       d="m 15.343161,21.830936 c 0.0073,-0.377268 0.04326,-3.733036 0.07984,-7.457261 0.03658,-3.724225 0.07423,-7.1819392 0.08369,-7.6838102 l 0.01717,-0.9124922 h 0.146331 0.146334 l -3.54e-4,0.4593921 c -7.8e-5,0.2526665 -0.03671,3.8236563 -0.08128,7.9355323 -0.04457,4.111878 -0.08117,7.671539 -0.08131,7.910362 l -3.46e-4,0.434221 h -0.161804 -0.1618 z"
       id="path1361" />
    <path
       style="fill:#22241c;stroke:none;stroke-width:0.00326251;stroke-miterlimit:4;stroke-dasharray:none;stroke-opacity:1"
       d="M 5.2492322,21.344444 C 5.2393879,20.697203 5.2015909,17.22816 5.1652404,13.63546 5.1288888,10.04276 5.0950658,6.8059305 5.0900792,6.442507 L 5.08102,5.7817366 H 5.2387386 5.3964612 L 5.39669,6.0775101 c 1.099e-4,0.1626748 0.036719,3.682691 0.081303,7.8222569 0.044583,4.139568 0.081171,7.772858 0.081303,8.073981 l 2.282e-4,0.547494 H 5.4133143 5.2671065 Z"
       id="path1363" />
  </g>
</svg>
